<?xml version="1.0" standalone="no"?>
<!DOCTYPE svg PUBLIC "-//W3C//DTD SVG 1.1//EN" "http://www.w3.org/Graphics/SVG/1.1/DTD/svg11.dtd" >
<svg xmlns="http://www.w3.org/2000/svg" xmlns:xlink="http://www.w3.org/1999/xlink" version="1.1">
<metadata>
Created by FontForge 20160407 at Mon Aug 29 18:53:10 2016
 By Jimmy Warting
Copyright (c) 2011-2016 by Josh FInklea. All rights reserved.
</metadata>
<defs>
<font id="PostGrotesk-MediumItalic" horiz-adv-x="600" >
  <font-face 
    font-family="Post Grotesk Medium"
    font-weight="500"
    font-style="italic"
    font-stretch="normal"
    units-per-em="1000"
    panose-1="2 0 0 0 0 0 0 0 0 0"
    ascent="800"
    descent="-200"
    x-height="474"
    cap-height="700"
    bbox="-173 -259 1369 949"
    underline-thickness="50"
    underline-position="-100"
    unicode-range="U+000D-F301"
  />
<missing-glyph horiz-adv-x="768" 
d="M44 700h700v-700h-700v700zM114 70h560v560h-560v-560zM207 113l-50 50l188 187l-188 187l50 50l187 -188l187 188l50 -50l-188 -187l188 -187l-50 -50l-187 188z" />
    <glyph glyph-name="interrobang" unicode="&#x21;&#x3f;" horiz-adv-x="520" 
d="M540 533q0 -66 -38.5 -113t-96.5 -80q-20 -11 -37.5 -21.5t-31.5 -23t-24 -27.5t-14 -35l-6 -28h-82l65 410q-20 -8 -35.5 -21.5t-26.5 -30.5t-18.5 -36.5t-11.5 -38.5l-110 19q26 98 93.5 152t164.5 54q52 0 91.5 -14.5t65.5 -39t39 -57t13 -69.5zM167 62q0 31 19 50
t51 19t51 -19t19 -50q0 -30 -19 -50t-51 -20t-51 20t-19 50zM425 530q0 26 -11.5 50t-40.5 36l-43 -216q18 12 35 24.5t30.5 28t21.5 34.5t8 43z" />
    <glyph glyph-name="f_b" unicode="fb" horiz-adv-x="928" 
d="M139 474l11 63q9 51 27.5 84.5t43.5 54t54 29t61 8.5q31 0 61 -8t47 -25l-55 -84q-10 10 -22 16t-30 6q-32 0 -49 -20t-24 -58l-12 -66h101l-15 -84h-101l-68 -390h-114l69 390h-80l15 84h80zM644 -13q-61 0 -99 25t-53 59l-12 -71h-109l123 700h114l-50 -286
q22 29 58.5 51t87.5 22q42 0 77 -15t59.5 -43t38.5 -67t14 -88q0 -65 -20.5 -117.5t-54.5 -90.5t-79.5 -58.5t-94.5 -20.5zM524 224q-7 -38 -1 -65.5t21.5 -45.5t37.5 -27t47 -9q33 0 60 15t46.5 41.5t30.5 62t11 76.5q0 56 -26 90.5t-80 34.5q-22 0 -44.5 -8t-41.5 -24.5
t-33.5 -43t-21.5 -62.5z" />
    <glyph glyph-name="f_h" unicode="fh" horiz-adv-x="902" 
d="M139 474l11 63q9 51 27.5 84.5t43.5 54t54 29t61 8.5q31 0 61 -8t47 -25l-55 -84q-10 10 -22 16t-30 6q-32 0 -49 -20t-24 -58l-12 -66h101l-15 -84h-101l-68 -390h-114l69 390h-80l15 84h80zM495 700h113l-51 -292q23 33 62 56t88 23q35 0 65 -10t50 -31.5t28 -54.5
t0 -78l-56 -313h-113l52 298q9 52 -13.5 74t-59.5 22q-20 0 -40.5 -9t-38.5 -27.5t-32 -46t-20 -64.5l-44 -247h-114z" />
    <glyph glyph-name="f_k" unicode="fk" horiz-adv-x="872" 
d="M139 474l11 63q9 51 27.5 84.5t43.5 54t54 29t61 8.5q31 0 61 -8t47 -25l-55 -84q-10 10 -22 16t-30 6q-32 0 -49 -20t-24 -58l-12 -66h101l-15 -84h-101l-68 -390h-114l69 390h-80l15 84h80zM576 233l-58 -46l-33 -187h-114l123 700h114l-69 -390l206 164h140l-220 -176
l160 -298h-126z" />
    <glyph glyph-name="fi" unicode="fi" horiz-adv-x="598" 
d="M466 643q0 32 19.5 50.5t50.5 18.5q32 0 51.5 -18.5t19.5 -50.5q0 -29 -19.5 -49t-51.5 -20t-51 20t-19 49zM454 474h113l-83 -474h-114zM139 474l11 63q9 51 27.5 84.5t43 54t53.5 29t61 8.5q28 0 55 -8t43 -25l-50 -84q-8 8 -20.5 15t-29.5 7q-31 0 -46.5 -20
t-22.5 -58l-12 -66h101l-15 -84h-101l-68 -390h-114l69 390h-80l15 84h80z" />
    <glyph glyph-name="fl" unicode="fl" horiz-adv-x="599" 
d="M139 474l11 63q9 51 27.5 84.5t43.5 54t54 29t61 8.5q31 0 61 -8t47 -25l-55 -84q-10 10 -22 16t-30 6q-32 0 -49 -20t-24 -58l-12 -66h101l-15 -84h-101l-68 -390h-114l69 390h-80l15 84h80zM494 700h114l-123 -700h-114z" />
    <glyph glyph-name="interrobangdown" unicode="&#xa1;&#xbf;" horiz-adv-x="518" 
d="M-14 -33q0 66 38.5 113t96.5 80q20 11 37.5 21.5t31.5 23t24 27.5t14 35l6 28h82l-65 -410q20 8 35 21.5t26.5 30.5t19 36.5t11.5 38.5l110 -19q-26 -98 -93.5 -152t-164.5 -54q-53 0 -92 14.5t-65 39t-39 57t-13 69.5zM359 438q0 -31 -19 -50t-51 -19t-51 19t-19 50
q0 30 19 50t51 20t51 -20t19 -50zM101 -30q0 -26 11.5 -50t40.5 -36l43 216q-18 -12 -35 -24.5t-30.5 -28t-21.5 -34.5t-8 -43z" />
    <glyph glyph-name="interrobangdown.cap" unicode="&#xe441;&#xe444;" horiz-adv-x="524" 
d="M21 167q0 66 38.5 113t96.5 80q20 11 37.5 21.5t31.5 23t24 27.5t14 35l6 28h82l-65 -410q20 8 35 21.5t26.5 30.5t19 36.5t11.5 38.5l110 -19q-26 -98 -93.5 -152t-164.5 -54q-53 0 -92 14.5t-65 39t-39 57t-13 69.5zM394 638q0 -31 -19 -50t-51 -19t-51 19t-19 50
q0 30 19 50t51 20t51 -20t19 -50zM136 170q0 -26 11.5 -50t40.5 -36l43 216q-18 -12 -35 -24.5t-30.5 -28t-21.5 -34.5t-8 -43z" />
    <glyph glyph-name="fj" unicode="fj" 
d="M139 474l11 63q9 51 27.5 84.5t43 54t53.5 29t61 8.5q28 0 55 -8t43 -25l-50 -84q-8 8 -20.5 15t-29.5 7q-31 0 -46.5 -20t-22.5 -58l-12 -66h101l-15 -84h-101l-68 -390h-114l69 390h-80l15 84h80zM456 474h113l-92 -528q-14 -83 -63.5 -121t-116.5 -38q-39 0 -70 10.5
t-51 27.5l57 81q10 -9 25 -17t35 -8q29 0 47 19.5t24 51.5zM468 643q0 32 19.5 50.5t50.5 18.5q32 0 51.5 -18.5t19.5 -50.5q0 -29 -19.5 -49t-51.5 -20t-51 20t-19 49z" />
    <glyph glyph-name=".notdef" horiz-adv-x="768" 
d="M44 700h700v-700h-700v700zM114 70h560v560h-560v-560zM207 113l-50 50l188 187l-188 187l50 50l187 -188l187 188l50 -50l-188 -187l188 -187l-50 -50l-187 188z" />
    <glyph glyph-name="NULL" horiz-adv-x="0" 
 />
    <glyph glyph-name="NULL" horiz-adv-x="0" 
 />
    <glyph glyph-name="nonmarkingreturn" unicode="&#xd;" horiz-adv-x="251" 
 />
    <glyph glyph-name="space" unicode=" " horiz-adv-x="225" 
 />
    <glyph glyph-name="exclam" unicode="!" horiz-adv-x="264" 
d="M31 62q0 31 19 50t51 19t51.5 -19t19.5 -50q0 -30 -19.5 -50t-51.5 -20t-51 20t-19 50zM170 209h-95l73 491h122z" />
    <glyph glyph-name="quotedbl" unicode="&#x22;" horiz-adv-x="370" 
d="M112 462l19 238h107l-64 -238h-62zM274 462l19 238h108l-65 -238h-62z" />
    <glyph glyph-name="numbersign" unicode="#" horiz-adv-x="640" 
d="M349 199h-131l-70 -199h-87l70 199h-105l15 85h120l49 139h-106l13 80h122l70 197h87l-70 -197h130l70 197h87l-69 -197h110l-14 -80h-125l-49 -139h112l-15 -85h-127l-71 -199h-87zM248 284h130l49 139h-130z" />
    <glyph glyph-name="dollar" unicode="$" horiz-adv-x="599" 
d="M415 692q78 -14 124 -59.5t54 -113.5l-100 -23q-3 37 -24 68t-69 43l-38 -217q92 -31 136.5 -73t44.5 -113q0 -46 -17 -85t-49.5 -67.5t-79 -45t-106.5 -17.5l-16 -94h-69l17 99q-91 15 -138 68.5t-48 127.5l97 15q0 -12 3 -31t14.5 -38t32 -35t54.5 -23l42 237
q-47 16 -80 34t-54 40.5t-30.5 50t-9.5 62.5q0 42 15 77.5t45.5 62t75.5 41.5t105 15l18 100h69zM437 197q0 35 -21.5 56.5t-70.5 39.5l-39 -218q60 5 95.5 37.5t35.5 84.5zM210 511q0 -35 20.5 -58.5t66.5 -41.5l35 202q-37 -2 -60.5 -12t-37 -25t-19 -32.5t-5.5 -32.5z
" />
    <glyph glyph-name="percent" unicode="%" horiz-adv-x="887" 
d="M134 -13l564 726h101l-564 -726h-101zM83 485q0 38 11 76.5t33.5 69t56.5 50t80 19.5q75 0 113.5 -41.5t38.5 -110.5q0 -41 -12 -80t-35 -69t-56.5 -48.5t-77.5 -18.5q-77 0 -114.5 42t-37.5 111zM328 546q0 37 -16 59.5t-48 22.5q-22 0 -39.5 -11.5t-29.5 -31t-18 -45
t-6 -54.5q0 -37 16 -59.5t48 -22.5q22 0 39.5 11.5t29.5 31t18 45t6 54.5zM508 139q0 38 11 76.5t33.5 69.5t56.5 50.5t80 19.5q75 0 113.5 -41.5t38.5 -111.5q0 -41 -12 -79.5t-35 -68.5t-56.5 -48.5t-77.5 -18.5q-77 0 -114.5 41.5t-37.5 110.5zM753 201q0 37 -16 59.5
t-49 22.5q-22 0 -39 -11.5t-29 -31t-18 -45t-6 -54.5q0 -37 16 -59.5t48 -22.5q22 0 39.5 11.5t29.5 31t18 45t6 54.5z" />
    <glyph glyph-name="ampersand" unicode="&#x26;" horiz-adv-x="649" 
d="M479 0l-34 52q-32 -26 -77 -45.5t-107 -19.5q-116 0 -176 53t-60 140q0 48 16 85.5t42 66t59 49.5t67 37q-20 36 -30 65.5t-10 59.5q0 32 12 62.5t35 54t56.5 38t76.5 14.5q77 0 123.5 -39.5t46.5 -104.5q0 -36 -12.5 -64.5t-34.5 -51t-53 -41t-68 -34.5l112 -171
q17 23 27 51.5t17 61.5l80 -45q-6 -23 -12 -41.5t-14.5 -36t-19 -34.5t-25.5 -36l86 -126h-123zM137 192q0 -54 34.5 -86.5t92.5 -32.5q46 0 79.5 17t50.5 37l-139 214q-19 -7 -39.5 -19.5t-38 -31t-29 -43t-11.5 -55.5zM349 628q-32 0 -55.5 -22.5t-23.5 -62.5t35 -94
q19 7 39 16.5t36.5 23t27 31.5t10.5 43q0 28 -18.5 46.5t-50.5 18.5z" />
    <glyph glyph-name="quotesingle" unicode="'" horiz-adv-x="207" 
d="M112 462l19 238h107l-64 -238h-62z" />
    <glyph glyph-name="parenleft" unicode="(" horiz-adv-x="359" 
d="M70 210q0 94 25.5 183.5t69.5 165t103.5 133t128.5 87.5l51 -54q-69 -41 -119 -99.5t-83 -128.5t-48.5 -148.5t-15.5 -159.5q0 -88 24 -170.5t88 -160.5l-67 -34q-36 30 -65.5 73t-49.5 93t-31 106.5t-11 113.5z" />
    <glyph glyph-name="parenright" unicode=")" horiz-adv-x="358" 
d="M313 393q0 -95 -25.5 -184.5t-70 -165t-104 -133t-128.5 -88.5l-51 53q71 43 121.5 104t82.5 133t47 151t15 158q0 89 -25 167t-87 155l67 34q37 -31 66 -73.5t49.5 -92.5t31.5 -105.5t11 -112.5z" />
    <glyph glyph-name="asterisk" unicode="*" horiz-adv-x="389" 
d="M83 581l35 67l103 -60l24 118l72 -13l-24 -117l113 22l11 -76l-120 -13l56 -106l-68 -34l-48 109l-83 -86l-52 56l89 80z" />
    <glyph glyph-name="plus" unicode="+" 
d="M75 370h202l36 203h91l-36 -203h203l-16 -91h-203l-36 -208h-91l36 208h-202z" />
    <glyph glyph-name="comma" unicode="," horiz-adv-x="278" 
d="M186 39q0 -26 -9 -53t-27.5 -50t-48 -38.5t-70.5 -16.5l-12 51q14 -1 29 3.5t28 13t21.5 21t10.5 27.5q-2 0 -6.5 -0.5t-9.5 -0.5q-26 0 -43.5 18t-17.5 47q0 13 5 26.5t15 24t24.5 17.5t32.5 7q42 0 60 -28t18 -69z" />
    <glyph glyph-name="hyphen" unicode="-" horiz-adv-x="379" 
d="M74 331h264l-15 -86h-265z" />
    <glyph glyph-name="period" unicode="." horiz-adv-x="273" 
d="M106 136q33 0 54 -20t21 -52t-21 -52t-54 -20q-34 0 -54.5 20t-20.5 52t20.5 52t54.5 20z" />
    <glyph glyph-name="slash" unicode="/" horiz-adv-x="408" 
d="M-53 -115l445 869h98l-446 -869h-97z" />
    <glyph glyph-name="zero" unicode="0" 
d="M279 -13q-58 0 -99.5 19t-68.5 53.5t-39.5 83t-12.5 107.5q0 77 16.5 156.5t52 144.5t92.5 106.5t138 41.5q57 0 98.5 -19t68.5 -53.5t39.5 -83t12.5 -107.5q0 -77 -16.5 -156.5t-52 -144.5t-92 -106.5t-137.5 -41.5zM176 252q0 -28 4 -58.5t15.5 -56t32 -42.5t52.5 -17
q50 0 84.5 38.5t55.5 94t30.5 116.5t9.5 107q0 28 -4 58.5t-15.5 56t-31.5 42.5t-52 17q-34 0 -60 -18t-46.5 -47t-34.5 -66.5t-23 -77.5t-13 -78t-4 -69z" />
    <glyph glyph-name="one" unicode="1" 
d="M455 689l-105 -599h152l-16 -90h-432l16 90h164l85 476q-26 -20 -58 -28t-75 -10l-5 91q53 7 98 24t76 46h100z" />
    <glyph glyph-name="two" unicode="2" 
d="M573 511q0 -41 -13 -76t-36.5 -67.5t-55.5 -63.5t-70 -62q-46 -38 -99 -78t-98 -71h304l-16 -93h-458l15 87q56 43 107 83q22 17 45 35.5t45 36t41.5 33.5t34.5 29q31 27 56.5 51.5t43.5 49t28 50t10 54.5q0 45 -24.5 72t-69.5 27q-33 0 -57 -13t-41 -34t-27 -47t-15 -51
l-109 20q12 46 33 85.5t52 68.5t72.5 45.5t92.5 16.5q54 0 93 -15t65 -41t38.5 -60t12.5 -72z" />
    <glyph glyph-name="three" unicode="3" 
d="M426 351q48 -16 73.5 -56.5t25.5 -93.5q0 -41 -16 -79.5t-48 -68.5t-79 -48t-108 -18q-60 0 -102 15.5t-69 41t-40 57t-15 63.5l110 29q2 -21 8 -41.5t19 -37t35 -27t56 -10.5q35 0 60.5 11t42 29t24 40.5t7.5 45.5q0 47 -32 75t-94 28q-6 0 -12 -0.5t-11 -0.5h-11l17 95
q6 -1 11 -1h22q72 0 112 35t40 86q0 44 -28.5 66.5t-70.5 22.5q-51 0 -82 -30t-42 -73l-101 27q8 28 26 57.5t46.5 53.5t67 39.5t86.5 15.5q49 0 88.5 -13.5t67 -36.5t42 -55.5t14.5 -69.5q0 -33 -11 -61t-29.5 -49.5t-44 -37.5t-55.5 -25z" />
    <glyph glyph-name="four" unicode="4" 
d="M542 686l-78 -445h108l-32 -88h-92l-27 -153h-109l27 153h-316l14 87l355 446h150zM355 241l61 345h-2l-273 -345h214z" />
    <glyph glyph-name="five" unicode="5" 
d="M163 190q1 -46 29.5 -79t81.5 -33q32 0 59 13t46.5 35.5t30.5 52.5t11 65q0 52 -27.5 85.5t-80.5 33.5q-43 0 -73.5 -19t-47.5 -49l-95 18l106 373h376l-32 -93h-275l-57 -189q20 21 50 35t68 14q51 0 89 -16t63.5 -44t38 -66t12.5 -81q0 -48 -18 -94.5t-51.5 -83
t-83 -59t-112.5 -22.5q-56 0 -96 16t-66.5 41.5t-39 57t-13.5 62.5z" />
    <glyph glyph-name="six" unicode="6" 
d="M384 609q-43 0 -75.5 -19.5t-57 -53t-41 -78t-26.5 -94.5q10 16 26.5 31.5t38.5 27.5t49 19.5t58 7.5q50 0 87.5 -16.5t63 -45t38 -65.5t12.5 -79q0 -48 -17 -94t-50 -82.5t-80 -58.5t-107 -22q-113 0 -172.5 65.5t-59.5 206.5q0 71 17 148.5t55 142.5t97.5 107t145.5 42
q47 0 83 -12.5t61.5 -34.5t40.5 -51.5t18 -63.5l-107 -16q-2 16 -7.5 31.5t-16.5 28t-29 20.5t-45 8zM331 362q-28 0 -54.5 -10.5t-46.5 -31t-32.5 -50t-12.5 -67.5q0 -55 30 -91t86 -36q28 0 54 11t45.5 32t31.5 52t12 71q0 54 -29 87t-84 33z" />
    <glyph glyph-name="seven" unicode="7" 
d="M161 686h456l-14 -80q-40 -42 -92 -102.5t-102 -137.5t-91 -169t-59 -197h-118q18 100 56.5 191t86 167.5t97.5 137t90 98.5h-343z" />
    <glyph glyph-name="eight" unicode="8" 
d="M356 699q46 0 86 -13t69.5 -36t46 -56.5t16.5 -73.5q0 -33 -11 -61t-30 -50t-44 -37.5t-52 -23.5q21 -8 40 -20.5t33.5 -30.5t23.5 -42t9 -54q0 -47 -19 -86.5t-53.5 -68t-81.5 -44t-103 -15.5q-55 0 -98.5 13.5t-74 38t-47 59t-16.5 76.5q0 35 12 66t33 55.5t50.5 41.5
t64.5 25q-39 17 -63.5 52.5t-24.5 83.5q0 43 18 79.5t49.5 63.5t74 42.5t92.5 15.5zM355 610q-56 0 -89 -33t-33 -85q0 -45 30 -69t76 -24q54 0 88.5 31.5t34.5 84.5q0 46 -31 70.5t-76 24.5zM287 77q66 0 104 35t38 90q0 27 -10.5 47t-28 33t-40.5 19.5t-47 6.5
q-61 0 -100 -35t-39 -93q0 -52 35 -77.5t88 -25.5z" />
    <glyph glyph-name="nine" unicode="9" 
d="M258 77q43 0 76 19.5t57.5 53t41 78t26.5 94.5q-10 -16 -26.5 -31.5t-38.5 -27.5t-49 -19.5t-58 -7.5q-50 0 -87.5 16.5t-63 45t-38 65.5t-12.5 79q0 48 17 94t50 82.5t80 58.5t107 22q113 0 172.5 -66.5t59.5 -205.5q0 -71 -17 -148.5t-55 -142.5t-98 -107t-145 -42
q-47 0 -83.5 12.5t-62 34.5t-40 51.5t-17.5 63.5l107 16q1 -16 6.5 -31.5t17 -28t29.5 -20.5t44 -8zM311 324q28 0 55 10.5t47 31t32.5 50t12.5 67.5q0 54 -30.5 90.5t-85.5 36.5q-29 0 -54.5 -11t-45.5 -32t-31.5 -52t-11.5 -71q0 -54 29 -87t83 -33z" />
    <glyph glyph-name="colon" unicode=":" horiz-adv-x="273" 
d="M106 136q33 0 54 -20t21 -52t-21 -52t-54 -20q-34 0 -54.5 20t-20.5 52t20.5 52t54.5 20zM167 482q33 0 54 -20t21 -52t-21 -52t-54 -20t-54 20t-21 52t21 52t54 20z" />
    <glyph glyph-name="semicolon" unicode=";" horiz-adv-x="278" 
d="M169 482q34 0 54.5 -20t20.5 -52t-20.5 -52t-54.5 -20q-33 0 -53.5 20t-20.5 52t20.5 52t53.5 20zM186 39q0 -26 -9 -53t-27.5 -50t-48 -38.5t-70.5 -16.5l-12 51q14 -1 29 3.5t28 13t21.5 21t10.5 27.5q-2 0 -6.5 -0.5t-9.5 -0.5q-26 0 -43.5 18t-17.5 47q0 13 5 26.5
t15 24t24.5 17.5t32.5 7q42 0 60 -28t18 -69z" />
    <glyph glyph-name="less" unicode="&#x3c;" 
d="M57 277l16 95l535 224l-20 -113l-408 -164l350 -164l-18 -102z" />
    <glyph glyph-name="equal" unicode="=" 
d="M91 463h496l-16 -91h-495zM58 274h496l-16 -91h-496z" />
    <glyph glyph-name="greater" unicode="&#x3e;" 
d="M574 373l-16 -96l-535 -223l20 112l408 164l-350 165l18 101z" />
    <glyph glyph-name="question" unicode="?" horiz-adv-x="520" 
d="M165 62q0 31 19.5 50t51.5 19t51.5 -19t19.5 -49q0 -31 -19.5 -51t-51.5 -20t-51.5 20t-19.5 50zM189 205l6 35q10 58 44 95t87 70q17 11 34 23t31 27t23 33t9 42q0 39 -25.5 65.5t-71.5 26.5q-29 0 -52.5 -11t-41.5 -29.5t-30 -43t-18 -51.5l-111 20q26 97 90.5 151.5
t166.5 54.5q53 0 92.5 -14.5t65.5 -39t39 -57t13 -68.5q0 -40 -13.5 -71t-34 -55t-44 -41t-42.5 -29q-44 -27 -68.5 -51.5t-29.5 -54.5l-5 -27h-114z" />
    <glyph glyph-name="at" unicode="@" horiz-adv-x="960" 
d="M635 471h88l-76 -267l-3.5 -14t-1.5 -14q0 -20 11 -31t31 -11q28 0 56 16.5t50.5 47t37 74.5t14.5 99q0 62 -19.5 110.5t-56 82.5t-87.5 51.5t-114 17.5q-84 0 -159.5 -30.5t-132.5 -85.5t-90.5 -132t-33.5 -171q0 -79 24.5 -137.5t67 -97.5t101 -58t127.5 -19
q45 0 84.5 7.5t73.5 20.5t64 30t57 35l44 -76q-25 -18 -58 -36t-74.5 -32t-91 -23t-107.5 -9q-98 0 -174.5 27t-129.5 77.5t-80.5 123.5t-27.5 165q0 115 42.5 208t114 158.5t165 101t194.5 35.5q88 0 158 -25.5t118.5 -71t74 -108t25.5 -135.5q0 -64 -20 -122.5t-56 -102.5
t-85.5 -70.5t-109.5 -26.5q-53 0 -75 23.5t-26 52.5q-26 -38 -66 -57t-78 -19q-64 0 -103.5 44.5t-39.5 123.5q0 54 18.5 101t50 82t72 55.5t84.5 20.5q42 0 72 -17t41 -48zM579 279q8 29 5.5 51.5t-12 37.5t-26 23t-36.5 8q-26 0 -49.5 -14.5t-41.5 -38.5t-28.5 -55.5
t-10.5 -65.5q0 -41 16 -65.5t50 -24.5q19 0 38.5 7.5t36 22t29.5 35.5t20 47z" />
    <glyph glyph-name="A" unicode="A" horiz-adv-x="661" 
d="M602 0h-118l-30 176h-265l-93 -176h-121l377 700h120zM388 563q-5 -10 -13.5 -27.5t-20 -40t-24.5 -48t-26 -50.5q-31 -59 -66 -128h200q-12 69 -22 128q-4 25 -8 50.5t-8 48t-6.5 40t-3.5 27.5h-2z" />
    <glyph glyph-name="B" unicode="B" horiz-adv-x="642" 
d="M162 700h268q45 0 80 -12.5t58.5 -34.5t35.5 -52.5t12 -66.5q0 -38 -12.5 -67.5t-32 -51t-45 -35t-50.5 -19.5q23 -5 44 -15.5t36.5 -28.5t25 -43t9.5 -58q0 -47 -20.5 -87t-55.5 -68.5t-82.5 -44.5t-102.5 -16h-291zM172 96h129q51 0 83.5 10.5t52 28t27 39t7.5 43.5
q0 51 -33 73t-102 22h-127zM261 605l-34 -200h118q74 0 111.5 30t37.5 86q0 44 -25 64t-82 20h-126z" />
    <glyph glyph-name="C" unicode="C" horiz-adv-x="689" 
d="M424 615q-54 0 -97.5 -25.5t-74.5 -69.5t-47.5 -102t-16.5 -123q0 -43 10.5 -81.5t32 -67t55 -45t78.5 -16.5q59 0 100.5 33.5t69.5 93.5l111 -41q-41 -85 -111.5 -134.5t-171.5 -49.5q-70 0 -125 21t-93.5 61t-58.5 96.5t-20 127.5q0 86 25 162.5t72 133.5t114 90.5
t152 33.5q113 0 183 -49t91 -138l-114 -40q-11 59 -50 94t-114 35z" />
    <glyph glyph-name="D" unicode="D" horiz-adv-x="711" 
d="M162 700h238q66 0 118.5 -19.5t90 -56t57.5 -89t20 -117.5q0 -98 -27.5 -175.5t-79 -131.5t-125 -82.5t-164.5 -28.5h-251zM563 418q0 88 -46.5 136.5t-142.5 48.5h-110l-89 -506h122q66 0 116 25t83.5 68.5t50 102t16.5 125.5z" />
    <glyph glyph-name="E" unicode="E" horiz-adv-x="575" 
d="M39 0l123 700h443l-16 -97h-326l-35 -194h304l-17 -97h-304l-38 -215h332l-17 -97h-449z" />
    <glyph glyph-name="F" unicode="F" horiz-adv-x="561" 
d="M39 0l123 700h445l-17 -97h-327l-35 -194h304l-17 -97h-304l-55 -312h-117z" />
    <glyph glyph-name="G" unicode="G" horiz-adv-x="735" 
d="M64 293q0 82 24.5 158t71.5 134.5t115 93t154 34.5q110 0 180.5 -47t94.5 -135l-114 -38q-13 57 -53 90t-111 33q-53 0 -97.5 -25t-76 -68.5t-49 -103t-17.5 -128.5q0 -95 43.5 -151t132.5 -56q33 0 64 9.5t56 28.5t42.5 47t23.5 65l6 39h-189l16 93h304l-65 -366h-108
l13 73q-12 -16 -29.5 -31.5t-41 -27.5t-53 -19.5t-63.5 -7.5q-68 0 -119 24t-85.5 65.5t-52 97t-17.5 119.5z" />
    <glyph glyph-name="H" unicode="H" horiz-adv-x="701" 
d="M162 700h118l-50 -290h303l50 290h118l-123 -700h-118l55 312h-303l-55 -312h-118z" />
    <glyph glyph-name="I" unicode="I" horiz-adv-x="280" 
d="M162 700h118l-123 -700h-118z" />
    <glyph glyph-name="J" unicode="J" horiz-adv-x="461" 
d="M62 144q20 -29 40 -44.5t52 -15.5q48 0 72.5 37t37.5 110l83 469h118l-83 -469q-9 -53 -24 -97.5t-40.5 -77t-64.5 -51t-98 -18.5q-74 0 -116 24t-65 59z" />
    <glyph glyph-name="K" unicode="K" horiz-adv-x="644" 
d="M285 335l-82 -75l-46 -260h-118l123 700h118l-50 -290l315 290h143l-310 -285l210 -415h-135z" />
    <glyph glyph-name="L" unicode="L" horiz-adv-x="527" 
d="M162 700h118l-106 -603h308l-17 -97h-426z" />
    <glyph glyph-name="M" unicode="M" horiz-adv-x="877" 
d="M343 0q-9 45 -23 116t-28.5 149t-27 152t-19.5 125h-2l-96 -542h-108l123 700h157q25 -137 46 -251q9 -49 18 -97.5t16.5 -90.5t13 -73.5t7.5 -45.5q7 14 23.5 45.5t38 73.5t47 90.5t51.5 97.5q60 114 131 251h166l-123 -700h-109l96 542h-2q-17 -34 -41.5 -81
t-52.5 -99.5t-57.5 -106.5t-56 -103t-48 -89t-34.5 -63h-106z" />
    <glyph glyph-name="N" unicode="N" horiz-adv-x="726" 
d="M162 700h121q53 -115 100 -216q20 -43 40.5 -87.5t39 -85t34 -74.5t25.5 -55h2l91 518h111l-123 -700h-121q-52 112 -98 212q-20 43 -40.5 87.5t-39 85t-34.5 75.5t-26 58h-2l-92 -518h-111z" />
    <glyph glyph-name="O" unicode="O" horiz-adv-x="744" 
d="M65 292q0 87 25 163.5t71.5 133.5t114 90.5t151.5 33.5q67 0 121 -21t92 -60.5t58.5 -96t20.5 -127.5q0 -87 -25 -163.5t-71.5 -133.5t-114 -90.5t-151.5 -33.5q-67 0 -121 21t-92 60.5t-58.5 96t-20.5 127.5zM187 293q0 -43 10.5 -81t32 -66.5t54.5 -45t78 -16.5
q60 0 104.5 30.5t73.5 78t43 104.5t14 110q0 43 -10.5 81t-32 66.5t-55 45t-78.5 16.5q-60 0 -104 -30.5t-73 -78t-43 -104.5t-14 -110z" />
    <glyph glyph-name="P" unicode="P" horiz-adv-x="623" 
d="M204 266l-47 -266h-118l123 700h248q106 0 167 -46.5t61 -143.5q0 -63 -22.5 -109t-61.5 -76t-93 -44.5t-117 -14.5h-140zM518 504q0 53 -33.5 76t-106.5 23h-115l-42 -241h116q93 0 137 36.5t44 105.5z" />
    <glyph glyph-name="Q" unicode="Q" horiz-adv-x="744" 
d="M65 292q0 87 25 163.5t71.5 133.5t114 90.5t151.5 33.5q67 0 121 -21t92 -60.5t58.5 -96t20.5 -127.5q0 -112 -40 -204.5t-115 -149.5l52 -70l-75 -56l-60 80q-28 -10 -59 -15.5t-65 -5.5q-67 0 -121 21t-92 60.5t-58.5 96t-20.5 127.5zM187 293q0 -43 10.5 -81t32 -66.5
t54.5 -45t78 -16.5q30 0 57 8l-58 80l75 56l63 -87q25 24 43.5 56t30.5 67t18 71.5t6 71.5q0 43 -10.5 81t-32 66.5t-55 45t-78.5 16.5q-60 0 -104 -30.5t-73 -78t-43 -104.5t-14 -110z" />
    <glyph glyph-name="R" unicode="R" horiz-adv-x="643" 
d="M631 519q0 -42 -13.5 -78.5t-38.5 -65.5t-60 -48.5t-78 -28.5l121 -298h-126l-112 287h-117l-51 -287h-117l123 700h248q41 0 81 -9.5t71 -31t50 -56t19 -84.5zM510 514q0 50 -33 69.5t-101 19.5h-113l-39 -221h122q43 0 74.5 11t51 29t29 42t9.5 50z" />
    <glyph glyph-name="S" unicode="S" horiz-adv-x="640" 
d="M310 312q-55 15 -92.5 32.5t-61 40t-33.5 51t-10 65.5q0 48 19 87.5t53.5 67t82 42.5t104.5 15q61 0 109 -15t81 -41.5t51 -62.5t21 -79l-120 -23q1 57 -35 91.5t-111 34.5q-63 0 -98 -27.5t-35 -75.5q0 -23 8.5 -39t25.5 -28t43 -21.5t62 -19.5q52 -14 91.5 -30.5
t66.5 -39t40.5 -53.5t13.5 -73q0 -50 -20 -91t-56.5 -70.5t-88 -46t-114.5 -16.5q-71 0 -122 18.5t-84 49t-48.5 70t-14.5 81.5l117 17q-1 -26 6.5 -51t25.5 -45t48.5 -32.5t75.5 -12.5q31 0 58.5 7t48.5 21.5t33 36.5t12 53q0 21 -7.5 37t-25 28.5t-47 23.5t-73.5 23z" />
    <glyph glyph-name="T" unicode="T" horiz-adv-x="570" 
d="M102 700h528l-17 -97h-205l-106 -603h-118l106 603h-205z" />
    <glyph glyph-name="U" unicode="U" horiz-adv-x="687" 
d="M198 261q-6 -35 -4.5 -66.5t14.5 -56.5t39.5 -39.5t69.5 -14.5q45 0 76 14.5t52 39t33 55.5t18 64l78 443h118l-80 -451q-23 -134 -95.5 -198t-201.5 -64q-74 0 -124 19.5t-78.5 55t-36.5 85t3 108.5l79 445h117z" />
    <glyph glyph-name="V" unicode="V" horiz-adv-x="661" 
d="M312 146q15 30 35.5 70t43.5 85t47.5 92t48.5 91q55 104 115 216h125l-382 -700h-116l-132 700h121q20 -112 38 -216q7 -44 15 -91t15.5 -91.5t13.5 -84.5t10 -71h2z" />
    <glyph glyph-name="W" unicode="W" horiz-adv-x="926" 
d="M992 700l-309 -700h-130q-9 111 -16 210q-3 42 -6.5 86.5t-6.5 85.5t-5 76.5t-3 60.5h-3q-10 -25 -25 -60.5t-32.5 -76.5t-37 -85.5t-37.5 -86.5q-43 -99 -92 -210h-130l-62 700h115q9 -120 17 -227q3 -46 6.5 -93.5t6 -91t4 -81l2.5 -62.5h2q10 25 25.5 62.5t34 81
t39 91t40.5 93.5q47 107 99 227h111q10 -122 18 -230q3 -46 6.5 -94t6.5 -91.5t5 -79.5t3 -60h3q9 24 24.5 60t33.5 79.5t38.5 91.5t40.5 94q47 108 99 230h115z" />
    <glyph glyph-name="X" unicode="X" horiz-adv-x="691" 
d="M259 700l123 -239l206 239h142l-297 -337l193 -363h-134l-142 269l-234 -269h-142l324 369l-174 331h135z" />
    <glyph glyph-name="Y" unicode="Y" horiz-adv-x="658" 
d="M280 300l-189 400h129l135 -292l237 292h137l-331 -400l-52 -300h-119z" />
    <glyph glyph-name="Z" unicode="Z" horiz-adv-x="626" 
d="M136 700h527l-15 -88l-479 -515h384l-17 -97h-536l14 87l481 516h-376z" />
    <glyph glyph-name="bracketleft" unicode="[" horiz-adv-x="324" 
d="M172 762h214l-14 -80h-111l-132 -749h111l-14 -80h-214z" />
    <glyph glyph-name="backslash" unicode="\" horiz-adv-x="401" 
d="M242 -115l-140 869h89l139 -869h-88z" />
    <glyph glyph-name="bracketright" unicode="]" horiz-adv-x="324" 
d="M-38 -147l14 80h111l133 749h-111l13 80h214l-160 -909h-214z" />
    <glyph glyph-name="asciicircum" unicode="^" horiz-adv-x="549" 
d="M525 353h-107l-77 241l-164 -241h-111l243 347h96z" />
    <glyph glyph-name="underscore" unicode="_" horiz-adv-x="484" 
d="M-43 -56h466l-13 -75h-466z" />
    <glyph glyph-name="grave" unicode="`" 
d="M315 723l169 -134l-44 -56l-187 110z" />
    <glyph glyph-name="a" unicode="a" horiz-adv-x="512" 
d="M312 0q-2 8 -3.5 24t2.5 37q-22 -33 -59.5 -53.5t-83.5 -20.5q-32 0 -59.5 8t-48 24t-32.5 41t-12 58q0 49 26.5 81.5t72.5 52t106 27.5t128 8l5 30q6 38 -10 61.5t-63 23.5q-46 0 -72 -22.5t-30 -51.5l-108 16q9 36 29.5 63t49.5 45t64.5 26.5t74.5 8.5q46 0 82 -12
t59 -35.5t32 -57.5t1 -78l-43 -240q-4 -23 -3.5 -36t4.5 -28h-109zM204 71q22 0 42.5 7.5t37.5 21.5t29 33.5t16 42.5l6 37q-46 0 -84 -4t-65.5 -13.5t-42.5 -25.5t-15 -40q0 -59 76 -59z" />
    <glyph glyph-name="b" unicode="b" horiz-adv-x="587" 
d="M303 -13q-61 0 -99 25t-53 59l-12 -71h-109l123 700h114l-50 -286q22 29 58.5 51t87.5 22q42 0 77 -15t59.5 -43t38.5 -67t14 -88q0 -65 -20.5 -117.5t-54.5 -90.5t-79.5 -58.5t-94.5 -20.5zM183 224q-7 -38 -1 -65.5t21.5 -45.5t37.5 -27t47 -9q33 0 60 15t46.5 41.5
t30.5 62t11 76.5q0 56 -26 90.5t-80 34.5q-22 0 -44.5 -8t-41.5 -24.5t-33.5 -43t-21.5 -62.5z" />
    <glyph glyph-name="c" unicode="c" horiz-adv-x="509" 
d="M35 202q0 54 17.5 105.5t51.5 91t82.5 64t110.5 24.5q46 0 80.5 -11t58.5 -30t38.5 -45t20.5 -56l-107 -28q-5 40 -29 60.5t-66 20.5q-35 0 -61.5 -17.5t-44 -46t-26.5 -63.5t-9 -69q0 -26 5.5 -48.5t18 -39.5t31.5 -27t46 -10q42 0 65.5 20.5t39.5 55.5l101 -39
q-30 -55 -80 -91t-129 -36q-49 0 -88.5 14.5t-67.5 42.5t-43.5 68t-15.5 90z" />
    <glyph glyph-name="d" unicode="d" horiz-adv-x="588" 
d="M365 0l12 69q-20 -31 -58.5 -56.5t-93.5 -25.5q-43 0 -78 15t-60 42.5t-38.5 67t-13.5 88.5q0 64 20.5 117t54.5 91t79 58.5t95 20.5q59 0 96 -22.5t53 -52.5l51 288h113l-123 -700h-109zM405 251q7 40 0 67.5t-22.5 45t-37.5 25.5t-46 8q-33 0 -60 -15t-46.5 -41.5
t-30.5 -62t-11 -76.5q0 -56 26 -90.5t80 -34.5q22 0 44.5 8t41.5 24.5t34 43t22 64.5z" />
    <glyph glyph-name="e" unicode="e" horiz-adv-x="524" 
d="M457 102q-32 -54 -84.5 -84.5t-124.5 -30.5q-99 0 -156 54.5t-57 154.5q0 62 19.5 115t54 92t82 61.5t103.5 22.5q61 0 103 -20.5t66 -54.5t30.5 -79t-1.5 -93q-1 -5 -2 -9.5t-2 -9.5l-2 -10h-338q-3 -27 0 -52t15 -44.5t33 -31t54 -11.5q44 0 69.5 20t44.5 50zM292 404
q-52 0 -84.5 -33t-46.5 -85h224q8 57 -17.5 87.5t-75.5 30.5z" />
    <glyph glyph-name="f" unicode="f" horiz-adv-x="340" 
d="M139 474l11 60q9 50 28.5 84t45 55t55.5 30.5t60 9.5q44 0 76 -12t49 -30l-58 -83q-9 12 -24 21.5t-38 9.5q-30 0 -51 -19t-29 -64l-12 -62h107l-15 -84h-107l-68 -390h-114l69 390h-80l15 84h80z" />
    <glyph glyph-name="g" unicode="g" horiz-adv-x="587" 
d="M476 21q-20 -114 -84 -174t-176 -60q-93 0 -143 33t-67 88l105 39q5 -15 12.5 -28.5t19.5 -23.5t30 -15.5t45 -5.5q34 0 59 12t42 32.5t27.5 47t16.5 56.5l10 54q-21 -27 -58 -48t-88 -21q-43 0 -78.5 14.5t-60.5 40.5t-38.5 63.5t-13.5 84.5q0 61 20 112t54 88t78.5 57
t94.5 20q61 0 99 -24.5t53 -58.5l12 70h109zM404 252q6 38 -0.5 65.5t-22 45t-37.5 26t-46 8.5q-33 0 -59.5 -14.5t-46 -39.5t-30 -59t-10.5 -72q0 -51 26 -83t79 -32q22 0 45 7t42.5 23t34 40t20.5 59z" />
    <glyph glyph-name="h" unicode="h" horiz-adv-x="561" 
d="M154 700h113l-51 -292q23 33 62 56t88 23q35 0 65 -10t50 -31.5t28 -54.5t0 -78l-56 -313h-113l52 298q9 52 -13.5 74t-59.5 22q-20 0 -40.5 -9t-38.5 -27.5t-32 -46t-20 -64.5l-44 -247h-114z" />
    <glyph glyph-name="i" unicode="i" horiz-adv-x="258" 
d="M126 643q0 32 19.5 50.5t50.5 18.5q32 0 51.5 -18.5t19.5 -50.5q0 -29 -19.5 -49t-51.5 -20t-51 20t-19 49zM114 474h113l-83 -474h-114z" />
    <glyph glyph-name="j" unicode="j" horiz-adv-x="260" 
d="M116 474h113l-92 -528q-14 -83 -63.5 -121t-116.5 -38q-39 0 -70 10.5t-51 27.5l57 81q10 -9 25 -17t35 -8q29 0 47 19.5t24 51.5zM128 643q0 32 19.5 50.5t50.5 18.5q32 0 51.5 -18.5t19.5 -50.5q0 -29 -19.5 -49t-51.5 -20t-51 20t-19 49z" />
    <glyph glyph-name="k" unicode="k" horiz-adv-x="531" 
d="M235 233l-58 -46l-33 -187h-114l123 700h114l-69 -390l206 164h140l-220 -176l160 -298h-126z" />
    <glyph glyph-name="l" unicode="l" horiz-adv-x="258" 
d="M153 700h114l-123 -700h-114z" />
    <glyph glyph-name="m" unicode="m" horiz-adv-x="831" 
d="M433 0h-113l52 298q9 52 -11.5 74t-51.5 22q-18 0 -37 -9t-35.5 -27t-30 -45.5t-19.5 -64.5l-43 -248h-114l84 474h108l-12 -73q25 40 62 63t84 23q50 0 81.5 -22.5t43.5 -63.5q23 35 66.5 60.5t97.5 25.5q33 0 61 -10t46.5 -31.5t26 -54.5t-0.5 -78l-55 -313h-114
l52 298q9 52 -11.5 74t-51.5 22q-18 0 -36.5 -9t-35 -27t-30 -45.5t-19.5 -64.5z" />
    <glyph glyph-name="n" unicode="n" horiz-adv-x="561" 
d="M114 474h108l-12 -73q27 39 66.5 62.5t88.5 23.5q35 0 65 -10t50 -31.5t28 -54.5t0 -78l-55 -313h-114l53 297q9 53 -14 75t-60 22q-19 0 -39.5 -9t-38.5 -27.5t-32 -46t-21 -64.5l-43 -247h-114z" />
    <glyph glyph-name="o" unicode="o" horiz-adv-x="554" 
d="M519 271q0 -54 -18 -105.5t-52.5 -91t-83.5 -63.5t-112 -24q-50 0 -90 14.5t-68.5 42.5t-44 68t-15.5 90q0 54 18 105.5t52.5 91t83.5 64t111 24.5q49 0 89 -15t69 -43t45 -68t16 -90zM257 74q36 0 63.5 18t46 47t28 64.5t9.5 70.5q0 25 -6 48t-19 40.5t-33.5 27.5
t-48.5 10q-36 0 -63.5 -18t-46 -47t-27.5 -64.5t-9 -70.5q0 -26 6 -48.5t19 -40t33 -27.5t48 -10z" />
    <glyph glyph-name="p" unicode="p" horiz-adv-x="587" 
d="M-5 -200l119 674h108l-12 -68q20 30 59 55.5t94 25.5q42 0 77 -15t59.5 -43t38.5 -67t14 -88q0 -65 -20.5 -117.5t-54.5 -90.5t-79 -58.5t-94 -20.5q-60 0 -96.5 22t-52.5 52l-46 -261h-114zM182 222q-7 -39 -0.5 -66.5t22 -45t38 -25.5t46.5 -8q33 0 60 15t46.5 41.5
t30.5 62t11 76.5q0 56 -26 90.5t-80 34.5q-23 0 -45 -8t-41.5 -25t-34 -43.5t-21.5 -63.5z" />
    <glyph glyph-name="q" unicode="q" horiz-adv-x="587" 
d="M284 487q61 0 99 -24.5t53 -58.5l12 70h109l-119 -674h-113l45 261q-21 -29 -57.5 -51.5t-87.5 -22.5q-43 0 -78 15t-60 42.5t-38.5 67t-13.5 88.5q0 64 20.5 117t54.5 91t79 58.5t95 20.5zM405 251q6 37 0 64.5t-21.5 45.5t-37.5 27t-47 9q-33 0 -60 -15t-46.5 -41.5
t-30.5 -62t-11 -76.5q0 -56 26 -90.5t80 -34.5q22 0 44.5 8t42 25t34 43.5t21.5 63.5z" />
    <glyph glyph-name="r" unicode="r" horiz-adv-x="383" 
d="M378 373q-9 9 -22 12.5t-29 3.5q-20 0 -42 -9t-41.5 -27.5t-35 -47t-22.5 -67.5l-42 -238h-114l84 474h106l-13 -78q22 42 60 66.5t89 24.5q15 0 31.5 -3t30.5 -10z" />
    <glyph glyph-name="s" unicode="s" horiz-adv-x="472" 
d="M272 280q70 -17 109 -47t39 -88q0 -36 -15 -65t-42.5 -50t-66 -32t-84.5 -11q-36 0 -71.5 7t-63 24.5t-45 46t-18.5 71.5l106 15q-1 -23 7 -38.5t21.5 -25t30.5 -13.5t35 -4q43 0 67.5 17t24.5 46t-25 41.5t-73 24.5q-69 17 -106.5 47t-37.5 88q0 38 16 66.5t43 48t63 29
t76 9.5q87 0 138 -36.5t52 -99.5l-105 -20q-1 34 -22.5 54t-63.5 20q-36 0 -59.5 -15t-23.5 -44q0 -28 24 -41t70 -25z" />
    <glyph glyph-name="t" unicode="t" horiz-adv-x="358" 
d="M296 4q-20 -8 -45 -12.5t-48 -4.5q-72 0 -104.5 38t-21.5 101l46 264h-79l15 84h79l24 136l123 51l-33 -187h106l-15 -84h-106l-45 -259q-5 -29 4.5 -40t29.5 -11q16 0 30 5t25 12z" />
    <glyph glyph-name="u" unicode="u" horiz-adv-x="560" 
d="M446 0h-109l13 73q-27 -39 -66.5 -62.5t-87.5 -23.5q-35 0 -65 10t-49.5 31.5t-27.5 54.5t0 78l55 313h114l-53 -298q-5 -26 -0.5 -44.5t14.5 -30t25 -16.5t33 -5q19 0 39.5 9t38.5 27.5t32 46t20 64.5l44 247h113z" />
    <glyph glyph-name="v" unicode="v" horiz-adv-x="496" 
d="M53 474h116q15 -83 26 -155q5 -31 10 -62.5t9 -59.5t7 -50.5t4 -35.5h2q6 13 17 35.5t25 50.5t30 59.5t32 62.5q37 72 80 155h115l-257 -474h-122z" />
    <glyph glyph-name="w" unicode="w" horiz-adv-x="743" 
d="M465 474q9 -84 17 -155q3 -30 6.5 -61t6 -58.5t4 -49.5t2.5 -34h2q5 14 15 37t22 51t26 59t28 61q33 70 70 150h108l-229 -474h-117q-9 90 -17 164q-3 31 -6.5 61.5t-6 56t-4 43t-1.5 22.5q-3 -6 -11 -23.5t-19.5 -43t-25 -56t-27.5 -61.5q-33 -73 -73 -163h-118l-64 474
h110q9 -82 17 -152q3 -30 6.5 -61t6 -59t4 -50.5t1.5 -36.5h2q7 17 21.5 50.5t32.5 73.5t36.5 81.5t34.5 75.5t26 56l10 22h104z" />
    <glyph glyph-name="x" unicode="x" horiz-adv-x="492" 
d="M-31 0l218 247l-118 227h121l73 -144l122 144h126l-202 -232l128 -242h-120l-82 159l-135 -159h-131z" />
    <glyph glyph-name="y" unicode="y" horiz-adv-x="497" 
d="M218 -82q-21 -38 -41.5 -63.5t-41.5 -40.5t-43 -21.5t-46 -6.5q-31 0 -55 7t-37 16l45 84q8 -7 19.5 -11.5t24.5 -4.5q21 0 41.5 15t42.5 56l28 53l-102 473h112q16 -82 29 -152q6 -30 11.5 -60t10 -56t8 -47t5.5 -31h2l15.5 31t24.5 47t30 56l32 60q38 70 82 152h112z
" />
    <glyph glyph-name="z" unicode="z" horiz-adv-x="460" 
d="M86 474h378l-12 -71l-301 -318h244l-15 -85h-386l13 74l301 315h-237z" />
    <glyph glyph-name="braceleft" unicode="{" horiz-adv-x="350" 
d="M273 483q-8 -44 -20.5 -75t-30 -51.5t-39 -32t-48.5 -16.5q25 -5 43 -16t28 -31t11.5 -50t-5.5 -73l-10 -57q-6 -32 -8.5 -60.5t3.5 -50.5t24 -36.5t53 -18.5l-12 -73q-70 4 -106.5 25.5t-51 59t-11 90.5t14.5 120q4 28 6 51.5t-3.5 41t-21 29.5t-45.5 18l13 71
q30 4 49.5 15.5t32 29t19 40.5t11.5 51l4 22q11 62 25 112t40.5 85.5t71 55t116.5 20.5l-14 -76q-36 -2 -58.5 -16t-36.5 -36.5t-21.5 -51t-12.5 -59.5z" />
    <glyph glyph-name="bar" unicode="|" horiz-adv-x="270" 
d="M185 797h96l-170 -966h-96z" />
    <glyph glyph-name="braceright" unicode="}" horiz-adv-x="350" 
d="M103 138q15 85 49 123t88 47q-24 6 -42 17.5t-28 32t-12 51t6 74.5l10 57q6 32 9 60.5t-3 50t-24 35.5t-55 17l13 76q73 -3 110 -26.5t50.5 -61.5t9.5 -87t-13 -103l-3 -17q-5 -29 -6.5 -53.5t4.5 -43.5t21 -31.5t44 -16.5l-13 -71q-29 -5 -48 -15t-31.5 -26.5t-19.5 -39
t-12 -50.5l-3 -17q-11 -63 -23.5 -115t-38 -88.5t-70.5 -56.5t-122 -18l13 73q37 3 60 17.5t37 37t21 51t12 60.5z" />
    <glyph glyph-name="asciitilde" unicode="~" horiz-adv-x="602" 
d="M397 228q-35 0 -59 9t-43.5 20.5t-37.5 20.5t-39 9t-37 -9t-27 -20q-12 -12 -21 -28l-69 57q17 26 41 46q20 17 51 31.5t74 14.5q34 0 58.5 -9.5t44 -20.5t37 -20.5t39.5 -9.5q21 0 37 9t27 20q12 12 21 29l68 -57q-16 -26 -40 -46q-20 -17 -51 -31.5t-74 -14.5z" />
    <glyph glyph-name="nonbreakingspace" unicode="&#xa0;" horiz-adv-x="225" 
 />
    <glyph glyph-name="exclamdown" unicode="&#xa1;" horiz-adv-x="259" 
d="M232 438q0 -31 -19 -50t-51 -19t-51 19t-19 50q0 30 19 50t51 20t51 -20t19 -50zM93 291h96l-74 -491h-121z" />
    <glyph glyph-name="cent" unicode="&#xa2;" horiz-adv-x="518" 
d="M60 309q0 53 16 102.5t47 89t77 64.5t105 28l17 97h68l-18 -100q63 -11 101.5 -47.5t49.5 -93.5l-100 -22q-5 62 -66 78l-56 -323q33 7 54 27.5t34 49.5l93 -39q-27 -53 -77.5 -87t-119.5 -38l-16 -95h-68l17 100q-76 15 -117 70.5t-41 138.5zM167 309q0 -42 15 -76
t51 -47l57 320q-33 -7 -56.5 -28t-38.5 -49t-21.5 -60t-6.5 -60z" />
    <glyph glyph-name="sterling" unicode="&#xa3;" horiz-adv-x="564" 
d="M147 485q7 41 23 79.5t43.5 68.5t68 48t97.5 18q41 0 73 -10.5t55 -29t38 -43.5t23 -55l-100 -32q-9 39 -29.5 60.5t-61.5 21.5q-27 0 -47 -10.5t-34 -27t-22 -37.5t-12 -43l-17 -98h162l-15 -84h-163l-20 -117q-5 -34 -19.5 -64t-39.5 -42v-2q9 2 23 3.5t32 1.5
q25 0 43 -2.5t33 -5t29 -5t31 -2.5q37 0 58 16.5t41 56.5l93 -31q-28 -64 -72.5 -97t-115.5 -33q-23 0 -40.5 2.5t-36.5 5t-41.5 5t-55.5 2.5q-46 0 -83.5 -5t-66.5 -13l-10 83q46 23 62.5 57t21.5 67l21 119h-57l15 84h57z" />
    <glyph glyph-name="currency" unicode="&#xa4;" horiz-adv-x="618" 
d="M157 626l60 -73q62 37 131 37q77 0 137 -43l78 72l63 -70l-83 -69q28 -48 28 -110q0 -48 -16 -88.5t-43 -72.5l62 -68l-72 -63l-60 72q-31 -19 -65 -28.5t-68 -9.5q-79 0 -137 43l-78 -71l-61 69l81 68q-28 50 -28 112q0 48 16.5 89t44.5 73l-63 67zM476 366q0 29 -10 53
t-28 41.5t-42.5 27.5t-53.5 10q-32 0 -60.5 -13t-51 -35t-35.5 -51.5t-13 -62.5q0 -29 10 -53t27.5 -41.5t42 -27.5t53.5 -10q31 0 60.5 13t51.5 35.5t35.5 51.5t13.5 62z" />
    <glyph glyph-name="yen" unicode="&#xa5;" horiz-adv-x="631" 
d="M368 212l-37 -212h-115l37 212h-167l12 73h168l3 15l-23 49h-136l13 73h89l-124 264h124l128 -286l233 286h129l-218 -264h91l-13 -73h-138l-40 -49l-3 -15h170l-13 -73h-170z" />
    <glyph glyph-name="brokenbar" unicode="&#xa6;" horiz-adv-x="270" 
d="M83 216h97l-68 -385h-97zM185 797h97l-68 -385h-97z" />
    <glyph glyph-name="section" unicode="&#xa7;" horiz-adv-x="534" 
d="M501 241q0 -54 -31 -90t-86 -59q19 -23 29 -49t10 -57q0 -38 -15 -70.5t-42 -56t-66 -37t-87 -13.5q-85 0 -138.5 39t-61.5 102l102 28q4 -36 27.5 -59t71.5 -23q52 0 75.5 26.5t23.5 61.5q0 38 -28 63.5t-84 51.5q-43 20 -73.5 39t-49.5 40t-28 46t-9 56q0 55 31 91
t86 59q-39 45 -39 106q0 38 15 70.5t42.5 56t66 37t86.5 13.5q85 0 138.5 -39t61.5 -102l-101 -28q-4 36 -28 59t-72 23q-26 0 -44.5 -7.5t-30.5 -19.5t-17.5 -28t-5.5 -33q0 -38 28 -63.5t84 -51.5q43 -20 73.5 -39t49.5 -40.5t27.5 -46.5t8.5 -56zM152 285q0 -17 5.5 -31
t20 -26.5t38 -26.5t59.5 -31q11 -6 21.5 -11.5t20.5 -11.5q32 9 52.5 32t20.5 58q0 17 -5.5 31t-19.5 26.5t-37.5 26.5t-59.5 31q-12 5 -22.5 11t-21.5 12q-32 -9 -52 -32t-20 -58z" />
    <glyph glyph-name="dieresis" unicode="&#xa8;" 
d="M198 607q0 28 18 45.5t47 17.5t47 -17.5t18 -45.5q0 -26 -18 -44.5t-47 -18.5t-47 18.5t-18 44.5zM402 607q0 28 18 45.5t47 17.5t47 -17.5t18 -45.5q0 -26 -18 -44.5t-47 -18.5t-47 18.5t-18 44.5z" />
    <glyph glyph-name="copyright" unicode="&#xa9;" horiz-adv-x="817" 
d="M245 351q0 46 13.5 83t38 63t59.5 40t77 14q60 0 99.5 -27.5t59.5 -78.5l-72 -25q-11 30 -32 48.5t-56 18.5q-50 0 -78.5 -37.5t-28.5 -97.5t28 -97.5t79 -37.5q34 0 55.5 17.5t32.5 48.5l71 -26q-20 -49 -59 -77t-100 -28q-42 0 -76.5 14t-59 40t-38 63t-13.5 82z
M428 56q60 0 112.5 22t91.5 61t61.5 93t22.5 119q0 64 -22.5 117.5t-61.5 92.5t-91.5 61t-112.5 22q-59 0 -111.5 -22t-91.5 -61t-62 -92.5t-23 -117.5q0 -65 23 -119t62 -93t91.5 -61t111.5 -22zM428 -13q-76 0 -142.5 27t-116 75.5t-78 115t-28.5 146.5q0 79 28.5 145.5
t78 114.5t116 75t142.5 27t142.5 -27t116 -75t78 -114.5t28.5 -145.5q0 -80 -28.5 -146.5t-78 -115t-116 -75.5t-142.5 -27z" />
    <glyph glyph-name="ordfeminine" unicode="&#xaa;" horiz-adv-x="425" 
d="M307 324q-2 5 -2.5 17.5t2.5 27.5q-18 -23 -46.5 -39.5t-68.5 -16.5q-51 0 -84.5 25t-33.5 76q0 38 21.5 63.5t58 40.5t83.5 21t98 6l4 23q5 30 -7.5 48.5t-47.5 18.5t-56 -17.5t-24 -40.5l-84 12q6 28 23 49t40 35t51.5 21t57.5 7q72 0 108.5 -35.5t25.5 -98.5l-34 -195
q-4 -20 -3 -29t3 -19h-85zM220 377q35 0 64.5 23t35.5 60l5 28q-72 0 -117 -14t-45 -51q0 -23 17 -34.5t40 -11.5z" />
    <glyph glyph-name="guillemotleft" unicode="&#xab;" horiz-adv-x="527" 
d="M33 261l216 219l63 -55l-162 -172l100 -173l-73 -49zM248 261l217 219l63 -55l-162 -172l100 -173l-73 -49z" />
    <glyph glyph-name="logicalnot" unicode="&#xac;" 
d="M76 371h495l-43 -244h-97l27 151h-399z" />
    <glyph glyph-name="uni00AD" unicode="&#xad;" horiz-adv-x="379" 
d="M74 331h264l-15 -86h-265z" />
    <glyph glyph-name="registered" unicode="&#xae;" horiz-adv-x="817" 
d="M582 429q0 -42 -19.5 -69.5t-54.5 -41.5l90 -155h-86l-81 147h-58v-147h-73v380h144q25 0 50 -5t44.5 -18t31.5 -35t12 -56zM504 429q0 28 -17 40t-52 12h-62v-107h65q35 0 50.5 15t15.5 40zM428 56q60 0 112.5 22t91.5 61t61.5 93t22.5 119q0 64 -22.5 117.5t-61.5 92.5
t-91.5 61t-112.5 22q-59 0 -111.5 -22t-91.5 -61t-62 -92.5t-23 -117.5q0 -65 23 -119t62 -93t91.5 -61t111.5 -22zM428 -13q-76 0 -142.5 27t-116 75.5t-78 115t-28.5 146.5q0 79 28.5 145.5t78 114.5t116 75t142.5 27t142.5 -27t116 -75t78 -114.5t28.5 -145.5
q0 -80 -28.5 -146.5t-78 -115t-116 -75.5t-142.5 -27z" />
    <glyph glyph-name="macron" unicode="&#xaf;" 
d="M232 630h273l-13 -74h-273z" />
    <glyph glyph-name="degree" unicode="&#xb0;" horiz-adv-x="405" 
d="M97 545q0 37 13.5 67.5t36.5 53t53.5 35t65.5 12.5q72 0 113 -41.5t41 -105.5q0 -35 -13 -66t-36 -54t-53.5 -36t-65.5 -13q-73 0 -114 42t-41 106zM265 641q-38 0 -62 -27t-24 -67q0 -33 20 -55.5t55 -22.5t59.5 26t24.5 68q0 33 -19 55.5t-54 22.5z" />
    <glyph glyph-name="plusminus" unicode="&#xb1;" 
d="M88 446h202l34 190h91l-33 -190h202l-16 -92h-202l-35 -197h-92l35 197h-201zM26 91h496l-16 -91h-496z" />
    <glyph glyph-name="twosuperior" unicode="&#xb2;" horiz-adv-x="372" 
d="M389 596q0 -44 -27 -76.5t-69 -62.5q-23 -17 -50 -33t-50 -30h164l-12 -70h-281l11 66l48 32q20 14 43 29t41 28q48 33 71.5 58.5t23.5 55.5q0 20 -12.5 32.5t-35.5 12.5q-32 0 -48.5 -21.5t-21.5 -46.5l-82 15q14 54 52.5 89t102.5 35t98 -32.5t34 -80.5z" />
    <glyph glyph-name="threesuperior" unicode="&#xb3;" horiz-adv-x="364" 
d="M379 604q0 -34 -21 -57t-54 -33q24 -9 39.5 -29t15.5 -49q0 -24 -10.5 -46t-30 -38.5t-47.5 -26t-63 -9.5q-36 0 -62 9t-43 23.5t-25 33t-9 38.5l82 21q2 -21 13.5 -38t44.5 -17t47 16.5t14 35.5q0 23 -15.5 34.5t-41.5 11.5q-3 0 -6 -0.5t-5 -0.5h-4l12 66q1 -1 4 -1h12
q33 0 49 15t16 37q0 20 -14 29.5t-31 9.5q-24 0 -40 -13.5t-20 -34.5l-77 20q6 18 17.5 36t28.5 31.5t40 22t53 8.5q58 0 94.5 -28.5t36.5 -76.5z" />
    <glyph glyph-name="acute" unicode="&#xb4;" 
d="M486 638l-216 -105l-27 64l206 127z" />
    <glyph glyph-name="mu" unicode="&#xb5;" horiz-adv-x="564" 
d="M450 0h-108l12 73q-27 -39 -65.5 -62.5t-86.5 -23.5q-32 0 -58 13l-36 -199h-113l119 673h113l-52 -298q-5 -26 -1 -44.5t14 -30t25.5 -16.5t33.5 -5q19 0 39 9t38 27.5t32 46t21 64.5l43 247h114z" />
    <glyph glyph-name="mu" unicode="&#x3bc;" horiz-adv-x="564" 
d="M450 0h-108l12 73q-27 -39 -65.5 -62.5t-86.5 -23.5q-32 0 -58 13l-36 -199h-113l119 673h113l-52 -298q-5 -26 -1 -44.5t14 -30t25.5 -16.5t33.5 -5q19 0 39 9t38 27.5t32 46t21 64.5l43 247h114z" />
    <glyph glyph-name="paragraph" unicode="&#xb6;" horiz-adv-x="622" 
d="M248 295q-36 1 -66.5 16.5t-52.5 40.5t-34.5 58t-12.5 70q0 48 20.5 88.5t55 70t79 45.5t92.5 16h355l-13 -74h-71l-134 -764h-87l134 764h-120l-134 -764h-87z" />
    <glyph glyph-name="periodcentered" unicode="&#xb7;" horiz-adv-x="274" 
d="M73 287q0 32 20 52t53 20q32 0 52.5 -20t20.5 -52q0 -30 -20.5 -50t-52.5 -20q-33 0 -53 20t-20 50z" />
    <glyph glyph-name="cedilla" unicode="&#xb8;" 
d="M165 -154q6 -8 19 -14t31 -6q21 0 33.5 12t12.5 32q0 16 -9.5 24t-25.5 8q-14 0 -24 -4t-17 -10l-26 32l48 80h56l-31 -54q12 7 27 7q30 0 51 -20.5t21 -57.5q0 -25 -9.5 -44.5t-25.5 -33t-38 -20.5t-46 -7q-35 0 -55.5 11t-29.5 20z" />
    <glyph glyph-name="onesuperior" unicode="&#xb9;" horiz-adv-x="267" 
d="M281 700l-66 -376h-88l50 283q-31 -21 -82 -23l-5 71q34 4 64 15.5t50 29.5h77z" />
    <glyph glyph-name="ordmasculine" unicode="&#xba;" horiz-adv-x="450" 
d="M466 538q0 -51 -16.5 -92.5t-45 -71.5t-67.5 -46t-84 -16q-77 0 -121.5 44t-44.5 120q0 51 16.5 92.5t45 71t67.5 45.5t84 16q78 0 122 -44t44 -119zM256 380q30 0 52 13.5t36.5 36t22 51.5t7.5 59q0 40 -18.5 67t-59.5 27q-29 0 -51 -14t-36.5 -36.5t-22 -51.5t-7.5 -59
q0 -39 18.5 -66t58.5 -27z" />
    <glyph glyph-name="guillemotright" unicode="&#xbb;" horiz-adv-x="528" 
d="M286 250l-216 -219l-63 55l162 172l-100 173l72 49zM503 250l-217 -219l-63 55l162 172l-100 173l73 49z" />
    <glyph glyph-name="onequarter" unicode="&#xbc;" horiz-adv-x="782" 
d="M723 374l-41 -233h62l-22 -66h-52l-13 -75h-82l13 75h-179l11 62l192 237h111zM602 141l28 159h-2l-128 -159h102zM54 -13l564 726h101l-565 -726h-100zM281 700l-66 -376h-88l50 283q-31 -21 -82 -23l-5 71q34 4 64 15.5t50 29.5h77z" />
    <glyph glyph-name="onehalf" unicode="&#xbd;" horiz-adv-x="817" 
d="M776 272q0 -44 -27 -76.5t-69 -62.5q-23 -17 -50 -33t-50 -30h164l-12 -70h-281l11 66l48 32q20 14 43 29t41 28q48 33 71.5 58.5t23.5 55.5q0 20 -12.5 32.5t-35.5 12.5q-32 0 -48.5 -21.5t-21.5 -46.5l-82 15q14 54 52.5 89t102.5 35t98 -32.5t34 -80.5zM54 -13
l564 726h101l-565 -726h-100zM281 700l-66 -376h-88l50 283q-31 -21 -82 -23l-5 71q34 4 64 15.5t50 29.5h77z" />
    <glyph glyph-name="threequarters" unicode="&#xbe;" horiz-adv-x="858" 
d="M799 374l-41 -233h62l-22 -66h-52l-13 -75h-82l13 75h-179l11 62l192 237h111zM678 141l28 159h-2l-128 -159h102zM379 604q0 -34 -21 -57t-54 -33q24 -9 39.5 -29t15.5 -49q0 -24 -10.5 -46t-30 -38.5t-47.5 -26t-63 -9.5q-36 0 -62 9t-43 23.5t-25 33t-9 38.5l82 21
q2 -21 13.5 -38t44.5 -17t47 16.5t14 35.5q0 23 -15.5 34.5t-41.5 11.5q-3 0 -6 -0.5t-5 -0.5h-4l12 66q1 -1 4 -1h12q33 0 49 15t16 37q0 20 -14 29.5t-31 9.5q-24 0 -40 -13.5t-20 -34.5l-77 20q6 18 17.5 36t28.5 31.5t40 22t53 8.5q58 0 94.5 -28.5t36.5 -76.5zM131 -13
l564 726h101l-565 -726h-100z" />
    <glyph glyph-name="questiondown" unicode="&#xbf;" horiz-adv-x="518" 
d="M361 438q0 -31 -19.5 -50t-51.5 -19q-31 0 -50.5 19t-19.5 49q0 31 19.5 51t50.5 20q32 0 51.5 -20t19.5 -50zM338 295l-6 -35q-5 -29 -16.5 -52.5t-28.5 -43t-39 -36.5t-48 -33q-17 -11 -34 -23t-31 -27t-23 -33t-9 -42q0 -39 26 -65.5t71 -26.5q29 0 52.5 11t41.5 29.5
t30 43t18 51.5l112 -20q-27 -97 -91.5 -151.5t-166.5 -54.5q-53 0 -92.5 14.5t-65.5 39t-39 57t-13 68.5q0 40 14 71t34 55t43.5 41t43.5 29q44 27 68 51.5t30 54.5l5 27h114z" />
    <glyph glyph-name="Agrave" unicode="&#xc0;" horiz-adv-x="661" 
d="M602 0h-118l-30 176h-265l-93 -176h-121l377 700h120zM388 563q-5 -10 -13.5 -27.5t-20 -40t-24.5 -48t-26 -50.5q-31 -59 -66 -128h200q-12 69 -22 128q-4 25 -8 50.5t-8 48t-6.5 40t-3.5 27.5h-2zM366 939l169 -134l-44 -56l-187 110z" />
    <glyph glyph-name="Aacute" unicode="&#xc1;" horiz-adv-x="661" 
d="M602 0h-118l-30 176h-265l-93 -176h-121l377 700h120zM388 563q-5 -10 -13.5 -27.5t-20 -40t-24.5 -48t-26 -50.5q-31 -59 -66 -128h200q-12 69 -22 128q-4 25 -8 50.5t-8 48t-6.5 40t-3.5 27.5h-2zM551 853l-216 -105l-27 64l206 127z" />
    <glyph glyph-name="Acircumflex" unicode="&#xc2;" horiz-adv-x="661" 
d="M602 0h-118l-30 176h-265l-93 -176h-121l377 700h120zM388 563q-5 -10 -13.5 -27.5t-20 -40t-24.5 -48t-26 -50.5q-31 -59 -66 -128h200q-12 69 -22 128q-4 25 -8 50.5t-8 48t-6.5 40t-3.5 27.5h-2zM576 794l-59 -48l-81 100l-122 -101l-50 54l136 113h84z" />
    <glyph glyph-name="Atilde" unicode="&#xc3;" horiz-adv-x="661" 
d="M602 0h-118l-30 176h-265l-93 -176h-121l377 700h120zM388 563q-5 -10 -13.5 -27.5t-20 -40t-24.5 -48t-26 -50.5q-31 -59 -66 -128h200q-12 69 -22 128q-4 25 -8 50.5t-8 48t-6.5 40t-3.5 27.5h-2zM358 892q27 0 45.5 -8.5t33.5 -18t28.5 -18t30.5 -8.5q15 0 27 7.5
t20 16.5q10 11 16 25l53 -49q-13 -21 -31 -37q-16 -14 -39 -25.5t-55 -11.5q-26 0 -44.5 8t-33 18t-28 18t-30.5 8t-29.5 -7.5t-20.5 -16.5q-10 -11 -16 -23l-51 49q12 20 30 36q15 14 38.5 25.5t55.5 11.5z" />
    <glyph glyph-name="Adieresis" unicode="&#xc4;" horiz-adv-x="661" 
d="M602 0h-118l-30 176h-265l-93 -176h-121l377 700h120zM388 563q-5 -10 -13.5 -27.5t-20 -40t-24.5 -48t-26 -50.5q-31 -59 -66 -128h200q-12 69 -22 128q-4 25 -8 50.5t-8 48t-6.5 40t-3.5 27.5h-2zM261 830q0 27 18 45t47 18q28 0 46 -18t18 -45t-18 -45t-46 -18
q-29 0 -47 18t-18 45zM465 830q0 27 17.5 45t46.5 18t47 -18t18 -45t-18 -45t-47 -18t-46.5 18t-17.5 45z" />
    <glyph glyph-name="Aring" unicode="&#xc5;" horiz-adv-x="661" 
d="M602 0h-118l-30 176h-265l-93 -176h-121l377 700h120zM388 563q-5 -10 -13.5 -27.5t-20 -40t-24.5 -48t-26 -50.5q-31 -59 -66 -128h200q-12 69 -22 128q-4 25 -8 50.5t-8 48t-6.5 40t-3.5 27.5h-2zM424 747q-44 0 -69.5 26t-25.5 68q0 45 31 75.5t81 30.5q44 0 70 -25
t26 -66q0 -23 -8.5 -42.5t-23.5 -34.5t-36 -23.5t-45 -8.5zM389 844q0 -17 11 -29.5t28 -12.5q21 0 35 15t14 35q0 17 -11 29t-30 12q-20 0 -33.5 -14.5t-13.5 -34.5z" />
    <glyph glyph-name="AE" unicode="&#xc6;" horiz-adv-x="958" 
d="M425 0l31 177h-227l-127 -177h-129l514 700h501l-17 -97h-324l-34 -194h302l-17 -97h-302l-38 -215h330l-17 -97h-446zM297 269h176l56 320h-4z" />
    <glyph glyph-name="Ccedilla" unicode="&#xc7;" horiz-adv-x="689" 
d="M244 -154q6 -8 19 -14t31 -6q21 0 33.5 12t12.5 32q0 16 -9.5 24t-25.5 8q-14 0 -24 -4t-17 -10l-26 32l45 75q-104 21 -161 99t-57 199q0 86 25 162.5t72 133.5t114 90.5t152 33.5q113 0 183 -49t91 -138l-114 -40q-11 59 -50 94t-114 35q-54 0 -97.5 -25.5t-74.5 -69.5
t-47.5 -102t-16.5 -123q0 -43 10.5 -81.5t32 -67t55 -45t78.5 -16.5q59 0 100.5 33.5t69.5 93.5l111 -41q-41 -85 -111.5 -134.5t-171.5 -49.5q-7 0 -13.5 0.5t-13.5 0.5l-24 -42q12 7 27 7q30 0 51 -20.5t21 -57.5q0 -25 -9.5 -44.5t-25.5 -33t-38 -20.5t-46 -7
q-35 0 -55.5 11t-29.5 20z" />
    <glyph glyph-name="Egrave" unicode="&#xc8;" horiz-adv-x="575" 
d="M337 939l169 -134l-44 -56l-187 110zM39 0l123 700h443l-16 -97h-326l-35 -194h304l-17 -97h-304l-38 -215h332l-17 -97h-449z" />
    <glyph glyph-name="Eacute" unicode="&#xc9;" horiz-adv-x="575" 
d="M537 853l-216 -105l-27 64l206 127zM39 0l123 700h443l-16 -97h-326l-35 -194h304l-17 -97h-304l-38 -215h332l-17 -97h-449z" />
    <glyph glyph-name="Ecircumflex" unicode="&#xca;" horiz-adv-x="575" 
d="M39 0l123 700h443l-16 -97h-326l-35 -194h304l-17 -97h-304l-38 -215h332l-17 -97h-449zM547 794l-59 -48l-81 100l-122 -101l-50 54l136 113h84z" />
    <glyph glyph-name="Edieresis" unicode="&#xcb;" horiz-adv-x="575" 
d="M230 830q0 27 18 45t47 18q28 0 46 -18t18 -45t-18 -45t-46 -18q-29 0 -47 18t-18 45zM434 830q0 27 17.5 45t46.5 18t47 -18t18 -45t-18 -45t-47 -18t-46.5 18t-17.5 45zM39 0l123 700h443l-16 -97h-326l-35 -194h304l-17 -97h-304l-38 -215h332l-17 -97h-449z" />
    <glyph glyph-name="Igrave" unicode="&#xcc;" horiz-adv-x="280" 
d="M162 700h118l-123 -700h-118zM190 939l169 -134l-44 -56l-187 110z" />
    <glyph glyph-name="Iacute" unicode="&#xcd;" horiz-adv-x="280" 
d="M162 700h118l-123 -700h-118zM355 853l-216 -105l-27 64l206 127z" />
    <glyph glyph-name="Icircumflex" unicode="&#xce;" horiz-adv-x="280" 
d="M162 700h118l-123 -700h-118zM390 794l-59 -48l-81 100l-122 -101l-50 54l136 113h84z" />
    <glyph glyph-name="Idieresis" unicode="&#xcf;" horiz-adv-x="280" 
d="M162 700h118l-123 -700h-118zM73 830q0 27 18 45t47 18q28 0 46 -18t18 -45t-18 -45t-46 -18q-29 0 -47 18t-18 45zM277 830q0 27 17.5 45t46.5 18t47 -18t18 -45t-18 -45t-47 -18t-46.5 18t-17.5 45z" />
    <glyph glyph-name="Eth" unicode="&#xd0;" horiz-adv-x="730" 
d="M114 321h-80l14 85h81l52 294h238q66 0 118.5 -19.5t90 -56t57.5 -89t20 -117.5q0 -98 -27.5 -175.5t-79 -131.5t-125 -82.5t-164.5 -28.5h-251zM582 418q0 88 -46.5 136.5t-142.5 48.5h-110l-35 -197h165l-14 -85h-166l-39 -224h122q66 0 116 25t83.5 68.5t50 102
t16.5 125.5z" />
    <glyph glyph-name="Ntilde" unicode="&#xd1;" horiz-adv-x="726" 
d="M390 892q27 0 45.5 -8.5t33.5 -18t28.5 -18t30.5 -8.5q15 0 27 7.5t20 16.5q10 11 16 25l53 -49q-13 -21 -31 -37q-16 -14 -39 -25.5t-55 -11.5q-26 0 -44.5 8t-33 18t-28 18t-30.5 8t-29.5 -7.5t-20.5 -16.5q-10 -11 -16 -23l-51 49q12 20 30 36q15 14 38.5 25.5
t55.5 11.5zM162 700h121q53 -115 100 -216q20 -43 40.5 -87.5t39 -85t34 -74.5t25.5 -55h2l91 518h111l-123 -700h-121q-52 112 -98 212q-20 43 -40.5 87.5t-39 85t-34.5 75.5t-26 58h-2l-92 -518h-111z" />
    <glyph glyph-name="Ograve" unicode="&#xd2;" horiz-adv-x="743" 
d="M409 939l169 -134l-44 -56l-187 110zM64 292q0 87 25 163.5t71.5 133.5t114 90.5t151.5 33.5q67 0 121 -21t92 -60.5t58.5 -96t20.5 -127.5q0 -87 -25 -163.5t-71.5 -133.5t-114 -90.5t-151.5 -33.5q-67 0 -121 21t-92 60.5t-58.5 96t-20.5 127.5zM186 293
q0 -43 10.5 -81t32 -66.5t54.5 -45t78 -16.5q60 0 104.5 30.5t73.5 78t43 104.5t14 110q0 43 -10.5 81t-32 66.5t-55 45t-78.5 16.5q-60 0 -104 -30.5t-73 -78t-43 -104.5t-14 -110z" />
    <glyph glyph-name="Oacute" unicode="&#xd3;" horiz-adv-x="743" 
d="M582 853l-216 -105l-27 64l206 127zM64 292q0 87 25 163.5t71.5 133.5t114 90.5t151.5 33.5q67 0 121 -21t92 -60.5t58.5 -96t20.5 -127.5q0 -87 -25 -163.5t-71.5 -133.5t-114 -90.5t-151.5 -33.5q-67 0 -121 21t-92 60.5t-58.5 96t-20.5 127.5zM186 293q0 -43 10.5 -81
t32 -66.5t54.5 -45t78 -16.5q60 0 104.5 30.5t73.5 78t43 104.5t14 110q0 43 -10.5 81t-32 66.5t-55 45t-78.5 16.5q-60 0 -104 -30.5t-73 -78t-43 -104.5t-14 -110z" />
    <glyph glyph-name="Ocircumflex" unicode="&#xd4;" horiz-adv-x="743" 
d="M64 292q0 87 25 163.5t71.5 133.5t114 90.5t151.5 33.5q67 0 121 -21t92 -60.5t58.5 -96t20.5 -127.5q0 -87 -25 -163.5t-71.5 -133.5t-114 -90.5t-151.5 -33.5q-67 0 -121 21t-92 60.5t-58.5 96t-20.5 127.5zM186 293q0 -43 10.5 -81t32 -66.5t54.5 -45t78 -16.5
q60 0 104.5 30.5t73.5 78t43 104.5t14 110q0 43 -10.5 81t-32 66.5t-55 45t-78.5 16.5q-60 0 -104 -30.5t-73 -78t-43 -104.5t-14 -110zM604 794l-59 -48l-81 100l-122 -101l-50 54l136 113h84z" />
    <glyph glyph-name="Otilde" unicode="&#xd5;" horiz-adv-x="743" 
d="M390 892q27 0 45.5 -8.5t33.5 -18t28.5 -18t30.5 -8.5q15 0 27 7.5t20 16.5q10 11 16 25l53 -49q-13 -21 -31 -37q-16 -14 -39 -25.5t-55 -11.5q-26 0 -44.5 8t-33 18t-28 18t-30.5 8t-29.5 -7.5t-20.5 -16.5q-10 -11 -16 -23l-51 49q12 20 30 36q15 14 38.5 25.5
t55.5 11.5zM64 292q0 87 25 163.5t71.5 133.5t114 90.5t151.5 33.5q67 0 121 -21t92 -60.5t58.5 -96t20.5 -127.5q0 -87 -25 -163.5t-71.5 -133.5t-114 -90.5t-151.5 -33.5q-67 0 -121 21t-92 60.5t-58.5 96t-20.5 127.5zM186 293q0 -43 10.5 -81t32 -66.5t54.5 -45
t78 -16.5q60 0 104.5 30.5t73.5 78t43 104.5t14 110q0 43 -10.5 81t-32 66.5t-55 45t-78.5 16.5q-60 0 -104 -30.5t-73 -78t-43 -104.5t-14 -110z" />
    <glyph glyph-name="Odieresis" unicode="&#xd6;" horiz-adv-x="743" 
d="M291 830q0 27 18 45t47 18q28 0 46 -18t18 -45t-18 -45t-46 -18q-29 0 -47 18t-18 45zM495 830q0 27 17.5 45t46.5 18t47 -18t18 -45t-18 -45t-47 -18t-46.5 18t-17.5 45zM64 292q0 87 25 163.5t71.5 133.5t114 90.5t151.5 33.5q67 0 121 -21t92 -60.5t58.5 -96
t20.5 -127.5q0 -87 -25 -163.5t-71.5 -133.5t-114 -90.5t-151.5 -33.5q-67 0 -121 21t-92 60.5t-58.5 96t-20.5 127.5zM186 293q0 -43 10.5 -81t32 -66.5t54.5 -45t78 -16.5q60 0 104.5 30.5t73.5 78t43 104.5t14 110q0 43 -10.5 81t-32 66.5t-55 45t-78.5 16.5
q-60 0 -104 -30.5t-73 -78t-43 -104.5t-14 -110z" />
    <glyph glyph-name="multiply" unicode="&#xd7;" 
d="M445 92l-137 166l-195 -167l-58 70l195 166l-134 164l73 62l134 -163l193 164l58 -70l-193 -165l137 -166z" />
    <glyph glyph-name="Oslash" unicode="&#xd8;" horiz-adv-x="742" 
d="M64 292q0 87 25 163.5t71.5 133.5t114 90.5t151.5 33.5q51 0 93.5 -12t77.5 -35l76 93l59 -48l-78 -97q31 -38 47.5 -90t16.5 -116q0 -87 -25 -163.5t-71.5 -133.5t-114 -90.5t-151.5 -33.5q-101 0 -172 47l-77 -96l-58 48l79 98q-31 39 -47.5 91t-16.5 117zM186 293
q0 -31 5 -59t16 -52l321 398q-42 36 -108 36q-60 0 -104 -30.5t-73 -78t-43 -104.5t-14 -110zM596 407q0 62 -21 110l-322 -398q20 -17 47 -26t61 -9q60 0 104.5 30.5t73.5 78t43 104.5t14 110z" />
    <glyph glyph-name="Ugrave" unicode="&#xd9;" horiz-adv-x="687" 
d="M381 939l169 -134l-44 -56l-187 110zM198 261q-6 -35 -4.5 -66.5t14.5 -56.5t39.5 -39.5t69.5 -14.5q45 0 76 14.5t52 39t33 55.5t18 64l78 443h118l-80 -451q-23 -134 -95.5 -198t-201.5 -64q-74 0 -124 19.5t-78.5 55t-36.5 85t3 108.5l79 445h117z" />
    <glyph glyph-name="Uacute" unicode="&#xda;" horiz-adv-x="687" 
d="M571 853l-216 -105l-27 64l206 127zM198 261q-6 -35 -4.5 -66.5t14.5 -56.5t39.5 -39.5t69.5 -14.5q45 0 76 14.5t52 39t33 55.5t18 64l78 443h118l-80 -451q-23 -134 -95.5 -198t-201.5 -64q-74 0 -124 19.5t-78.5 55t-36.5 85t3 108.5l79 445h117z" />
    <glyph glyph-name="Ucircumflex" unicode="&#xdb;" horiz-adv-x="687" 
d="M198 261q-6 -35 -4.5 -66.5t14.5 -56.5t39.5 -39.5t69.5 -14.5q45 0 76 14.5t52 39t33 55.5t18 64l78 443h118l-80 -451q-23 -134 -95.5 -198t-201.5 -64q-74 0 -124 19.5t-78.5 55t-36.5 85t3 108.5l79 445h117zM586 794l-59 -48l-81 100l-122 -101l-50 54l136 113h84z
" />
    <glyph glyph-name="Udieresis" unicode="&#xdc;" horiz-adv-x="687" 
d="M272 830q0 27 18 45t47 18q28 0 46 -18t18 -45t-18 -45t-46 -18q-29 0 -47 18t-18 45zM476 830q0 27 17.5 45t46.5 18t47 -18t18 -45t-18 -45t-47 -18t-46.5 18t-17.5 45zM198 261q-6 -35 -4.5 -66.5t14.5 -56.5t39.5 -39.5t69.5 -14.5q45 0 76 14.5t52 39t33 55.5t18 64
l78 443h118l-80 -451q-23 -134 -95.5 -198t-201.5 -64q-74 0 -124 19.5t-78.5 55t-36.5 85t3 108.5l79 445h117z" />
    <glyph glyph-name="Yacute" unicode="&#xdd;" horiz-adv-x="658" 
d="M280 300l-189 400h129l135 -292l237 292h137l-331 -400l-52 -300h-119zM564 853l-216 -105l-27 64l206 127z" />
    <glyph glyph-name="Thorn" unicode="&#xde;" horiz-adv-x="622" 
d="M280 700l-21 -120h131q105 0 166.5 -46.5t61.5 -142.5q0 -64 -22.5 -110t-62 -76t-93.5 -44.5t-117 -14.5h-140l-26 -146h-118l123 700h118zM497 385q0 52 -33.5 75.5t-105.5 23.5h-115l-42 -241h115q93 0 137 36t44 106z" />
    <glyph glyph-name="germandbls" unicode="&#xdf;" horiz-adv-x="576" 
d="M115 482q9 49 26.5 91.5t46 73.5t69 48.5t93.5 17.5q50 0 88 -13.5t63.5 -37t38 -54.5t12.5 -66q0 -66 -35.5 -111t-92.5 -64q45 -13 75.5 -53.5t30.5 -98.5q0 -49 -16.5 -91t-47.5 -72.5t-76 -47.5t-102 -17q-29 0 -51 4.5t-39 12.5l16 90q13 -9 33.5 -13.5t40.5 -4.5
q33 0 57.5 12.5t40 33t23 45t7.5 48.5q0 48 -28.5 79.5t-85.5 31.5q-5 0 -9.5 -0.5t-8.5 -0.5h-9l16 87q4 -1 8 -1q4 -1 8 -1h9q29 0 52 10.5t39 28t24.5 41t8.5 49.5q0 42 -24.5 64t-65.5 22q-53 0 -81.5 -38.5t-39.5 -100.5l-86 -486h-113z" />
    <glyph glyph-name="agrave" unicode="&#xe0;" horiz-adv-x="512" 
d="M312 0q-2 8 -3.5 24t2.5 37q-22 -33 -59.5 -53.5t-83.5 -20.5q-32 0 -59.5 8t-48 24t-32.5 41t-12 58q0 49 26.5 81.5t72.5 52t106 27.5t128 8l5 30q6 38 -10 61.5t-63 23.5q-46 0 -72 -22.5t-30 -51.5l-108 16q9 36 29.5 63t49.5 45t64.5 26.5t74.5 8.5q46 0 82 -12
t59 -35.5t32 -57.5t1 -78l-43 -240q-4 -23 -3.5 -36t4.5 -28h-109zM204 71q22 0 42.5 7.5t37.5 21.5t29 33.5t16 42.5l6 37q-46 0 -84 -4t-65.5 -13.5t-42.5 -25.5t-15 -40q0 -59 76 -59zM265 723l169 -134l-44 -56l-187 110z" />
    <glyph glyph-name="aacute" unicode="&#xe1;" horiz-adv-x="512" 
d="M312 0q-2 8 -3.5 24t2.5 37q-22 -33 -59.5 -53.5t-83.5 -20.5q-32 0 -59.5 8t-48 24t-32.5 41t-12 58q0 49 26.5 81.5t72.5 52t106 27.5t128 8l5 30q6 38 -10 61.5t-63 23.5q-46 0 -72 -22.5t-30 -51.5l-108 16q9 36 29.5 63t49.5 45t64.5 26.5t74.5 8.5q46 0 82 -12
t59 -35.5t32 -57.5t1 -78l-43 -240q-4 -23 -3.5 -36t4.5 -28h-109zM204 71q22 0 42.5 7.5t37.5 21.5t29 33.5t16 42.5l6 37q-46 0 -84 -4t-65.5 -13.5t-42.5 -25.5t-15 -40q0 -59 76 -59zM433 638l-216 -105l-27 64l206 127z" />
    <glyph glyph-name="acircumflex" unicode="&#xe2;" horiz-adv-x="512" 
d="M312 0q-2 8 -3.5 24t2.5 37q-22 -33 -59.5 -53.5t-83.5 -20.5q-32 0 -59.5 8t-48 24t-32.5 41t-12 58q0 49 26.5 81.5t72.5 52t106 27.5t128 8l5 30q6 38 -10 61.5t-63 23.5q-46 0 -72 -22.5t-30 -51.5l-108 16q9 36 29.5 63t49.5 45t64.5 26.5t74.5 8.5q46 0 82 -12
t59 -35.5t32 -57.5t1 -78l-43 -240q-4 -23 -3.5 -36t4.5 -28h-109zM204 71q22 0 42.5 7.5t37.5 21.5t29 33.5t16 42.5l6 37q-46 0 -84 -4t-65.5 -13.5t-42.5 -25.5t-15 -40q0 -59 76 -59zM286 706h74l97 -131l-59 -46l-81 105l-118 -106l-50 52z" />
    <glyph glyph-name="atilde" unicode="&#xe3;" horiz-adv-x="512" 
d="M312 0q-2 8 -3.5 24t2.5 37q-22 -33 -59.5 -53.5t-83.5 -20.5q-32 0 -59.5 8t-48 24t-32.5 41t-12 58q0 49 26.5 81.5t72.5 52t106 27.5t128 8l5 30q6 38 -10 61.5t-63 23.5q-46 0 -72 -22.5t-30 -51.5l-108 16q9 36 29.5 63t49.5 45t64.5 26.5t74.5 8.5q46 0 82 -12
t59 -35.5t32 -57.5t1 -78l-43 -240q-4 -23 -3.5 -36t4.5 -28h-109zM204 71q22 0 42.5 7.5t37.5 21.5t29 33.5t16 42.5l6 37q-46 0 -84 -4t-65.5 -13.5t-42.5 -25.5t-15 -40q0 -59 76 -59zM250 675q27 0 45.5 -8.5t33.5 -18t28.5 -18t30.5 -8.5q15 0 27 7.5t20 16.5
q10 11 16 25l53 -49q-13 -21 -31 -37q-16 -14 -39 -25.5t-55 -11.5q-26 0 -44.5 8.5t-33 18t-28 18t-30.5 8.5t-29.5 -7.5t-20.5 -16.5q-10 -11 -16 -24l-51 49q12 20 30 36q15 14 38.5 25.5t55.5 11.5z" />
    <glyph glyph-name="adieresis" unicode="&#xe4;" horiz-adv-x="512" 
d="M312 0q-2 8 -3.5 24t2.5 37q-22 -33 -59.5 -53.5t-83.5 -20.5q-32 0 -59.5 8t-48 24t-32.5 41t-12 58q0 49 26.5 81.5t72.5 52t106 27.5t128 8l5 30q6 38 -10 61.5t-63 23.5q-46 0 -72 -22.5t-30 -51.5l-108 16q9 36 29.5 63t49.5 45t64.5 26.5t74.5 8.5q46 0 82 -12
t59 -35.5t32 -57.5t1 -78l-43 -240q-4 -23 -3.5 -36t4.5 -28h-109zM204 71q22 0 42.5 7.5t37.5 21.5t29 33.5t16 42.5l6 37q-46 0 -84 -4t-65.5 -13.5t-42.5 -25.5t-15 -40q0 -59 76 -59zM144 607q0 28 18 45.5t47 17.5t47 -17.5t18 -45.5q0 -26 -18 -44.5t-47 -18.5
t-47 18.5t-18 44.5zM348 607q0 28 18 45.5t47 17.5t47 -17.5t18 -45.5q0 -26 -18 -44.5t-47 -18.5t-47 18.5t-18 44.5z" />
    <glyph glyph-name="aring" unicode="&#xe5;" horiz-adv-x="512" 
d="M312 0q-2 8 -3.5 24t2.5 37q-22 -33 -59.5 -53.5t-83.5 -20.5q-32 0 -59.5 8t-48 24t-32.5 41t-12 58q0 49 26.5 81.5t72.5 52t106 27.5t128 8l5 30q6 38 -10 61.5t-63 23.5q-46 0 -72 -22.5t-30 -51.5l-108 16q9 36 29.5 63t49.5 45t64.5 26.5t74.5 8.5q46 0 82 -12
t59 -35.5t32 -57.5t1 -78l-43 -240q-4 -23 -3.5 -36t4.5 -28h-109zM204 71q22 0 42.5 7.5t37.5 21.5t29 33.5t16 42.5l6 37q-46 0 -84 -4t-65.5 -13.5t-42.5 -25.5t-15 -40q0 -59 76 -59zM306 529q-45 0 -70.5 25.5t-25.5 67.5q0 46 31.5 76.5t80.5 30.5q45 0 70.5 -25.5
t25.5 -66.5q0 -23 -8.5 -42.5t-23.5 -34t-35.5 -23t-44.5 -8.5zM270 626q0 -17 11 -30t29 -13q21 0 34.5 15t13.5 35q0 18 -10.5 29.5t-29.5 11.5q-20 0 -34 -14t-14 -34z" />
    <glyph glyph-name="ae" unicode="&#xe6;" horiz-adv-x="825" 
d="M758 102q-32 -54 -85 -84.5t-126 -30.5q-61 0 -106 23t-70 68q-32 -44 -80 -67.5t-112 -23.5q-36 0 -65.5 7.5t-51.5 24t-34 41.5t-12 60q0 48 27 80.5t72.5 51.5t106 26.5t127.5 7.5l5 31q6 38 -10 61.5t-63 23.5q-46 0 -72 -22.5t-30 -51.5l-108 16q9 36 29.5 63
t49.5 45t64.5 26.5t74.5 8.5q53 0 88 -17t55 -47q32 30 73 47t89 17q62 0 104 -20.5t66 -55t30.5 -79t-1.5 -92.5q-1 -3 -2 -7.5t-2 -9.5l-2 -10h-341q-3 -27 0 -52.5t15 -45t33.5 -31.5t54.5 -12q45 0 71 20t45 50zM204 71q44 0 80 28t45 77l6 37q-46 0 -84 -4t-65.5 -13.5
t-42.5 -25.5t-15 -40q0 -29 20 -44t56 -15zM592 404q-54 0 -86.5 -33t-46.5 -85h227q8 57 -18 87.5t-76 30.5z" />
    <glyph glyph-name="ccedilla" unicode="&#xe7;" horiz-adv-x="509" 
d="M139 -154q6 -8 19 -14t31 -6q21 0 33.5 12t12.5 32q0 16 -9.5 24t-25.5 8q-14 0 -24 -4t-17 -10l-26 32l45 76q-67 18 -105 71.5t-38 134.5q0 54 17.5 105.5t51.5 91t82.5 64t110.5 24.5q46 0 80.5 -11t58.5 -30t38.5 -45t20.5 -56l-107 -28q-5 40 -29 60.5t-66 20.5
q-35 0 -61.5 -17.5t-44 -46t-26.5 -63.5t-9 -69q0 -26 5.5 -48.5t18 -39.5t31.5 -27t46 -10q42 0 65.5 20.5t39.5 55.5l101 -39q-30 -55 -80 -91t-129 -36h-10t-10 1l-24 -42q12 7 27 7q30 0 51 -20.5t21 -57.5q0 -25 -9.5 -44.5t-25.5 -33t-38 -20.5t-46 -7q-35 0 -55.5 11
t-29.5 20z" />
    <glyph glyph-name="egrave" unicode="&#xe8;" horiz-adv-x="524" 
d="M457 102q-32 -54 -84.5 -84.5t-124.5 -30.5q-99 0 -156 54.5t-57 154.5q0 62 19.5 115t54 92t82 61.5t103.5 22.5q61 0 103 -20.5t66 -54.5t30.5 -79t-1.5 -93q-1 -5 -2 -9.5t-2 -9.5l-2 -10h-338q-3 -27 0 -52t15 -44.5t33 -31t54 -11.5q44 0 69.5 20t44.5 50zM292 404
q-52 0 -84.5 -33t-46.5 -85h224q8 57 -17.5 87.5t-75.5 30.5zM264 723l169 -134l-44 -56l-187 110z" />
    <glyph glyph-name="eacute" unicode="&#xe9;" horiz-adv-x="524" 
d="M446 638l-216 -105l-27 64l206 127zM457 102q-32 -54 -84.5 -84.5t-124.5 -30.5q-99 0 -156 54.5t-57 154.5q0 62 19.5 115t54 92t82 61.5t103.5 22.5q61 0 103 -20.5t66 -54.5t30.5 -79t-1.5 -93q-1 -5 -2 -9.5t-2 -9.5l-2 -10h-338q-3 -27 0 -52t15 -44.5t33 -31
t54 -11.5q44 0 69.5 20t44.5 50zM292 404q-52 0 -84.5 -33t-46.5 -85h224q8 57 -17.5 87.5t-75.5 30.5z" />
    <glyph glyph-name="ecircumflex" unicode="&#xea;" horiz-adv-x="524" 
d="M297 706h74l97 -131l-59 -46l-81 105l-118 -106l-50 52zM457 102q-32 -54 -84.5 -84.5t-124.5 -30.5q-99 0 -156 54.5t-57 154.5q0 62 19.5 115t54 92t82 61.5t103.5 22.5q61 0 103 -20.5t66 -54.5t30.5 -79t-1.5 -93q-1 -5 -2 -9.5t-2 -9.5l-2 -10h-338q-3 -27 0 -52
t15 -44.5t33 -31t54 -11.5q44 0 69.5 20t44.5 50zM292 404q-52 0 -84.5 -33t-46.5 -85h224q8 57 -17.5 87.5t-75.5 30.5z" />
    <glyph glyph-name="edieresis" unicode="&#xeb;" horiz-adv-x="524" 
d="M152 607q0 28 18 45.5t47 17.5t47 -17.5t18 -45.5q0 -26 -18 -44.5t-47 -18.5t-47 18.5t-18 44.5zM356 607q0 28 18 45.5t47 17.5t47 -17.5t18 -45.5q0 -26 -18 -44.5t-47 -18.5t-47 18.5t-18 44.5zM457 102q-32 -54 -84.5 -84.5t-124.5 -30.5q-99 0 -156 54.5t-57 154.5
q0 62 19.5 115t54 92t82 61.5t103.5 22.5q61 0 103 -20.5t66 -54.5t30.5 -79t-1.5 -93q-1 -5 -2 -9.5t-2 -9.5l-2 -10h-338q-3 -27 0 -52t15 -44.5t33 -31t54 -11.5q44 0 69.5 20t44.5 50zM292 404q-52 0 -84.5 -33t-46.5 -85h224q8 57 -17.5 87.5t-75.5 30.5z" />
    <glyph glyph-name="igrave" unicode="&#xec;" horiz-adv-x="258" 
d="M114 474h113l-83 -474h-114zM140 723l169 -134l-44 -56l-187 110z" />
    <glyph glyph-name="iacute" unicode="&#xed;" horiz-adv-x="258" 
d="M313 638l-216 -105l-27 64l206 127zM114 474h113l-83 -474h-114z" />
    <glyph glyph-name="icircumflex" unicode="&#xee;" horiz-adv-x="258" 
d="M165 706h74l97 -131l-59 -46l-81 105l-118 -106l-50 52zM114 474h113l-83 -474h-114z" />
    <glyph glyph-name="idieresis" unicode="&#xef;" horiz-adv-x="258" 
d="M21 607q0 28 18 45.5t47 17.5t47 -17.5t18 -45.5q0 -26 -18 -44.5t-47 -18.5t-47 18.5t-18 44.5zM225 607q0 28 18 45.5t47 17.5t47 -17.5t18 -45.5q0 -26 -18 -44.5t-47 -18.5t-47 18.5t-18 44.5zM114 474h113l-83 -474h-114z" />
    <glyph glyph-name="eth" unicode="&#xf0;" horiz-adv-x="565" 
d="M222 586l72 37q-44 36 -97 54l63 61q35 -10 66 -27.5t59 -41.5l89 46l26 -60l-67 -35q45 -57 71 -130t26 -157q0 -62 -14.5 -123.5t-47.5 -111t-86 -80.5t-131 -31q-49 0 -88.5 14.5t-68 42t-44 66.5t-15.5 89q0 55 18.5 106t52 90.5t79.5 63t101 23.5q41 0 73.5 -13
t54.5 -41q-23 83 -71 145l-93 -49zM256 74q36 0 64 18t46.5 46t28 63t9.5 69q0 25 -6.5 48t-19.5 40t-33.5 27t-48.5 10q-36 0 -63 -18t-45 -46t-27.5 -63t-9.5 -69q0 -25 6 -47.5t18.5 -40t32.5 -27.5t48 -10z" />
    <glyph glyph-name="ntilde" unicode="&#xf1;" horiz-adv-x="561" 
d="M114 474h108l-12 -73q27 39 66.5 62.5t88.5 23.5q35 0 65 -10t50 -31.5t28 -54.5t0 -78l-55 -313h-114l53 297q9 53 -14 75t-60 22q-19 0 -39.5 -9t-38.5 -27.5t-32 -46t-21 -64.5l-43 -247h-114zM285 675q27 0 45.5 -8.5t33.5 -18t28.5 -18t30.5 -8.5q15 0 27 7.5
t20 16.5q10 11 16 25l53 -49q-13 -21 -31 -37q-16 -14 -39 -25.5t-55 -11.5q-26 0 -44.5 8.5t-33 18t-28 18t-30.5 8.5t-29.5 -7.5t-20.5 -16.5q-10 -11 -16 -24l-51 49q12 20 30 36q15 14 38.5 25.5t55.5 11.5z" />
    <glyph glyph-name="ograve" unicode="&#xf2;" horiz-adv-x="554" 
d="M519 271q0 -54 -18 -105.5t-52.5 -91t-83.5 -63.5t-112 -24q-50 0 -90 14.5t-68.5 42.5t-44 68t-15.5 90q0 54 18 105.5t52.5 91t83.5 64t111 24.5q49 0 89 -15t69 -43t45 -68t16 -90zM257 74q36 0 63.5 18t46 47t28 64.5t9.5 70.5q0 25 -6 48t-19 40.5t-33.5 27.5
t-48.5 10q-36 0 -63.5 -18t-46 -47t-27.5 -64.5t-9 -70.5q0 -26 6 -48.5t19 -40t33 -27.5t48 -10zM283 723l169 -134l-44 -56l-187 110z" />
    <glyph glyph-name="oacute" unicode="&#xf3;" horiz-adv-x="554" 
d="M456 638l-216 -105l-27 64l206 127zM519 271q0 -54 -18 -105.5t-52.5 -91t-83.5 -63.5t-112 -24q-50 0 -90 14.5t-68.5 42.5t-44 68t-15.5 90q0 54 18 105.5t52.5 91t83.5 64t111 24.5q49 0 89 -15t69 -43t45 -68t16 -90zM257 74q36 0 63.5 18t46 47t28 64.5t9.5 70.5
q0 25 -6 48t-19 40.5t-33.5 27.5t-48.5 10q-36 0 -63.5 -18t-46 -47t-27.5 -64.5t-9 -70.5q0 -26 6 -48.5t19 -40t33 -27.5t48 -10z" />
    <glyph glyph-name="ocircumflex" unicode="&#xf4;" horiz-adv-x="554" 
d="M307 706h74l97 -131l-59 -46l-81 105l-118 -106l-50 52zM519 271q0 -54 -18 -105.5t-52.5 -91t-83.5 -63.5t-112 -24q-50 0 -90 14.5t-68.5 42.5t-44 68t-15.5 90q0 54 18 105.5t52.5 91t83.5 64t111 24.5q49 0 89 -15t69 -43t45 -68t16 -90zM257 74q36 0 63.5 18t46 47
t28 64.5t9.5 70.5q0 25 -6 48t-19 40.5t-33.5 27.5t-48.5 10q-36 0 -63.5 -18t-46 -47t-27.5 -64.5t-9 -70.5q0 -26 6 -48.5t19 -40t33 -27.5t48 -10z" />
    <glyph glyph-name="otilde" unicode="&#xf5;" horiz-adv-x="554" 
d="M519 271q0 -54 -18 -105.5t-52.5 -91t-83.5 -63.5t-112 -24q-50 0 -90 14.5t-68.5 42.5t-44 68t-15.5 90q0 54 18 105.5t52.5 91t83.5 64t111 24.5q49 0 89 -15t69 -43t45 -68t16 -90zM257 74q36 0 63.5 18t46 47t28 64.5t9.5 70.5q0 25 -6 48t-19 40.5t-33.5 27.5
t-48.5 10q-36 0 -63.5 -18t-46 -47t-27.5 -64.5t-9 -70.5q0 -26 6 -48.5t19 -40t33 -27.5t48 -10zM268 675q27 0 45.5 -8.5t33.5 -18t28.5 -18t30.5 -8.5q15 0 27 7.5t20 16.5q10 11 16 25l53 -49q-13 -21 -31 -37q-16 -14 -39 -25.5t-55 -11.5q-26 0 -44.5 8.5t-33 18
t-28 18t-30.5 8.5t-29.5 -7.5t-20.5 -16.5q-10 -11 -16 -24l-51 49q12 20 30 36q15 14 38.5 25.5t55.5 11.5z" />
    <glyph glyph-name="odieresis" unicode="&#xf6;" horiz-adv-x="554" 
d="M166 607q0 28 18 45.5t47 17.5t47 -17.5t18 -45.5q0 -26 -18 -44.5t-47 -18.5t-47 18.5t-18 44.5zM370 607q0 28 18 45.5t47 17.5t47 -17.5t18 -45.5q0 -26 -18 -44.5t-47 -18.5t-47 18.5t-18 44.5zM519 271q0 -54 -18 -105.5t-52.5 -91t-83.5 -63.5t-112 -24
q-50 0 -90 14.5t-68.5 42.5t-44 68t-15.5 90q0 54 18 105.5t52.5 91t83.5 64t111 24.5q49 0 89 -15t69 -43t45 -68t16 -90zM257 74q36 0 63.5 18t46 47t28 64.5t9.5 70.5q0 25 -6 48t-19 40.5t-33.5 27.5t-48.5 10q-36 0 -63.5 -18t-46 -47t-27.5 -64.5t-9 -70.5
q0 -26 6 -48.5t19 -40t33 -27.5t48 -10z" />
    <glyph glyph-name="divide" unicode="&#xf7;" 
d="M75 370h496l-16 -91h-496zM348 587q32 0 52.5 -19.5t20.5 -50.5t-20.5 -50.5t-52.5 -19.5t-52 19.5t-20 50.5t20 50.5t52 19.5zM284 201q32 0 52 -19.5t20 -50.5t-20 -50.5t-52 -19.5t-52 19.5t-20 50.5t20 50.5t52 19.5z" />
    <glyph glyph-name="oslash" unicode="&#xf8;" horiz-adv-x="554" 
d="M519 271q0 -54 -18 -105.5t-52.5 -91t-83.5 -63.5t-112 -24q-66 0 -112 24l-64 -78l-50 42l61 75q-26 28 -39.5 66t-13.5 86q0 54 18 105.5t52.5 91t83.5 64t111 24.5q35 0 65 -8t56 -22l64 78l50 -43l-63 -77q23 -27 35 -63t12 -81zM151 200q0 -35 10 -61l198 242
q-25 19 -62 19q-36 0 -63.5 -18t-46 -47t-27.5 -64.5t-9 -70.5zM257 74q36 0 63.5 18t46 47t28 64.5t9.5 70.5q0 28 -7 50l-194 -237q22 -13 54 -13z" />
    <glyph glyph-name="ugrave" unicode="&#xf9;" horiz-adv-x="560" 
d="M446 0h-109l13 73q-27 -39 -66.5 -62.5t-87.5 -23.5q-35 0 -65 10t-49.5 31.5t-27.5 54.5t0 78l55 313h114l-53 -298q-5 -26 -0.5 -44.5t14.5 -30t25 -16.5t33 -5q19 0 39.5 9t38.5 27.5t32 46t20 64.5l44 247h113zM277 723l169 -134l-44 -56l-187 110z" />
    <glyph glyph-name="uacute" unicode="&#xfa;" horiz-adv-x="560" 
d="M468 638l-216 -105l-27 64l206 127zM446 0h-109l13 73q-27 -39 -66.5 -62.5t-87.5 -23.5q-35 0 -65 10t-49.5 31.5t-27.5 54.5t0 78l55 313h114l-53 -298q-5 -26 -0.5 -44.5t14.5 -30t25 -16.5t33 -5q19 0 39.5 9t38.5 27.5t32 46t20 64.5l44 247h113z" />
    <glyph glyph-name="ucircumflex" unicode="&#xfb;" horiz-adv-x="560" 
d="M315 706h74l97 -131l-59 -46l-81 105l-118 -106l-50 52zM446 0h-109l13 73q-27 -39 -66.5 -62.5t-87.5 -23.5q-35 0 -65 10t-49.5 31.5t-27.5 54.5t0 78l55 313h114l-53 -298q-5 -26 -0.5 -44.5t14.5 -30t25 -16.5t33 -5q19 0 39.5 9t38.5 27.5t32 46t20 64.5l44 247h113
z" />
    <glyph glyph-name="udieresis" unicode="&#xfc;" horiz-adv-x="560" 
d="M170 607q0 28 18 45.5t47 17.5t47 -17.5t18 -45.5q0 -26 -18 -44.5t-47 -18.5t-47 18.5t-18 44.5zM374 607q0 28 18 45.5t47 17.5t47 -17.5t18 -45.5q0 -26 -18 -44.5t-47 -18.5t-47 18.5t-18 44.5zM446 0h-109l13 73q-27 -39 -66.5 -62.5t-87.5 -23.5q-35 0 -65 10
t-49.5 31.5t-27.5 54.5t0 78l55 313h114l-53 -298q-5 -26 -0.5 -44.5t14.5 -30t25 -16.5t33 -5q19 0 39.5 9t38.5 27.5t32 46t20 64.5l44 247h113z" />
    <glyph glyph-name="yacute" unicode="&#xfd;" horiz-adv-x="497" 
d="M218 -82q-21 -38 -41.5 -63.5t-41.5 -40.5t-43 -21.5t-46 -6.5q-31 0 -55 7t-37 16l45 84q8 -7 19.5 -11.5t24.5 -4.5q21 0 41.5 15t42.5 56l28 53l-102 473h112q16 -82 29 -152q6 -30 11.5 -60t10 -56t8 -47t5.5 -31h2l15.5 31t24.5 47t30 56l32 60q38 70 82 152h112z
M443 638l-216 -105l-27 64l206 127z" />
    <glyph glyph-name="thorn" unicode="&#xfe;" horiz-adv-x="587" 
d="M552 274q0 -65 -20.5 -117.5t-54.5 -90.5t-79 -58.5t-94 -20.5q-60 0 -96.5 22t-52.5 52l-46 -261h-114l158 900h114l-50 -286q22 29 58.5 51t87.5 22q42 0 77 -15t59.5 -43t38.5 -67t14 -88zM436 272q0 56 -26 90.5t-80 34.5q-23 0 -45.5 -8.5t-42 -25.5t-34 -43.5
t-20.5 -63.5l-6 -34q-7 -39 -0.5 -66.5t22 -45t38 -25.5t46.5 -8q33 0 60 15t46.5 41.5t30.5 62t11 76.5z" />
    <glyph glyph-name="ydieresis" unicode="&#xff;" horiz-adv-x="497" 
d="M218 -82q-21 -38 -41.5 -63.5t-41.5 -40.5t-43 -21.5t-46 -6.5q-31 0 -55 7t-37 16l45 84q8 -7 19.5 -11.5t24.5 -4.5q21 0 41.5 15t42.5 56l28 53l-102 473h112q16 -82 29 -152q6 -30 11.5 -60t10 -56t8 -47t5.5 -31h2l15.5 31t24.5 47t30 56l32 60q38 70 82 152h112z
M131 607q0 28 18 45.5t47 17.5t47 -17.5t18 -45.5q0 -26 -18 -44.5t-47 -18.5t-47 18.5t-18 44.5zM335 607q0 28 18 45.5t47 17.5t47 -17.5t18 -45.5q0 -26 -18 -44.5t-47 -18.5t-47 18.5t-18 44.5z" />
    <glyph glyph-name="Amacron" unicode="&#x100;" horiz-adv-x="661" 
d="M602 0h-118l-30 176h-265l-93 -176h-121l377 700h120zM388 563q-5 -10 -13.5 -27.5t-20 -40t-24.5 -48t-26 -50.5q-31 -59 -66 -128h200q-12 69 -22 128q-4 25 -8 50.5t-8 48t-6.5 40t-3.5 27.5h-2zM297 850h274l-13 -75h-274z" />
    <glyph glyph-name="amacron" unicode="&#x101;" horiz-adv-x="512" 
d="M312 0q-2 8 -3.5 24t2.5 37q-22 -33 -59.5 -53.5t-83.5 -20.5q-32 0 -59.5 8t-48 24t-32.5 41t-12 58q0 49 26.5 81.5t72.5 52t106 27.5t128 8l5 30q6 38 -10 61.5t-63 23.5q-46 0 -72 -22.5t-30 -51.5l-108 16q9 36 29.5 63t49.5 45t64.5 26.5t74.5 8.5q46 0 82 -12
t59 -35.5t32 -57.5t1 -78l-43 -240q-4 -23 -3.5 -36t4.5 -28h-109zM204 71q22 0 42.5 7.5t37.5 21.5t29 33.5t16 42.5l6 37q-46 0 -84 -4t-65.5 -13.5t-42.5 -25.5t-15 -40q0 -59 76 -59zM180 630h273l-13 -74h-273z" />
    <glyph glyph-name="Abreve" unicode="&#x102;" horiz-adv-x="661" 
d="M602 0h-118l-30 176h-265l-93 -176h-121l377 700h120zM388 563q-5 -10 -13.5 -27.5t-20 -40t-24.5 -48t-26 -50.5q-31 -59 -66 -128h200q-12 69 -22 128q-4 25 -8 50.5t-8 48t-6.5 40t-3.5 27.5h-2zM357 901q0 -29 18.5 -49.5t50.5 -20.5t56.5 20.5t32.5 49.5l84 -24
q-18 -51 -64.5 -85t-112.5 -34q-65 0 -105.5 33t-43.5 86z" />
    <glyph glyph-name="abreve" unicode="&#x103;" horiz-adv-x="512" 
d="M312 0q-2 8 -3.5 24t2.5 37q-22 -33 -59.5 -53.5t-83.5 -20.5q-32 0 -59.5 8t-48 24t-32.5 41t-12 58q0 49 26.5 81.5t72.5 52t106 27.5t128 8l5 30q6 38 -10 61.5t-63 23.5q-46 0 -72 -22.5t-30 -51.5l-108 16q9 36 29.5 63t49.5 45t64.5 26.5t74.5 8.5q46 0 82 -12
t59 -35.5t32 -57.5t1 -78l-43 -240q-4 -23 -3.5 -36t4.5 -28h-109zM204 71q22 0 42.5 7.5t37.5 21.5t29 33.5t16 42.5l6 37q-46 0 -84 -4t-65.5 -13.5t-42.5 -25.5t-15 -40q0 -59 76 -59zM241 688q0 -29 18.5 -49.5t50.5 -20.5t56.5 20.5t32.5 49.5l84 -24
q-18 -51 -64.5 -85t-112.5 -34q-65 0 -105.5 33.5t-43.5 85.5z" />
    <glyph glyph-name="Aogonek" unicode="&#x104;" horiz-adv-x="661" 
d="M602 0q-122 -53 -122 -102q0 -14 9.5 -23.5t28.5 -9.5q13 0 28.5 7.5t27.5 25.5l43 -45q-27 -31 -57.5 -43t-62.5 -12q-20 0 -38.5 5t-32.5 15t-22 25.5t-8 37.5q0 43 25 70.5t63 48.5l-30 176h-265l-93 -176h-121l377 700h120zM388 563q-5 -10 -13.5 -27.5t-20 -40
t-24.5 -48t-26 -50.5q-31 -59 -66 -128h200q-12 69 -22 128q-4 25 -8 50.5t-8 48t-6.5 40t-3.5 27.5h-2z" />
    <glyph glyph-name="aogonek" unicode="&#x105;" horiz-adv-x="512" 
d="M303 -102q0 -14 9.5 -23.5t28.5 -9.5q13 0 28.5 7.5t27.5 25.5l43 -45q-27 -31 -57 -43t-62 -12q-47 0 -74.5 22t-27.5 60q0 43 25.5 70t67.5 50q-2 8 -3.5 24t2.5 37q-22 -33 -59.5 -53.5t-83.5 -20.5q-32 0 -59.5 8t-48 24t-32.5 41t-12 58q0 49 26.5 81.5t72.5 52
t106 27.5t128 8l5 30q6 38 -10 61.5t-63 23.5q-46 0 -72 -22.5t-30 -51.5l-108 16q9 36 29.5 63t49.5 45t64.5 26.5t74.5 8.5q46 0 82 -12t59 -35.5t32 -57.5t1 -78l-43 -240q-4 -23 -3.5 -36t4.5 -28q-58 -29 -88 -53.5t-30 -48.5zM204 71q22 0 42.5 7.5t37.5 21.5t29 33.5
t16 42.5l6 37q-46 0 -84 -4t-65.5 -13.5t-42.5 -25.5t-15 -40q0 -59 76 -59z" />
    <glyph glyph-name="Cacute" unicode="&#x106;" horiz-adv-x="689" 
d="M424 615q-54 0 -97.5 -25.5t-74.5 -69.5t-47.5 -102t-16.5 -123q0 -43 10.5 -81.5t32 -67t55 -45t78.5 -16.5q59 0 100.5 33.5t69.5 93.5l111 -41q-41 -85 -111.5 -134.5t-171.5 -49.5q-70 0 -125 21t-93.5 61t-58.5 96.5t-20 127.5q0 86 25 162.5t72 133.5t114 90.5
t152 33.5q113 0 183 -49t91 -138l-114 -40q-11 59 -50 94t-114 35zM583 853l-216 -105l-27 64l206 127z" />
    <glyph glyph-name="cacute" unicode="&#x107;" horiz-adv-x="509" 
d="M448 638l-216 -105l-27 64l206 127zM35 202q0 54 17.5 105.5t51.5 91t82.5 64t110.5 24.5q46 0 80.5 -11t58.5 -30t38.5 -45t20.5 -56l-107 -28q-5 40 -29 60.5t-66 20.5q-35 0 -61.5 -17.5t-44 -46t-26.5 -63.5t-9 -69q0 -26 5.5 -48.5t18 -39.5t31.5 -27t46 -10
q42 0 65.5 20.5t39.5 55.5l101 -39q-30 -55 -80 -91t-129 -36q-49 0 -88.5 14.5t-67.5 42.5t-43.5 68t-15.5 90z" />
    <glyph glyph-name="Ccircumflex" unicode="&#x108;" horiz-adv-x="689" 
d="M424 615q-54 0 -97.5 -25.5t-74.5 -69.5t-47.5 -102t-16.5 -123q0 -43 10.5 -81.5t32 -67t55 -45t78.5 -16.5q59 0 100.5 33.5t69.5 93.5l111 -41q-41 -85 -111.5 -134.5t-171.5 -49.5q-70 0 -125 21t-93.5 61t-58.5 96.5t-20 127.5q0 86 25 162.5t72 133.5t114 90.5
t152 33.5q113 0 183 -49t91 -138l-114 -40q-11 59 -50 94t-114 35zM603 794l-59 -48l-81 100l-122 -101l-50 54l136 113h84z" />
    <glyph glyph-name="ccircumflex" unicode="&#x109;" horiz-adv-x="509" 
d="M301 706h74l97 -131l-59 -46l-81 105l-118 -106l-50 52zM35 202q0 54 17.5 105.5t51.5 91t82.5 64t110.5 24.5q46 0 80.5 -11t58.5 -30t38.5 -45t20.5 -56l-107 -28q-5 40 -29 60.5t-66 20.5q-35 0 -61.5 -17.5t-44 -46t-26.5 -63.5t-9 -69q0 -26 5.5 -48.5t18 -39.5
t31.5 -27t46 -10q42 0 65.5 20.5t39.5 55.5l101 -39q-30 -55 -80 -91t-129 -36q-49 0 -88.5 14.5t-67.5 42.5t-43.5 68t-15.5 90z" />
    <glyph glyph-name="Cdotaccent" unicode="&#x10a;" horiz-adv-x="689" 
d="M382 832q0 31 19.5 50.5t51.5 19.5t52 -19.5t20 -50.5q0 -30 -20 -49t-52 -19t-51.5 19t-19.5 49zM424 615q-54 0 -97.5 -25.5t-74.5 -69.5t-47.5 -102t-16.5 -123q0 -43 10.5 -81.5t32 -67t55 -45t78.5 -16.5q59 0 100.5 33.5t69.5 93.5l111 -41q-41 -85 -111.5 -134.5
t-171.5 -49.5q-70 0 -125 21t-93.5 61t-58.5 96.5t-20 127.5q0 86 25 162.5t72 133.5t114 90.5t152 33.5q113 0 183 -49t91 -138l-114 -40q-11 59 -50 94t-114 35z" />
    <glyph glyph-name="cdotaccent" unicode="&#x10b;" horiz-adv-x="509" 
d="M35 202q0 54 17.5 105.5t51.5 91t82.5 64t110.5 24.5q46 0 80.5 -11t58.5 -30t38.5 -45t20.5 -56l-107 -28q-5 40 -29 60.5t-66 20.5q-35 0 -61.5 -17.5t-44 -46t-26.5 -63.5t-9 -69q0 -26 5.5 -48.5t18 -39.5t31.5 -27t46 -10q42 0 65.5 20.5t39.5 55.5l101 -39
q-30 -55 -80 -91t-129 -36q-49 0 -88.5 14.5t-67.5 42.5t-43.5 68t-15.5 90zM260 613q0 31 19.5 50t51.5 19t51.5 -19t19.5 -50q0 -29 -19.5 -49t-51.5 -20t-51.5 20t-19.5 49z" />
    <glyph glyph-name="Ccaron" unicode="&#x10c;" horiz-adv-x="689" 
d="M424 615q-54 0 -97.5 -25.5t-74.5 -69.5t-47.5 -102t-16.5 -123q0 -43 10.5 -81.5t32 -67t55 -45t78.5 -16.5q59 0 100.5 33.5t69.5 93.5l111 -41q-41 -85 -111.5 -134.5t-171.5 -49.5q-70 0 -125 21t-93.5 61t-58.5 96.5t-20 127.5q0 86 25 162.5t72 133.5t114 90.5
t152 33.5q113 0 183 -49t91 -138l-114 -40q-11 59 -50 94t-114 35zM490 751h-84l-92 119l59 47l81 -100l122 102l50 -54z" />
    <glyph glyph-name="ccaron" unicode="&#x10d;" horiz-adv-x="509" 
d="M349 534h-74l-94 131l59 46l78 -105l118 106l50 -52zM35 202q0 54 17.5 105.5t51.5 91t82.5 64t110.5 24.5q46 0 80.5 -11t58.5 -30t38.5 -45t20.5 -56l-107 -28q-5 40 -29 60.5t-66 20.5q-35 0 -61.5 -17.5t-44 -46t-26.5 -63.5t-9 -69q0 -26 5.5 -48.5t18 -39.5
t31.5 -27t46 -10q42 0 65.5 20.5t39.5 55.5l101 -39q-30 -55 -80 -91t-129 -36q-49 0 -88.5 14.5t-67.5 42.5t-43.5 68t-15.5 90z" />
    <glyph glyph-name="Dcaron" unicode="&#x10e;" horiz-adv-x="711" 
d="M452 751h-84l-92 119l59 47l81 -100l122 102l50 -54zM162 700h238q66 0 118.5 -19.5t90 -56t57.5 -89t20 -117.5q0 -98 -27.5 -175.5t-79 -131.5t-125 -82.5t-164.5 -28.5h-251zM563 418q0 88 -46.5 136.5t-142.5 48.5h-110l-89 -506h122q66 0 116 25t83.5 68.5t50 102
t16.5 125.5z" />
    <glyph glyph-name="dcaron" unicode="&#x10f;" horiz-adv-x="588" 
d="M777 704l-94 -172l-62 20l73 179zM365 0l12 69q-20 -31 -58.5 -56.5t-93.5 -25.5q-43 0 -78 15t-60 42.5t-38.5 67t-13.5 88.5q0 64 20.5 117t54.5 91t79 58.5t95 20.5q59 0 96 -22.5t53 -52.5l51 288h113l-123 -700h-109zM405 251q7 40 0 67.5t-22.5 45t-37.5 25.5
t-46 8q-33 0 -60 -15t-46.5 -41.5t-30.5 -62t-11 -76.5q0 -56 26 -90.5t80 -34.5q22 0 44.5 8t41.5 24.5t34 43t22 64.5z" />
    <glyph glyph-name="Dcroat" unicode="&#x110;" horiz-adv-x="730" 
d="M114 321h-80l14 85h81l52 294h238q66 0 118.5 -19.5t90 -56t57.5 -89t20 -117.5q0 -98 -27.5 -175.5t-79 -131.5t-125 -82.5t-164.5 -28.5h-251zM582 418q0 88 -46.5 136.5t-142.5 48.5h-110l-35 -197h165l-14 -85h-166l-39 -224h122q66 0 116 25t83.5 68.5t50 102
t16.5 125.5z" />
    <glyph glyph-name="dcroat" unicode="&#x111;" horiz-adv-x="588" 
d="M365 0l12 69q-20 -31 -58.5 -56.5t-93.5 -25.5q-43 0 -78 15t-60 42.5t-38.5 67t-13.5 88.5q0 64 20.5 117t54.5 91t79 58.5t95 20.5q59 0 96 -22.5t53 -52.5l23 134h-152l15 82h152l13 72h113l-13 -72h61l-15 -82h-60l-96 -546h-109zM405 251q7 40 0 67.5t-22.5 45
t-37.5 25.5t-46 8q-33 0 -60 -15t-46.5 -41.5t-30.5 -62t-11 -76.5q0 -56 26 -90.5t80 -34.5q22 0 44.5 8t41.5 24.5t34 43t22 64.5z" />
    <glyph glyph-name="Emacron" unicode="&#x112;" horiz-adv-x="575" 
d="M269 850h274l-13 -75h-274zM39 0l123 700h443l-16 -97h-326l-35 -194h304l-17 -97h-304l-38 -215h332l-17 -97h-449z" />
    <glyph glyph-name="emacron" unicode="&#x113;" horiz-adv-x="524" 
d="M457 102q-32 -54 -84.5 -84.5t-124.5 -30.5q-99 0 -156 54.5t-57 154.5q0 62 19.5 115t54 92t82 61.5t103.5 22.5q61 0 103 -20.5t66 -54.5t30.5 -79t-1.5 -93q-1 -5 -2 -9.5t-2 -9.5l-2 -10h-338q-3 -27 0 -52t15 -44.5t33 -31t54 -11.5q44 0 69.5 20t44.5 50zM292 404
q-52 0 -84.5 -33t-46.5 -85h224q8 57 -17.5 87.5t-75.5 30.5zM189 630h273l-13 -74h-273z" />
    <glyph glyph-name="Ebreve" unicode="&#x114;" horiz-adv-x="575" 
d="M327 901q0 -29 18.5 -49.5t50.5 -20.5t56.5 20.5t32.5 49.5l84 -24q-18 -51 -64.5 -85t-112.5 -34q-65 0 -105.5 33t-43.5 86zM39 0l123 700h443l-16 -97h-326l-35 -194h304l-17 -97h-304l-38 -215h332l-17 -97h-449z" />
    <glyph glyph-name="ebreve" unicode="&#x115;" horiz-adv-x="524" 
d="M457 102q-32 -54 -84.5 -84.5t-124.5 -30.5q-99 0 -156 54.5t-57 154.5q0 62 19.5 115t54 92t82 61.5t103.5 22.5q61 0 103 -20.5t66 -54.5t30.5 -79t-1.5 -93q-1 -5 -2 -9.5t-2 -9.5l-2 -10h-338q-3 -27 0 -52t15 -44.5t33 -31t54 -11.5q44 0 69.5 20t44.5 50zM292 404
q-52 0 -84.5 -33t-46.5 -85h224q8 57 -17.5 87.5t-75.5 30.5zM250 688q0 -29 18.5 -49.5t50.5 -20.5t56.5 20.5t32.5 49.5l84 -24q-18 -51 -64.5 -85t-112.5 -34q-65 0 -105.5 33.5t-43.5 85.5z" />
    <glyph glyph-name="Edotaccent" unicode="&#x116;" horiz-adv-x="575" 
d="M327 832q0 31 19.5 50.5t51.5 19.5t52 -19.5t20 -50.5q0 -30 -20 -49t-52 -19t-51.5 19t-19.5 49zM39 0l123 700h443l-16 -97h-326l-35 -194h304l-17 -97h-304l-38 -215h332l-17 -97h-449z" />
    <glyph glyph-name="edotaccent" unicode="&#x117;" horiz-adv-x="524" 
d="M457 102q-32 -54 -84.5 -84.5t-124.5 -30.5q-99 0 -156 54.5t-57 154.5q0 62 19.5 115t54 92t82 61.5t103.5 22.5q61 0 103 -20.5t66 -54.5t30.5 -79t-1.5 -93q-1 -5 -2 -9.5t-2 -9.5l-2 -10h-338q-3 -27 0 -52t15 -44.5t33 -31t54 -11.5q44 0 69.5 20t44.5 50zM292 404
q-52 0 -84.5 -33t-46.5 -85h224q8 57 -17.5 87.5t-75.5 30.5zM253 613q0 31 19.5 50t51.5 19t51.5 -19t19.5 -50q0 -29 -19.5 -49t-51.5 -20t-51.5 20t-19.5 49z" />
    <glyph glyph-name="Eogonek" unicode="&#x118;" horiz-adv-x="575" 
d="M430 0q-60 -29 -90 -53.5t-30 -48.5q0 -14 9.5 -23.5t28.5 -9.5q13 0 28.5 7.5t27.5 25.5l43 -45q-27 -31 -57 -43t-62 -12q-47 0 -74.5 22t-27.5 60q0 43 25.5 70t66.5 50h-279l123 700h443l-16 -97h-326l-35 -194h304l-17 -97h-304l-38 -215h332l-17 -97h-58z" />
    <glyph glyph-name="eogonek" unicode="&#x119;" horiz-adv-x="524" 
d="M223 -102q0 -14 9.5 -23.5t28.5 -9.5q13 0 28.5 7.5t27.5 25.5l43 -45q-27 -31 -57 -43t-62 -12q-47 0 -74.5 22t-27.5 60t20 63t53 46q-83 9 -130 62.5t-47 144.5q0 62 19.5 115t54 92t82 61.5t103.5 22.5q61 0 103 -20.5t66 -54.5t30.5 -79t-1.5 -93q-1 -5 -2 -9.5
t-2 -9.5l-2 -10h-338q-3 -27 0 -52t15 -44.5t33 -31t54 -11.5q44 0 69.5 20t44.5 50l93 -40q-22 -37 -52 -62t-62 -39q-120 -54 -120 -103zM292 404q-52 0 -84.5 -33t-46.5 -85h224q8 57 -17.5 87.5t-75.5 30.5z" />
    <glyph glyph-name="Ecaron" unicode="&#x11a;" horiz-adv-x="575" 
d="M426 751h-84l-92 119l59 47l81 -100l122 102l50 -54zM39 0l123 700h443l-16 -97h-326l-35 -194h304l-17 -97h-304l-38 -215h332l-17 -97h-449z" />
    <glyph glyph-name="ecaron" unicode="&#x11b;" horiz-adv-x="524" 
d="M346 534h-74l-94 131l59 46l78 -105l118 106l50 -52zM457 102q-32 -54 -84.5 -84.5t-124.5 -30.5q-99 0 -156 54.5t-57 154.5q0 62 19.5 115t54 92t82 61.5t103.5 22.5q61 0 103 -20.5t66 -54.5t30.5 -79t-1.5 -93q-1 -5 -2 -9.5t-2 -9.5l-2 -10h-338q-3 -27 0 -52
t15 -44.5t33 -31t54 -11.5q44 0 69.5 20t44.5 50zM292 404q-52 0 -84.5 -33t-46.5 -85h224q8 57 -17.5 87.5t-75.5 30.5z" />
    <glyph glyph-name="Gcircumflex" unicode="&#x11c;" horiz-adv-x="735" 
d="M64 293q0 82 24.5 158t71.5 134.5t115 93t154 34.5q110 0 180.5 -47t94.5 -135l-114 -38q-13 57 -53 90t-111 33q-53 0 -97.5 -25t-76 -68.5t-49 -103t-17.5 -128.5q0 -95 43.5 -151t132.5 -56q33 0 64 9.5t56 28.5t42.5 47t23.5 65l6 39h-189l16 93h304l-65 -366h-108
l13 73q-12 -16 -29.5 -31.5t-41 -27.5t-53 -19.5t-63.5 -7.5q-68 0 -119 24t-85.5 65.5t-52 97t-17.5 119.5zM606 794l-59 -48l-81 100l-122 -101l-50 54l136 113h84z" />
    <glyph glyph-name="gcircumflex" unicode="&#x11d;" horiz-adv-x="587" 
d="M300 706h74l97 -131l-59 -46l-81 105l-118 -106l-50 52zM476 21q-20 -114 -84 -174t-176 -60q-93 0 -143 33t-67 88l105 39q5 -15 12.5 -28.5t19.5 -23.5t30 -15.5t45 -5.5q34 0 59 12t42 32.5t27.5 47t16.5 56.5l10 54q-21 -27 -58 -48t-88 -21q-43 0 -78.5 14.5
t-60.5 40.5t-38.5 63.5t-13.5 84.5q0 61 20 112t54 88t78.5 57t94.5 20q61 0 99 -24.5t53 -58.5l12 70h109zM404 252q6 38 -0.5 65.5t-22 45t-37.5 26t-46 8.5q-33 0 -59.5 -14.5t-46 -39.5t-30 -59t-10.5 -72q0 -51 26 -83t79 -32q22 0 45 7t42.5 23t34 40t20.5 59z" />
    <glyph glyph-name="Gbreve" unicode="&#x11e;" horiz-adv-x="735" 
d="M384 901q0 -29 18.5 -49.5t50.5 -20.5t56.5 20.5t32.5 49.5l84 -24q-18 -51 -64.5 -85t-112.5 -34q-65 0 -105.5 33t-43.5 86zM64 293q0 82 24.5 158t71.5 134.5t115 93t154 34.5q110 0 180.5 -47t94.5 -135l-114 -38q-13 57 -53 90t-111 33q-53 0 -97.5 -25t-76 -68.5
t-49 -103t-17.5 -128.5q0 -95 43.5 -151t132.5 -56q33 0 64 9.5t56 28.5t42.5 47t23.5 65l6 39h-189l16 93h304l-65 -366h-108l13 73q-12 -16 -29.5 -31.5t-41 -27.5t-53 -19.5t-63.5 -7.5q-68 0 -119 24t-85.5 65.5t-52 97t-17.5 119.5z" />
    <glyph glyph-name="gbreve" unicode="&#x11f;" horiz-adv-x="587" 
d="M476 21q-20 -114 -84 -174t-176 -60q-93 0 -143 33t-67 88l105 39q5 -15 12.5 -28.5t19.5 -23.5t30 -15.5t45 -5.5q34 0 59 12t42 32.5t27.5 47t16.5 56.5l10 54q-21 -27 -58 -48t-88 -21q-43 0 -78.5 14.5t-60.5 40.5t-38.5 63.5t-13.5 84.5q0 61 20 112t54 88t78.5 57
t94.5 20q61 0 99 -24.5t53 -58.5l12 70h109zM404 252q6 38 -0.5 65.5t-22 45t-37.5 26t-46 8.5q-33 0 -59.5 -14.5t-46 -39.5t-30 -59t-10.5 -72q0 -51 26 -83t79 -32q22 0 45 7t42.5 23t34 40t20.5 59zM250 688q0 -29 18.5 -49.5t50.5 -20.5t56.5 20.5t32.5 49.5l84 -24
q-18 -51 -64.5 -85t-112.5 -34q-65 0 -105.5 33.5t-43.5 85.5z" />
    <glyph glyph-name="Gdotaccent" unicode="&#x120;" horiz-adv-x="735" 
d="M385 832q0 31 19.5 50.5t51.5 19.5t52 -19.5t20 -50.5q0 -30 -20 -49t-52 -19t-51.5 19t-19.5 49zM64 293q0 82 24.5 158t71.5 134.5t115 93t154 34.5q110 0 180.5 -47t94.5 -135l-114 -38q-13 57 -53 90t-111 33q-53 0 -97.5 -25t-76 -68.5t-49 -103t-17.5 -128.5
q0 -95 43.5 -151t132.5 -56q33 0 64 9.5t56 28.5t42.5 47t23.5 65l6 39h-189l16 93h304l-65 -366h-108l13 73q-12 -16 -29.5 -31.5t-41 -27.5t-53 -19.5t-63.5 -7.5q-68 0 -119 24t-85.5 65.5t-52 97t-17.5 119.5z" />
    <glyph glyph-name="gdotaccent" unicode="&#x121;" horiz-adv-x="587" 
d="M476 21q-20 -114 -84 -174t-176 -60q-93 0 -143 33t-67 88l105 39q5 -15 12.5 -28.5t19.5 -23.5t30 -15.5t45 -5.5q34 0 59 12t42 32.5t27.5 47t16.5 56.5l10 54q-21 -27 -58 -48t-88 -21q-43 0 -78.5 14.5t-60.5 40.5t-38.5 63.5t-13.5 84.5q0 61 20 112t54 88t78.5 57
t94.5 20q61 0 99 -24.5t53 -58.5l12 70h109zM404 252q6 38 -0.5 65.5t-22 45t-37.5 26t-46 8.5q-33 0 -59.5 -14.5t-46 -39.5t-30 -59t-10.5 -72q0 -51 26 -83t79 -32q22 0 45 7t42.5 23t34 40t20.5 59zM256 613q0 31 19.5 50t51.5 19t51.5 -19t19.5 -50q0 -29 -19.5 -49
t-51.5 -20t-51.5 20t-19.5 49z" />
    <glyph glyph-name="Gcommaaccent" unicode="&#x122;" horiz-adv-x="735" 
d="M377 -134q0 -18 -6.5 -39t-21.5 -39.5t-40.5 -32t-62.5 -14.5l-10 42q12 0 25 3t23.5 9.5t18 15.5t8.5 20q-5 -3 -14 -3q-20 1 -35.5 14.5t-15.5 39.5q0 23 16.5 44t49.5 21q35 0 50 -25t15 -56zM64 293q0 82 24.5 158t71.5 134.5t115 93t154 34.5q110 0 180.5 -47
t94.5 -135l-114 -38q-13 57 -53 90t-111 33q-53 0 -97.5 -25t-76 -68.5t-49 -103t-17.5 -128.5q0 -95 43.5 -151t132.5 -56q33 0 64 9.5t56 28.5t42.5 47t23.5 65l6 39h-189l16 93h304l-65 -366h-108l13 73q-12 -16 -29.5 -31.5t-41 -27.5t-53 -19.5t-63.5 -7.5
q-68 0 -119 24t-85.5 65.5t-52 97t-17.5 119.5z" />
    <glyph glyph-name="gcommaaccent" unicode="&#x123;" horiz-adv-x="587" 
d="M259 613q0 16 6.5 37t22 40t40.5 32t62 14l10 -43q-12 0 -25 -3t-23.5 -9t-18 -15t-8.5 -20q5 2 13 2q23 0 37.5 -16t14.5 -39q0 -22 -16.5 -42.5t-48.5 -20.5q-36 0 -51 25.5t-15 57.5zM476 21q-20 -114 -84 -174t-176 -60q-93 0 -143 33t-67 88l105 39
q5 -15 12.5 -28.5t19.5 -23.5t30 -15.5t45 -5.5q34 0 59 12t42 32.5t27.5 47t16.5 56.5l10 54q-21 -27 -58 -48t-88 -21q-43 0 -78.5 14.5t-60.5 40.5t-38.5 63.5t-13.5 84.5q0 61 20 112t54 88t78.5 57t94.5 20q61 0 99 -24.5t53 -58.5l12 70h109zM404 252q6 38 -0.5 65.5
t-22 45t-37.5 26t-46 8.5q-33 0 -59.5 -14.5t-46 -39.5t-30 -59t-10.5 -72q0 -51 26 -83t79 -32q22 0 45 7t42.5 23t34 40t20.5 59z" />
    <glyph glyph-name="Hcircumflex" unicode="&#x124;" horiz-adv-x="701" 
d="M162 700h118l-50 -290h303l50 290h118l-123 -700h-118l55 312h-303l-55 -312h-118zM595 794l-59 -48l-81 100l-122 -101l-50 54l136 113h84z" />
    <glyph glyph-name="hcircumflex" unicode="&#x125;" horiz-adv-x="561" 
d="M154 700h113l-51 -292q23 33 62 56t88 23q35 0 65 -10t50 -31.5t28 -54.5t0 -78l-56 -313h-113l52 298q9 52 -13.5 74t-59.5 22q-20 0 -40.5 -9t-38.5 -27.5t-32 -46t-20 -64.5l-44 -247h-114zM378 794l-59 -48l-81 100l-122 -101l-50 54l136 113h84z" />
    <glyph glyph-name="Hbar" unicode="&#x126;" horiz-adv-x="701" 
d="M126 499h-72l16 89h72l20 112h118l-19 -112h303l19 112h118l-20 -112h74l-16 -89h-74l-87 -499h-118l55 312h-303l-55 -312h-118zM533 410l15 89h-303l-15 -89h303z" />
    <glyph glyph-name="hbar" unicode="&#x127;" horiz-adv-x="561" 
d="M126 545h-58l15 84h58l13 71h113l-13 -71h155l-15 -84h-154l-24 -137q23 33 62 56t88 23q35 0 65 -10t50 -31.5t28 -54.5t0 -78l-56 -313h-113l52 298q9 52 -13.5 74t-59.5 22q-20 0 -40.5 -9t-38.5 -27.5t-32 -46t-20 -64.5l-44 -247h-114z" />
    <glyph glyph-name="Itilde" unicode="&#x128;" horiz-adv-x="280" 
d="M162 700h118l-123 -700h-118zM169 892q27 0 45.5 -8.5t33.5 -18t28.5 -18t30.5 -8.5q15 0 27 7.5t20 16.5q10 11 16 25l53 -49q-13 -21 -31 -37q-16 -14 -39 -25.5t-55 -11.5q-26 0 -44.5 8t-33 18t-28 18t-30.5 8t-29.5 -7.5t-20.5 -16.5q-10 -11 -16 -23l-51 49
q12 20 30 36q15 14 38.5 25.5t55.5 11.5z" />
    <glyph glyph-name="itilde" unicode="&#x129;" horiz-adv-x="258" 
d="M114 474h113l-83 -474h-114zM119 675q27 0 45.5 -8.5t33.5 -18t28.5 -18t30.5 -8.5q15 0 27 7.5t20 16.5q10 11 16 25l53 -49q-13 -21 -31 -37q-16 -14 -39 -25.5t-55 -11.5q-26 0 -44.5 8.5t-33 18t-28 18t-30.5 8.5t-29.5 -7.5t-20.5 -16.5q-10 -11 -16 -24l-51 49
q12 20 30 36q15 14 38.5 25.5t55.5 11.5z" />
    <glyph glyph-name="Imacron" unicode="&#x12a;" horiz-adv-x="280" 
d="M162 700h118l-123 -700h-118zM106 850h274l-13 -75h-274z" />
    <glyph glyph-name="imacron" unicode="&#x12b;" horiz-adv-x="258" 
d="M114 474h113l-83 -474h-114zM57 630h273l-13 -74h-273z" />
    <glyph glyph-name="Ibreve" unicode="&#x12c;" horiz-adv-x="280" 
d="M162 700h118l-123 -700h-118zM169 901q0 -29 18.5 -49.5t50.5 -20.5t56.5 20.5t32.5 49.5l84 -24q-18 -51 -64.5 -85t-112.5 -34q-65 0 -105.5 33t-43.5 86z" />
    <glyph glyph-name="ibreve" unicode="&#x12d;" horiz-adv-x="258" 
d="M114 474h113l-83 -474h-114zM118 688q0 -29 18.5 -49.5t50.5 -20.5t56.5 20.5t32.5 49.5l84 -24q-18 -51 -64.5 -85t-112.5 -34q-65 0 -105.5 33.5t-43.5 85.5z" />
    <glyph glyph-name="Iogonek" unicode="&#x12e;" horiz-adv-x="280" 
d="M35 -102q0 -14 9.5 -23.5t28.5 -9.5q13 0 28.5 7.5t27.5 25.5l43 -45q-27 -31 -57.5 -43t-62.5 -12q-20 0 -38 5t-32 15t-22.5 25.5t-8.5 37.5q0 43 25 70t63 49l123 700h118l-123 -700q-122 -54 -122 -102z" />
    <glyph glyph-name="iogonek" unicode="&#x12f;" horiz-adv-x="258" 
d="M23 -102q0 -14 9.5 -23.5t28.5 -9.5q13 0 28.5 7.5t27.5 25.5l43 -45q-27 -31 -57 -43t-62 -12q-47 0 -74.5 22t-27.5 60q0 43 25.5 70t65.5 50l84 474h113l-83 -474q-60 -29 -90.5 -53.5t-30.5 -48.5zM126 643q0 32 19.5 50.5t50.5 18.5q32 0 51.5 -18.5t19.5 -50.5
q0 -29 -19.5 -49t-51.5 -20t-51 20t-19 49z" />
    <glyph glyph-name="Idotaccent" unicode="&#x130;" horiz-adv-x="280" 
d="M170 832q0 31 19.5 50.5t51.5 19.5t52 -19.5t20 -50.5q0 -30 -20 -49t-52 -19t-51.5 19t-19.5 49zM162 700h118l-123 -700h-118z" />
    <glyph glyph-name="dotlessi" unicode="&#x131;" horiz-adv-x="258" 
d="M114 474h113l-83 -474h-114z" />
    <glyph glyph-name="IJ" unicode="&#x132;" horiz-adv-x="719" 
d="M162 700h118l-123 -700h-118zM320 144q20 -29 40 -44.5t52 -15.5q48 0 72.5 37t37.5 110l83 469h118l-83 -469q-9 -53 -24 -97.5t-40.5 -77t-64.5 -51t-98 -18.5q-74 0 -116 24t-65 59z" />
    <glyph glyph-name="ij" unicode="&#x133;" horiz-adv-x="519" 
d="M126 643q0 32 19.5 50.5t50.5 18.5q32 0 51.5 -18.5t19.5 -50.5q0 -29 -19.5 -49t-51.5 -20t-51 20t-19 49zM114 474h113l-83 -474h-114zM375 474h113l-92 -528q-14 -83 -63.5 -121t-116.5 -38q-39 0 -70 10.5t-51 27.5l57 81q10 -9 25 -17t35 -8q29 0 47 19.5t24 51.5z
M387 643q0 32 19.5 50.5t50.5 18.5q32 0 51.5 -18.5t19.5 -50.5q0 -29 -19.5 -49t-51.5 -20t-51 20t-19 49z" />
    <glyph glyph-name="Jcircumflex" unicode="&#x134;" horiz-adv-x="461" 
d="M62 144q20 -29 40 -44.5t52 -15.5q48 0 72.5 37t37.5 110l83 469h118l-83 -469q-9 -53 -24 -97.5t-40.5 -77t-64.5 -51t-98 -18.5q-74 0 -116 24t-65 59zM575 794l-59 -48l-81 100l-122 -101l-50 54l136 113h84z" />
    <glyph glyph-name="jcircumflex" unicode="&#x135;" horiz-adv-x="261" 
d="M116 474h114l-93 -529q-7 -42 -23.5 -71.5t-40 -49t-53.5 -28.5t-63 -9q-39 0 -70 10.5t-51 27.5l57 81q10 -9 25 -17t35 -8q29 0 47.5 19t23.5 51zM168 706h74l97 -131l-59 -46l-81 105l-118 -106l-50 52z" />
    <glyph glyph-name="Kcommaaccent" unicode="&#x136;" horiz-adv-x="644" 
d="M337 -134q0 -18 -6.5 -39t-21.5 -39.5t-40.5 -32t-62.5 -14.5l-10 42q12 0 25 3t23.5 9.5t18 15.5t8.5 20q-5 -3 -14 -3q-20 1 -35.5 14.5t-15.5 39.5q0 23 16.5 44t49.5 21q35 0 50 -25t15 -56zM285 335l-82 -75l-46 -260h-118l123 700h118l-50 -290l315 290h143
l-310 -285l210 -415h-135z" />
    <glyph glyph-name="kcommaaccent" unicode="&#x137;" horiz-adv-x="531" 
d="M291 -134q0 -18 -6.5 -39t-21.5 -39.5t-40.5 -32t-62.5 -14.5l-10 42q12 0 25 3t23.5 9.5t18 15.5t8.5 20q-5 -3 -14 -3q-20 1 -35.5 14.5t-15.5 39.5q0 23 16.5 44t49.5 21q35 0 50 -25t15 -56zM235 233l-58 -46l-33 -187h-114l123 700h114l-69 -390l206 164h140
l-220 -176l160 -298h-126z" />
    <glyph glyph-name="kgreenlandic" unicode="&#x138;" horiz-adv-x="531" 
d="M236 231l-60 -47l-32 -184h-114l84 474h113l-29 -164l206 164h140l-220 -176l160 -298h-126z" />
    <glyph glyph-name="Lacute" unicode="&#x139;" horiz-adv-x="527" 
d="M412 853l-216 -105l-27 64l206 127zM162 700h118l-106 -603h308l-17 -97h-426z" />
    <glyph glyph-name="lacute" unicode="&#x13a;" horiz-adv-x="258" 
d="M347 853l-216 -105l-27 64l206 127zM153 700h114l-123 -700h-114z" />
    <glyph glyph-name="Lcommaaccent" unicode="&#x13b;" horiz-adv-x="527" 
d="M291 -134q0 -18 -6.5 -39t-21.5 -39.5t-40.5 -32t-62.5 -14.5l-10 42q12 0 25 3t23.5 9.5t18 15.5t8.5 20q-5 -3 -14 -3q-20 1 -35.5 14.5t-15.5 39.5q0 23 16.5 44t49.5 21q35 0 50 -25t15 -56zM162 700h118l-106 -603h308l-17 -97h-426z" />
    <glyph glyph-name="lcommaaccent" unicode="&#x13c;" horiz-adv-x="258" 
d="M137 -134q0 -18 -6.5 -39t-21.5 -39.5t-40.5 -32t-62.5 -14.5l-10 42q12 0 25 3t23.5 9.5t18 15.5t8.5 20q-5 -3 -14 -3q-20 1 -35.5 14.5t-15.5 39.5q0 23 16.5 44t49.5 21q35 0 50 -25t15 -56zM153 700h114l-123 -700h-114z" />
    <glyph glyph-name="Lcaron" unicode="&#x13d;" horiz-adv-x="527" 
d="M484 704l-94 -172l-62 20l73 179zM162 700h118l-106 -603h308l-17 -97h-426z" />
    <glyph glyph-name="lcaron" unicode="&#x13e;" horiz-adv-x="258" 
d="M447 704l-94 -172l-62 20l73 179zM153 700h114l-123 -700h-114z" />
    <glyph glyph-name="Ldot" unicode="&#x13f;" horiz-adv-x="527" 
d="M162 700h118l-106 -603h308l-17 -97h-426zM330 360q0 31 19.5 50t51.5 19t51.5 -19t19.5 -50q0 -29 -19.5 -49t-51.5 -20t-51.5 20t-19.5 49z" />
    <glyph glyph-name="ldot" unicode="&#x140;" horiz-adv-x="406" 
d="M153 700h114l-123 -700h-114zM253 350q0 31 19.5 50t51.5 19t51.5 -19t19.5 -50q0 -29 -19.5 -49t-51.5 -20t-51.5 20t-19.5 49z" />
    <glyph glyph-name="Lslash" unicode="&#x141;" horiz-adv-x="553" 
d="M105 237l-61 -33l-33 80l113 60l63 356h118l-50 -286l145 78l31 -81l-195 -105l-37 -209h308l-17 -97h-426z" />
    <glyph glyph-name="lslash" unicode="&#x142;" horiz-adv-x="322" 
d="M108 278l-64 -34l-30 78l112 60l56 318h114l-44 -250l82 44l32 -77l-132 -71l-61 -346h-114z" />
    <glyph glyph-name="Nacute" unicode="&#x143;" horiz-adv-x="726" 
d="M600 853l-216 -105l-27 64l206 127zM162 700h121q53 -115 100 -216q20 -43 40.5 -87.5t39 -85t34 -74.5t25.5 -55h2l91 518h111l-123 -700h-121q-52 112 -98 212q-20 43 -40.5 87.5t-39 85t-34.5 75.5t-26 58h-2l-92 -518h-111z" />
    <glyph glyph-name="nacute" unicode="&#x144;" horiz-adv-x="561" 
d="M492 638l-216 -105l-27 64l206 127zM114 474h108l-12 -73q27 39 66.5 62.5t88.5 23.5q35 0 65 -10t50 -31.5t28 -54.5t0 -78l-55 -313h-114l53 297q9 53 -14 75t-60 22q-19 0 -39.5 -9t-38.5 -27.5t-32 -46t-21 -64.5l-43 -247h-114z" />
    <glyph glyph-name="Ncommaaccent" unicode="&#x145;" horiz-adv-x="726" 
d="M380 -134q0 -18 -6.5 -39t-21.5 -39.5t-40.5 -32t-62.5 -14.5l-10 42q12 0 25 3t23.5 9.5t18 15.5t8.5 20q-5 -3 -14 -3q-20 1 -35.5 14.5t-15.5 39.5q0 23 16.5 44t49.5 21q35 0 50 -25t15 -56zM162 700h121q53 -115 100 -216q20 -43 40.5 -87.5t39 -85t34 -74.5
t25.5 -55h2l91 518h111l-123 -700h-121q-52 112 -98 212q-20 43 -40.5 87.5t-39 85t-34.5 75.5t-26 58h-2l-92 -518h-111z" />
    <glyph glyph-name="ncommaaccent" unicode="&#x146;" horiz-adv-x="561" 
d="M295 -134q0 -18 -6.5 -39t-21.5 -39.5t-40.5 -32t-62.5 -14.5l-10 42q12 0 25 3t23.5 9.5t18 15.5t8.5 20q-5 -3 -14 -3q-20 1 -35.5 14.5t-15.5 39.5q0 23 16.5 44t49.5 21q35 0 50 -25t15 -56zM114 474h108l-12 -73q27 39 66.5 62.5t88.5 23.5q35 0 65 -10t50 -31.5
t28 -54.5t0 -78l-55 -313h-114l53 297q9 53 -14 75t-60 22q-19 0 -39.5 -9t-38.5 -27.5t-32 -46t-21 -64.5l-43 -247h-114z" />
    <glyph glyph-name="Ncaron" unicode="&#x147;" horiz-adv-x="726" 
d="M483 751h-84l-92 119l59 47l81 -100l122 102l50 -54zM162 700h121q53 -115 100 -216q20 -43 40.5 -87.5t39 -85t34 -74.5t25.5 -55h2l91 518h111l-123 -700h-121q-52 112 -98 212q-20 43 -40.5 87.5t-39 85t-34.5 75.5t-26 58h-2l-92 -518h-111z" />
    <glyph glyph-name="ncaron" unicode="&#x148;" horiz-adv-x="561" 
d="M373 534h-74l-94 131l59 46l78 -105l118 106l50 -52zM114 474h108l-12 -73q27 39 66.5 62.5t88.5 23.5q35 0 65 -10t50 -31.5t28 -54.5t0 -78l-55 -313h-114l53 297q9 53 -14 75t-60 22q-19 0 -39.5 -9t-38.5 -27.5t-32 -46t-21 -64.5l-43 -247h-114z" />
    <glyph glyph-name="Eng" unicode="&#x14a;" horiz-adv-x="726" 
d="M162 700h121q52 -114 100 -214q20 -43 40.5 -87t39.5 -84t34.5 -73.5t25.5 -54.5h2l90 513h111l-127 -722q-16 -91 -65.5 -141.5t-144.5 -50.5q-63 0 -99 20t-59 52l84 73q17 -24 34 -37t41 -13q40 0 62.5 30t31.5 74l3 17q-52 112 -100 212q-20 43 -41 87t-40 84.5
t-35.5 75t-26.5 57.5h-2l-92 -518h-111z" />
    <glyph glyph-name="eng" unicode="&#x14b;" horiz-adv-x="561" 
d="M392 298q4 26 0 44.5t-14.5 30t-26 16.5t-33.5 5q-19 0 -39.5 -9t-38.5 -27.5t-32 -46t-21 -64.5l-43 -247h-114l84 474h108l-12 -73q27 39 66.5 62.5t88.5 23.5q35 0 65 -10t50 -31.5t28 -54.5t0 -78l-65 -373q-7 -41 -23.5 -69.5t-40 -47.5t-53 -27.5t-62.5 -8.5
q-40 0 -71 10.5t-51 27.5l58 81q10 -9 24.5 -17t34.5 -8q29 0 47.5 17.5t23.5 47.5z" />
    <glyph glyph-name="Omacron" unicode="&#x14c;" horiz-adv-x="743" 
d="M326 850h274l-13 -75h-274zM64 292q0 87 25 163.5t71.5 133.5t114 90.5t151.5 33.5q67 0 121 -21t92 -60.5t58.5 -96t20.5 -127.5q0 -87 -25 -163.5t-71.5 -133.5t-114 -90.5t-151.5 -33.5q-67 0 -121 21t-92 60.5t-58.5 96t-20.5 127.5zM186 293q0 -43 10.5 -81
t32 -66.5t54.5 -45t78 -16.5q60 0 104.5 30.5t73.5 78t43 104.5t14 110q0 43 -10.5 81t-32 66.5t-55 45t-78.5 16.5q-60 0 -104 -30.5t-73 -78t-43 -104.5t-14 -110z" />
    <glyph glyph-name="omacron" unicode="&#x14d;" horiz-adv-x="554" 
d="M199 630h273l-13 -74h-273zM519 271q0 -54 -18 -105.5t-52.5 -91t-83.5 -63.5t-112 -24q-50 0 -90 14.5t-68.5 42.5t-44 68t-15.5 90q0 54 18 105.5t52.5 91t83.5 64t111 24.5q49 0 89 -15t69 -43t45 -68t16 -90zM257 74q36 0 63.5 18t46 47t28 64.5t9.5 70.5q0 25 -6 48
t-19 40.5t-33.5 27.5t-48.5 10q-36 0 -63.5 -18t-46 -47t-27.5 -64.5t-9 -70.5q0 -26 6 -48.5t19 -40t33 -27.5t48 -10z" />
    <glyph glyph-name="Obreve" unicode="&#x14e;" horiz-adv-x="743" 
d="M379 901q0 -29 18.5 -49.5t50.5 -20.5t56.5 20.5t32.5 49.5l84 -24q-18 -51 -64.5 -85t-112.5 -34q-65 0 -105.5 33t-43.5 86zM64 292q0 87 25 163.5t71.5 133.5t114 90.5t151.5 33.5q67 0 121 -21t92 -60.5t58.5 -96t20.5 -127.5q0 -87 -25 -163.5t-71.5 -133.5
t-114 -90.5t-151.5 -33.5q-67 0 -121 21t-92 60.5t-58.5 96t-20.5 127.5zM186 293q0 -43 10.5 -81t32 -66.5t54.5 -45t78 -16.5q60 0 104.5 30.5t73.5 78t43 104.5t14 110q0 43 -10.5 81t-32 66.5t-55 45t-78.5 16.5q-60 0 -104 -30.5t-73 -78t-43 -104.5t-14 -110z" />
    <glyph glyph-name="obreve" unicode="&#x14f;" horiz-adv-x="554" 
d="M519 271q0 -54 -18 -105.5t-52.5 -91t-83.5 -63.5t-112 -24q-50 0 -90 14.5t-68.5 42.5t-44 68t-15.5 90q0 54 18 105.5t52.5 91t83.5 64t111 24.5q49 0 89 -15t69 -43t45 -68t16 -90zM257 74q36 0 63.5 18t46 47t28 64.5t9.5 70.5q0 25 -6 48t-19 40.5t-33.5 27.5
t-48.5 10q-36 0 -63.5 -18t-46 -47t-27.5 -64.5t-9 -70.5q0 -26 6 -48.5t19 -40t33 -27.5t48 -10zM264 688q0 -29 18.5 -49.5t50.5 -20.5t56.5 20.5t32.5 49.5l84 -24q-18 -51 -64.5 -85t-112.5 -34q-65 0 -105.5 33.5t-43.5 85.5z" />
    <glyph glyph-name="Ohungarumlaut" unicode="&#x150;" horiz-adv-x="743" 
d="M64 292q0 87 25 163.5t71.5 133.5t114 90.5t151.5 33.5q67 0 121 -21t92 -60.5t58.5 -96t20.5 -127.5q0 -87 -25 -163.5t-71.5 -133.5t-114 -90.5t-151.5 -33.5q-67 0 -121 21t-92 60.5t-58.5 96t-20.5 127.5zM186 293q0 -43 10.5 -81t32 -66.5t54.5 -45t78 -16.5
q60 0 104.5 30.5t73.5 78t43 104.5t14 110q0 43 -10.5 81t-32 66.5t-55 45t-78.5 16.5q-60 0 -104 -30.5t-73 -78t-43 -104.5t-14 -110zM510 867l-207 -118l-31 61l196 139zM744 867l-208 -118l-31 61l197 139z" />
    <glyph glyph-name="ohungarumlaut" unicode="&#x151;" horiz-adv-x="554" 
d="M391 651l-208 -118l-31 61l197 139zM625 651l-208 -118l-31 61l196 139zM519 271q0 -54 -18 -105.5t-52.5 -91t-83.5 -63.5t-112 -24q-50 0 -90 14.5t-68.5 42.5t-44 68t-15.5 90q0 54 18 105.5t52.5 91t83.5 64t111 24.5q49 0 89 -15t69 -43t45 -68t16 -90zM257 74
q36 0 63.5 18t46 47t28 64.5t9.5 70.5q0 25 -6 48t-19 40.5t-33.5 27.5t-48.5 10q-36 0 -63.5 -18t-46 -47t-27.5 -64.5t-9 -70.5q0 -26 6 -48.5t19 -40t33 -27.5t48 -10z" />
    <glyph glyph-name="OE" unicode="&#x152;" horiz-adv-x="1063" 
d="M65 292q0 85 25 161.5t71.5 134.5t113 91.5t149.5 33.5q66 0 123 -24t89 -75l15 86h442l-16 -97h-324l-35 -194h302l-17 -97h-302l-38 -215h330l-17 -97h-448l14 79q-12 -17 -30 -33.5t-42.5 -29.5t-55 -21t-66.5 -8q-65 0 -117 21t-89 61t-57 96t-20 127zM187 293
q0 -43 10.5 -81t32.5 -66.5t55 -45t78 -16.5q51 0 89.5 23.5t65.5 59.5t44 80t24 85l6 38q9 50 2 94.5t-28.5 78.5t-57.5 53.5t-86 19.5q-60 0 -104 -30.5t-73.5 -78t-43.5 -104.5t-14 -110z" />
    <glyph glyph-name="oe" unicode="&#x153;" horiz-adv-x="883" 
d="M816 102q-32 -54 -84 -84.5t-125 -30.5q-59 0 -102 20.5t-69 62.5q-33 -38 -78.5 -60.5t-104.5 -22.5q-50 0 -90 14.5t-68.5 42.5t-44 68t-15.5 90q0 54 18 105.5t52.5 91t83.5 64t111 24.5q57 0 101 -22.5t70 -62.5q34 40 80.5 62.5t101.5 22.5q62 0 103.5 -20.5
t65.5 -55t30.5 -79t-1.5 -92.5q-1 -4 -1.5 -8.5t-1.5 -9.5t-3 -11h-340q-4 -27 -0.5 -52t15.5 -44.5t34 -31t55 -11.5q45 0 70.5 20t43.5 50zM257 74q37 0 64.5 18t46 47t28 64.5t9.5 70.5q0 25 -6.5 48t-19.5 40.5t-33.5 27.5t-48.5 10q-36 0 -63.5 -18t-46 -47
t-27.5 -64.5t-9 -70.5q0 -26 6 -48.5t19 -40t33 -27.5t48 -10zM652 404q-54 0 -87.5 -33t-46.5 -85h227q8 57 -18 87.5t-75 30.5z" />
    <glyph glyph-name="Racute" unicode="&#x154;" horiz-adv-x="643" 
d="M631 519q0 -42 -13.5 -78.5t-38.5 -65.5t-60 -48.5t-78 -28.5l121 -298h-126l-112 287h-117l-51 -287h-117l123 700h248q41 0 81 -9.5t71 -31t50 -56t19 -84.5zM510 514q0 50 -33 69.5t-101 19.5h-113l-39 -221h122q43 0 74.5 11t51 29t29 42t9.5 50zM544 853l-216 -105
l-27 64l206 127z" />
    <glyph glyph-name="racute" unicode="&#x155;" horiz-adv-x="383" 
d="M441 638l-216 -105l-27 64l206 127zM378 373q-9 9 -22 12.5t-29 3.5q-20 0 -42 -9t-41.5 -27.5t-35 -47t-22.5 -67.5l-42 -238h-114l84 474h106l-13 -78q22 42 60 66.5t89 24.5q15 0 31.5 -3t30.5 -10z" />
    <glyph glyph-name="Rcommaaccent" unicode="&#x156;" horiz-adv-x="643" 
d="M334 -134q0 -18 -6.5 -39t-21.5 -39.5t-40.5 -32t-62.5 -14.5l-10 42q12 0 25 3t23.5 9.5t18 15.5t8.5 20q-5 -3 -14 -3q-20 1 -35.5 14.5t-15.5 39.5q0 23 16.5 44t49.5 21q35 0 50 -25t15 -56zM631 519q0 -42 -13.5 -78.5t-38.5 -65.5t-60 -48.5t-78 -28.5l121 -298
h-126l-112 287h-117l-51 -287h-117l123 700h248q41 0 81 -9.5t71 -31t50 -56t19 -84.5zM510 514q0 50 -33 69.5t-101 19.5h-113l-39 -221h122q43 0 74.5 11t51 29t29 42t9.5 50z" />
    <glyph glyph-name="rcommaaccent" unicode="&#x157;" horiz-adv-x="383" 
d="M135 -134q0 -18 -6.5 -39t-21.5 -39.5t-40.5 -32t-62.5 -14.5l-10 42q12 0 25 3t23.5 9.5t18 15.5t8.5 20q-5 -3 -14 -3q-20 1 -35.5 14.5t-15.5 39.5q0 23 16.5 44t49.5 21q35 0 50 -25t15 -56zM378 373q-9 9 -22 12.5t-29 3.5q-20 0 -42 -9t-41.5 -27.5t-35 -47
t-22.5 -67.5l-42 -238h-114l84 474h106l-13 -78q22 42 60 66.5t89 24.5q15 0 31.5 -3t30.5 -10z" />
    <glyph glyph-name="Rcaron" unicode="&#x158;" horiz-adv-x="643" 
d="M437 751h-84l-92 119l59 47l81 -100l122 102l50 -54zM631 519q0 -42 -13.5 -78.5t-38.5 -65.5t-60 -48.5t-78 -28.5l121 -298h-126l-112 287h-117l-51 -287h-117l123 700h248q41 0 81 -9.5t71 -31t50 -56t19 -84.5zM510 514q0 50 -33 69.5t-101 19.5h-113l-39 -221h122
q43 0 74.5 11t51 29t29 42t9.5 50z" />
    <glyph glyph-name="rcaron" unicode="&#x159;" horiz-adv-x="383" 
d="M312 534h-74l-94 131l59 46l78 -105l118 106l50 -52zM378 373q-9 9 -22 12.5t-29 3.5q-20 0 -42 -9t-41.5 -27.5t-35 -47t-22.5 -67.5l-42 -238h-114l84 474h106l-13 -78q22 42 60 66.5t89 24.5q15 0 31.5 -3t30.5 -10z" />
    <glyph glyph-name="Sacute" unicode="&#x15a;" horiz-adv-x="640" 
d="M310 312q-55 15 -92.5 32.5t-61 40t-33.5 51t-10 65.5q0 48 19 87.5t53.5 67t82 42.5t104.5 15q61 0 109 -15t81 -41.5t51 -62.5t21 -79l-120 -23q1 57 -35 91.5t-111 34.5q-63 0 -98 -27.5t-35 -75.5q0 -23 8.5 -39t25.5 -28t43 -21.5t62 -19.5q52 -14 91.5 -30.5
t66.5 -39t40.5 -53.5t13.5 -73q0 -50 -20 -91t-56.5 -70.5t-88 -46t-114.5 -16.5q-71 0 -122 18.5t-84 49t-48.5 70t-14.5 81.5l117 17q-1 -26 6.5 -51t25.5 -45t48.5 -32.5t75.5 -12.5q31 0 58.5 7t48.5 21.5t33 36.5t12 53q0 21 -7.5 37t-25 28.5t-47 23.5t-73.5 23z
M542 853l-216 -105l-27 64l206 127z" />
    <glyph glyph-name="sacute" unicode="&#x15b;" horiz-adv-x="472" 
d="M423 638l-216 -105l-27 64l206 127zM272 280q70 -17 109 -47t39 -88q0 -36 -15 -65t-42.5 -50t-66 -32t-84.5 -11q-36 0 -71.5 7t-63 24.5t-45 46t-18.5 71.5l106 15q-1 -23 7 -38.5t21.5 -25t30.5 -13.5t35 -4q43 0 67.5 17t24.5 46t-25 41.5t-73 24.5q-69 17 -106.5 47
t-37.5 88q0 38 16 66.5t43 48t63 29t76 9.5q87 0 138 -36.5t52 -99.5l-105 -20q-1 34 -22.5 54t-63.5 20q-36 0 -59.5 -15t-23.5 -44q0 -28 24 -41t70 -25z" />
    <glyph glyph-name="Scircumflex" unicode="&#x15c;" horiz-adv-x="640" 
d="M310 312q-55 15 -92.5 32.5t-61 40t-33.5 51t-10 65.5q0 48 19 87.5t53.5 67t82 42.5t104.5 15q61 0 109 -15t81 -41.5t51 -62.5t21 -79l-120 -23q1 57 -35 91.5t-111 34.5q-63 0 -98 -27.5t-35 -75.5q0 -23 8.5 -39t25.5 -28t43 -21.5t62 -19.5q52 -14 91.5 -30.5
t66.5 -39t40.5 -53.5t13.5 -73q0 -50 -20 -91t-56.5 -70.5t-88 -46t-114.5 -16.5q-71 0 -122 18.5t-84 49t-48.5 70t-14.5 81.5l117 17q-1 -26 6.5 -51t25.5 -45t48.5 -32.5t75.5 -12.5q31 0 58.5 7t48.5 21.5t33 36.5t12 53q0 21 -7.5 37t-25 28.5t-47 23.5t-73.5 23z
M551 794l-59 -48l-81 100l-122 -101l-50 54l136 113h84z" />
    <glyph glyph-name="scircumflex" unicode="&#x15d;" horiz-adv-x="472" 
d="M269 706h74l97 -131l-59 -46l-81 105l-118 -106l-50 52zM272 280q70 -17 109 -47t39 -88q0 -36 -15 -65t-42.5 -50t-66 -32t-84.5 -11q-36 0 -71.5 7t-63 24.5t-45 46t-18.5 71.5l106 15q-1 -23 7 -38.5t21.5 -25t30.5 -13.5t35 -4q43 0 67.5 17t24.5 46t-25 41.5
t-73 24.5q-69 17 -106.5 47t-37.5 88q0 38 16 66.5t43 48t63 29t76 9.5q87 0 138 -36.5t52 -99.5l-105 -20q-1 34 -22.5 54t-63.5 20q-36 0 -59.5 -15t-23.5 -44q0 -28 24 -41t70 -25z" />
    <glyph glyph-name="Scedilla" unicode="&#x15e;" horiz-adv-x="640" 
d="M192 -154q6 -8 19 -14t31 -6q21 0 33.5 12t12.5 32q0 16 -9.5 24t-25.5 8q-14 0 -24 -4t-17 -10l-26 32l44 74q-50 9 -87 30t-60.5 49t-34.5 62.5t-10 70.5l117 17q-1 -26 6.5 -51t25.5 -45t48.5 -32.5t75.5 -12.5q31 0 58.5 7t48.5 21.5t33 36.5t12 53q0 21 -7.5 37
t-25 28.5t-47 23.5t-73.5 23q-55 15 -92.5 32.5t-61 40t-33.5 51t-10 65.5q0 48 19 87.5t53.5 67t82 42.5t104.5 15q61 0 109 -15t81 -41.5t51 -62.5t21 -79l-120 -23q1 57 -35 91.5t-111 34.5q-63 0 -98 -27.5t-35 -75.5q0 -23 8.5 -39t25.5 -28t43 -21.5t62 -19.5
q52 -14 91.5 -30.5t66.5 -39t40.5 -53.5t13.5 -73q0 -50 -20 -91t-56.5 -70.5t-88 -46t-114.5 -16.5h-12t-12 1l-24 -42q12 7 27 7q30 0 51 -20.5t21 -57.5q0 -25 -9.5 -44.5t-25.5 -33t-38 -20.5t-46 -7q-35 0 -55.5 11t-29.5 20z" />
    <glyph glyph-name="scedilla" unicode="&#x15f;" horiz-adv-x="472" 
d="M108 -154q6 -8 19 -14t31 -6q21 0 33.5 12t12.5 32q0 16 -9.5 24t-25.5 8q-14 0 -24 -4t-17 -10l-26 32l44 74q-54 10 -92 43t-40 99l106 15q-1 -23 7 -38.5t21.5 -25t30.5 -13.5t35 -4q43 0 67.5 17t24.5 46t-25 41.5t-73 24.5q-69 17 -106.5 47t-37.5 88q0 38 16 66.5
t43 48t63 29t76 9.5q87 0 138 -36.5t52 -99.5l-105 -20q-1 34 -22.5 54t-63.5 20q-36 0 -59.5 -15t-23.5 -44q0 -28 24 -41t70 -25q70 -17 109 -47t39 -88q0 -36 -15 -65t-42.5 -50t-66 -32t-84.5 -11h-14l-23 -41q12 7 27 7q30 0 51 -20.5t21 -57.5q0 -25 -9.5 -44.5
t-25.5 -33t-38 -20.5t-46 -7q-35 0 -55.5 11t-29.5 20z" />
    <glyph glyph-name="Scaron" unicode="&#x160;" horiz-adv-x="640" 
d="M310 312q-55 15 -92.5 32.5t-61 40t-33.5 51t-10 65.5q0 48 19 87.5t53.5 67t82 42.5t104.5 15q61 0 109 -15t81 -41.5t51 -62.5t21 -79l-120 -23q1 57 -35 91.5t-111 34.5q-63 0 -98 -27.5t-35 -75.5q0 -23 8.5 -39t25.5 -28t43 -21.5t62 -19.5q52 -14 91.5 -30.5
t66.5 -39t40.5 -53.5t13.5 -73q0 -50 -20 -91t-56.5 -70.5t-88 -46t-114.5 -16.5q-71 0 -122 18.5t-84 49t-48.5 70t-14.5 81.5l117 17q-1 -26 6.5 -51t25.5 -45t48.5 -32.5t75.5 -12.5q31 0 58.5 7t48.5 21.5t33 36.5t12 53q0 21 -7.5 37t-25 28.5t-47 23.5t-73.5 23z
M439 751h-84l-92 119l59 47l81 -100l122 102l50 -54z" />
    <glyph glyph-name="scaron" unicode="&#x161;" horiz-adv-x="472" 
d="M315 534h-74l-94 131l59 46l78 -105l118 106l50 -52zM272 280q70 -17 109 -47t39 -88q0 -36 -15 -65t-42.5 -50t-66 -32t-84.5 -11q-36 0 -71.5 7t-63 24.5t-45 46t-18.5 71.5l106 15q-1 -23 7 -38.5t21.5 -25t30.5 -13.5t35 -4q43 0 67.5 17t24.5 46t-25 41.5t-73 24.5
q-69 17 -106.5 47t-37.5 88q0 38 16 66.5t43 48t63 29t76 9.5q87 0 138 -36.5t52 -99.5l-105 -20q-1 34 -22.5 54t-63.5 20q-36 0 -59.5 -15t-23.5 -44q0 -28 24 -41t70 -25z" />
    <glyph glyph-name="Tcommaaccent" unicode="&#x162;" horiz-adv-x="570" 
d="M293 -134q0 -18 -6.5 -39t-21.5 -39.5t-40.5 -32t-62.5 -14.5l-10 42q12 0 25 3t23.5 9.5t18 15.5t8.5 20q-5 -3 -14 -3q-20 1 -35.5 14.5t-15.5 39.5q0 23 16.5 44t49.5 21q35 0 50 -25t15 -56zM102 700h528l-17 -97h-205l-106 -603h-118l106 603h-205z" />
    <glyph glyph-name="tcommaaccent" unicode="&#x163;" horiz-adv-x="358" 
d="M204 -134q0 -18 -6.5 -39t-21.5 -39.5t-40.5 -32t-62.5 -14.5l-10 42q12 0 25 3t23.5 9.5t18 15.5t8.5 20q-5 -3 -14 -3q-20 1 -35.5 14.5t-15.5 39.5q0 23 16.5 44t49.5 21q35 0 50 -25t15 -56zM296 4q-20 -8 -45 -12.5t-48 -4.5q-72 0 -104.5 38t-21.5 101l46 264h-79
l15 84h79l24 136l123 51l-33 -187h106l-15 -84h-106l-45 -259q-5 -29 4.5 -40t29.5 -11q16 0 30 5t25 12z" />
    <glyph glyph-name="Tcaron" unicode="&#x164;" horiz-adv-x="570" 
d="M415 751h-84l-92 119l59 47l81 -100l122 102l50 -54zM102 700h528l-17 -97h-205l-106 -603h-118l106 603h-205z" />
    <glyph glyph-name="tcaron" unicode="&#x165;" horiz-adv-x="358" 
d="M469 704l-94 -172l-62 20l73 179zM296 4q-20 -8 -45 -12.5t-48 -4.5q-72 0 -104.5 38t-21.5 101l46 264h-79l15 84h79l24 136l123 51l-33 -187h106l-15 -84h-106l-45 -259q-5 -29 4.5 -40t29.5 -11q16 0 30 5t25 12z" />
    <glyph glyph-name="Tbar" unicode="&#x166;" horiz-adv-x="570" 
d="M102 700h528l-17 -97h-205l-31 -173h133l-16 -90h-132l-60 -340h-118l60 340h-132l16 90h131l31 173h-205z" />
    <glyph glyph-name="tbar" unicode="&#x167;" horiz-adv-x="358" 
d="M296 4q-20 -8 -45 -12.5t-48 -4.5q-72 0 -104.5 38t-21.5 101l17 98h-79l14 81h79l15 85h-79l15 84h79l24 136l123 51l-33 -187h106l-15 -84h-106l-15 -85h102l-15 -81h-101l-16 -93q-5 -29 4.5 -40t29.5 -11q16 0 30 5t25 12z" />
    <glyph glyph-name="Utilde" unicode="&#x168;" horiz-adv-x="687" 
d="M370 892q27 0 45.5 -8.5t33.5 -18t28.5 -18t30.5 -8.5q15 0 27 7.5t20 16.5q10 11 16 25l53 -49q-13 -21 -31 -37q-16 -14 -39 -25.5t-55 -11.5q-26 0 -44.5 8t-33 18t-28 18t-30.5 8t-29.5 -7.5t-20.5 -16.5q-10 -11 -16 -23l-51 49q12 20 30 36q15 14 38.5 25.5
t55.5 11.5zM198 261q-6 -35 -4.5 -66.5t14.5 -56.5t39.5 -39.5t69.5 -14.5q45 0 76 14.5t52 39t33 55.5t18 64l78 443h118l-80 -451q-23 -134 -95.5 -198t-201.5 -64q-74 0 -124 19.5t-78.5 55t-36.5 85t3 108.5l79 445h117z" />
    <glyph glyph-name="utilde" unicode="&#x169;" horiz-adv-x="560" 
d="M446 0h-109l13 73q-27 -39 -66.5 -62.5t-87.5 -23.5q-35 0 -65 10t-49.5 31.5t-27.5 54.5t0 78l55 313h114l-53 -298q-5 -26 -0.5 -44.5t14.5 -30t25 -16.5t33 -5q19 0 39.5 9t38.5 27.5t32 46t20 64.5l44 247h113zM270 675q27 0 45.5 -8.5t33.5 -18t28.5 -18t30.5 -8.5
q15 0 27 7.5t20 16.5q10 11 16 25l53 -49q-13 -21 -31 -37q-16 -14 -39 -25.5t-55 -11.5q-26 0 -44.5 8.5t-33 18t-28 18t-30.5 8.5t-29.5 -7.5t-20.5 -16.5q-10 -11 -16 -24l-51 49q12 20 30 36q15 14 38.5 25.5t55.5 11.5z" />
    <glyph glyph-name="Umacron" unicode="&#x16a;" horiz-adv-x="687" 
d="M308 850h274l-13 -75h-274zM198 261q-6 -35 -4.5 -66.5t14.5 -56.5t39.5 -39.5t69.5 -14.5q45 0 76 14.5t52 39t33 55.5t18 64l78 443h118l-80 -451q-23 -134 -95.5 -198t-201.5 -64q-74 0 -124 19.5t-78.5 55t-36.5 85t3 108.5l79 445h117z" />
    <glyph glyph-name="umacron" unicode="&#x16b;" horiz-adv-x="560" 
d="M446 0h-109l13 73q-27 -39 -66.5 -62.5t-87.5 -23.5q-35 0 -65 10t-49.5 31.5t-27.5 54.5t0 78l55 313h114l-53 -298q-5 -26 -0.5 -44.5t14.5 -30t25 -16.5t33 -5q19 0 39.5 9t38.5 27.5t32 46t20 64.5l44 247h113zM208 630h273l-13 -74h-273z" />
    <glyph glyph-name="Ubreve" unicode="&#x16c;" horiz-adv-x="687" 
d="M365 901q0 -29 18.5 -49.5t50.5 -20.5t56.5 20.5t32.5 49.5l84 -24q-18 -51 -64.5 -85t-112.5 -34q-65 0 -105.5 33t-43.5 86zM198 261q-6 -35 -4.5 -66.5t14.5 -56.5t39.5 -39.5t69.5 -14.5q45 0 76 14.5t52 39t33 55.5t18 64l78 443h118l-80 -451q-23 -134 -95.5 -198
t-201.5 -64q-74 0 -124 19.5t-78.5 55t-36.5 85t3 108.5l79 445h117z" />
    <glyph glyph-name="ubreve" unicode="&#x16d;" horiz-adv-x="560" 
d="M446 0h-109l13 73q-27 -39 -66.5 -62.5t-87.5 -23.5q-35 0 -65 10t-49.5 31.5t-27.5 54.5t0 78l55 313h114l-53 -298q-5 -26 -0.5 -44.5t14.5 -30t25 -16.5t33 -5q19 0 39.5 9t38.5 27.5t32 46t20 64.5l44 247h113zM265 688q0 -29 18.5 -49.5t50.5 -20.5t56.5 20.5
t32.5 49.5l84 -24q-18 -51 -64.5 -85t-112.5 -34q-65 0 -105.5 33.5t-43.5 85.5z" />
    <glyph glyph-name="Uring" unicode="&#x16e;" horiz-adv-x="687" 
d="M198 261q-6 -35 -4.5 -66.5t14.5 -56.5t39.5 -39.5t69.5 -14.5q45 0 76 14.5t52 39t33 55.5t18 64l78 443h118l-80 -451q-23 -134 -95.5 -198t-201.5 -64q-74 0 -124 19.5t-78.5 55t-36.5 85t3 108.5l79 445h117zM431 747q-44 0 -69.5 26t-25.5 68q0 45 31 75.5t81 30.5
q44 0 70 -25t26 -66q0 -23 -8.5 -42.5t-23.5 -34.5t-36 -23.5t-45 -8.5zM396 844q0 -17 11 -29.5t28 -12.5q21 0 35 15t14 35q0 17 -11 29t-30 12q-20 0 -33.5 -14.5t-13.5 -34.5z" />
    <glyph glyph-name="uring" unicode="&#x16f;" horiz-adv-x="560" 
d="M332 529q-45 0 -70.5 25.5t-25.5 67.5q0 46 31.5 76.5t80.5 30.5q45 0 70.5 -25.5t25.5 -66.5q0 -23 -8.5 -42.5t-23.5 -34t-35.5 -23t-44.5 -8.5zM296 626q0 -17 11 -30t29 -13q21 0 34.5 15t13.5 35q0 18 -10.5 29.5t-29.5 11.5q-20 0 -34 -14t-14 -34zM446 0h-109
l13 73q-27 -39 -66.5 -62.5t-87.5 -23.5q-35 0 -65 10t-49.5 31.5t-27.5 54.5t0 78l55 313h114l-53 -298q-5 -26 -0.5 -44.5t14.5 -30t25 -16.5t33 -5q19 0 39.5 9t38.5 27.5t32 46t20 64.5l44 247h113z" />
    <glyph glyph-name="Uhungarumlaut" unicode="&#x170;" horiz-adv-x="687" 
d="M198 261q-6 -35 -4.5 -66.5t14.5 -56.5t39.5 -39.5t69.5 -14.5q45 0 76 14.5t52 39t33 55.5t18 64l78 443h118l-80 -451q-23 -134 -95.5 -198t-201.5 -64q-74 0 -124 19.5t-78.5 55t-36.5 85t3 108.5l79 445h117zM490 867l-207 -118l-31 61l196 139zM724 867l-208 -118
l-31 61l197 139z" />
    <glyph glyph-name="uhungarumlaut" unicode="&#x171;" horiz-adv-x="560" 
d="M446 0h-109l13 73q-27 -39 -66.5 -62.5t-87.5 -23.5q-35 0 -65 10t-49.5 31.5t-27.5 54.5t0 78l55 313h114l-53 -298q-5 -26 -0.5 -44.5t14.5 -30t25 -16.5t33 -5q19 0 39.5 9t38.5 27.5t32 46t20 64.5l44 247h113zM376 651l-208 -118l-31 61l197 139zM610 651l-208 -118
l-31 61l196 139z" />
    <glyph glyph-name="Uogonek" unicode="&#x172;" horiz-adv-x="687" 
d="M313 -102q0 -14 9.5 -23.5t28.5 -9.5q13 0 28.5 7.5t27.5 25.5l43 -45q-27 -31 -57 -43t-62 -12q-47 0 -74.5 22t-27.5 60q0 37 19 62.5t51 44.5q-69 2 -116 22.5t-73.5 56t-34 83.5t3.5 106l79 445h117l-77 -439q-6 -35 -4.5 -66.5t14.5 -56.5t39.5 -39.5t69.5 -14.5
q45 0 76 14.5t52 39t33 55.5t18 64l78 443h118l-80 -451q-18 -100 -62 -158.5t-117 -88.5q-25 -10 -46.5 -22.5t-38 -26t-26 -27.5t-9.5 -28z" />
    <glyph glyph-name="uogonek" unicode="&#x173;" horiz-adv-x="560" 
d="M446 0q-59 -29 -88.5 -53.5t-29.5 -48.5q0 -14 9.5 -23.5t28.5 -9.5q13 0 28.5 7.5t27.5 25.5l43 -45q-27 -31 -57 -43t-62 -12q-47 0 -74.5 22t-27.5 60q0 43 26 70t67 50l13 73q-27 -39 -66.5 -62.5t-87.5 -23.5q-35 0 -65 10t-49.5 31.5t-27.5 54.5t0 78l55 313h114
l-53 -298q-5 -26 -0.5 -44.5t14.5 -30t25 -16.5t33 -5q19 0 39.5 9t38.5 27.5t32 46t20 64.5l44 247h113z" />
    <glyph glyph-name="Wcircumflex" unicode="&#x174;" horiz-adv-x="926" 
d="M992 700l-309 -700h-130q-9 111 -16 210q-3 42 -6.5 86.5t-6.5 85.5t-5 76.5t-3 60.5h-3q-10 -25 -25 -60.5t-32.5 -76.5t-37 -85.5t-37.5 -86.5q-43 -99 -92 -210h-130l-62 700h115q9 -120 17 -227q3 -46 6.5 -93.5t6 -91t4 -81l2.5 -62.5h2q10 25 25.5 62.5t34 81
t39 91t40.5 93.5q47 107 99 227h111q10 -122 18 -230q3 -46 6.5 -94t6.5 -91.5t5 -79.5t3 -60h3q9 24 24.5 60t33.5 79.5t38.5 91.5t40.5 94q47 108 99 230h115zM708 794l-59 -48l-81 100l-122 -101l-50 54l136 113h84z" />
    <glyph glyph-name="wcircumflex" unicode="&#x175;" horiz-adv-x="743" 
d="M407 706h74l97 -131l-59 -46l-81 105l-118 -106l-50 52zM465 474q9 -84 17 -155q3 -30 6.5 -61t6 -58.5t4 -49.5t2.5 -34h2q5 14 15 37t22 51t26 59t28 61q33 70 70 150h108l-229 -474h-117q-9 90 -17 164q-3 31 -6.5 61.5t-6 56t-4 43t-1.5 22.5q-3 -6 -11 -23.5
t-19.5 -43t-25 -56t-27.5 -61.5q-33 -73 -73 -163h-118l-64 474h110q9 -82 17 -152q3 -30 6.5 -61t6 -59t4 -50.5t1.5 -36.5h2q7 17 21.5 50.5t32.5 73.5t36.5 81.5t34.5 75.5t26 56l10 22h104z" />
    <glyph glyph-name="Ycircumflex" unicode="&#x176;" horiz-adv-x="658" 
d="M280 300l-189 400h129l135 -292l237 292h137l-331 -400l-52 -300h-119zM568 794l-59 -48l-81 100l-122 -101l-50 54l136 113h84z" />
    <glyph glyph-name="ycircumflex" unicode="&#x177;" horiz-adv-x="497" 
d="M218 -82q-21 -38 -41.5 -63.5t-41.5 -40.5t-43 -21.5t-46 -6.5q-31 0 -55 7t-37 16l45 84q8 -7 19.5 -11.5t24.5 -4.5q21 0 41.5 15t42.5 56l28 53l-102 473h112q16 -82 29 -152q6 -30 11.5 -60t10 -56t8 -47t5.5 -31h2l15.5 31t24.5 47t30 56l32 60q38 70 82 152h112z
M279 706h74l97 -131l-59 -46l-81 105l-118 -106l-50 52z" />
    <glyph glyph-name="Ydieresis" unicode="&#x178;" horiz-adv-x="658" 
d="M280 300l-189 400h129l135 -292l237 292h137l-331 -400l-52 -300h-119zM249 830q0 27 18 45t47 18q28 0 46 -18t18 -45t-18 -45t-46 -18q-29 0 -47 18t-18 45zM453 830q0 27 17.5 45t46.5 18t47 -18t18 -45t-18 -45t-47 -18t-46.5 18t-17.5 45z" />
    <glyph glyph-name="Zacute" unicode="&#x179;" horiz-adv-x="626" 
d="M136 700h527l-15 -88l-479 -515h384l-17 -97h-536l14 87l481 516h-376zM555 853l-216 -105l-27 64l206 127z" />
    <glyph glyph-name="zacute" unicode="&#x17a;" horiz-adv-x="460" 
d="M426 638l-216 -105l-27 64l206 127zM86 474h378l-12 -71l-301 -318h244l-15 -85h-386l13 74l301 315h-237z" />
    <glyph glyph-name="Zdotaccent" unicode="&#x17b;" horiz-adv-x="626" 
d="M347 832q0 31 19.5 50.5t51.5 19.5t52 -19.5t20 -50.5q0 -30 -20 -49t-52 -19t-51.5 19t-19.5 49zM136 700h527l-15 -88l-479 -515h384l-17 -97h-536l14 87l481 516h-376z" />
    <glyph glyph-name="zdotaccent" unicode="&#x17c;" horiz-adv-x="460" 
d="M86 474h378l-12 -71l-301 -318h244l-15 -85h-386l13 74l301 315h-237zM219 613q0 31 19.5 50t51.5 19t51.5 -19t19.5 -50q0 -29 -19.5 -49t-51.5 -20t-51.5 20t-19.5 49z" />
    <glyph glyph-name="Zcaron" unicode="&#x17d;" horiz-adv-x="626" 
d="M445 751h-84l-92 119l59 47l81 -100l122 102l50 -54zM136 700h527l-15 -88l-479 -515h384l-17 -97h-536l14 87l481 516h-376z" />
    <glyph glyph-name="zcaron" unicode="&#x17e;" horiz-adv-x="460" 
d="M318 534h-74l-94 131l59 46l78 -105l118 106l50 -52zM86 474h378l-12 -71l-301 -318h244l-15 -85h-386l13 74l301 315h-237z" />
    <glyph glyph-name="florin" unicode="&#x192;" horiz-adv-x="522" 
d="M254 14q-10 -45 -28.5 -76.5t-42.5 -51t-53.5 -28.5t-60.5 -9q-45 0 -75 12t-48 26l63 83q9 -9 24 -17.5t34 -8.5q29 0 49 20.5t28 58.5l71 317h-75l15 84h80l28 124q10 46 29 77.5t43.5 51t53.5 28t61 8.5q45 0 74 -12t48 -26l-64 -83q-8 9 -23.5 17.5t-34.5 8.5
q-30 0 -49.5 -22t-27.5 -60l-26 -112h119l-15 -84h-123z" />
    <glyph glyph-name="Scommaaccent" unicode="&#x218;" horiz-adv-x="640" 
d="M345 -134q0 -18 -6.5 -39t-21.5 -39.5t-40.5 -32t-62.5 -14.5l-10 42q12 0 25 3t23.5 9.5t18 15.5t8.5 20q-5 -3 -14 -3q-20 1 -35.5 14.5t-15.5 39.5q0 23 16.5 44t49.5 21q35 0 50 -25t15 -56zM310 312q-55 15 -92.5 32.5t-61 40t-33.5 51t-10 65.5q0 48 19 87.5
t53.5 67t82 42.5t104.5 15q61 0 109 -15t81 -41.5t51 -62.5t21 -79l-120 -23q1 57 -35 91.5t-111 34.5q-63 0 -98 -27.5t-35 -75.5q0 -23 8.5 -39t25.5 -28t43 -21.5t62 -19.5q52 -14 91.5 -30.5t66.5 -39t40.5 -53.5t13.5 -73q0 -50 -20 -91t-56.5 -70.5t-88 -46
t-114.5 -16.5q-71 0 -122 18.5t-84 49t-48.5 70t-14.5 81.5l117 17q-1 -26 6.5 -51t25.5 -45t48.5 -32.5t75.5 -12.5q31 0 58.5 7t48.5 21.5t33 36.5t12 53q0 21 -7.5 37t-25 28.5t-47 23.5t-73.5 23z" />
    <glyph glyph-name="scommaaccent" unicode="&#x219;" horiz-adv-x="472" 
d="M255 -134q0 -18 -6.5 -39t-21.5 -39.5t-40.5 -32t-62.5 -14.5l-10 42q12 0 25 3t23.5 9.5t18 15.5t8.5 20q-5 -3 -14 -3q-20 1 -35.5 14.5t-15.5 39.5q0 23 16.5 44t49.5 21q35 0 50 -25t15 -56zM272 280q70 -17 109 -47t39 -88q0 -36 -15 -65t-42.5 -50t-66 -32
t-84.5 -11q-36 0 -71.5 7t-63 24.5t-45 46t-18.5 71.5l106 15q-1 -23 7 -38.5t21.5 -25t30.5 -13.5t35 -4q43 0 67.5 17t24.5 46t-25 41.5t-73 24.5q-69 17 -106.5 47t-37.5 88q0 38 16 66.5t43 48t63 29t76 9.5q87 0 138 -36.5t52 -99.5l-105 -20q-1 34 -22.5 54t-63.5 20
q-36 0 -59.5 -15t-23.5 -44q0 -28 24 -41t70 -25z" />
    <glyph glyph-name="dotlessj" unicode="&#x237;" horiz-adv-x="261" 
d="M116 474h114l-93 -529q-7 -42 -23.5 -71.5t-40 -49t-53.5 -28.5t-63 -9q-39 0 -70 10.5t-51 27.5l57 81q10 -9 25 -17t35 -8q29 0 47.5 19t23.5 51z" />
    <glyph glyph-name="circumflex" unicode="&#x2c6;" 
d="M343 706h74l97 -131l-59 -46l-81 105l-118 -106l-50 52z" />
    <glyph glyph-name="caron" unicode="&#x2c7;" 
d="M390 534h-74l-94 131l59 46l78 -105l118 106l50 -52z" />
    <glyph glyph-name="breve" unicode="&#x2d8;" 
d="M297 688q0 -29 18.5 -49.5t50.5 -20.5t56.5 20.5t32.5 49.5l84 -24q-18 -51 -64.5 -85t-112.5 -34q-65 0 -105.5 33.5t-43.5 85.5z" />
    <glyph glyph-name="dotaccent" unicode="&#x2d9;" 
d="M295 613q0 31 19.5 50t51.5 19t51.5 -19t19.5 -50q0 -29 -19.5 -49t-51.5 -20t-51.5 20t-19.5 49z" />
    <glyph glyph-name="ring" unicode="&#x2da;" 
d="M361 529q-45 0 -70.5 25.5t-25.5 67.5q0 46 31.5 76.5t80.5 30.5q45 0 70.5 -25.5t25.5 -66.5q0 -23 -8.5 -42.5t-23.5 -34t-35.5 -23t-44.5 -8.5zM325 626q0 -17 11 -30t29 -13q21 0 34.5 15t13.5 35q0 18 -10.5 29.5t-29.5 11.5q-20 0 -34 -14t-14 -34z" />
    <glyph glyph-name="ogonek" unicode="&#x2db;" 
d="M211 -102q0 -14 9.5 -23.5t28.5 -9.5q13 0 28.5 7.5t27.5 25.5l43 -45q-27 -31 -57 -43t-62 -12q-47 0 -74.5 22t-27.5 60q0 43 25.5 70t66.5 50h112q-60 -29 -90 -53.5t-30 -48.5z" />
    <glyph glyph-name="tilde" unicode="&#x2dc;" 
d="M302 675q27 0 45.5 -8.5t33.5 -18t28.5 -18t30.5 -8.5q15 0 27 7.5t20 16.5q10 11 16 25l53 -49q-13 -21 -31 -37q-16 -14 -39 -25.5t-55 -11.5q-26 0 -44.5 8.5t-33 18t-28 18t-30.5 8.5t-29.5 -7.5t-20.5 -16.5q-10 -11 -16 -24l-51 49q12 20 30 36q15 14 38.5 25.5
t55.5 11.5z" />
    <glyph glyph-name="hungarumlaut" unicode="&#x2dd;" 
d="M367 651l-208 -118l-31 61l197 139zM601 651l-208 -118l-31 61l196 139z" />
    <glyph glyph-name="uni0312" unicode="&#x312;" 
d="M303 613q0 16 6.5 37t22 40t40.5 32t62 14l10 -43q-12 0 -25 -3t-23.5 -9t-18 -15t-8.5 -20q5 2 13 2q23 0 37.5 -16t14.5 -39q0 -22 -16.5 -42.5t-48.5 -20.5q-36 0 -51 25.5t-15 57.5z" />
    <glyph glyph-name="pi" unicode="&#x3c0;" horiz-adv-x="592" 
d="M552 388h-68l-46 -259q-6 -33 5.5 -43t25.5 -10t25 5t20 10l11 -89q-36 -15 -80 -15q-24 0 -47 6t-40 21.5t-24.5 43t0.5 70.5l46 260h-143l-68 -388h-104l69 388h-69l15 86h487z" />
    <glyph glyph-name="pi" unicode="&#x3d6;" horiz-adv-x="592" 
d="M552 388h-68l-46 -259q-6 -33 5.5 -43t25.5 -10t25 5t20 10l11 -89q-36 -15 -80 -15q-24 0 -47 6t-40 21.5t-24.5 43t0.5 70.5l46 260h-143l-68 -388h-104l69 388h-69l15 86h487z" />
    <glyph glyph-name="Wgrave" unicode="&#x1e80;" horiz-adv-x="926" 
d="M503 939l169 -134l-44 -56l-187 110zM992 700l-309 -700h-130q-9 111 -16 210q-3 42 -6.5 86.5t-6.5 85.5t-5 76.5t-3 60.5h-3q-10 -25 -25 -60.5t-32.5 -76.5t-37 -85.5t-37.5 -86.5q-43 -99 -92 -210h-130l-62 700h115q9 -120 17 -227q3 -46 6.5 -93.5t6 -91t4 -81
l2.5 -62.5h2q10 25 25.5 62.5t34 81t39 91t40.5 93.5q47 107 99 227h111q10 -122 18 -230q3 -46 6.5 -94t6.5 -91.5t5 -79.5t3 -60h3q9 24 24.5 60t33.5 79.5t38.5 91.5t40.5 94q47 108 99 230h115z" />
    <glyph glyph-name="wgrave" unicode="&#x1e81;" horiz-adv-x="743" 
d="M465 474q9 -84 17 -155q3 -30 6.5 -61t6 -58.5t4 -49.5t2.5 -34h2q5 14 15 37t22 51t26 59t28 61q33 70 70 150h108l-229 -474h-117q-9 90 -17 164q-3 31 -6.5 61.5t-6 56t-4 43t-1.5 22.5q-3 -6 -11 -23.5t-19.5 -43t-25 -56t-27.5 -61.5q-33 -73 -73 -163h-118l-64 474
h110q9 -82 17 -152q3 -30 6.5 -61t6 -59t4 -50.5t1.5 -36.5h2q7 17 21.5 50.5t32.5 73.5t36.5 81.5t34.5 75.5t26 56l10 22h104zM373 723l169 -134l-44 -56l-187 110z" />
    <glyph glyph-name="Wacute" unicode="&#x1e82;" horiz-adv-x="926" 
d="M686 853l-216 -105l-27 64l206 127zM992 700l-309 -700h-130q-9 111 -16 210q-3 42 -6.5 86.5t-6.5 85.5t-5 76.5t-3 60.5h-3q-10 -25 -25 -60.5t-32.5 -76.5t-37 -85.5t-37.5 -86.5q-43 -99 -92 -210h-130l-62 700h115q9 -120 17 -227q3 -46 6.5 -93.5t6 -91t4 -81
l2.5 -62.5h2q10 25 25.5 62.5t34 81t39 91t40.5 93.5q47 107 99 227h111q10 -122 18 -230q3 -46 6.5 -94t6.5 -91.5t5 -79.5t3 -60h3q9 24 24.5 60t33.5 79.5t38.5 91.5t40.5 94q47 108 99 230h115z" />
    <glyph glyph-name="wacute" unicode="&#x1e83;" horiz-adv-x="743" 
d="M558 638l-216 -105l-27 64l206 127zM465 474q9 -84 17 -155q3 -30 6.5 -61t6 -58.5t4 -49.5t2.5 -34h2q5 14 15 37t22 51t26 59t28 61q33 70 70 150h108l-229 -474h-117q-9 90 -17 164q-3 31 -6.5 61.5t-6 56t-4 43t-1.5 22.5q-3 -6 -11 -23.5t-19.5 -43t-25 -56
t-27.5 -61.5q-33 -73 -73 -163h-118l-64 474h110q9 -82 17 -152q3 -30 6.5 -61t6 -59t4 -50.5t1.5 -36.5h2q7 17 21.5 50.5t32.5 73.5t36.5 81.5t34.5 75.5t26 56l10 22h104z" />
    <glyph glyph-name="Wdieresis" unicode="&#x1e84;" horiz-adv-x="926" 
d="M389 830q0 27 18 45t47 18q28 0 46 -18t18 -45t-18 -45t-46 -18q-29 0 -47 18t-18 45zM593 830q0 27 17.5 45t46.5 18t47 -18t18 -45t-18 -45t-47 -18t-46.5 18t-17.5 45zM992 700l-309 -700h-130q-9 111 -16 210q-3 42 -6.5 86.5t-6.5 85.5t-5 76.5t-3 60.5h-3
q-10 -25 -25 -60.5t-32.5 -76.5t-37 -85.5t-37.5 -86.5q-43 -99 -92 -210h-130l-62 700h115q9 -120 17 -227q3 -46 6.5 -93.5t6 -91t4 -81l2.5 -62.5h2q10 25 25.5 62.5t34 81t39 91t40.5 93.5q47 107 99 227h111q10 -122 18 -230q3 -46 6.5 -94t6.5 -91.5t5 -79.5t3 -60h3
q9 24 24.5 60t33.5 79.5t38.5 91.5t40.5 94q47 108 99 230h115z" />
    <glyph glyph-name="wdieresis" unicode="&#x1e85;" horiz-adv-x="743" 
d="M263 607q0 28 18 45.5t47 17.5t47 -17.5t18 -45.5q0 -26 -18 -44.5t-47 -18.5t-47 18.5t-18 44.5zM467 607q0 28 18 45.5t47 17.5t47 -17.5t18 -45.5q0 -26 -18 -44.5t-47 -18.5t-47 18.5t-18 44.5zM465 474q9 -84 17 -155q3 -30 6.5 -61t6 -58.5t4 -49.5t2.5 -34h2
q5 14 15 37t22 51t26 59t28 61q33 70 70 150h108l-229 -474h-117q-9 90 -17 164q-3 31 -6.5 61.5t-6 56t-4 43t-1.5 22.5q-3 -6 -11 -23.5t-19.5 -43t-25 -56t-27.5 -61.5q-33 -73 -73 -163h-118l-64 474h110q9 -82 17 -152q3 -30 6.5 -61t6 -59t4 -50.5t1.5 -36.5h2
q7 17 21.5 50.5t32.5 73.5t36.5 81.5t34.5 75.5t26 56l10 22h104z" />
    <glyph glyph-name="figuredash" unicode="&#x2012;" 
d="M74 331h485l-15 -86h-486z" />
    <glyph glyph-name="endash" unicode="&#x2013;" horiz-adv-x="500" 
d="M74 331h385l-15 -86h-386z" />
    <glyph glyph-name="emdash" unicode="&#x2014;" horiz-adv-x="870" 
d="M74 331h755l-15 -86h-756z" />
    <glyph glyph-name="uni2015" unicode="&#x2015;" horiz-adv-x="1200" 
d="M1159 331l-15 -86h-1086l16 86h1085z" />
    <glyph glyph-name="doublebar" unicode="&#x2016;" horiz-adv-x="444" 
d="M185 797h96l-170 -966h-96zM358 797h97l-170 -966h-97z" />
    <glyph glyph-name="quoteleft" unicode="&#x2018;" horiz-adv-x="240" 
d="M97 554q0 25 8.5 52.5t27 50.5t48 38.5t70.5 17.5l13 -51q-14 1 -29.5 -3.5t-28.5 -13t-22 -21t-10 -28.5q4 2 8.5 2h7.5q27 0 44 -18.5t17 -47.5q0 -13 -5 -26t-15 -24t-24 -18t-33 -7q-41 0 -59 28.5t-18 68.5z" />
    <glyph glyph-name="quoteright" unicode="&#x2019;" horiz-adv-x="240" 
d="M266 616q0 -26 -8.5 -53t-27.5 -50t-48 -38.5t-70 -17.5l-13 51q14 0 29.5 4t28 12.5t21.5 21t10 28.5q-10 -2 -16 -2q-26 0 -43 18.5t-17 47.5q0 13 5 26.5t14.5 24t24 17.5t32.5 7q42 0 60 -28t18 -69z" />
    <glyph glyph-name="quotesinglbase" unicode="&#x201a;" horiz-adv-x="242" 
d="M167 39q0 -26 -9 -53t-27.5 -50t-48 -38.5t-70.5 -16.5l-12 51q14 -1 29 3.5t28 13t21.5 21t10.5 27.5q-2 0 -6.5 -0.5t-9.5 -0.5q-26 0 -43.5 18t-17.5 47q0 13 5 26.5t15 24t24.5 17.5t32.5 7q42 0 60 -28t18 -69z" />
    <glyph glyph-name="reversequoteleft" unicode="&#x201b;" horiz-adv-x="235" 
d="M105 598q0 21 5 41.5t16.5 37t29 27t42.5 10.5q35 0 52.5 -20.5t17.5 -47.5q0 -34 -23.5 -53t-53.5 -19q-10 0 -15 1q-4 -14 1 -26t14 -21t21.5 -14t23.5 -5l-25 -50q-32 5 -52.5 19.5t-32.5 34t-16.5 42t-4.5 43.5z" />
    <glyph glyph-name="quotedblleft" unicode="&#x201c;" horiz-adv-x="433" 
d="M97 554q0 25 8.5 52.5t27 50.5t48 38.5t70.5 17.5l13 -51q-14 1 -29.5 -3.5t-28.5 -13t-22 -21t-10 -28.5q4 2 8.5 2h7.5q27 0 44 -18.5t17 -47.5q0 -13 -5 -26t-15 -24t-24 -18t-33 -7q-41 0 -59 28.5t-18 68.5zM289 554q0 25 8.5 52.5t27 50.5t48 38.5t70.5 17.5
l13 -51q-14 1 -29.5 -3.5t-28.5 -13t-22 -21t-10 -28.5q4 2 8.5 2h7.5q27 0 44 -18.5t17 -47.5q0 -13 -5 -26t-15 -24t-24 -18t-33 -7q-41 0 -59 28.5t-18 68.5z" />
    <glyph glyph-name="quotedblright" unicode="&#x201d;" horiz-adv-x="433" 
d="M266 616q0 -26 -8.5 -53t-27.5 -50t-48 -38.5t-70 -17.5l-13 51q14 0 29.5 4t28 12.5t21.5 21t10 28.5q-10 -2 -16 -2q-26 0 -43 18.5t-17 47.5q0 13 5 26.5t14.5 24t24 17.5t32.5 7q42 0 60 -28t18 -69zM458 616q0 -26 -8.5 -53t-27.5 -50t-48 -38.5t-70 -17.5l-13 51
q14 0 29.5 4t28 12.5t21.5 21t10 28.5q-10 -2 -16 -2q-26 0 -43 18.5t-17 47.5q0 13 5 26.5t14.5 24t24 17.5t32.5 7q42 0 60 -28t18 -69z" />
    <glyph glyph-name="quotedblbase" unicode="&#x201e;" horiz-adv-x="434" 
d="M167 39q0 -26 -9 -53t-27.5 -50t-48 -38.5t-70.5 -16.5l-12 51q14 -1 29 3.5t28 13t21.5 21t10.5 27.5q-2 0 -6.5 -0.5t-9.5 -0.5q-26 0 -43.5 18t-17.5 47q0 13 5 26.5t15 24t24.5 17.5t32.5 7q42 0 60 -28t18 -69zM359 39q0 -26 -9 -53t-27.5 -50t-48 -38.5
t-70.5 -16.5l-12 51q14 -1 29 3.5t28 13t21.5 21t10.5 27.5q-2 0 -6.5 -0.5t-9.5 -0.5q-26 0 -43.5 18t-17.5 47q0 13 5 26.5t15 24t24.5 17.5t32.5 7q42 0 60 -28t18 -69z" />
    <glyph glyph-name="reversequotedblleft" unicode="&#x201f;" horiz-adv-x="427" 
d="M105 598q0 21 5 41.5t16.5 37t29 27t42.5 10.5q35 0 52.5 -20.5t17.5 -47.5q0 -34 -23.5 -53t-53.5 -19q-10 0 -15 1q-4 -14 1 -26t14 -21t21.5 -14t23.5 -5l-25 -50q-32 5 -52.5 19.5t-32.5 34t-16.5 42t-4.5 43.5zM297 598q0 21 5 41.5t16.5 37t29 27t42.5 10.5
q35 0 52.5 -20.5t17.5 -47.5q0 -34 -23.5 -53t-53.5 -19q-10 0 -15 1q-4 -14 1 -26t14 -21t21.5 -14t23.5 -5l-25 -50q-32 5 -52.5 19.5t-32.5 34t-16.5 42t-4.5 43.5z" />
    <glyph glyph-name="dagger" unicode="&#x2020;" horiz-adv-x="490" 
d="M71 481h163l38 219h109l-39 -219h163l-17 -95h-163l-89 -508h-109l90 508h-163z" />
    <glyph glyph-name="daggerdbl" unicode="&#x2021;" horiz-adv-x="490" 
d="M21 200h163l35 197h-163l17 95h163l36 208h109l-37 -208h163l-17 -95h-163l-34 -197h163l-17 -95h-163l-40 -227h-109l40 227h-163z" />
    <glyph glyph-name="bullet" unicode="&#x2022;" horiz-adv-x="369" 
d="M72 326q0 27 9.5 49.5t26.5 39t40.5 26t51.5 9.5t51 -9.5t40 -26t26.5 -39t9.5 -49.5q0 -53 -35.5 -87.5t-91.5 -34.5q-57 0 -92.5 34.5t-35.5 87.5z" />
    <glyph glyph-name="ellipsis" unicode="&#x2026;" horiz-adv-x="807" 
d="M101 130q32 0 51.5 -20t19.5 -50q0 -29 -19.5 -48.5t-51.5 -19.5t-51 19.5t-19 48.5q0 30 19 50t51 20zM372 130q32 0 51.5 -20t19.5 -50q0 -29 -19.5 -48.5t-51.5 -19.5t-51 19.5t-19 48.5q0 30 19 50t51 20zM643 130q32 0 51.5 -20t19.5 -50q0 -29 -19.5 -48.5
t-51.5 -19.5t-51 19.5t-19 48.5q0 30 19 50t51 20z" />
    <glyph glyph-name="perthousand" unicode="&#x2030;" horiz-adv-x="1276" 
d="M897 139q0 38 11 76.5t33.5 69.5t56.5 50.5t80 19.5q75 0 113.5 -41.5t38.5 -111.5q0 -41 -12 -79.5t-35 -68.5t-56.5 -48.5t-77.5 -18.5q-77 0 -114.5 41.5t-37.5 110.5zM1142 201q0 37 -16 59.5t-49 22.5q-22 0 -39 -11.5t-29 -31t-18 -45t-6 -54.5q0 -37 16 -59.5
t48 -22.5q22 0 39.5 11.5t29.5 31t18 45t6 54.5zM134 -13l564 726h101l-564 -726h-101zM83 485q0 38 11 76.5t33.5 69t56.5 50t80 19.5q75 0 113.5 -41.5t38.5 -110.5q0 -41 -12 -80t-35 -69t-56.5 -48.5t-77.5 -18.5q-77 0 -114.5 42t-37.5 111zM328 546q0 37 -16 59.5
t-48 22.5q-22 0 -39.5 -11.5t-29.5 -31t-18 -45t-6 -54.5q0 -37 16 -59.5t48 -22.5q22 0 39.5 11.5t29.5 31t18 45t6 54.5zM508 139q0 38 11 76.5t33.5 69.5t56.5 50.5t80 19.5q75 0 113.5 -41.5t38.5 -111.5q0 -41 -12 -79.5t-35 -68.5t-56.5 -48.5t-77.5 -18.5
q-77 0 -114.5 41.5t-37.5 110.5zM753 201q0 37 -16 59.5t-49 22.5q-22 0 -39 -11.5t-29 -31t-18 -45t-6 -54.5q0 -37 16 -59.5t48 -22.5q22 0 39.5 11.5t29.5 31t18 45t6 54.5z" />
    <glyph glyph-name="guilsinglleft" unicode="&#x2039;" horiz-adv-x="311" 
d="M33 261l216 219l63 -55l-162 -172l100 -173l-72 -49z" />
    <glyph glyph-name="guilsinglright" unicode="&#x203a;" horiz-adv-x="312" 
d="M286 250l-216 -219l-63 55l162 172l-100 173l72 49z" />
    <glyph glyph-name="fraction" unicode="&#x2044;" horiz-adv-x="279" 
d="M-173 -13l564 726h101l-565 -726h-100z" />
    <glyph glyph-name="uni2070" unicode="&#x2070;" horiz-adv-x="395" 
d="M405 557q0 -42 -10 -85t-32 -77.5t-55.5 -56.5t-81.5 -22q-72 0 -105.5 41.5t-33.5 110.5q0 40 10 82.5t31.5 77.5t55.5 58t83 23q68 0 103 -41.5t35 -110.5zM228 387q25 0 42 17.5t27.5 43.5t15 56t4.5 54q0 14 -2.5 28t-8.5 25.5t-16 18.5t-26 7q-24 0 -41 -17.5
t-27.5 -43t-15.5 -55.5t-5 -55q0 -14 2.5 -28t8.5 -25t16 -18.5t26 -7.5z" />
    <glyph glyph-name="uni2074" unicode="&#x2074;" horiz-adv-x="377" 
d="M370 698l-41 -233h62l-22 -66h-52l-13 -75h-82l13 75h-179l11 62l192 237h111zM249 465l28 159h-2l-128 -159h102z" />
    <glyph glyph-name="uni2075" unicode="&#x2075;" horiz-adv-x="358" 
d="M152 432q2 -21 17 -34t38 -13q31 0 50.5 19t19.5 51q0 25 -14 39t-38 14q-20 0 -35.5 -8.5t-24.5 -22.5l-71 13l61 208h231l-24 -70h-157l-26 -81q10 11 27 19.5t41 8.5q54 0 84.5 -31.5t30.5 -84.5q0 -30 -11.5 -56t-32 -45.5t-49.5 -30.5t-63 -11q-61 0 -95 28t-37 69z
" />
    <glyph glyph-name="uni2076" unicode="&#x2076;" horiz-adv-x="375" 
d="M269 641q-41 0 -65 -32.5t-34 -81.5q14 20 38 32.5t55 12.5q53 0 85 -32.5t32 -84.5q0 -26 -10.5 -51t-30 -45t-47.5 -32t-64 -12q-65 0 -103 36.5t-38 119.5q0 42 10.5 84.5t33 76.5t57.5 55.5t83 21.5q58 0 90 -26t36 -69l-79 -10q-2 16 -13.5 26.5t-35.5 10.5z
M242 506q-29 0 -49.5 -18.5t-20.5 -50.5q0 -23 15 -38.5t41 -15.5t47.5 17.5t21.5 52.5q0 23 -13 38t-42 15z" />
    <glyph glyph-name="uni2077" unicode="&#x2077;" horiz-adv-x="333" 
d="M120 698h270l-11 -63q-20 -20 -46.5 -49.5t-52.5 -68.5t-48.5 -87.5t-32.5 -105.5h-88q8 50 27 96t42.5 85t49 70.5t47.5 52.5h-183z" />
    <glyph glyph-name="uni2078" unicode="&#x2078;" horiz-adv-x="368" 
d="M255 709q61 0 94.5 -29.5t33.5 -71.5q0 -35 -22 -59t-54 -33q25 -10 42 -31t17 -51q0 -23 -10.5 -44.5t-30 -38t-47.5 -26t-64 -9.5q-70 0 -105.5 31.5t-35.5 74.5q0 39 26.5 66.5t64.5 35.5q-22 9 -36 28t-14 47q0 21 9.5 41t28 35t44.5 24.5t59 9.5zM253 645
q-24 0 -41.5 -13t-17.5 -37q0 -20 14 -31t37 -11q26 0 42.5 13.5t16.5 37.5q0 20 -15 30.5t-36 10.5zM215 379q32 0 50.5 15.5t18.5 41.5q0 24 -17 37t-43 13q-30 0 -49.5 -15.5t-19.5 -43.5q0 -22 16 -35t44 -13z" />
    <glyph glyph-name="uni2079" unicode="&#x2079;" horiz-adv-x="376" 
d="M206 383q40 0 64 32.5t34 81.5q-14 -20 -38 -32.5t-54 -12.5q-53 0 -85 32.5t-32 84.5q0 26 10 51t29.5 45t47.5 32t64 12q65 0 103.5 -36.5t38.5 -119.5q0 -42 -11 -84.5t-33.5 -76.5t-57 -55.5t-82.5 -21.5q-58 0 -90 26t-37 69l80 10q2 -16 13.5 -26.5t35.5 -10.5z
M232 518q29 0 49.5 18.5t20.5 50.5q0 23 -14.5 39t-41.5 16q-26 0 -47.5 -18t-21.5 -53q0 -23 13.5 -38t41.5 -15z" />
    <glyph glyph-name="uni207A" unicode="&#x207a;" horiz-adv-x="366" 
d="M93 560h108l19 108h77l-19 -108h108l-13 -77h-108l-20 -111h-77l19 111h-108z" />
    <glyph glyph-name="uni207B" unicode="&#x207b;" horiz-adv-x="373" 
d="M102 560h282l-13 -77h-283z" />
    <glyph glyph-name="uni207C" unicode="&#x207c;" horiz-adv-x="373" 
d="M114 630h283l-13 -77h-283zM89 489h283l-13 -77h-283z" />
    <glyph glyph-name="uni207D" unicode="&#x207d;" horiz-adv-x="227" 
d="M87 463q0 48 15 91t38.5 78t52.5 60t57 37l39 -40q-61 -42 -92 -101.5t-31 -129.5q0 -44 12.5 -81.5t41.5 -69.5l-50 -32q-38 29 -60.5 80t-22.5 108z" />
    <glyph glyph-name="uni207E" unicode="&#x207e;" horiz-adv-x="227" 
d="M231 536q0 -47 -14.5 -90t-37.5 -77.5t-52 -59.5t-59 -37l-39 41q61 41 92 100.5t31 130.5q0 43 -12.5 81t-41.5 70l50 31q36 -28 59.5 -79t23.5 -111z" />
    <glyph glyph-name="n.superior" unicode="&#x207f;" horiz-adv-x="390" 
d="M120 589h78l-8 -46q17 25 42.5 40t57.5 15q22 0 41 -6.5t32 -20t18 -35t0 -50.5l-35 -198h-82l33 185q6 33 -7.5 45.5t-36.5 12.5q-22 0 -45.5 -21t-31.5 -67l-28 -155h-82z" />
    <glyph glyph-name="uni2080" unicode="&#x2080;" horiz-adv-x="396" 
d="M348 233q0 -42 -10 -85t-32 -77.5t-55.5 -56.5t-81.5 -22q-72 0 -105.5 41.5t-33.5 110.5q0 40 10 82.5t31.5 77.5t55.5 58t83 23q68 0 103 -41.5t35 -110.5zM171 63q25 0 42 17.5t27.5 43.5t15 56t4.5 54q0 14 -2.5 28t-8.5 25.5t-16 18.5t-26 7q-24 0 -41 -17.5
t-27.5 -43t-15.5 -55.5t-5 -55q0 -14 2.5 -28t8.5 -25t16 -18.5t26 -7.5z" />
    <glyph glyph-name="uni2081" unicode="&#x2081;" horiz-adv-x="267" 
d="M225 376l-66 -376h-88l50 283q-31 -21 -82 -23l-5 71q34 4 64 15.5t50 29.5h77z" />
    <glyph glyph-name="uni2082" unicode="&#x2082;" horiz-adv-x="372" 
d="M332 272q0 -44 -27 -76.5t-69 -62.5q-23 -17 -50 -33t-50 -30h164l-12 -70h-281l11 66l48 32q20 14 43 29t41 28q48 33 71.5 58.5t23.5 55.5q0 20 -12.5 32.5t-35.5 12.5q-32 0 -48.5 -21.5t-21.5 -46.5l-82 15q14 54 52.5 89t102.5 35t98 -32.5t34 -80.5z" />
    <glyph glyph-name="uni2083" unicode="&#x2083;" horiz-adv-x="364" 
d="M322 280q0 -34 -21 -57t-54 -33q24 -9 39.5 -29t15.5 -49q0 -24 -10.5 -46t-30 -38.5t-47.5 -26t-63 -9.5q-36 0 -62 9t-43 23.5t-25 33t-9 38.5l82 21q2 -21 13.5 -38t44.5 -17t47 16.5t14 35.5q0 23 -15.5 34.5t-41.5 11.5q-3 0 -6 -0.5t-5 -0.5h-4l12 66q1 -1 4 -1h12
q33 0 49 15t16 37q0 20 -14 29.5t-31 9.5q-24 0 -40 -13.5t-20 -34.5l-77 20q6 18 17.5 36t28.5 31.5t40 22t53 8.5q58 0 94.5 -28.5t36.5 -76.5z" />
    <glyph glyph-name="uni2084" unicode="&#x2084;" horiz-adv-x="377" 
d="M313 374l-41 -233h62l-22 -66h-52l-13 -75h-82l13 75h-179l11 62l192 237h111zM192 141l28 159h-2l-128 -159h102z" />
    <glyph glyph-name="uni2085" unicode="&#x2085;" horiz-adv-x="358" 
d="M95 108q2 -21 17 -34t38 -13q31 0 50.5 19t19.5 51q0 25 -14 39t-38 14q-20 0 -35.5 -8.5t-24.5 -22.5l-71 13l61 208h231l-24 -70h-157l-26 -81q10 11 27 19.5t41 8.5q54 0 84.5 -31.5t30.5 -84.5q0 -30 -11.5 -56t-32 -45.5t-49.5 -30.5t-63 -11q-61 0 -95 28t-37 69z
" />
    <glyph glyph-name="uni2086" unicode="&#x2086;" horiz-adv-x="375" 
d="M212 317q-41 0 -65 -32.5t-34 -81.5q14 20 38 32.5t55 12.5q53 0 85 -32.5t32 -84.5q0 -26 -10.5 -51t-30 -45t-47.5 -32t-64 -12q-65 0 -103 36.5t-38 119.5q0 42 10.5 84.5t33 76.5t57.5 55.5t83 21.5q58 0 90 -26t36 -69l-79 -10q-2 16 -13.5 26.5t-35.5 10.5z
M185 182q-29 0 -49.5 -18.5t-20.5 -50.5q0 -23 15 -38.5t41 -15.5t47.5 17.5t21.5 52.5q0 23 -13 38t-42 15z" />
    <glyph glyph-name="uni2087" unicode="&#x2087;" horiz-adv-x="333" 
d="M64 374h270l-11 -63q-20 -20 -46.5 -49.5t-52.5 -68.5t-48.5 -87.5t-32.5 -105.5h-88q8 50 27 96t42.5 85t49 70.5t47.5 52.5h-183z" />
    <glyph glyph-name="uni2088" unicode="&#x2088;" horiz-adv-x="368" 
d="M198 385q61 0 94.5 -29.5t33.5 -71.5q0 -35 -22 -59t-54 -33q25 -10 42 -31t17 -51q0 -23 -10.5 -44.5t-30 -38t-47.5 -26t-64 -9.5q-70 0 -105.5 31.5t-35.5 74.5q0 39 26.5 66.5t64.5 35.5q-22 9 -36 28t-14 47q0 21 9.5 41t28 35t44.5 24.5t59 9.5zM196 321
q-24 0 -41.5 -13t-17.5 -37q0 -20 14 -31t37 -11q26 0 42.5 13.5t16.5 37.5q0 20 -15 30.5t-36 10.5zM158 55q32 0 50.5 15.5t18.5 41.5q0 24 -17 37t-43 13q-30 0 -49.5 -15.5t-19.5 -43.5q0 -22 16 -35t44 -13z" />
    <glyph glyph-name="uni2089" unicode="&#x2089;" horiz-adv-x="376" 
d="M149 59q40 0 64 32.5t34 81.5q-14 -20 -38 -32.5t-54 -12.5q-53 0 -85 32.5t-32 84.5q0 26 10 51t29.5 45t47.5 32t64 12q65 0 103.5 -36.5t38.5 -119.5q0 -42 -11 -84.5t-33.5 -76.5t-57 -55.5t-82.5 -21.5q-58 0 -90 26t-37 69l80 10q2 -16 13.5 -26.5t35.5 -10.5z
M175 194q29 0 49.5 18.5t20.5 50.5q0 23 -14.5 39t-41.5 16q-26 0 -47.5 -18t-21.5 -53q0 -23 13.5 -38t41.5 -15z" />
    <glyph glyph-name="uni208A" unicode="&#x208a;" horiz-adv-x="366" 
d="M36 236h108l19 108h77l-19 -108h108l-13 -77h-108l-20 -111h-77l19 111h-108z" />
    <glyph glyph-name="uni208B" unicode="&#x208b;" horiz-adv-x="373" 
d="M45 236h282l-13 -77h-283z" />
    <glyph glyph-name="uni208C" unicode="&#x208c;" horiz-adv-x="373" 
d="M57 306h283l-13 -77h-283zM32 165h283l-13 -77h-283z" />
    <glyph glyph-name="uni208D" unicode="&#x208d;" horiz-adv-x="227" 
d="M30 139q0 48 15 91t38.5 78t52.5 60t57 37l39 -40q-61 -42 -92 -101.5t-31 -129.5q0 -44 12.5 -81.5t41.5 -69.5l-50 -32q-38 29 -60.5 80t-22.5 108z" />
    <glyph glyph-name="uni208E" unicode="&#x208e;" horiz-adv-x="227" 
d="M175 212q0 -47 -14.5 -90t-37.5 -77.5t-52 -59.5t-59 -37l-39 41q61 41 92 100.5t31 130.5q0 43 -12.5 81t-41.5 70l50 31q36 -28 59.5 -79t23.5 -111z" />
    <glyph glyph-name="Euro" unicode="&#x20ac;" horiz-adv-x="640" 
d="M221 239q5 -35 16.5 -64.5t30 -51t44.5 -33.5t61 -12q42 0 82.5 18.5t70.5 53.5l71 -66q-43 -43 -98 -70t-130 -27q-60 0 -106.5 18t-79 51t-52 79.5t-26.5 103.5h-78l13 73h62q2 34 6 65h-56l13 73h60q19 58 52 104t76.5 77.5t95.5 48.5t108 17q81 0 133.5 -29.5
t76.5 -73.5l-87 -60q-18 35 -51.5 53.5t-78.5 18.5q-62 0 -119.5 -39t-88.5 -117h239l-12 -73h-246q-6 -32 -6 -65h240l-13 -73h-223z" />
    <glyph glyph-name="servicemark" unicode="&#x2120;" horiz-adv-x="717" 
d="M190 623q0 -16 13 -25t42 -17q40 -12 62.5 -30.5t22.5 -53.5q0 -23 -10 -40t-26.5 -28.5t-37.5 -17t-43 -5.5q-57 0 -89.5 24t-34.5 62l68 9q2 -21 16.5 -31.5t39.5 -10.5q17 0 32.5 7t15.5 28q0 14 -13 22t-41 16q-38 11 -62 29.5t-24 56.5q0 22 9 38t24.5 27t35.5 16.5
t43 5.5q46 0 78.5 -19t37.5 -60l-65 -12q-3 20 -17 29.5t-35 9.5q-14 0 -28 -7t-14 -23zM499 411q-3 16 -7.5 43t-9.5 56.5t-9.5 58t-5.5 47.5h-1l-36 -205h-61l51 289h88q9 -53 16 -97q6 -38 11.5 -72.5t6.5 -45.5q5 11 21.5 45.5t35.5 72.5q22 44 48 97h92l-51 -289h-59
l36 205h-1l-24 -48t-31 -60.5t-30 -57.5t-20 -39h-60z" />
    <glyph glyph-name="trademark" unicode="&#x2122;" horiz-adv-x="688" 
d="M109 700h233l-10 -56h-82l-41 -233h-68l41 233h-83zM471 411q-3 16 -7.5 43t-9.5 56.5t-9.5 58t-5.5 47.5h-1l-36 -205h-61l51 289h88q9 -53 16 -97q6 -38 11.5 -72.5t6.5 -45.5q5 11 21.5 45.5t35.5 72.5q22 44 48 97h92l-51 -289h-59l36 205h-1l-24 -48t-31 -60.5
t-30 -57.5t-20 -39h-60z" />
    <glyph glyph-name="estimated" unicode="&#x212e;" horiz-adv-x="770" 
d="M694 164q-20 -42 -47.5 -75t-65 -56t-85 -35t-108.5 -12q-83 0 -146.5 26.5t-106 74.5t-64 115t-21.5 149q0 90 24.5 157.5t68.5 113.5t106.5 69t137.5 23q85 0 148 -28.5t104 -77.5t61 -115.5t20 -141.5v-28h-553q3 -63 18 -114.5t42.5 -87.5t68 -55.5t93.5 -19.5
q50 0 87.5 12t65 32t46 47t29.5 57zM388 654q-57 0 -97 -20t-66 -56t-40 -85.5t-18 -108.5h435q-4 61 -19 110.5t-41 85t-64.5 55t-89.5 19.5z" />
    <glyph glyph-name="uni2153" unicode="&#x2153;" horiz-adv-x="815" 
d="M773 280q0 -34 -21 -57t-54 -33q24 -9 39.5 -29t15.5 -49q0 -24 -10.5 -46t-30 -38.5t-47.5 -26t-63 -9.5q-36 0 -62 9t-43 23.5t-25 33t-9 38.5l82 21q2 -21 13.5 -38t44.5 -17t47 16.5t14 35.5q0 23 -15.5 34.5t-41.5 11.5q-3 0 -6 -0.5t-5 -0.5h-4l12 66q1 -1 4 -1h12
q33 0 49 15t16 37q0 20 -14 29.5t-31 9.5q-24 0 -40 -13.5t-20 -34.5l-77 20q6 18 17.5 36t28.5 31.5t40 22t53 8.5q58 0 94.5 -28.5t36.5 -76.5zM55 -13l564 726h101l-565 -726h-100zM281 700l-66 -376h-88l50 283q-31 -21 -82 -23l-5 71q34 4 64 15.5t50 29.5h77z" />
    <glyph glyph-name="uni2154" unicode="&#x2154;" horiz-adv-x="910" 
d="M389 596q0 -44 -27 -76.5t-69 -62.5q-23 -17 -50 -33t-50 -30h164l-12 -70h-281l11 66l48 32q20 14 43 29t41 28q48 33 71.5 58.5t23.5 55.5q0 20 -12.5 32.5t-35.5 12.5q-32 0 -48.5 -21.5t-21.5 -46.5l-82 15q14 54 52.5 89t102.5 35t98 -32.5t34 -80.5zM867 280
q0 -34 -21 -57t-54 -33q24 -9 39.5 -29t15.5 -49q0 -24 -10.5 -46t-30 -38.5t-47.5 -26t-63 -9.5q-36 0 -62 9t-43 23.5t-25 33t-9 38.5l82 21q2 -21 13.5 -38t44.5 -17t47 16.5t14 35.5q0 23 -15.5 34.5t-41.5 11.5q-3 0 -6 -0.5t-5 -0.5h-4l12 66q1 -1 4 -1h12q33 0 49 15
t16 37q0 20 -14 29.5t-31 9.5q-24 0 -40 -13.5t-20 -34.5l-77 20q6 18 17.5 36t28.5 31.5t40 22t53 8.5q58 0 94.5 -28.5t36.5 -76.5zM150 -13l564 726h101l-565 -726h-100z" />
    <glyph glyph-name="uni2155" unicode="&#x2155;" horiz-adv-x="806" 
d="M543 108q2 -21 17 -34t38 -13q31 0 50.5 19t19.5 51q0 25 -14 39t-38 14q-20 0 -35.5 -8.5t-24.5 -22.5l-71 13l61 208h231l-24 -70h-157l-26 -81q10 11 27 19.5t41 8.5q54 0 84.5 -31.5t30.5 -84.5q0 -30 -11.5 -56t-32 -45.5t-49.5 -30.5t-63 -11q-61 0 -95 28t-37 69z
M54 -13l564 726h101l-565 -726h-100zM281 700l-66 -376h-88l50 283q-31 -21 -82 -23l-5 71q34 4 64 15.5t50 29.5h77z" />
    <glyph glyph-name="uni2156" unicode="&#x2156;" horiz-adv-x="896" 
d="M633 108q2 -21 17 -34t38 -13q31 0 50.5 19t19.5 51q0 25 -14 39t-38 14q-20 0 -35.5 -8.5t-24.5 -22.5l-71 13l61 208h231l-24 -70h-157l-26 -81q10 11 27 19.5t41 8.5q54 0 84.5 -31.5t30.5 -84.5q0 -30 -11.5 -56t-32 -45.5t-49.5 -30.5t-63 -11q-61 0 -95 28t-37 69z
M389 596q0 -44 -27 -76.5t-69 -62.5q-23 -17 -50 -33t-50 -30h164l-12 -70h-281l11 66l48 32q20 14 43 29t41 28q48 33 71.5 58.5t23.5 55.5q0 20 -12.5 32.5t-35.5 12.5q-32 0 -48.5 -21.5t-21.5 -46.5l-82 15q14 54 52.5 89t102.5 35t98 -32.5t34 -80.5zM144 -13l564 726
h101l-565 -726h-100z" />
    <glyph glyph-name="uni2157" unicode="&#x2157;" horiz-adv-x="891" 
d="M628 108q2 -21 17 -34t38 -13q31 0 50.5 19t19.5 51q0 25 -14 39t-38 14q-20 0 -35.5 -8.5t-24.5 -22.5l-71 13l61 208h231l-24 -70h-157l-26 -81q10 11 27 19.5t41 8.5q54 0 84.5 -31.5t30.5 -84.5q0 -30 -11.5 -56t-32 -45.5t-49.5 -30.5t-63 -11q-61 0 -95 28t-37 69z
M379 604q0 -34 -21 -57t-54 -33q24 -9 39.5 -29t15.5 -49q0 -24 -10.5 -46t-30 -38.5t-47.5 -26t-63 -9.5q-36 0 -62 9t-43 23.5t-25 33t-9 38.5l82 21q2 -21 13.5 -38t44.5 -17t47 16.5t14 35.5q0 23 -15.5 34.5t-41.5 11.5q-3 0 -6 -0.5t-5 -0.5h-4l12 66q1 -1 4 -1h12
q33 0 49 15t16 37q0 20 -14 29.5t-31 9.5q-24 0 -40 -13.5t-20 -34.5l-77 20q6 18 17.5 36t28.5 31.5t40 22t53 8.5q58 0 94.5 -28.5t36.5 -76.5zM139 -13l564 726h101l-565 -726h-100z" />
    <glyph glyph-name="uni2158" unicode="&#x2158;" horiz-adv-x="903" 
d="M370 698l-41 -233h62l-22 -66h-52l-13 -75h-82l13 75h-179l11 62l192 237h111zM249 465l28 159h-2l-128 -159h102zM640 108q2 -21 17 -34t38 -13q31 0 50.5 19t19.5 51q0 25 -14 39t-38 14q-20 0 -35.5 -8.5t-24.5 -22.5l-71 13l61 208h231l-24 -70h-157l-26 -81
q10 11 27 19.5t41 8.5q54 0 84.5 -31.5t30.5 -84.5q0 -30 -11.5 -56t-32 -45.5t-49.5 -30.5t-63 -11q-61 0 -95 28t-37 69zM151 -13l564 726h101l-565 -726h-100z" />
    <glyph glyph-name="uni2159" unicode="&#x2159;" horiz-adv-x="813" 
d="M650 317q-41 0 -65 -32.5t-34 -81.5q14 20 38 32.5t55 12.5q53 0 85 -32.5t32 -84.5q0 -26 -10.5 -51t-30 -45t-47.5 -32t-64 -12q-65 0 -103 36.5t-38 119.5q0 42 10.5 84.5t33 76.5t57.5 55.5t83 21.5q58 0 90 -26t36 -69l-79 -10q-2 16 -13.5 26.5t-35.5 10.5z
M623 182q-29 0 -49.5 -18.5t-20.5 -50.5q0 -23 15 -38.5t41 -15.5t47.5 17.5t21.5 52.5q0 23 -13 38t-42 15zM54 -13l564 726h101l-565 -726h-100zM281 700l-66 -376h-88l50 283q-31 -21 -82 -23l-5 71q34 4 64 15.5t50 29.5h77z" />
    <glyph glyph-name="uni215A" unicode="&#x215a;" horiz-adv-x="890" 
d="M727 317q-41 0 -65 -32.5t-34 -81.5q14 20 38 32.5t55 12.5q53 0 85 -32.5t32 -84.5q0 -26 -10.5 -51t-30 -45t-47.5 -32t-64 -12q-65 0 -103 36.5t-38 119.5q0 42 10.5 84.5t33 76.5t57.5 55.5t83 21.5q58 0 90 -26t36 -69l-79 -10q-2 16 -13.5 26.5t-35.5 10.5z
M700 182q-29 0 -49.5 -18.5t-20.5 -50.5q0 -23 15 -38.5t41 -15.5t47.5 17.5t21.5 52.5q0 23 -13 38t-42 15zM152 432q2 -21 17 -34t38 -13q31 0 50.5 19t19.5 51q0 25 -14 39t-38 14q-20 0 -35.5 -8.5t-24.5 -22.5l-71 13l61 208h231l-24 -70h-157l-26 -81q10 11 27 19.5
t41 8.5q54 0 84.5 -31.5t30.5 -84.5q0 -30 -11.5 -56t-32 -45.5t-49.5 -30.5t-63 -11q-61 0 -95 28t-37 69zM131 -13l564 726h101l-565 -726h-100z" />
    <glyph glyph-name="uni215B" unicode="&#x215b;" horiz-adv-x="815" 
d="M645 385q61 0 94.5 -29.5t33.5 -71.5q0 -35 -22 -59t-54 -33q25 -10 42 -31t17 -51q0 -23 -10.5 -44.5t-30 -38t-47.5 -26t-64 -9.5q-70 0 -105.5 31.5t-35.5 74.5q0 39 26.5 66.5t64.5 35.5q-22 9 -36 28t-14 47q0 21 9.5 41t28 35t44.5 24.5t59 9.5zM643 321
q-24 0 -41.5 -13t-17.5 -37q0 -20 14 -31t37 -11q26 0 42.5 13.5t16.5 37.5q0 20 -15 30.5t-36 10.5zM605 55q32 0 50.5 15.5t18.5 41.5q0 24 -17 37t-43 13q-30 0 -49.5 -15.5t-19.5 -43.5q0 -22 16 -35t44 -13zM54 -13l564 726h101l-565 -726h-100zM281 700l-66 -376h-88
l50 283q-31 -21 -82 -23l-5 71q34 4 64 15.5t50 29.5h77z" />
    <glyph glyph-name="uni215C" unicode="&#x215c;" horiz-adv-x="899" 
d="M379 604q0 -34 -21 -57t-54 -33q24 -9 39.5 -29t15.5 -49q0 -24 -10.5 -46t-30 -38.5t-47.5 -26t-63 -9.5q-36 0 -62 9t-43 23.5t-25 33t-9 38.5l82 21q2 -21 13.5 -38t44.5 -17t47 16.5t14 35.5q0 23 -15.5 34.5t-41.5 11.5q-3 0 -6 -0.5t-5 -0.5h-4l12 66q1 -1 4 -1h12
q33 0 49 15t16 37q0 20 -14 29.5t-31 9.5q-24 0 -40 -13.5t-20 -34.5l-77 20q6 18 17.5 36t28.5 31.5t40 22t53 8.5q58 0 94.5 -28.5t36.5 -76.5zM729 385q61 0 94.5 -29.5t33.5 -71.5q0 -35 -22 -59t-54 -33q25 -10 42 -31t17 -51q0 -23 -10.5 -44.5t-30 -38t-47.5 -26
t-64 -9.5q-70 0 -105.5 31.5t-35.5 74.5q0 39 26.5 66.5t64.5 35.5q-22 9 -36 28t-14 47q0 21 9.5 41t28 35t44.5 24.5t59 9.5zM727 321q-24 0 -41.5 -13t-17.5 -37q0 -20 14 -31t37 -11q26 0 42.5 13.5t16.5 37.5q0 20 -15 30.5t-36 10.5zM689 55q32 0 50.5 15.5t18.5 41.5
q0 24 -17 37t-43 13q-30 0 -49.5 -15.5t-19.5 -43.5q0 -22 16 -35t44 -13zM139 -13l564 726h101l-565 -726h-100z" />
    <glyph glyph-name="uni215D" unicode="&#x215d;" horiz-adv-x="892" 
d="M152 432q2 -21 17 -34t38 -13q31 0 50.5 19t19.5 51q0 25 -14 39t-38 14q-20 0 -35.5 -8.5t-24.5 -22.5l-71 13l61 208h231l-24 -70h-157l-26 -81q10 11 27 19.5t41 8.5q54 0 84.5 -31.5t30.5 -84.5q0 -30 -11.5 -56t-32 -45.5t-49.5 -30.5t-63 -11q-61 0 -95 28t-37 69z
M722 385q61 0 94.5 -29.5t33.5 -71.5q0 -35 -22 -59t-54 -33q25 -10 42 -31t17 -51q0 -23 -10.5 -44.5t-30 -38t-47.5 -26t-64 -9.5q-70 0 -105.5 31.5t-35.5 74.5q0 39 26.5 66.5t64.5 35.5q-22 9 -36 28t-14 47q0 21 9.5 41t28 35t44.5 24.5t59 9.5zM720 321
q-24 0 -41.5 -13t-17.5 -37q0 -20 14 -31t37 -11q26 0 42.5 13.5t16.5 37.5q0 20 -15 30.5t-36 10.5zM682 55q32 0 50.5 15.5t18.5 41.5q0 24 -17 37t-43 13q-30 0 -49.5 -15.5t-19.5 -43.5q0 -22 16 -35t44 -13zM131 -13l564 726h101l-565 -726h-100z" />
    <glyph glyph-name="uni215E" unicode="&#x215e;" horiz-adv-x="820" 
d="M120 698h270l-11 -63q-20 -20 -46.5 -49.5t-52.5 -68.5t-48.5 -87.5t-32.5 -105.5h-88q8 50 27 96t42.5 85t49 70.5t47.5 52.5h-183zM650 385q61 0 94.5 -29.5t33.5 -71.5q0 -35 -22 -59t-54 -33q25 -10 42 -31t17 -51q0 -23 -10.5 -44.5t-30 -38t-47.5 -26t-64 -9.5
q-70 0 -105.5 31.5t-35.5 74.5q0 39 26.5 66.5t64.5 35.5q-22 9 -36 28t-14 47q0 21 9.5 41t28 35t44.5 24.5t59 9.5zM648 321q-24 0 -41.5 -13t-17.5 -37q0 -20 14 -31t37 -11q26 0 42.5 13.5t16.5 37.5q0 20 -15 30.5t-36 10.5zM610 55q32 0 50.5 15.5t18.5 41.5
q0 24 -17 37t-43 13q-30 0 -49.5 -15.5t-19.5 -43.5q0 -22 16 -35t44 -13zM59 -13l564 726h101l-565 -726h-100z" />
    <glyph glyph-name="uni215F" unicode="&#x215f;" horiz-adv-x="630" 
d="M54 -13l564 726h101l-565 -726h-100zM281 700l-66 -376h-88l50 283q-31 -21 -82 -23l-5 71q34 4 64 15.5t50 29.5h77z" />
    <glyph glyph-name="arrowleft" unicode="&#x2190;" horiz-adv-x="850" 
d="M777 395v-92h-539l183 -184l-64 -64l-294 294l294 294l64 -64l-183 -184h539z" />
    <glyph glyph-name="arrowup" unicode="&#x2191;" horiz-adv-x="775" 
d="M434 0h-93v539l-184 -182l-63 64l293 294l294 -294l-64 -64l-183 182v-539z" />
    <glyph glyph-name="arrowright" unicode="&#x2192;" horiz-adv-x="850" 
d="M612 395l-183 184l64 64l294 -294l-294 -294l-64 64l183 184h-539v92h539z" />
    <glyph glyph-name="arrowdown" unicode="&#x2193;" horiz-adv-x="775" 
d="M341 700h93v-539l183 182l64 -64l-294 -294l-293 294l63 64l184 -182v539z" />
    <glyph glyph-name="uni2196" unicode="&#x2196;" horiz-adv-x="750" 
d="M668 227l-65 -65l-382 381v-259h-90v416h415v-91h-259z" />
    <glyph glyph-name="uni2197" unicode="&#x2197;" horiz-adv-x="750" 
d="M463 609h-259v91h415v-416h-90v259l-382 -381l-65 65z" />
    <glyph glyph-name="uni2198" unicode="&#x2198;" horiz-adv-x="750" 
d="M82 473l65 65l382 -381v259h90v-416h-415v91h259z" />
    <glyph glyph-name="uni2199" unicode="&#x2199;" horiz-adv-x="750" 
d="M287 91h259v-91h-415v416h90v-259l382 381l65 -65z" />
    <glyph glyph-name="partialdiff" unicode="&#x2202;" horiz-adv-x="572" 
d="M150 619q32 41 76 67.5t104 26.5q102 0 157 -68t55 -213q0 -103 -21 -185.5t-60 -140t-95 -88.5t-126 -31q-52 0 -90.5 15t-64 41t-38.5 61t-13 76q0 43 15.5 87.5t47 81t79 60t110.5 23.5q59 0 94 -21t52 -42q7 52 6 98.5t-13 81.5t-37 55t-64 20q-38 0 -63.5 -22
t-42.5 -46zM281 344q-34 0 -58.5 -15t-41 -38.5t-24.5 -52t-8 -56.5q0 -50 25 -78t69 -28q34 0 62.5 16.5t50 42.5t35 59.5t18.5 67.5q-4 17 -16 32t-29.5 26t-39 17.5t-43.5 6.5z" />
    <glyph glyph-name="Delta" unicode="&#x2206;" horiz-adv-x="719" 
d="M635 0h-634l376 700h130zM163 90h341l-84 490z" />
    <glyph glyph-name="product" unicode="&#x220f;" horiz-adv-x="668" 
d="M156 700h518l-123 -700h-114l107 606h-290l-107 -606h-114z" />
    <glyph glyph-name="summation" unicode="&#x2211;" horiz-adv-x="555" 
d="M465 0h-459l15 87l226 265l-132 265l14 83h459l-16 -94h-333l130 -263l-211 -249h324z" />
    <glyph glyph-name="minus" unicode="&#x2212;" 
d="M75 370h496l-16 -91h-496z" />
    <glyph glyph-name="radical" unicode="&#x221a;" horiz-adv-x="630" 
d="M51 382l178 56l51 -316l306 578h110l-382 -700h-107l-58 331l-86 -27z" />
    <glyph glyph-name="infinity" unicode="&#x221e;" horiz-adv-x="791" 
d="M556 138q-54 0 -91.5 28t-64.5 79q-46 -54 -89 -80.5t-94 -26.5q-32 0 -61 10t-51 30.5t-35 52t-13 74.5q0 50 17.5 88.5t46 65t66 40t77.5 13.5q55 0 92 -26.5t66 -80.5q45 55 88.5 81t95.5 26q31 0 60 -10.5t51 -31.5t35 -52t13 -72q0 -50 -18 -89t-47 -65.5t-66.5 -40
t-77.5 -13.5zM362 326q-15 42 -39.5 70t-64.5 28q-21 0 -39.5 -8t-32.5 -23t-22 -36t-8 -47q0 -43 20.5 -63.5t51.5 -20.5q21 0 39.5 8.5t35 22.5t31.5 32t28 37zM460 324q6 -18 15 -36t21 -31.5t28.5 -22t38.5 -8.5q42 0 72.5 30.5t30.5 83.5q0 44 -21.5 64t-52.5 20
q-39 0 -71 -29.5t-61 -70.5z" />
    <glyph glyph-name="integral" unicode="&#x222b;" horiz-adv-x="353" 
d="M176 551q8 46 26 77t42 50t52 27t56 8q38 0 66.5 -11t45.5 -25l-59 -84q-8 10 -20.5 18t-30.5 8q-53 0 -67 -78l-94 -530q-8 -45 -26 -76t-42 -50t-52 -27.5t-57 -8.5q-38 0 -66 10.5t-46 24.5l60 85q8 -10 20 -18t30 -8q54 0 68 78z" />
    <glyph glyph-name="approxequal" unicode="&#x2248;" 
d="M418 348q-35 0 -59 9.5t-43.5 20.5t-37 20.5t-38.5 9.5q-22 0 -38 -9t-27 -20q-13 -12 -22 -28l-67 57q16 26 40 46q20 17 51 31.5t74 14.5q34 0 58.5 -9.5t44 -21t37 -21t39.5 -9.5q21 0 37 9t27 20q12 13 21 30l69 -57q-16 -27 -40 -47q-20 -17 -51.5 -31.5
t-74.5 -14.5zM380 152q-34 0 -58 9.5t-43.5 20.5t-37.5 20.5t-39 9.5t-37 -9t-27 -20q-13 -12 -22 -28l-68 57q16 26 40 46q20 17 51 31.5t74 14.5q35 0 59 -9.5t43.5 -21t37 -21t39.5 -9.5q21 0 37 9t27 20q12 13 22 30l69 -57q-17 -27 -41 -47q-21 -17 -52 -31.5
t-74 -14.5z" />
    <glyph glyph-name="notequal" unicode="&#x2260;" 
d="M91 463h284l126 159l66 -44l-91 -115h111l-16 -91h-167l-78 -98h228l-16 -91h-284l-125 -158l-67 45l90 113h-110l16 91h166l79 98h-227z" />
    <glyph glyph-name="equivalence" unicode="&#x2261;" 
d="M112 569h495l-15 -90h-496zM76 370h496l-16 -90h-496zM41 171h496l-16 -90h-496z" />
    <glyph glyph-name="lessequal" unicode="&#x2264;" 
d="M26 91h495l-16 -91h-494zM71 337l17 102l530 197l-19 -108l-409 -144l358 -143l-18 -99z" />
    <glyph glyph-name="greaterequal" unicode="&#x2265;" 
d="M505 0h-494l15 91h495zM583 441l-18 -101l-530 -198l19 108l409 144l-358 144l18 98z" />
    <glyph glyph-name="squaremultiply" unicode="&#x22a0;" horiz-adv-x="850" 
d="M75 700h700v-700h-700v700zM162 80h526v540h-526v-540zM425 289l-156 -156l-62 61l157 156l-157 157l62 61l156 -156l156 156l62 -61l-156 -157l156 -156l-62 -61z" />
    <glyph glyph-name="blacksquare" unicode="&#x25a0;" horiz-adv-x="850" 
d="M75 700h700v-700h-700v700z" />
    <glyph glyph-name="blacksquare" unicode="&#xe740;" horiz-adv-x="850" 
d="M75 700h700v-700h-700v700z" />
    <glyph glyph-name="whitesquare" unicode="&#x25a1;" horiz-adv-x="850" 
d="M75 700h700v-700h-700v700zM162 80h526v540h-526v-540z" />
    <glyph glyph-name="blacksmallsquare" unicode="&#x25aa;" 
d="M63 474h474v-474h-474v474z" />
    <glyph glyph-name="whitesmallsquare" unicode="&#x25ab;" 
d="M63 474h474v-474h-474v474zM143 73h314v328h-314v-328z" />
    <glyph glyph-name="triagup" unicode="&#x25b2;" horiz-adv-x="800" 
d="M50 0l350 716l350 -716h-700z" />
    <glyph glyph-name="triagrt" unicode="&#x25ba;" horiz-adv-x="785" 
d="M50 700l685 -350l-685 -350v700z" />
    <glyph glyph-name="triagdn" unicode="&#x25bc;" horiz-adv-x="800" 
d="M750 700l-350 -716l-350 716h700z" />
    <glyph glyph-name="triaglf" unicode="&#x25c4;" horiz-adv-x="785" 
d="M735 0l-685 350l685 350v-700z" />
    <glyph glyph-name="lozenge" unicode="&#x25ca;" horiz-adv-x="587" 
d="M552 348l-241 -348h-119l-117 352l241 348h119zM193 346l76 -234l166 243l-76 234z" />
    <glyph glyph-name="whitecircle" unicode="&#x25cb;" horiz-adv-x="850" 
d="M62 350q0 75 28.5 141.5t78 115.5t115.5 77.5t141 28.5t141 -28.5t115.5 -77.5t78 -115.5t28.5 -141.5t-28.5 -141.5t-78 -115.5t-115.5 -77.5t-141 -28.5t-141 28.5t-115.5 77.5t-78 115.5t-28.5 141.5zM700 350q0 58 -21.5 110t-58.5 90t-87.5 60.5t-107.5 22.5
t-107.5 -22.5t-87.5 -60.5t-58.5 -90t-21.5 -110q0 -59 21.5 -110.5t58.5 -89.5t87.5 -60.5t107.5 -22.5t107.5 22.5t87.5 60.5t58.5 89.5t21.5 110.5z" />
    <glyph glyph-name="whitecircle" unicode="&#x25ef;" horiz-adv-x="850" 
d="M62 350q0 75 28.5 141.5t78 115.5t115.5 77.5t141 28.5t141 -28.5t115.5 -77.5t78 -115.5t28.5 -141.5t-28.5 -141.5t-78 -115.5t-115.5 -77.5t-141 -28.5t-141 28.5t-115.5 77.5t-78 115.5t-28.5 141.5zM700 350q0 58 -21.5 110t-58.5 90t-87.5 60.5t-107.5 22.5
t-107.5 -22.5t-87.5 -60.5t-58.5 -90t-21.5 -110q0 -59 21.5 -110.5t58.5 -89.5t87.5 -60.5t107.5 -22.5t107.5 22.5t87.5 60.5t58.5 89.5t21.5 110.5z" />
    <glyph glyph-name="blackcircle" unicode="&#x25cf;" horiz-adv-x="850" 
d="M788 350q0 -75 -29 -141t-78.5 -115.5t-115.5 -78t-140 -28.5t-140 28.5t-115.5 78t-78.5 115.5t-29 141t29 141t78.5 115.5t115.5 78t140 28.5t140 -28.5t115.5 -78t78.5 -115.5t29 -141z" />
    <glyph glyph-name="uni25E2" unicode="&#x25e2;" horiz-adv-x="800" 
d="M539 700l221 -716l-717 220z" />
    <glyph glyph-name="uni25E3" unicode="&#x25e3;" horiz-adv-x="800" 
d="M757 204l-717 -220l221 716z" />
    <glyph glyph-name="uni25E4" unicode="&#x25e4;" horiz-adv-x="800" 
d="M261 -16l-221 716l717 -220z" />
    <glyph glyph-name="uni25E5" unicode="&#x25e5;" horiz-adv-x="800" 
d="M43 480l717 220l-221 -716z" />
    <glyph glyph-name="ballotboxwithx" unicode="&#x2612;" 
d="M236 117l-56 55l65 65l-65 65l56 56l64 -66l65 65l56 -55l-66 -65l66 -64l-56 -56l-65 65zM63 474h474v-474h-474v474zM143 73h314v328h-314v-328z" />
    <glyph glyph-name="mediumwhitecircle" unicode="&#x26aa;" 
d="M50 237q0 52 19.5 97.5t53.5 79.5t79.5 53.5t97.5 19.5t97.5 -19.5t79.5 -53.5t53.5 -79.5t19.5 -97.5t-19.5 -97.5t-53.5 -79.5t-79.5 -53.5t-97.5 -19.5t-97.5 19.5t-79.5 53.5t-53.5 79.5t-19.5 97.5zM468 237q0 37 -13 69t-36 56t-53.5 37.5t-65.5 13.5t-65.5 -13.5
t-53.5 -37.5t-36 -56t-13 -69t13 -69t36 -56t53.5 -37.5t65.5 -13.5t65.5 13.5t53.5 37.5t36 56t13 69z" />
    <glyph glyph-name="mediumblackcircle" unicode="&#x26ab;" 
d="M551 236q0 -52 -20 -97.5t-54 -79.5t-80 -53.5t-98 -19.5q-51 0 -96.5 19.5t-79.5 53.5t-54 79.5t-20 97.5t20 97.5t54 79.5t79.5 53.5t96.5 19.5q52 0 98 -19.5t80 -53.5t54 -79.5t20 -97.5z" />
    <glyph glyph-name="anglebracketleft" unicode="&#x3008;" horiz-adv-x="338" 
d="M328 792l87 -34l-240 -451l76 -454l-90 -31l-101 492z" />
    <glyph glyph-name="anglebracketright" unicode="&#x3009;" horiz-adv-x="338" 
d="M33 -178l-86 34l239 451l-75 454l89 31l102 -492z" />
    <glyph glyph-name="aogonek.school" unicode="&#xe150;" horiz-adv-x="580" 
d="M35 200q0 64 20 117t54 91t78.5 58.5t93.5 20.5q60 0 96.5 -24.5t51.5 -57.5l12 69h109l-84 -474q-58 -29 -88 -53.5t-30 -48.5q0 -14 9.5 -23.5t28.5 -9.5q13 0 28.5 7.5t27.5 25.5l43 -45q-27 -31 -57 -43t-62 -12q-47 0 -74.5 22t-27.5 60q0 43 26 70t68 50l12 69
q-19 -31 -57 -56.5t-92 -25.5q-42 0 -76 15t-58.5 42.5t-38 67t-13.5 88.5zM398 252q6 38 0 65.5t-21 45t-36.5 26t-44.5 8.5q-32 0 -58.5 -15t-45.5 -41.5t-29.5 -62t-10.5 -76.5q0 -56 24.5 -90.5t75.5 -34.5q22 0 44.5 8t41.5 25.5t33.5 44t20.5 63.5z" />
    <glyph glyph-name="a.school" unicode="&#xe151;" horiz-adv-x="580" 
d="M35 200q0 64 20 117t54 91t78.5 58.5t93.5 20.5q60 0 96.5 -24.5t51.5 -57.5l12 69h109l-84 -474h-108l12 69q-19 -31 -57 -56.5t-92 -25.5q-42 0 -76 15t-58.5 42.5t-38 67t-13.5 88.5zM398 252q6 38 0 65.5t-21 45t-36.5 26t-44.5 8.5q-32 0 -58.5 -15t-45.5 -41.5
t-29.5 -62t-10.5 -76.5q0 -56 24.5 -90.5t75.5 -34.5q22 0 44.5 8t41.5 25.5t33.5 44t20.5 63.5z" />
    <glyph glyph-name="agrave.school" unicode="&#xe152;" horiz-adv-x="580" 
d="M35 200q0 64 20 117t54 91t78.5 58.5t93.5 20.5q60 0 96.5 -24.5t51.5 -57.5l12 69h109l-84 -474h-108l12 69q-19 -31 -57 -56.5t-92 -25.5q-42 0 -76 15t-58.5 42.5t-38 67t-13.5 88.5zM398 252q6 38 0 65.5t-21 45t-36.5 26t-44.5 8.5q-32 0 -58.5 -15t-45.5 -41.5
t-29.5 -62t-10.5 -76.5q0 -56 24.5 -90.5t75.5 -34.5q22 0 44.5 8t41.5 25.5t33.5 44t20.5 63.5zM269 723l169 -134l-44 -56l-187 110z" />
    <glyph glyph-name="aacute.school" unicode="&#xe153;" horiz-adv-x="580" 
d="M35 200q0 64 20 117t54 91t78.5 58.5t93.5 20.5q60 0 96.5 -24.5t51.5 -57.5l12 69h109l-84 -474h-108l12 69q-19 -31 -57 -56.5t-92 -25.5q-42 0 -76 15t-58.5 42.5t-38 67t-13.5 88.5zM398 252q6 38 0 65.5t-21 45t-36.5 26t-44.5 8.5q-32 0 -58.5 -15t-45.5 -41.5
t-29.5 -62t-10.5 -76.5q0 -56 24.5 -90.5t75.5 -34.5q22 0 44.5 8t41.5 25.5t33.5 44t20.5 63.5zM441 638l-216 -105l-27 64l206 127z" />
    <glyph glyph-name="acircumflex.school" unicode="&#xe154;" horiz-adv-x="580" 
d="M291 706h74l97 -131l-59 -46l-81 105l-118 -106l-50 52zM35 200q0 64 20 117t54 91t78.5 58.5t93.5 20.5q60 0 96.5 -24.5t51.5 -57.5l12 69h109l-84 -474h-108l12 69q-19 -31 -57 -56.5t-92 -25.5q-42 0 -76 15t-58.5 42.5t-38 67t-13.5 88.5zM398 252q6 38 0 65.5
t-21 45t-36.5 26t-44.5 8.5q-32 0 -58.5 -15t-45.5 -41.5t-29.5 -62t-10.5 -76.5q0 -56 24.5 -90.5t75.5 -34.5q22 0 44.5 8t41.5 25.5t33.5 44t20.5 63.5z" />
    <glyph glyph-name="adieresis.school" unicode="&#xe155;" horiz-adv-x="580" 
d="M150 607q0 28 18 45.5t47 17.5t47 -17.5t18 -45.5q0 -26 -18 -44.5t-47 -18.5t-47 18.5t-18 44.5zM354 607q0 28 18 45.5t47 17.5t47 -17.5t18 -45.5q0 -26 -18 -44.5t-47 -18.5t-47 18.5t-18 44.5zM35 200q0 64 20 117t54 91t78.5 58.5t93.5 20.5q60 0 96.5 -24.5
t51.5 -57.5l12 69h109l-84 -474h-108l12 69q-19 -31 -57 -56.5t-92 -25.5q-42 0 -76 15t-58.5 42.5t-38 67t-13.5 88.5zM398 252q6 38 0 65.5t-21 45t-36.5 26t-44.5 8.5q-32 0 -58.5 -15t-45.5 -41.5t-29.5 -62t-10.5 -76.5q0 -56 24.5 -90.5t75.5 -34.5q22 0 44.5 8
t41.5 25.5t33.5 44t20.5 63.5z" />
    <glyph glyph-name="atilde.school" unicode="&#xe156;" horiz-adv-x="580" 
d="M35 200q0 64 20 117t54 91t78.5 58.5t93.5 20.5q60 0 96.5 -24.5t51.5 -57.5l12 69h109l-84 -474h-108l12 69q-19 -31 -57 -56.5t-92 -25.5q-42 0 -76 15t-58.5 42.5t-38 67t-13.5 88.5zM398 252q6 38 0 65.5t-21 45t-36.5 26t-44.5 8.5q-32 0 -58.5 -15t-45.5 -41.5
t-29.5 -62t-10.5 -76.5q0 -56 24.5 -90.5t75.5 -34.5q22 0 44.5 8t41.5 25.5t33.5 44t20.5 63.5zM254 675q27 0 45.5 -8.5t33.5 -18t28.5 -18t30.5 -8.5q15 0 27 7.5t20 16.5q10 11 16 25l53 -49q-13 -21 -31 -37q-16 -14 -39 -25.5t-55 -11.5q-26 0 -44.5 8.5t-33 18
t-28 18t-30.5 8.5t-29.5 -7.5t-20.5 -16.5q-10 -11 -16 -24l-51 49q12 20 30 36q15 14 38.5 25.5t55.5 11.5z" />
    <glyph glyph-name="aring.school" unicode="&#xe157;" horiz-adv-x="580" 
d="M35 200q0 64 20 117t54 91t78.5 58.5t93.5 20.5q60 0 96.5 -24.5t51.5 -57.5l12 69h109l-84 -474h-108l12 69q-19 -31 -57 -56.5t-92 -25.5q-42 0 -76 15t-58.5 42.5t-38 67t-13.5 88.5zM398 252q6 38 0 65.5t-21 45t-36.5 26t-44.5 8.5q-32 0 -58.5 -15t-45.5 -41.5
t-29.5 -62t-10.5 -76.5q0 -56 24.5 -90.5t75.5 -34.5q22 0 44.5 8t41.5 25.5t33.5 44t20.5 63.5zM315 529q-45 0 -70.5 25.5t-25.5 67.5q0 46 31.5 76.5t80.5 30.5q45 0 70.5 -25.5t25.5 -66.5q0 -23 -8.5 -42.5t-23.5 -34t-35.5 -23t-44.5 -8.5zM279 626q0 -17 11 -30
t29 -13q21 0 34.5 15t13.5 35q0 18 -10.5 29.5t-29.5 11.5q-20 0 -34 -14t-14 -34z" />
    <glyph glyph-name="amacron.school" unicode="&#xe159;" horiz-adv-x="580" 
d="M35 200q0 64 20 117t54 91t78.5 58.5t93.5 20.5q60 0 96.5 -24.5t51.5 -57.5l12 69h109l-84 -474h-108l12 69q-19 -31 -57 -56.5t-92 -25.5q-42 0 -76 15t-58.5 42.5t-38 67t-13.5 88.5zM398 252q6 38 0 65.5t-21 45t-36.5 26t-44.5 8.5q-32 0 -58.5 -15t-45.5 -41.5
t-29.5 -62t-10.5 -76.5q0 -56 24.5 -90.5t75.5 -34.5q22 0 44.5 8t41.5 25.5t33.5 44t20.5 63.5zM188 630h273l-13 -74h-273z" />
    <glyph glyph-name="abreve.school" unicode="&#xe15a;" horiz-adv-x="580" 
d="M35 200q0 64 20 117t54 91t78.5 58.5t93.5 20.5q60 0 96.5 -24.5t51.5 -57.5l12 69h109l-84 -474h-108l12 69q-19 -31 -57 -56.5t-92 -25.5q-42 0 -76 15t-58.5 42.5t-38 67t-13.5 88.5zM398 252q6 38 0 65.5t-21 45t-36.5 26t-44.5 8.5q-32 0 -58.5 -15t-45.5 -41.5
t-29.5 -62t-10.5 -76.5q0 -56 24.5 -90.5t75.5 -34.5q22 0 44.5 8t41.5 25.5t33.5 44t20.5 63.5zM244 688q0 -29 18.5 -49.5t50.5 -20.5t56.5 20.5t32.5 49.5l84 -24q-18 -51 -64.5 -85t-112.5 -34q-65 0 -105.5 33.5t-43.5 85.5z" />
    <glyph glyph-name="ordfeminine.school" unicode="&#xe182;" horiz-adv-x="464" 
d="M87 477q0 50 15.5 91t42 70.5t61 45.5t72.5 16q46 0 75 -19t40 -45l10 54h84l-65 -368h-85l10 53q-14 -24 -43.5 -43.5t-71.5 -19.5q-66 0 -105.5 44.5t-39.5 120.5zM369 518q5 29 0 50t-16.5 35t-28.5 20.5t-35 6.5q-24 0 -44.5 -12t-35.5 -32.5t-23 -48t-8 -59.5
q0 -42 19 -69.5t59 -27.5q35 0 66.5 26t41.5 84z" />
    <glyph glyph-name="p.smcp" unicode="&#xe200;" horiz-adv-x="546" 
d="M186 204l-36 -204h-111l100 564h207q89 0 141 -39.5t52 -118.5q0 -54 -19 -92t-52.5 -62.5t-80 -36t-100.5 -11.5h-101zM424 400q0 71 -105 71h-86l-30 -175h85q136 0 136 104z" />
    <glyph glyph-name="p.smcp" unicode="&#xf770;" horiz-adv-x="546" 
d="M186 204l-36 -204h-111l100 564h207q89 0 141 -39.5t52 -118.5q0 -54 -19 -92t-52.5 -62.5t-80 -36t-100.5 -11.5h-101zM424 400q0 71 -105 71h-86l-30 -175h85q136 0 136 104z" />
    <glyph glyph-name="a.smcp" unicode="&#xe201;" horiz-adv-x="556" 
d="M497 0h-111l-23 136h-203l-72 -136h-113l301 564h118zM315 449q-3 -6 -8.5 -19t-13.5 -30t-17.5 -37t-19.5 -39l-50 -100h143q-8 54 -15 100q-3 19 -6 39t-5 37t-4 30t-2 19h-2z" />
    <glyph glyph-name="a.smcp" unicode="&#xf761;" horiz-adv-x="556" 
d="M497 0h-111l-23 136h-203l-72 -136h-113l301 564h118zM315 449q-3 -6 -8.5 -19t-13.5 -30t-17.5 -37t-19.5 -39l-50 -100h143q-8 54 -15 100q-3 19 -6 39t-5 37t-4 30t-2 19h-2z" />
    <glyph glyph-name="b.smcp" unicode="&#xe202;" horiz-adv-x="556" 
d="M138 564h229q75 0 113.5 -39.5t38.5 -96.5q0 -29 -9.5 -52t-24.5 -40.5t-35 -28.5t-41 -16q18 -4 34.5 -12.5t29 -23t20.5 -34.5t8 -47q0 -38 -16.5 -69.5t-45 -55t-66.5 -36.5t-81 -13h-253zM164 90h99q37 0 60.5 7.5t37 19.5t19 27.5t5.5 32.5q0 35 -22 50.5t-76 15.5
h-97zM231 473l-25 -141h90q107 0 107 82q0 32 -18.5 45.5t-60.5 13.5h-93z" />
    <glyph glyph-name="b.smcp" unicode="&#xf762;" horiz-adv-x="556" 
d="M138 564h229q75 0 113.5 -39.5t38.5 -96.5q0 -29 -9.5 -52t-24.5 -40.5t-35 -28.5t-41 -16q18 -4 34.5 -12.5t29 -23t20.5 -34.5t8 -47q0 -38 -16.5 -69.5t-45 -55t-66.5 -36.5t-81 -13h-253zM164 90h99q37 0 60.5 7.5t37 19.5t19 27.5t5.5 32.5q0 35 -22 50.5t-76 15.5
h-97zM231 473l-25 -141h90q107 0 107 82q0 32 -18.5 45.5t-60.5 13.5h-93z" />
    <glyph glyph-name="c.smcp" unicode="&#xe203;" horiz-adv-x="585" 
d="M57 238q0 72 21 133.5t60 107t94.5 71.5t124.5 26q94 0 153.5 -40t76.5 -115l-111 -37q-8 46 -36.5 72.5t-85.5 26.5q-41 0 -74 -19t-56.5 -52t-36.5 -77.5t-13 -95.5q0 -32 8 -60.5t24.5 -50.5t41 -35t58.5 -13q45 0 76 24.5t54 71.5l105 -38q-33 -70 -92.5 -110.5
t-143.5 -40.5q-117 0 -182.5 66t-65.5 185z" />
    <glyph glyph-name="c.smcp" unicode="&#xf763;" horiz-adv-x="585" 
d="M57 238q0 72 21 133.5t60 107t94.5 71.5t124.5 26q94 0 153.5 -40t76.5 -115l-111 -37q-8 46 -36.5 72.5t-85.5 26.5q-41 0 -74 -19t-56.5 -52t-36.5 -77.5t-13 -95.5q0 -32 8 -60.5t24.5 -50.5t41 -35t58.5 -13q45 0 76 24.5t54 71.5l105 -38q-33 -70 -92.5 -110.5
t-143.5 -40.5q-117 0 -182.5 66t-65.5 185z" />
    <glyph glyph-name="d.smcp" unicode="&#xe204;" horiz-adv-x="618" 
d="M138 564h202q54 0 97.5 -16.5t74.5 -46.5t47.5 -73t16.5 -95q0 -79 -23 -141t-65.5 -104.5t-103 -65t-135.5 -22.5h-210zM458 332q0 66 -35 102.5t-105 36.5h-84l-66 -378h91q49 0 86 18t62 49.5t38 75.5t13 96z" />
    <glyph glyph-name="d.smcp" unicode="&#xf764;" horiz-adv-x="618" 
d="M138 564h202q54 0 97.5 -16.5t74.5 -46.5t47.5 -73t16.5 -95q0 -79 -23 -141t-65.5 -104.5t-103 -65t-135.5 -22.5h-210zM458 332q0 66 -35 102.5t-105 36.5h-84l-66 -378h91q49 0 86 18t62 49.5t38 75.5t13 96z" />
    <glyph glyph-name="e.smcp" unicode="&#xe205;" horiz-adv-x="506" 
d="M39 0l99 564h375l-16 -93h-264l-23 -135h245l-16 -92h-245l-27 -151h268l-16 -93h-380z" />
    <glyph glyph-name="e.smcp" unicode="&#xf765;" horiz-adv-x="506" 
d="M39 0l99 564h375l-16 -93h-264l-23 -135h245l-16 -92h-245l-27 -151h268l-16 -93h-380z" />
    <glyph glyph-name="f.smcp" unicode="&#xe206;" horiz-adv-x="500" 
d="M39 0l99 564h377l-17 -93h-265l-23 -135h245l-16 -92h-245l-43 -244h-112z" />
    <glyph glyph-name="f.smcp" unicode="&#xf766;" horiz-adv-x="500" 
d="M39 0l99 564h377l-17 -93h-265l-23 -135h245l-16 -92h-245l-43 -244h-112z" />
    <glyph glyph-name="g.smcp" unicode="&#xe207;" horiz-adv-x="633" 
d="M321 304h253l-54 -304h-100l10 61q-17 -28 -56.5 -51t-94.5 -23q-56 0 -97.5 20t-69 54t-41.5 79t-14 96q0 68 20.5 130t59.5 108.5t95 74t127 27.5q91 0 151 -38t79 -108l-107 -37q-9 43 -40 66.5t-85 23.5q-40 0 -73.5 -18t-58 -50.5t-38 -78.5t-13.5 -101
q0 -73 32 -114t99 -41q24 0 47.5 6t43 19.5t33.5 34t19 49.5l4 27h-146z" />
    <glyph glyph-name="g.smcp" unicode="&#xf767;" horiz-adv-x="633" 
d="M321 304h253l-54 -304h-100l10 61q-17 -28 -56.5 -51t-94.5 -23q-56 0 -97.5 20t-69 54t-41.5 79t-14 96q0 68 20.5 130t59.5 108.5t95 74t127 27.5q91 0 151 -38t79 -108l-107 -37q-9 43 -40 66.5t-85 23.5q-40 0 -73.5 -18t-58 -50.5t-38 -78.5t-13.5 -101
q0 -73 32 -114t99 -41q24 0 47.5 6t43 19.5t33.5 34t19 49.5l4 27h-146z" />
    <glyph glyph-name="h.smcp" unicode="&#xe208;" horiz-adv-x="613" 
d="M138 564h112l-39 -227h226l40 227h112l-99 -564h-112l43 244h-227l-43 -244h-112z" />
    <glyph glyph-name="h.smcp" unicode="&#xf768;" horiz-adv-x="613" 
d="M138 564h112l-39 -227h226l40 227h112l-99 -564h-112l43 244h-227l-43 -244h-112z" />
    <glyph glyph-name="i.smcp" unicode="&#xe209;" horiz-adv-x="274" 
d="M138 564h112l-99 -564h-112z" />
    <glyph glyph-name="i.smcp" unicode="&#xf769;" horiz-adv-x="274" 
d="M138 564h112l-99 -564h-112z" />
    <glyph glyph-name="j.smcp" unicode="&#xe20a;" horiz-adv-x="406" 
d="M128 81q35 0 53 25t28 78l67 380h112l-67 -380q-8 -44 -20 -80t-34 -62t-55.5 -40.5t-84.5 -14.5q-65 0 -100.5 20t-54.5 48l84 72q16 -22 31.5 -34t40.5 -12z" />
    <glyph glyph-name="j.smcp" unicode="&#xf76a;" horiz-adv-x="406" 
d="M128 81q35 0 53 25t28 78l67 380h112l-67 -380q-8 -44 -20 -80t-34 -62t-55.5 -40.5t-84.5 -14.5q-65 0 -100.5 20t-54.5 48l84 72q16 -22 31.5 -34t40.5 -12z" />
    <glyph glyph-name="k.smcp" unicode="&#xe20b;" horiz-adv-x="555" 
d="M249 255l-63 -57l-35 -198h-112l99 564h112l-37 -215l233 215h137l-248 -232l165 -332h-127z" />
    <glyph glyph-name="k.smcp" unicode="&#xf76b;" horiz-adv-x="555" 
d="M249 255l-63 -57l-35 -198h-112l99 564h112l-37 -215l233 215h137l-248 -232l165 -332h-127z" />
    <glyph glyph-name="l.smcp" unicode="&#xe20c;" horiz-adv-x="460" 
d="M138 564h112l-82 -471h247l-16 -93h-360z" />
    <glyph glyph-name="l.smcp" unicode="&#xf76c;" horiz-adv-x="460" 
d="M138 564h112l-82 -471h247l-16 -93h-360z" />
    <glyph glyph-name="m.smcp" unicode="&#xe20d;" horiz-adv-x="761" 
d="M289 0q-7 34 -17.5 89.5t-21.5 116t-20.5 118t-13.5 96.5h-2l-74 -420h-101l99 564h150q18 -106 33 -196q6 -38 12.5 -76.5t12 -71t9.5 -57t6 -34.5q5 10 17 34.5t28.5 57t35.5 71t39 76.5q46 90 100 196h156l-99 -564h-101l74 420h-2q-12 -26 -30.5 -62t-40 -77
t-43.5 -83t-42.5 -80t-37 -69t-26.5 -49h-100z" />
    <glyph glyph-name="m.smcp" unicode="&#xf76d;" horiz-adv-x="761" 
d="M289 0q-7 34 -17.5 89.5t-21.5 116t-20.5 118t-13.5 96.5h-2l-74 -420h-101l99 564h150q18 -106 33 -196q6 -38 12.5 -76.5t12 -71t9.5 -57t6 -34.5q5 10 17 34.5t28.5 57t35.5 71t39 76.5q46 90 100 196h156l-99 -564h-101l74 420h-2q-12 -26 -30.5 -62t-40 -77
t-43.5 -83t-42.5 -80t-37 -69t-26.5 -49h-100z" />
    <glyph glyph-name="n.smcp" unicode="&#xe20e;" horiz-adv-x="629" 
d="M138 564h115q39 -88 74 -165q15 -33 30 -67.5t29 -66t25.5 -57.5t18.5 -43h2l70 399h103l-99 -564h-115q-38 85 -72 162q-15 33 -30 67t-29 65.5t-25.5 58.5t-19.5 46h-2l-71 -399h-103z" />
    <glyph glyph-name="n.smcp" unicode="&#xf76e;" horiz-adv-x="629" 
d="M138 564h115q39 -88 74 -165q15 -33 30 -67.5t29 -66t25.5 -57.5t18.5 -43h2l70 399h103l-99 -564h-115q-38 85 -72 162q-15 33 -30 67t-29 65.5t-25.5 58.5t-19.5 46h-2l-71 -399h-103z" />
    <glyph glyph-name="o.smcp" unicode="&#xe20f;" horiz-adv-x="643" 
d="M300 -13q-56 0 -100.5 17t-76.5 48.5t-49 77.5t-17 105q0 72 21 134.5t59.5 108t94 72t124.5 26.5q55 0 100.5 -16.5t77.5 -48.5t49.5 -78t17.5 -104q0 -72 -21 -134.5t-60 -108.5t-95 -72.5t-125 -26.5zM174 236q0 -31 7.5 -59.5t23.5 -50t40.5 -34t58.5 -12.5
q47 0 81 23.5t56 59.5t32.5 80t10.5 85q0 31 -8 59t-24 49.5t-40.5 34t-58.5 12.5q-47 0 -80.5 -23.5t-55.5 -60t-32.5 -80t-10.5 -83.5z" />
    <glyph glyph-name="o.smcp" unicode="&#xf76f;" horiz-adv-x="643" 
d="M300 -13q-56 0 -100.5 17t-76.5 48.5t-49 77.5t-17 105q0 72 21 134.5t59.5 108t94 72t124.5 26.5q55 0 100.5 -16.5t77.5 -48.5t49.5 -78t17.5 -104q0 -72 -21 -134.5t-60 -108.5t-95 -72.5t-125 -26.5zM174 236q0 -31 7.5 -59.5t23.5 -50t40.5 -34t58.5 -12.5
q47 0 81 23.5t56 59.5t32.5 80t10.5 85q0 31 -8 59t-24 49.5t-40.5 34t-58.5 12.5q-47 0 -80.5 -23.5t-55.5 -60t-32.5 -80t-10.5 -83.5z" />
    <glyph glyph-name="q.smcp" unicode="&#xe211;" horiz-adv-x="643" 
d="M300 -13q-56 0 -100.5 17t-76.5 48.5t-49 77.5t-17 105q0 72 21 134.5t59.5 108t94 72t124.5 26.5q55 0 100.5 -16.5t77.5 -48.5t49.5 -78t17.5 -104q0 -90 -31.5 -163t-89.5 -119l43 -55l-67 -51l-50 64q-24 -8 -50.5 -13t-55.5 -5zM174 236q0 -31 7.5 -59.5t23.5 -50
t40.5 -34t58.5 -12.5q11 0 21 1t19 4l-49 64l66 52l55 -72q17 19 30 43t21.5 50t12.5 53t4 53q0 31 -8 59t-24 49.5t-40.5 34t-58.5 12.5q-47 0 -80.5 -23.5t-55.5 -60t-32.5 -80t-10.5 -83.5z" />
    <glyph glyph-name="q.smcp" unicode="&#xf771;" horiz-adv-x="643" 
d="M300 -13q-56 0 -100.5 17t-76.5 48.5t-49 77.5t-17 105q0 72 21 134.5t59.5 108t94 72t124.5 26.5q55 0 100.5 -16.5t77.5 -48.5t49.5 -78t17.5 -104q0 -90 -31.5 -163t-89.5 -119l43 -55l-67 -51l-50 64q-24 -8 -50.5 -13t-55.5 -5zM174 236q0 -31 7.5 -59.5t23.5 -50
t40.5 -34t58.5 -12.5q11 0 21 1t19 4l-49 64l66 52l55 -72q17 19 30 43t21.5 50t12.5 53t4 53q0 31 -8 59t-24 49.5t-40.5 34t-58.5 12.5q-47 0 -80.5 -23.5t-55.5 -60t-32.5 -80t-10.5 -83.5z" />
    <glyph glyph-name="r.smcp" unicode="&#xe212;" horiz-adv-x="560" 
d="M532 413q0 -66 -37.5 -114.5t-103.5 -65.5l92 -233h-121l-83 220h-91l-39 -220h-110l100 564h200q41 0 76.5 -8.5t61.5 -27t40.5 -47t14.5 -68.5zM416 406q0 38 -24.5 52t-74.5 14h-85l-28 -163h89q64 0 93.5 28t29.5 69z" />
    <glyph glyph-name="r.smcp" unicode="&#xf772;" horiz-adv-x="560" 
d="M532 413q0 -66 -37.5 -114.5t-103.5 -65.5l92 -233h-121l-83 220h-91l-39 -220h-110l100 564h200q41 0 76.5 -8.5t61.5 -27t40.5 -47t14.5 -68.5zM416 406q0 38 -24.5 52t-74.5 14h-85l-28 -163h89q64 0 93.5 28t29.5 69z" />
    <glyph glyph-name="s.smcp" unicode="&#xe213;" horiz-adv-x="549" 
d="M204 414q0 -35 25.5 -51.5t83.5 -30.5q42 -11 74.5 -23.5t55 -30.5t34.5 -43t12 -60q0 -42 -17 -76.5t-47.5 -59t-74 -38.5t-97.5 -14q-58 0 -100.5 15t-70 40t-41 57t-12.5 65l112 17q-1 -19 5 -37.5t19.5 -33.5t36.5 -24t56 -9q51 0 83 20.5t32 65.5q0 16 -5.5 27
t-19.5 20t-37.5 17t-59.5 17q-45 11 -76 26t-50.5 33.5t-28 42.5t-8.5 53q0 41 16 74t44.5 56t69 35t89.5 12q103 0 159.5 -45t61.5 -116l-114 -21q1 42 -27.5 67t-85.5 25q-48 0 -72.5 -19.5t-24.5 -52.5z" />
    <glyph glyph-name="s.smcp" unicode="&#xf773;" horiz-adv-x="549" 
d="M204 414q0 -35 25.5 -51.5t83.5 -30.5q42 -11 74.5 -23.5t55 -30.5t34.5 -43t12 -60q0 -42 -17 -76.5t-47.5 -59t-74 -38.5t-97.5 -14q-58 0 -100.5 15t-70 40t-41 57t-12.5 65l112 17q-1 -19 5 -37.5t19.5 -33.5t36.5 -24t56 -9q51 0 83 20.5t32 65.5q0 16 -5.5 27
t-19.5 20t-37.5 17t-59.5 17q-45 11 -76 26t-50.5 33.5t-28 42.5t-8.5 53q0 41 16 74t44.5 56t69 35t89.5 12q103 0 159.5 -45t61.5 -116l-114 -21q1 42 -27.5 67t-85.5 25q-48 0 -72.5 -19.5t-24.5 -52.5z" />
    <glyph glyph-name="t.smcp" unicode="&#xe214;" horiz-adv-x="482" 
d="M78 564h440l-16 -94h-164l-83 -470h-112l83 470h-164z" />
    <glyph glyph-name="t.smcp" unicode="&#xf774;" horiz-adv-x="482" 
d="M78 564h440l-16 -94h-164l-83 -470h-112l83 470h-164z" />
    <glyph glyph-name="u.smcp" unicode="&#xe215;" horiz-adv-x="598" 
d="M267 -13q-62 0 -103.5 16.5t-65 45.5t-30 69.5t1.5 87.5l63 358h112l-61 -349q-5 -29 -3.5 -53.5t11 -42.5t29 -28.5t51.5 -10.5q34 0 57 11t38.5 29.5t24 42t13.5 49.5l62 352h112l-64 -364q-19 -107 -78.5 -160t-169.5 -53z" />
    <glyph glyph-name="u.smcp" unicode="&#xf775;" horiz-adv-x="598" 
d="M267 -13q-62 0 -103.5 16.5t-65 45.5t-30 69.5t1.5 87.5l63 358h112l-61 -349q-5 -29 -3.5 -53.5t11 -42.5t29 -28.5t51.5 -10.5q34 0 57 11t38.5 29.5t24 42t13.5 49.5l62 352h112l-64 -364q-19 -107 -78.5 -160t-169.5 -53z" />
    <glyph glyph-name="v.smcp" unicode="&#xe216;" horiz-adv-x="558" 
d="M188 564q15 -86 29 -166q6 -34 12 -70.5t11.5 -71t10 -65t7.5 -54.5h2q11 24 26.5 54.5t33 65t36 71t36.5 70.5q41 80 88 166h120l-308 -564h-112l-107 564h115z" />
    <glyph glyph-name="v.smcp" unicode="&#xf776;" horiz-adv-x="558" 
d="M188 564q15 -86 29 -166q6 -34 12 -70.5t11.5 -71t10 -65t7.5 -54.5h2q11 24 26.5 54.5t33 65t36 71t36.5 70.5q41 80 88 166h120l-308 -564h-112l-107 564h115z" />
    <glyph glyph-name="w.smcp" unicode="&#xe217;" horiz-adv-x="767" 
d="M808 564l-244 -564h-124q-7 83 -12 159q-2 32 -4.5 66t-4.5 65.5t-4 58.5t-3 47h-2q-8 -20 -19 -47t-24 -58.5t-27.5 -65.5t-27.5 -66q-33 -76 -68 -159h-124l-47 564h109q7 -93 11 -177q2 -36 3.5 -73t3 -71.5t3 -63.5t1.5 -49h1q7 20 19 49t26.5 63.5t30.5 71.5t31 73
q36 84 77 177h105q7 -94 13 -178q2 -36 4.5 -73t4.5 -71.5t3.5 -63.5t1.5 -48h2q7 19 18.5 48t25.5 63.5t29.5 71.5t30.5 73q35 84 75 178h106z" />
    <glyph glyph-name="w.smcp" unicode="&#xf777;" horiz-adv-x="767" 
d="M808 564l-244 -564h-124q-7 83 -12 159q-2 32 -4.5 66t-4.5 65.5t-4 58.5t-3 47h-2q-8 -20 -19 -47t-24 -58.5t-27.5 -65.5t-27.5 -66q-33 -76 -68 -159h-124l-47 564h109q7 -93 11 -177q2 -36 3.5 -73t3 -71.5t3 -63.5t1.5 -49h1q7 20 19 49t26.5 63.5t30.5 71.5t31 73
q36 84 77 177h105q7 -94 13 -178q2 -36 4.5 -73t4.5 -71.5t3.5 -63.5t1.5 -48h2q7 19 18.5 48t25.5 63.5t29.5 71.5t30.5 73q35 84 75 178h106z" />
    <glyph glyph-name="x.smcp" unicode="&#xe218;" horiz-adv-x="584" 
d="M364 293l157 -293h-128l-108 203l-176 -203h-134l261 297l-140 267h126l93 -178l155 178h133z" />
    <glyph glyph-name="x.smcp" unicode="&#xf778;" horiz-adv-x="584" 
d="M364 293l157 -293h-128l-108 203l-176 -203h-134l261 297l-140 267h126l93 -178l155 178h133z" />
    <glyph glyph-name="y.smcp" unicode="&#xe219;" horiz-adv-x="557" 
d="M221 237l-153 327h122l103 -223l181 223h130l-270 -327l-42 -237h-112z" />
    <glyph glyph-name="y.smcp" unicode="&#xf779;" horiz-adv-x="557" 
d="M221 237l-153 327h122l103 -223l181 223h130l-270 -327l-42 -237h-112z" />
    <glyph glyph-name="z.smcp" unicode="&#xe21a;" horiz-adv-x="531" 
d="M108 564h437l-15 -85l-370 -386h297l-16 -93h-442l14 84l373 387h-294z" />
    <glyph glyph-name="z.smcp" unicode="&#xf77a;" horiz-adv-x="531" 
d="M108 564h437l-15 -85l-370 -386h297l-16 -93h-442l14 84l373 387h-294z" />
    <glyph glyph-name="anocross.smcp" unicode="&#xe220;" horiz-adv-x="556" 
d="M316 442h-2q-3 -7 -17 -35t-34.5 -68t-44.5 -88t-48 -95t-45.5 -88t-35.5 -68h-114l301 564h118l103 -564h-111z" />
    <glyph glyph-name="aacute.smcp" unicode="&#xe221;" horiz-adv-x="556" 
d="M473 715l-216 -105l-27 64l206 127zM497 0h-111l-23 136h-203l-72 -136h-113l301 564h118zM315 449q-3 -6 -8.5 -19t-13.5 -30t-17.5 -37t-19.5 -39l-50 -100h143q-8 54 -15 100q-3 19 -6 39t-5 37t-4 30t-2 19h-2z" />
    <glyph glyph-name="aacute.smcp" unicode="&#xf7e1;" horiz-adv-x="556" 
d="M473 715l-216 -105l-27 64l206 127zM497 0h-111l-23 136h-203l-72 -136h-113l301 564h118zM315 449q-3 -6 -8.5 -19t-13.5 -30t-17.5 -37t-19.5 -39l-50 -100h143q-8 54 -15 100q-3 19 -6 39t-5 37t-4 30t-2 19h-2z" />
    <glyph glyph-name="agrave.smcp" unicode="&#xe222;" horiz-adv-x="556" 
d="M497 0h-111l-23 136h-203l-72 -136h-113l301 564h118zM315 449q-3 -6 -8.5 -19t-13.5 -30t-17.5 -37t-19.5 -39l-50 -100h143q-8 54 -15 100q-3 19 -6 39t-5 37t-4 30t-2 19h-2zM292 800l169 -134l-44 -56l-187 110z" />
    <glyph glyph-name="agrave.smcp" unicode="&#xf7e0;" horiz-adv-x="556" 
d="M497 0h-111l-23 136h-203l-72 -136h-113l301 564h118zM315 449q-3 -6 -8.5 -19t-13.5 -30t-17.5 -37t-19.5 -39l-50 -100h143q-8 54 -15 100q-3 19 -6 39t-5 37t-4 30t-2 19h-2zM292 800l169 -134l-44 -56l-187 110z" />
    <glyph glyph-name="acircumflex.smcp" unicode="&#xe223;" horiz-adv-x="556" 
d="M328 786h74l97 -131l-59 -46l-81 105l-118 -106l-50 52zM497 0h-111l-23 136h-203l-72 -136h-113l301 564h118zM315 449q-3 -6 -8.5 -19t-13.5 -30t-17.5 -37t-19.5 -39l-50 -100h143q-8 54 -15 100q-3 19 -6 39t-5 37t-4 30t-2 19h-2z" />
    <glyph glyph-name="acircumflex.smcp" unicode="&#xf7e2;" horiz-adv-x="556" 
d="M328 786h74l97 -131l-59 -46l-81 105l-118 -106l-50 52zM497 0h-111l-23 136h-203l-72 -136h-113l301 564h118zM315 449q-3 -6 -8.5 -19t-13.5 -30t-17.5 -37t-19.5 -39l-50 -100h143q-8 54 -15 100q-3 19 -6 39t-5 37t-4 30t-2 19h-2z" />
    <glyph glyph-name="adieresis.smcp" unicode="&#xe224;" horiz-adv-x="556" 
d="M182 686q0 28 18 45.5t47 17.5t47 -17.5t18 -45.5q0 -26 -18 -44.5t-47 -18.5t-47 18.5t-18 44.5zM386 686q0 28 18 45.5t47 17.5t47 -17.5t18 -45.5q0 -26 -18 -44.5t-47 -18.5t-47 18.5t-18 44.5zM497 0h-111l-23 136h-203l-72 -136h-113l301 564h118zM315 449
q-3 -6 -8.5 -19t-13.5 -30t-17.5 -37t-19.5 -39l-50 -100h143q-8 54 -15 100q-3 19 -6 39t-5 37t-4 30t-2 19h-2z" />
    <glyph glyph-name="adieresis.smcp" unicode="&#xf7e4;" horiz-adv-x="556" 
d="M182 686q0 28 18 45.5t47 17.5t47 -17.5t18 -45.5q0 -26 -18 -44.5t-47 -18.5t-47 18.5t-18 44.5zM386 686q0 28 18 45.5t47 17.5t47 -17.5t18 -45.5q0 -26 -18 -44.5t-47 -18.5t-47 18.5t-18 44.5zM497 0h-111l-23 136h-203l-72 -136h-113l301 564h118zM315 449
q-3 -6 -8.5 -19t-13.5 -30t-17.5 -37t-19.5 -39l-50 -100h143q-8 54 -15 100q-3 19 -6 39t-5 37t-4 30t-2 19h-2z" />
    <glyph glyph-name="atilde.smcp" unicode="&#xe225;" horiz-adv-x="556" 
d="M497 0h-111l-23 136h-203l-72 -136h-113l301 564h118zM315 449q-3 -6 -8.5 -19t-13.5 -30t-17.5 -37t-19.5 -39l-50 -100h143q-8 54 -15 100q-3 19 -6 39t-5 37t-4 30t-2 19h-2zM279 748q27 0 45.5 -8.5t33.5 -18t28.5 -18t30.5 -8.5q15 0 27 7.5t20 16.5q10 11 16 25
l53 -49q-13 -21 -31 -37q-16 -14 -39 -25.5t-55 -11.5q-26 0 -44.5 8.5t-33 18t-28 18t-30.5 8.5t-29.5 -7.5t-20.5 -16.5q-10 -11 -16 -24l-51 49q12 20 30 36q15 14 38.5 25.5t55.5 11.5z" />
    <glyph glyph-name="atilde.smcp" unicode="&#xf7e3;" horiz-adv-x="556" 
d="M497 0h-111l-23 136h-203l-72 -136h-113l301 564h118zM315 449q-3 -6 -8.5 -19t-13.5 -30t-17.5 -37t-19.5 -39l-50 -100h143q-8 54 -15 100q-3 19 -6 39t-5 37t-4 30t-2 19h-2zM279 748q27 0 45.5 -8.5t33.5 -18t28.5 -18t30.5 -8.5q15 0 27 7.5t20 16.5q10 11 16 25
l53 -49q-13 -21 -31 -37q-16 -14 -39 -25.5t-55 -11.5q-26 0 -44.5 8.5t-33 18t-28 18t-30.5 8.5t-29.5 -7.5t-20.5 -16.5q-10 -11 -16 -24l-51 49q12 20 30 36q15 14 38.5 25.5t55.5 11.5z" />
    <glyph glyph-name="aring.smcp" unicode="&#xe226;" horiz-adv-x="556" 
d="M347 611q-45 0 -70.5 25.5t-25.5 67.5q0 46 31.5 76.5t80.5 30.5q45 0 70.5 -25.5t25.5 -66.5q0 -23 -8.5 -42.5t-23.5 -34t-35.5 -23t-44.5 -8.5zM311 708q0 -17 11 -30t29 -13q21 0 34.5 15t13.5 35q0 18 -10.5 29.5t-29.5 11.5q-20 0 -34 -14t-14 -34zM497 0h-111
l-23 136h-203l-72 -136h-113l301 564h118zM315 449q-3 -6 -8.5 -19t-13.5 -30t-17.5 -37t-19.5 -39l-50 -100h143q-8 54 -15 100q-3 19 -6 39t-5 37t-4 30t-2 19h-2z" />
    <glyph glyph-name="aring.smcp" unicode="&#xf7e5;" horiz-adv-x="556" 
d="M347 611q-45 0 -70.5 25.5t-25.5 67.5q0 46 31.5 76.5t80.5 30.5q45 0 70.5 -25.5t25.5 -66.5q0 -23 -8.5 -42.5t-23.5 -34t-35.5 -23t-44.5 -8.5zM311 708q0 -17 11 -30t29 -13q21 0 34.5 15t13.5 35q0 18 -10.5 29.5t-29.5 11.5q-20 0 -34 -14t-14 -34zM497 0h-111
l-23 136h-203l-72 -136h-113l301 564h118zM315 449q-3 -6 -8.5 -19t-13.5 -30t-17.5 -37t-19.5 -39l-50 -100h143q-8 54 -15 100q-3 19 -6 39t-5 37t-4 30t-2 19h-2z" />
    <glyph glyph-name="amacron.smcp" unicode="&#xe228;" horiz-adv-x="556" 
d="M217 699h273l-13 -74h-273zM497 0h-111l-23 136h-203l-72 -136h-113l301 564h118zM315 449q-3 -6 -8.5 -19t-13.5 -30t-17.5 -37t-19.5 -39l-50 -100h143q-8 54 -15 100q-3 19 -6 39t-5 37t-4 30t-2 19h-2z" />
    <glyph glyph-name="amacron.smcp" unicode="&#xf641;" horiz-adv-x="556" 
d="M217 699h273l-13 -74h-273zM497 0h-111l-23 136h-203l-72 -136h-113l301 564h118zM315 449q-3 -6 -8.5 -19t-13.5 -30t-17.5 -37t-19.5 -39l-50 -100h143q-8 54 -15 100q-3 19 -6 39t-5 37t-4 30t-2 19h-2z" />
    <glyph glyph-name="abreve.smcp" unicode="&#xe229;" horiz-adv-x="556" 
d="M497 0h-111l-23 136h-203l-72 -136h-113l301 564h118zM315 449q-3 -6 -8.5 -19t-13.5 -30t-17.5 -37t-19.5 -39l-50 -100h143q-8 54 -15 100q-3 19 -6 39t-5 37t-4 30t-2 19h-2zM279 760q0 -29 18.5 -49.5t50.5 -20.5t56.5 20.5t32.5 49.5l84 -24q-18 -51 -64.5 -85
t-112.5 -34q-65 0 -105.5 33.5t-43.5 85.5z" />
    <glyph glyph-name="abreve.smcp" unicode="&#xf640;" horiz-adv-x="556" 
d="M497 0h-111l-23 136h-203l-72 -136h-113l301 564h118zM315 449q-3 -6 -8.5 -19t-13.5 -30t-17.5 -37t-19.5 -39l-50 -100h143q-8 54 -15 100q-3 19 -6 39t-5 37t-4 30t-2 19h-2zM279 760q0 -29 18.5 -49.5t50.5 -20.5t56.5 20.5t32.5 49.5l84 -24q-18 -51 -64.5 -85
t-112.5 -34q-65 0 -105.5 33.5t-43.5 85.5z" />
    <glyph glyph-name="f_f_j" unicode="&#xe22a;" horiz-adv-x="885" 
d="M760 -60q-8 -42 -25 -71t-40.5 -47.5t-52.5 -26.5t-59 -8q-40 0 -72 10.5t-52 26.5l58 81q10 -8 25 -16t35 -8q28 0 46.5 17.5t23.5 47.5l78 444h-180l-68 -390h-114l69 390h-195l-68 -390h-114l69 390h-80l15 84h80l10 55q9 50 28 84t44 55t54.5 30.5t59.5 9.5
q44 0 75.5 -12t49.5 -30l-58 -83q-9 12 -23.5 21.5t-37.5 9.5q-29 0 -50 -19t-29 -64l-10 -57h195l8 47q9 48 30 84t50.5 60t65.5 36t75 12q57 0 102 -22t64 -62l-84 -63q-14 25 -33 39t-51 14q-42 0 -70 -28.5t-37 -79.5l-7 -37h294z" />
    <glyph glyph-name="f_f_j" unicode="&#xe384;" horiz-adv-x="885" 
d="M760 -60q-8 -42 -25 -71t-40.5 -47.5t-52.5 -26.5t-59 -8q-40 0 -72 10.5t-52 26.5l58 81q10 -8 25 -16t35 -8q28 0 46.5 17.5t23.5 47.5l78 444h-180l-68 -390h-114l69 390h-195l-68 -390h-114l69 390h-80l15 84h80l10 55q9 50 28 84t44 55t54.5 30.5t59.5 9.5
q44 0 75.5 -12t49.5 -30l-58 -83q-9 12 -23.5 21.5t-37.5 9.5q-29 0 -50 -19t-29 -64l-10 -57h195l8 47q9 48 30 84t50.5 60t65.5 36t75 12q57 0 102 -22t64 -62l-84 -63q-14 25 -33 39t-51 14q-42 0 -70 -28.5t-37 -79.5l-7 -37h294z" />
    <glyph glyph-name="f_f_k" unicode="&#xe22b;" horiz-adv-x="1180" 
d="M458 537q9 51 27 84.5t43 54t54.5 29t61.5 8.5q31 0 61 -8t47 -25l-55 -84q-10 10 -22 16t-30 6q-32 0 -49 -20t-24 -58l-12 -66h101l-15 -84h-101l-68 -390h-114l68 390h-194l-68 -390h-114l69 390h-80l15 84h80l10 56q9 49 27.5 83t44 55t55 30.5t59.5 9.5
q43 0 74.5 -12t48.5 -29l-57 -84q-9 12 -23.5 21.5t-37.5 9.5q-29 0 -49 -19t-28 -62l-11 -59h194zM884 233l-58 -46l-33 -187h-114l123 700h114l-69 -390l206 164h140l-220 -176l160 -298h-126z" />
    <glyph glyph-name="f_f_k" unicode="&#xe385;" horiz-adv-x="1180" 
d="M458 537q9 51 27 84.5t43 54t54.5 29t61.5 8.5q31 0 61 -8t47 -25l-55 -84q-10 10 -22 16t-30 6q-32 0 -49 -20t-24 -58l-12 -66h101l-15 -84h-101l-68 -390h-114l68 390h-194l-68 -390h-114l69 390h-80l15 84h80l10 56q9 49 27.5 83t44 55t55 30.5t59.5 9.5
q43 0 74.5 -12t48.5 -29l-57 -84q-9 12 -23.5 21.5t-37.5 9.5q-29 0 -49 -19t-28 -62l-11 -59h194zM884 233l-58 -46l-33 -187h-114l123 700h114l-69 -390l206 164h140l-220 -176l160 -298h-126z" />
    <glyph glyph-name="aogonek.smcp" unicode="&#xe22f;" horiz-adv-x="556" 
d="M497 0q-60 -29 -89.5 -53.5t-29.5 -48.5q0 -14 9.5 -23.5t28.5 -9.5q13 0 28.5 7.5t27.5 25.5l43 -45q-27 -31 -57 -43t-62 -12q-47 0 -74.5 22t-27.5 60q0 43 25.5 70t66.5 50l-23 136h-203l-72 -136h-113l301 564h118zM315 449q-3 -6 -8.5 -19t-13.5 -30t-17.5 -37
t-19.5 -39l-50 -100h143q-8 54 -15 100q-3 19 -6 39t-5 37t-4 30t-2 19h-2z" />
    <glyph glyph-name="aogonek.smcp" unicode="&#xf642;" horiz-adv-x="556" 
d="M497 0q-60 -29 -89.5 -53.5t-29.5 -48.5q0 -14 9.5 -23.5t28.5 -9.5q13 0 28.5 7.5t27.5 25.5l43 -45q-27 -31 -57 -43t-62 -12q-47 0 -74.5 22t-27.5 60q0 43 25.5 70t66.5 50l-23 136h-203l-72 -136h-113l301 564h118zM315 449q-3 -6 -8.5 -19t-13.5 -30t-17.5 -37
t-19.5 -39l-50 -100h143q-8 54 -15 100q-3 19 -6 39t-5 37t-4 30t-2 19h-2z" />
    <glyph glyph-name="edieresis.smcp" unicode="&#xe230;" horiz-adv-x="506" 
d="M171 686q0 28 18 45.5t47 17.5t47 -17.5t18 -45.5q0 -26 -18 -44.5t-47 -18.5t-47 18.5t-18 44.5zM375 686q0 28 18 45.5t47 17.5t47 -17.5t18 -45.5q0 -26 -18 -44.5t-47 -18.5t-47 18.5t-18 44.5zM39 0l99 564h375l-16 -93h-264l-23 -135h245l-16 -92h-245l-27 -151
h268l-16 -93h-380z" />
    <glyph glyph-name="edieresis.smcp" unicode="&#xf7eb;" horiz-adv-x="506" 
d="M171 686q0 28 18 45.5t47 17.5t47 -17.5t18 -45.5q0 -26 -18 -44.5t-47 -18.5t-47 18.5t-18 44.5zM375 686q0 28 18 45.5t47 17.5t47 -17.5t18 -45.5q0 -26 -18 -44.5t-47 -18.5t-47 18.5t-18 44.5zM39 0l99 564h375l-16 -93h-264l-23 -135h245l-16 -92h-245l-27 -151
h268l-16 -93h-380z" />
    <glyph glyph-name="ae.smcp" unicode="&#xe231;" horiz-adv-x="807" 
d="M343 0l24 135h-174l-98 -135h-123l408 564h434l-16 -93h-263l-24 -135h245l-16 -92h-245l-27 -151h268l-16 -93h-377zM255 224h128l42 236h-3z" />
    <glyph glyph-name="ae.smcp" unicode="&#xf7e6;" horiz-adv-x="807" 
d="M343 0l24 135h-174l-98 -135h-123l408 564h434l-16 -93h-263l-24 -135h245l-16 -92h-245l-27 -151h268l-16 -93h-377zM255 224h128l42 236h-3z" />
    <glyph glyph-name="cacute.smcp" unicode="&#xe234;" horiz-adv-x="585" 
d="M509 715l-216 -105l-27 64l206 127zM57 238q0 72 21 133.5t60 107t94.5 71.5t124.5 26q94 0 153.5 -40t76.5 -115l-111 -37q-8 46 -36.5 72.5t-85.5 26.5q-41 0 -74 -19t-56.5 -52t-36.5 -77.5t-13 -95.5q0 -32 8 -60.5t24.5 -50.5t41 -35t58.5 -13q45 0 76 24.5t54 71.5
l105 -38q-33 -70 -92.5 -110.5t-143.5 -40.5q-117 0 -182.5 66t-65.5 185z" />
    <glyph glyph-name="cacute.smcp" unicode="&#xf643;" horiz-adv-x="585" 
d="M509 715l-216 -105l-27 64l206 127zM57 238q0 72 21 133.5t60 107t94.5 71.5t124.5 26q94 0 153.5 -40t76.5 -115l-111 -37q-8 46 -36.5 72.5t-85.5 26.5q-41 0 -74 -19t-56.5 -52t-36.5 -77.5t-13 -95.5q0 -32 8 -60.5t24.5 -50.5t41 -35t58.5 -13q45 0 76 24.5t54 71.5
l105 -38q-33 -70 -92.5 -110.5t-143.5 -40.5q-117 0 -182.5 66t-65.5 185z" />
    <glyph glyph-name="ccircumflex.smcp" unicode="&#xe235;" horiz-adv-x="585" 
d="M362 786h74l97 -131l-59 -46l-81 105l-118 -106l-50 52zM57 238q0 72 21 133.5t60 107t94.5 71.5t124.5 26q94 0 153.5 -40t76.5 -115l-111 -37q-8 46 -36.5 72.5t-85.5 26.5q-41 0 -74 -19t-56.5 -52t-36.5 -77.5t-13 -95.5q0 -32 8 -60.5t24.5 -50.5t41 -35t58.5 -13
q45 0 76 24.5t54 71.5l105 -38q-33 -70 -92.5 -110.5t-143.5 -40.5q-117 0 -182.5 66t-65.5 185z" />
    <glyph glyph-name="ccircumflex.smcp" unicode="&#xf628;" horiz-adv-x="585" 
d="M362 786h74l97 -131l-59 -46l-81 105l-118 -106l-50 52zM57 238q0 72 21 133.5t60 107t94.5 71.5t124.5 26q94 0 153.5 -40t76.5 -115l-111 -37q-8 46 -36.5 72.5t-85.5 26.5q-41 0 -74 -19t-56.5 -52t-36.5 -77.5t-13 -95.5q0 -32 8 -60.5t24.5 -50.5t41 -35t58.5 -13
q45 0 76 24.5t54 71.5l105 -38q-33 -70 -92.5 -110.5t-143.5 -40.5q-117 0 -182.5 66t-65.5 185z" />
    <glyph glyph-name="ccaron.smcp" unicode="&#xe236;" horiz-adv-x="585" 
d="M412 612h-74l-94 131l59 46l78 -105l118 106l50 -52zM57 238q0 72 21 133.5t60 107t94.5 71.5t124.5 26q94 0 153.5 -40t76.5 -115l-111 -37q-8 46 -36.5 72.5t-85.5 26.5q-41 0 -74 -19t-56.5 -52t-36.5 -77.5t-13 -95.5q0 -32 8 -60.5t24.5 -50.5t41 -35t58.5 -13
q45 0 76 24.5t54 71.5l105 -38q-33 -70 -92.5 -110.5t-143.5 -40.5q-117 0 -182.5 66t-65.5 185z" />
    <glyph glyph-name="ccaron.smcp" unicode="&#xf644;" horiz-adv-x="585" 
d="M412 612h-74l-94 131l59 46l78 -105l118 106l50 -52zM57 238q0 72 21 133.5t60 107t94.5 71.5t124.5 26q94 0 153.5 -40t76.5 -115l-111 -37q-8 46 -36.5 72.5t-85.5 26.5q-41 0 -74 -19t-56.5 -52t-36.5 -77.5t-13 -95.5q0 -32 8 -60.5t24.5 -50.5t41 -35t58.5 -13
q45 0 76 24.5t54 71.5l105 -38q-33 -70 -92.5 -110.5t-143.5 -40.5q-117 0 -182.5 66t-65.5 185z" />
    <glyph glyph-name="cdotaccent.smcp" unicode="&#xe237;" horiz-adv-x="585" 
d="M57 238q0 72 21 133.5t60 107t94.5 71.5t124.5 26q94 0 153.5 -40t76.5 -115l-111 -37q-8 46 -36.5 72.5t-85.5 26.5q-41 0 -74 -19t-56.5 -52t-36.5 -77.5t-13 -95.5q0 -32 8 -60.5t24.5 -50.5t41 -35t58.5 -13q45 0 76 24.5t54 71.5l105 -38q-33 -70 -92.5 -110.5
t-143.5 -40.5q-117 0 -182.5 66t-65.5 185zM316 689q0 31 19.5 50t51.5 19t51.5 -19t19.5 -50q0 -29 -19.5 -49t-51.5 -20t-51.5 20t-19.5 49z" />
    <glyph glyph-name="cdotaccent.smcp" unicode="&#xf629;" horiz-adv-x="585" 
d="M57 238q0 72 21 133.5t60 107t94.5 71.5t124.5 26q94 0 153.5 -40t76.5 -115l-111 -37q-8 46 -36.5 72.5t-85.5 26.5q-41 0 -74 -19t-56.5 -52t-36.5 -77.5t-13 -95.5q0 -32 8 -60.5t24.5 -50.5t41 -35t58.5 -13q45 0 76 24.5t54 71.5l105 -38q-33 -70 -92.5 -110.5
t-143.5 -40.5q-117 0 -182.5 66t-65.5 185zM316 689q0 31 19.5 50t51.5 19t51.5 -19t19.5 -50q0 -29 -19.5 -49t-51.5 -20t-51.5 20t-19.5 49z" />
    <glyph glyph-name="ccedilla.smcp" unicode="&#xe238;" horiz-adv-x="585" 
d="M198 -154q6 -8 19 -14t31 -6q21 0 33.5 12t12.5 32q0 16 -9.5 24t-25.5 8q-14 0 -24 -4t-17 -10l-26 32l44 74q-85 18 -132 81t-47 163q0 72 21 133.5t60 107t94.5 71.5t124.5 26q94 0 153.5 -40t76.5 -115l-111 -37q-8 46 -36.5 72.5t-85.5 26.5q-41 0 -74 -19
t-56.5 -52t-36.5 -77.5t-13 -95.5q0 -32 8 -60.5t24.5 -50.5t41 -35t58.5 -13q45 0 76 24.5t54 71.5l105 -38q-33 -70 -92.5 -110.5t-143.5 -40.5h-17l-23 -41q12 7 27 7q30 0 51 -20.5t21 -57.5q0 -25 -9.5 -44.5t-25.5 -33t-38 -20.5t-46 -7q-35 0 -55.5 11t-29.5 20z" />
    <glyph glyph-name="ccedilla.smcp" unicode="&#xf7e7;" horiz-adv-x="585" 
d="M198 -154q6 -8 19 -14t31 -6q21 0 33.5 12t12.5 32q0 16 -9.5 24t-25.5 8q-14 0 -24 -4t-17 -10l-26 32l44 74q-85 18 -132 81t-47 163q0 72 21 133.5t60 107t94.5 71.5t124.5 26q94 0 153.5 -40t76.5 -115l-111 -37q-8 46 -36.5 72.5t-85.5 26.5q-41 0 -74 -19
t-56.5 -52t-36.5 -77.5t-13 -95.5q0 -32 8 -60.5t24.5 -50.5t41 -35t58.5 -13q45 0 76 24.5t54 71.5l105 -38q-33 -70 -92.5 -110.5t-143.5 -40.5h-17l-23 -41q12 7 27 7q30 0 51 -20.5t21 -57.5q0 -25 -9.5 -44.5t-25.5 -33t-38 -20.5t-46 -7q-35 0 -55.5 11t-29.5 20z" />
    <glyph glyph-name="dcaron.smcp" unicode="&#xe239;" horiz-adv-x="618" 
d="M382 612h-74l-94 131l59 46l78 -105l118 106l50 -52zM138 564h202q54 0 97.5 -16.5t74.5 -46.5t47.5 -73t16.5 -95q0 -79 -23 -141t-65.5 -104.5t-103 -65t-135.5 -22.5h-210zM458 332q0 66 -35 102.5t-105 36.5h-84l-66 -378h91q49 0 86 18t62 49.5t38 75.5t13 96z" />
    <glyph glyph-name="dcaron.smcp" unicode="&#xf645;" horiz-adv-x="618" 
d="M382 612h-74l-94 131l59 46l78 -105l118 106l50 -52zM138 564h202q54 0 97.5 -16.5t74.5 -46.5t47.5 -73t16.5 -95q0 -79 -23 -141t-65.5 -104.5t-103 -65t-135.5 -22.5h-210zM458 332q0 66 -35 102.5t-105 36.5h-84l-66 -378h91q49 0 86 18t62 49.5t38 75.5t13 96z" />
    <glyph glyph-name="dcroat.smcp" unicode="&#xe23c;" horiz-adv-x="632" 
d="M97 252h-62l14 79h62l41 233h202q54 0 97.5 -16.5t74.5 -46.5t47.5 -73t16.5 -95q0 -79 -23 -141t-65.5 -104.5t-103 -65t-135.5 -22.5h-210zM472 332q0 66 -35 102.5t-105 36.5h-84l-25 -140h122l-14 -79h-121l-28 -159h91q49 0 86 18t62 49.5t38 75.5t13 96z" />
    <glyph glyph-name="dcroat.smcp" unicode="&#xf646;" horiz-adv-x="632" 
d="M97 252h-62l14 79h62l41 233h202q54 0 97.5 -16.5t74.5 -46.5t47.5 -73t16.5 -95q0 -79 -23 -141t-65.5 -104.5t-103 -65t-135.5 -22.5h-210zM472 332q0 66 -35 102.5t-105 36.5h-84l-25 -140h122l-14 -79h-121l-28 -159h91q49 0 86 18t62 49.5t38 75.5t13 96z" />
    <glyph glyph-name="eacute.smcp" unicode="&#xe23d;" horiz-adv-x="506" 
d="M484 715l-216 -105l-27 64l206 127zM39 0l99 564h375l-16 -93h-264l-23 -135h245l-16 -92h-245l-27 -151h268l-16 -93h-380z" />
    <glyph glyph-name="eacute.smcp" unicode="&#xf7e9;" horiz-adv-x="506" 
d="M484 715l-216 -105l-27 64l206 127zM39 0l99 564h375l-16 -93h-264l-23 -135h245l-16 -92h-245l-27 -151h268l-16 -93h-380z" />
    <glyph glyph-name="egrave.smcp" unicode="&#xe23e;" horiz-adv-x="506" 
d="M39 0l99 564h375l-16 -93h-264l-23 -135h245l-16 -92h-245l-27 -151h268l-16 -93h-380zM285 800l169 -134l-44 -56l-187 110z" />
    <glyph glyph-name="egrave.smcp" unicode="&#xf7e8;" horiz-adv-x="506" 
d="M39 0l99 564h375l-16 -93h-264l-23 -135h245l-16 -92h-245l-27 -151h268l-16 -93h-380zM285 800l169 -134l-44 -56l-187 110z" />
    <glyph glyph-name="ecircumflex.smcp" unicode="&#xe23f;" horiz-adv-x="506" 
d="M318 786h74l97 -131l-59 -46l-81 105l-118 -106l-50 52zM39 0l99 564h375l-16 -93h-264l-23 -135h245l-16 -92h-245l-27 -151h268l-16 -93h-380z" />
    <glyph glyph-name="ecircumflex.smcp" unicode="&#xf7ea;" horiz-adv-x="506" 
d="M318 786h74l97 -131l-59 -46l-81 105l-118 -106l-50 52zM39 0l99 564h375l-16 -93h-264l-23 -135h245l-16 -92h-245l-27 -151h268l-16 -93h-380z" />
    <glyph glyph-name="gcommaaccent.smcp" unicode="&#xe240;" horiz-adv-x="633" 
d="M321 304h253l-54 -304h-100l10 61q-17 -28 -56.5 -51t-94.5 -23q-56 0 -97.5 20t-69 54t-41.5 79t-14 96q0 68 20.5 130t59.5 108.5t95 74t127 27.5q91 0 151 -38t79 -108l-107 -37q-9 43 -40 66.5t-85 23.5q-40 0 -73.5 -18t-58 -50.5t-38 -78.5t-13.5 -101
q0 -73 32 -114t99 -41q24 0 47.5 6t43 19.5t33.5 34t19 49.5l4 27h-146zM321 -134q0 -18 -6.5 -39t-21.5 -39.5t-40.5 -32t-62.5 -14.5l-10 42q12 0 25 3t23.5 9.5t18 15.5t8.5 20q-5 -3 -14 -3q-20 1 -35.5 14.5t-15.5 39.5q0 23 16.5 44t49.5 21q35 0 50 -25t15 -56z" />
    <glyph glyph-name="gcommaaccent.smcp" unicode="&#xf64c;" horiz-adv-x="633" 
d="M321 304h253l-54 -304h-100l10 61q-17 -28 -56.5 -51t-94.5 -23q-56 0 -97.5 20t-69 54t-41.5 79t-14 96q0 68 20.5 130t59.5 108.5t95 74t127 27.5q91 0 151 -38t79 -108l-107 -37q-9 43 -40 66.5t-85 23.5q-40 0 -73.5 -18t-58 -50.5t-38 -78.5t-13.5 -101
q0 -73 32 -114t99 -41q24 0 47.5 6t43 19.5t33.5 34t19 49.5l4 27h-146zM321 -134q0 -18 -6.5 -39t-21.5 -39.5t-40.5 -32t-62.5 -14.5l-10 42q12 0 25 3t23.5 9.5t18 15.5t8.5 20q-5 -3 -14 -3q-20 1 -35.5 14.5t-15.5 39.5q0 23 16.5 44t49.5 21q35 0 50 -25t15 -56z" />
    <glyph glyph-name="ecaron.smcp" unicode="&#xe241;" horiz-adv-x="506" 
d="M368 612h-74l-94 131l59 46l78 -105l118 106l50 -52zM39 0l99 564h375l-16 -93h-264l-23 -135h245l-16 -92h-245l-27 -151h268l-16 -93h-380z" />
    <glyph glyph-name="ecaron.smcp" unicode="&#xf647;" horiz-adv-x="506" 
d="M368 612h-74l-94 131l59 46l78 -105l118 106l50 -52zM39 0l99 564h375l-16 -93h-264l-23 -135h245l-16 -92h-245l-27 -151h268l-16 -93h-380z" />
    <glyph glyph-name="emacron.smcp" unicode="&#xe242;" horiz-adv-x="506" 
d="M39 0l99 564h375l-16 -93h-264l-23 -135h245l-16 -92h-245l-27 -151h268l-16 -93h-380zM211 699h273l-13 -74h-273z" />
    <glyph glyph-name="emacron.smcp" unicode="&#xf649;" horiz-adv-x="506" 
d="M39 0l99 564h375l-16 -93h-264l-23 -135h245l-16 -92h-245l-27 -151h268l-16 -93h-380zM211 699h273l-13 -74h-273z" />
    <glyph glyph-name="ebreve.smcp" unicode="&#xe243;" horiz-adv-x="506" 
d="M39 0l99 564h375l-16 -93h-264l-23 -135h245l-16 -92h-245l-27 -151h268l-16 -93h-380zM268 760q0 -29 18.5 -49.5t50.5 -20.5t56.5 20.5t32.5 49.5l84 -24q-18 -51 -64.5 -85t-112.5 -34q-65 0 -105.5 33.5t-43.5 85.5z" />
    <glyph glyph-name="ebreve.smcp" unicode="&#xf62a;" horiz-adv-x="506" 
d="M39 0l99 564h375l-16 -93h-264l-23 -135h245l-16 -92h-245l-27 -151h268l-16 -93h-380zM268 760q0 -29 18.5 -49.5t50.5 -20.5t56.5 20.5t32.5 49.5l84 -24q-18 -51 -64.5 -85t-112.5 -34q-65 0 -105.5 33.5t-43.5 85.5z" />
    <glyph glyph-name="edotaccent.smcp" unicode="&#xe246;" horiz-adv-x="506" 
d="M39 0l99 564h375l-16 -93h-264l-23 -135h245l-16 -92h-245l-27 -151h268l-16 -93h-380zM271 689q0 31 19.5 50t51.5 19t51.5 -19t19.5 -50q0 -29 -19.5 -49t-51.5 -20t-51.5 20t-19.5 49z" />
    <glyph glyph-name="edotaccent.smcp" unicode="&#xf648;" horiz-adv-x="506" 
d="M39 0l99 564h375l-16 -93h-264l-23 -135h245l-16 -92h-245l-27 -151h268l-16 -93h-380zM271 689q0 31 19.5 50t51.5 19t51.5 -19t19.5 -50q0 -29 -19.5 -49t-51.5 -20t-51.5 20t-19.5 49z" />
    <glyph glyph-name="eogonek.smcp" unicode="&#xe249;" horiz-adv-x="506" 
d="M359 0q-60 -29 -90 -53.5t-30 -48.5q0 -14 9.5 -23.5t28.5 -9.5q13 0 28.5 7.5t27.5 25.5l43 -45q-27 -31 -57 -43t-62 -12q-47 0 -74.5 22t-27.5 60q0 43 25.5 70t66.5 50h-208l99 564h375l-16 -93h-264l-23 -135h245l-16 -92h-245l-27 -151h268l-16 -93h-60z" />
    <glyph glyph-name="eogonek.smcp" unicode="&#xf64a;" horiz-adv-x="506" 
d="M359 0q-60 -29 -90 -53.5t-30 -48.5q0 -14 9.5 -23.5t28.5 -9.5q13 0 28.5 7.5t27.5 25.5l43 -45q-27 -31 -57 -43t-62 -12q-47 0 -74.5 22t-27.5 60q0 43 25.5 70t66.5 50h-208l99 564h375l-16 -93h-264l-23 -135h245l-16 -92h-245l-27 -151h268l-16 -93h-60z" />
    <glyph glyph-name="gcircumflex.smcp" unicode="&#xe24b;" horiz-adv-x="633" 
d="M321 304h253l-54 -304h-100l10 61q-17 -28 -56.5 -51t-94.5 -23q-56 0 -97.5 20t-69 54t-41.5 79t-14 96q0 68 20.5 130t59.5 108.5t95 74t127 27.5q91 0 151 -38t79 -108l-107 -37q-9 43 -40 66.5t-85 23.5q-40 0 -73.5 -18t-58 -50.5t-38 -78.5t-13.5 -101
q0 -73 32 -114t99 -41q24 0 47.5 6t43 19.5t33.5 34t19 49.5l4 27h-146zM361 786h74l97 -131l-59 -46l-81 105l-118 -106l-50 52z" />
    <glyph glyph-name="gcircumflex.smcp" unicode="&#xf62c;" horiz-adv-x="633" 
d="M321 304h253l-54 -304h-100l10 61q-17 -28 -56.5 -51t-94.5 -23q-56 0 -97.5 20t-69 54t-41.5 79t-14 96q0 68 20.5 130t59.5 108.5t95 74t127 27.5q91 0 151 -38t79 -108l-107 -37q-9 43 -40 66.5t-85 23.5q-40 0 -73.5 -18t-58 -50.5t-38 -78.5t-13.5 -101
q0 -73 32 -114t99 -41q24 0 47.5 6t43 19.5t33.5 34t19 49.5l4 27h-146zM361 786h74l97 -131l-59 -46l-81 105l-118 -106l-50 52z" />
    <glyph glyph-name="gbreve.smcp" unicode="&#xe24e;" horiz-adv-x="633" 
d="M321 304h253l-54 -304h-100l10 61q-17 -28 -56.5 -51t-94.5 -23q-56 0 -97.5 20t-69 54t-41.5 79t-14 96q0 68 20.5 130t59.5 108.5t95 74t127 27.5q91 0 151 -38t79 -108l-107 -37q-9 43 -40 66.5t-85 23.5q-40 0 -73.5 -18t-58 -50.5t-38 -78.5t-13.5 -101
q0 -73 32 -114t99 -41q24 0 47.5 6t43 19.5t33.5 34t19 49.5l4 27h-146zM318 760q0 -29 18.5 -49.5t50.5 -20.5t56.5 20.5t32.5 49.5l84 -24q-18 -51 -64.5 -85t-112.5 -34q-65 0 -105.5 33.5t-43.5 85.5z" />
    <glyph glyph-name="gbreve.smcp" unicode="&#xf64b;" horiz-adv-x="633" 
d="M321 304h253l-54 -304h-100l10 61q-17 -28 -56.5 -51t-94.5 -23q-56 0 -97.5 20t-69 54t-41.5 79t-14 96q0 68 20.5 130t59.5 108.5t95 74t127 27.5q91 0 151 -38t79 -108l-107 -37q-9 43 -40 66.5t-85 23.5q-40 0 -73.5 -18t-58 -50.5t-38 -78.5t-13.5 -101
q0 -73 32 -114t99 -41q24 0 47.5 6t43 19.5t33.5 34t19 49.5l4 27h-146zM318 760q0 -29 18.5 -49.5t50.5 -20.5t56.5 20.5t32.5 49.5l84 -24q-18 -51 -64.5 -85t-112.5 -34q-65 0 -105.5 33.5t-43.5 85.5z" />
    <glyph glyph-name="gdotaccent.smcp" unicode="&#xe24f;" horiz-adv-x="633" 
d="M321 304h253l-54 -304h-100l10 61q-17 -28 -56.5 -51t-94.5 -23q-56 0 -97.5 20t-69 54t-41.5 79t-14 96q0 68 20.5 130t59.5 108.5t95 74t127 27.5q91 0 151 -38t79 -108l-107 -37q-9 43 -40 66.5t-85 23.5q-40 0 -73.5 -18t-58 -50.5t-38 -78.5t-13.5 -101
q0 -73 32 -114t99 -41q24 0 47.5 6t43 19.5t33.5 34t19 49.5l4 27h-146zM315 689q0 31 19.5 50t51.5 19t51.5 -19t19.5 -50q0 -29 -19.5 -49t-51.5 -20t-51.5 20t-19.5 49z" />
    <glyph glyph-name="gdotaccent.smcp" unicode="&#xf62d;" horiz-adv-x="633" 
d="M321 304h253l-54 -304h-100l10 61q-17 -28 -56.5 -51t-94.5 -23q-56 0 -97.5 20t-69 54t-41.5 79t-14 96q0 68 20.5 130t59.5 108.5t95 74t127 27.5q91 0 151 -38t79 -108l-107 -37q-9 43 -40 66.5t-85 23.5q-40 0 -73.5 -18t-58 -50.5t-38 -78.5t-13.5 -101
q0 -73 32 -114t99 -41q24 0 47.5 6t43 19.5t33.5 34t19 49.5l4 27h-146zM315 689q0 31 19.5 50t51.5 19t51.5 -19t19.5 -50q0 -29 -19.5 -49t-51.5 -20t-51.5 20t-19.5 49z" />
    <glyph glyph-name="hcircumflex.smcp" unicode="&#xe253;" horiz-adv-x="613" 
d="M355 786h74l97 -131l-59 -46l-81 105l-118 -106l-50 52zM138 564h112l-39 -227h226l40 227h112l-99 -564h-112l43 244h-227l-43 -244h-112z" />
    <glyph glyph-name="hcircumflex.smcp" unicode="&#xf62f;" horiz-adv-x="613" 
d="M355 786h74l97 -131l-59 -46l-81 105l-118 -106l-50 52zM138 564h112l-39 -227h226l40 227h112l-99 -564h-112l43 244h-227l-43 -244h-112z" />
    <glyph glyph-name="hbar.smcp" unicode="&#xe257;" horiz-adv-x="613" 
d="M109 403h-56l13 78h57l15 83h112l-14 -83h226l15 83h112l-15 -83h58l-14 -78h-58l-70 -403h-112l43 244h-227l-43 -244h-112zM437 337l11 66h-226l-11 -66h226z" />
    </font>
</defs>
</svg>
