<?xml version="1.0" standalone="no"?>
<!DOCTYPE svg PUBLIC "-//W3C//DTD SVG 1.1//EN" "http://www.w3.org/Graphics/SVG/1.1/DTD/svg11.dtd" >
<svg xmlns="http://www.w3.org/2000/svg" xmlns:xlink="http://www.w3.org/1999/xlink" version="1.1">
<metadata>
Created by FontForge 20160407 at Mon Aug 29 18:53:24 2016
 By Jimmy Warting
Copyright (c) 2011-2016 by Josh FInklea. All rights reserved.
</metadata>
<defs>
<font id="PostGrotesk-BoldItalic" horiz-adv-x="600" >
  <font-face 
    font-family="Post Grotesk"
    font-weight="700"
    font-style="italic"
    font-stretch="normal"
    units-per-em="1000"
    panose-1="2 0 0 0 0 0 0 0 0 0"
    ascent="800"
    descent="-200"
    x-height="476"
    cap-height="700"
    bbox="-174 -297 1451 981"
    underline-thickness="50"
    underline-position="-100"
    unicode-range="U+000D-F301"
  />
<missing-glyph horiz-adv-x="695" 
d="M17 700h700v-700h-700v700zM87 70h560v560h-560v-560zM180 113l-50 50l188 187l-188 187l50 50l187 -188l187 188l50 -50l-188 -187l188 -187l-50 -50l-187 188z" />
    <glyph glyph-name="interrobang" unicode="&#x21;&#x3f;" horiz-adv-x="535" 
d="M562 523q0 -36 -11.5 -64.5t-30 -50.5t-40.5 -37.5t-43 -25.5q-45 -22 -77 -42t-38 -51l-5 -25h-99l61 366q-29 -16 -46.5 -46t-25.5 -67l-137 24q13 52 39 91.5t61 65.5t78 39.5t90 13.5q57 0 99 -15t69.5 -41t41.5 -61t14 -74zM418 523q0 20 -6 38.5t-23 30.5l-34 -174
q26 19 44.5 43t18.5 62zM167 77q0 37 23.5 60.5t61.5 23.5t61.5 -23.5t23.5 -60.5q0 -38 -23.5 -62.5t-61.5 -24.5t-61.5 24.5t-23.5 62.5z" />
    <glyph glyph-name="f_b" unicode="fb" horiz-adv-x="965" 
d="M684 -14q-57 0 -93.5 23t-53.5 59l-12 -68h-139l123 700h144l-49 -283q23 29 59.5 51t87.5 22q40 0 74 -15t58.5 -43t38 -67t13.5 -87q0 -66 -21 -120t-55.5 -92t-80 -59t-94.5 -21zM571 232q-7 -33 -2 -58.5t18 -42.5t32.5 -25.5t42.5 -8.5q28 0 51.5 13.5t40 37.5
t26 56.5t9.5 70.5q0 47 -22 75.5t-68 28.5q-41 0 -76.5 -31.5t-49.5 -101.5zM56 476h79l8 44q19 101 75 147.5t134 46.5q32 0 63.5 -9.5t50.5 -28.5l-65 -102q-9 10 -19.5 16t-28.5 6q-52 0 -65 -71l-9 -49h97l-19 -105h-97l-65 -371h-144l65 371h-79z" />
    <glyph glyph-name="f_h" unicode="fh" horiz-adv-x="942" 
d="M56 476h79l8 44q19 101 75 147.5t134 46.5q32 0 63.5 -9.5t50.5 -28.5l-65 -102q-9 10 -19.5 16t-28.5 6q-52 0 -65 -71l-9 -49h97l-19 -105h-97l-65 -371h-144l65 371h-79zM509 700h144l-51 -290q23 33 61.5 56.5t89.5 23.5q36 0 66 -10.5t50 -32t28 -55.5t0 -81
l-55 -311h-144l50 283q9 51 -9.5 70t-53.5 19q-15 0 -32 -7t-33 -22.5t-28.5 -40.5t-18.5 -60l-43 -242h-144z" />
    <glyph glyph-name="f_k" unicode="fk" horiz-adv-x="927" 
d="M612 216l-51 -40l-31 -176h-144l123 700h144l-65 -370l183 146h175l-222 -178l156 -298h-159zM56 476h79l8 44q19 101 75 147.5t134 46.5q32 0 63.5 -9.5t50.5 -28.5l-65 -102q-9 10 -19.5 16t-28.5 6q-52 0 -65 -71l-9 -49h97l-19 -105h-97l-65 -371h-144l65 371h-79z
" />
    <glyph glyph-name="fi" unicode="fi" horiz-adv-x="636" 
d="M479 629q0 38 24 61.5t62 23.5t62 -23.5t24 -61.5q0 -35 -22.5 -59t-63.5 -24t-63.5 24t-22.5 59zM470 476h144l-84 -476h-144zM56 476h79l8 44q19 101 73.5 147.5t129.5 46.5q32 0 60.5 -10t48.5 -27l-56 -103q-9 10 -20.5 16t-28.5 6q-49 0 -62 -71l-9 -49h97l-19 -105
h-97l-65 -371h-144l65 371h-79z" />
    <glyph glyph-name="fl" unicode="fl" horiz-adv-x="636" 
d="M56 476h79l8 44q19 101 75 147.5t134 46.5q32 0 63.5 -9.5t50.5 -28.5l-65 -102q-9 10 -19.5 16t-28.5 6q-52 0 -65 -71l-9 -49h97l-19 -105h-97l-65 -371h-144l65 371h-79zM509 700h144l-123 -700h-144z" />
    <glyph glyph-name="interrobangdown" unicode="&#xa1;&#xbf;" horiz-adv-x="542" 
d="M-18 -23q0 36 11.5 64.5t30 50.5t40.5 37.5t43 25.5q45 22 77 42t38 51l5 25h99l-61 -366q29 16 46.5 46t25.5 67l137 -24q-14 -52 -39.5 -91.5t-60.5 -65.5t-78 -39.5t-90 -13.5q-57 0 -99 15t-69.5 41t-41.5 61t-14 74zM126 -23q0 -20 6 -38.5t23 -30.5l34 174
q-26 -19 -44.5 -43t-18.5 -62zM377 423q0 -37 -23.5 -60.5t-61.5 -23.5t-61.5 23.5t-23.5 60.5q0 38 23.5 62.5t61.5 24.5t61.5 -24.5t23.5 -62.5z" />
    <glyph glyph-name="interrobangdown.cap" unicode="&#xe441;&#xe444;" horiz-adv-x="541" 
d="M16 177q0 36 11.5 64.5t30 50.5t40.5 37.5t43 25.5q45 22 77 42t38 51l5 25h99l-61 -366q29 16 46.5 46t25.5 67l137 -24q-14 -52 -39.5 -91.5t-60.5 -65.5t-78 -39.5t-90 -13.5q-57 0 -99 15t-69.5 41t-41.5 61t-14 74zM160 177q0 -20 6 -38.5t23 -30.5l34 174
q-26 -19 -44.5 -43t-18.5 -62zM411 623q0 -37 -23.5 -60.5t-61.5 -23.5t-61.5 23.5t-23.5 60.5q0 38 23.5 62.5t61.5 24.5t61.5 -24.5t23.5 -62.5z" />
    <glyph glyph-name="fj" unicode="fj" horiz-adv-x="641" 
d="M484 629q0 38 24 61.5t62 23.5t62 -23.5t24 -61.5q0 -35 -22.5 -59t-63.5 -24t-63.5 24t-22.5 59zM475 476h144l-91 -518q-8 -44 -26.5 -76.5t-45 -53.5t-59.5 -31.5t-69 -10.5q-43 0 -77 12t-55 30l70 99q9 -9 24 -17t32 -8q23 0 40.5 16.5t22.5 47.5zM56 476h79l8 44
q19 101 73.5 147.5t129.5 46.5q32 0 60.5 -10t48.5 -27l-56 -103q-9 10 -20.5 16t-28.5 6q-49 0 -62 -71l-9 -49h97l-19 -105h-97l-65 -371h-144l65 371h-79z" />
    <glyph glyph-name=".notdef" horiz-adv-x="695" 
d="M17 700h700v-700h-700v700zM87 70h560v560h-560v-560zM180 113l-50 50l188 187l-188 187l50 50l187 -188l187 188l50 -50l-188 -187l188 -187l-50 -50l-187 188z" />
    <glyph glyph-name="NULL" horiz-adv-x="0" 
 />
    <glyph glyph-name="NULL" horiz-adv-x="0" 
 />
    <glyph glyph-name="nonmarkingreturn" unicode="&#xd;" horiz-adv-x="251" 
 />
    <glyph glyph-name="space" unicode=" " horiz-adv-x="215" 
 />
    <glyph glyph-name="exclam" unicode="!" horiz-adv-x="280" 
d="M197 232h-124l68 468h152zM26 76q0 38 24 61.5t62 23.5t62 -23.5t24 -61.5q0 -36 -24 -61t-62 -25t-62 25t-24 61z" />
    <glyph glyph-name="quotedbl" unicode="&#x22;" horiz-adv-x="402" 
d="M289 445l19 255h130l-71 -255h-78zM107 445l19 255h130l-71 -255h-78z" />
    <glyph glyph-name="numbersign" unicode="#" horiz-adv-x="655" 
d="M345 181h-120l-64 -181h-108l64 181h-97l19 109h116l46 128h-100l17 98h118l65 184h108l-65 -184h120l65 184h108l-65 -184h102l-17 -98h-120l-46 -128h106l-19 -109h-125l-64 -181h-108zM263 290h120l46 128h-120z" />
    <glyph glyph-name="dollar" unicode="$" horiz-adv-x="621" 
d="M434 692q81 -14 129.5 -60t58.5 -116l-127 -27q-2 33 -20 59t-60 37l-33 -187q53 -17 89.5 -35.5t59 -41.5t32.5 -51t10 -62q0 -47 -18.5 -86.5t-52.5 -69t-82.5 -46.5t-109.5 -18l-16 -93h-78l17 99q-97 14 -146 66t-52 127l124 19q0 -14 3.5 -30.5t13.5 -31.5t28 -27.5
t48 -18.5l35 200q-100 30 -142 77.5t-42 119.5q0 45 16.5 82.5t48.5 64.5t79.5 42t109.5 15l18 99h78zM236 507q0 -29 16.5 -50t55.5 -37l30 171q-57 -4 -79.5 -28t-22.5 -56zM439 200q0 27 -18 45t-60 32l-32 -182q57 6 83.5 35.5t26.5 69.5z" />
    <glyph glyph-name="percent" unicode="%" horiz-adv-x="924" 
d="M140 -14l566 728h124l-566 -728h-124zM423 543q0 -45 -13 -85t-37 -69t-58 -46t-76 -17q-77 0 -118 41t-41 116q0 39 11.5 78t34.5 70t57.5 50t81.5 19q73 0 115.5 -41t42.5 -116zM185 487q0 -32 12.5 -53t41.5 -21q18 0 33 10t25 27.5t15.5 40t5.5 48.5q0 32 -13 53
t-42 21q-18 0 -32.5 -10t-24.5 -27.5t-15.5 -40.5t-5.5 -48zM882 203q0 -45 -13 -85t-37 -69t-58 -46t-76 -17q-77 0 -118 41t-41 116q0 39 11.5 78t34.5 70t57.5 50t81.5 19q73 0 115.5 -41t42.5 -116zM644 147q0 -32 12.5 -53t41.5 -21q18 0 33 10t25 27.5t15.5 40
t5.5 48.5q0 32 -13 53t-42 21q-18 0 -32.5 -10t-24.5 -27.5t-15.5 -40.5t-5.5 -48z" />
    <glyph glyph-name="ampersand" unicode="&#x26;" horiz-adv-x="659" 
d="M472 0l-30 43q-29 -23 -73 -40t-102 -17q-62 0 -108 14.5t-76.5 41t-45.5 63t-15 80.5q0 54 18 92t45 64.5t59 44t61 30.5q-19 35 -28.5 63t-9.5 57q0 31 11.5 62.5t35.5 57t60.5 41.5t86.5 16q47 0 82 -12.5t57.5 -33.5t33.5 -49t11 -58q0 -35 -10.5 -62.5t-31.5 -50.5
t-51.5 -42.5t-70.5 -37.5l86 -131q14 20 22.5 43.5t15.5 52.5l98 -56q-11 -43 -26 -74t-43 -67l94 -135h-156zM361 608q-28 0 -47 -19t-19 -53q0 -18 7 -37t24 -42q18 6 34 14.5t29 19.5t20.5 27t7.5 37q0 23 -13 38t-43 15zM163 198q0 -45 29 -75t80 -30q38 0 67 15t42 30
l-119 184q-15 -6 -32.5 -15.5t-32.5 -24.5t-24.5 -36t-9.5 -48z" />
    <glyph glyph-name="quotesingle" unicode="'" horiz-adv-x="220" 
d="M107 445l19 255h130l-71 -255h-78z" />
    <glyph glyph-name="parenleft" unicode="(" horiz-adv-x="388" 
d="M68 209q0 108 30.5 201.5t80 167t111.5 125t124 74.5l59 -69q-71 -41 -121.5 -99t-82 -126.5t-46 -145t-14.5 -154.5q0 -84 25 -161t90 -152l-82 -47q-41 31 -73 73.5t-54.5 93t-34.5 106.5t-12 113z" />
    <glyph glyph-name="parenright" unicode=")" horiz-adv-x="386" 
d="M342 390q0 -108 -30.5 -201.5t-80 -167t-111.5 -125t-124 -74.5l-59 69q71 41 121.5 99t82 126.5t46 145t14.5 154.5q0 84 -25 161t-90 152l82 47q40 -31 72.5 -74t55 -93t34.5 -106t12 -113z" />
    <glyph glyph-name="asterisk" unicode="*" horiz-adv-x="407" 
d="M335 689l-24 -114l112 21l12 -92l-118 -13l55 -105l-83 -42l-47 107l-81 -84l-64 68l88 79l-107 53l43 82l102 -58l24 114z" />
    <glyph glyph-name="plus" unicode="+" 
d="M75 383h193l34 194h114l-34 -194h193l-20 -114h-193l-35 -199h-114l35 199h-193z" />
    <glyph glyph-name="comma" unicode="," horiz-adv-x="297" 
d="M215 47q0 -28 -11 -59t-34 -57.5t-58.5 -44.5t-83.5 -19l-14 62q15 -1 33 3.5t34 13.5t26.5 22.5t12.5 29.5q-5 -2 -10.5 -2.5t-10.5 -0.5q-32 0 -52.5 23.5t-20.5 56.5q0 15 6 31.5t17.5 29.5t29.5 21.5t42 8.5q25 0 43 -10t29.5 -27t16.5 -38.5t5 -43.5z" />
    <glyph glyph-name="hyphen" unicode="-" horiz-adv-x="383" 
d="M72 342h275l-19 -107h-275z" />
    <glyph glyph-name="period" unicode="." horiz-adv-x="290" 
d="M26 78q0 38 25 63t66 25t66 -25t25 -63t-25 -63t-66 -25t-66 25t-25 63z" />
    <glyph glyph-name="slash" unicode="/" horiz-adv-x="422" 
d="M-54 -115l438 869h121l-439 -869h-120z" />
    <glyph glyph-name="zero" unicode="0" 
d="M594 429q0 -50 -7 -102t-22.5 -101.5t-40 -93t-59 -76t-79.5 -51.5t-102 -19q-60 0 -105 19t-75 54t-44.5 85.5t-14.5 112.5q0 50 7 102t23 101.5t40 93t59 76t80 51.5t102 19q60 0 105 -19t74.5 -54.5t44 -85.5t14.5 -112zM286 100q31 0 55 17t42 45t30.5 63.5t20 72
t11 70.5t3.5 60q0 25 -4 52.5t-14 51t-28.5 39t-46.5 15.5q-31 0 -55.5 -17t-42.5 -45t-30.5 -63.5t-20.5 -72t-11.5 -71t-3.5 -59.5t4 -52.5t14.5 -51t29 -39t47.5 -15.5z" />
    <glyph glyph-name="one" unicode="1" 
d="M221 114l76 426q-26 -20 -59 -28.5t-76 -10.5l-5 119q54 6 102 23.5t78 46.5h132l-102 -576h150l-20 -114h-456l20 114h160z" />
    <glyph glyph-name="two" unicode="2" 
d="M588 504q0 -44 -15.5 -81.5t-42.5 -71t-64 -65.5t-81 -65q-32 -25 -73 -54t-74 -51h284l-20 -116h-481l19 109q51 38 98 73q40 30 81 61t67 51q34 26 62.5 50.5t49 49.5t32 51.5t11.5 56.5q0 38 -21 61t-61 23q-29 0 -50.5 -11t-37 -29.5t-25.5 -42t-14 -48.5l-136 25
q12 46 35 86.5t56.5 70t77 46.5t96.5 17q59 0 102 -16t70.5 -43t41 -62.5t13.5 -74.5z" />
    <glyph glyph-name="three" unicode="3" 
d="M581 517q0 -32 -11 -58.5t-30 -48t-44.5 -37t-54.5 -23.5q49 -17 75 -56t26 -90q0 -41 -17 -80t-50.5 -70t-82.5 -49.5t-113 -18.5q-66 0 -111 16.5t-73.5 43t-42.5 59.5t-16 65l137 38q3 -21 9 -41t18 -35t31.5 -24t49.5 -9q32 0 54 10t35.5 26t19.5 34.5t6 36.5
q0 41 -27.5 64t-80.5 23q-7 0 -13 -0.5t-11 -0.5h-11l21 119q6 -1 11 -1h23q64 0 96 29.5t32 70.5q0 38 -25 57.5t-60 19.5q-42 0 -72 -26t-38 -68l-127 34q10 31 29.5 62t49.5 55.5t69.5 40t89.5 15.5q53 0 95.5 -13.5t72 -37.5t45.5 -58t16 -74z" />
    <glyph glyph-name="four" unicode="4" 
d="M555 686l-76 -434h107l-40 -112h-87l-25 -140h-138l25 140h-314l19 110l342 436h187zM341 252l55 311h-2l-241 -311h188z" />
    <glyph glyph-name="five" unicode="5" 
d="M179 199q2 -40 26.5 -69t70.5 -29q26 0 49 10t40.5 28.5t27.5 45t10 59.5q0 46 -24.5 74t-68.5 28q-38 0 -66 -17t-43 -45l-121 22l110 380h399l-40 -116h-273l-52 -162q21 25 53 38.5t67 13.5q51 0 89 -16.5t63.5 -45t38.5 -67.5t13 -83q0 -49 -18.5 -96t-53.5 -84
t-86 -59.5t-117 -22.5q-55 0 -96.5 14.5t-70 39.5t-44.5 56.5t-20 66.5z" />
    <glyph glyph-name="six" unicode="6" 
d="M377 588q-41 0 -71 -18t-52 -47.5t-37 -68t-24 -78.5q9 14 25 28.5t37.5 26t48 19t56.5 7.5q49 0 87 -16.5t64 -45.5t39.5 -68t13.5 -83q0 -45 -16.5 -90.5t-50 -83t-83 -61t-115.5 -23.5q-53 0 -97.5 14t-77.5 47t-51.5 87t-18.5 134q0 76 18.5 153t58.5 139t101 101
t147 39q46 0 84.5 -11.5t67.5 -33.5t46.5 -53.5t20.5 -71.5l-134 -20q-2 32 -22 55t-65 23zM323 346q-24 0 -47 -9t-41 -26.5t-28.5 -43t-10.5 -58.5q0 -48 26 -79.5t75 -31.5q25 0 47.5 9.5t39.5 28t27 45t10 61.5q0 47 -25 75.5t-73 28.5z" />
    <glyph glyph-name="seven" unicode="7" 
d="M157 686h469l-18 -104q-39 -40 -88.5 -97t-97.5 -130t-88 -162t-59 -193h-148q17 95 53.5 182t81.5 160.5t93 131.5t88 97h-328z" />
    <glyph glyph-name="eight" unicode="8" 
d="M37 179q0 33 12 63t33.5 54t51 41.5t63.5 26.5q-38 17 -64 51t-26 84q0 41 17.5 77.5t50 64t78 43.5t101.5 16q49 0 91 -13.5t73 -37.5t48 -57.5t17 -73.5q0 -34 -11.5 -61.5t-30.5 -48.5t-44 -35.5t-52 -22.5q48 -18 79 -55t31 -91q0 -45 -18.5 -84.5t-53.5 -69.5
t-85 -47t-112 -17q-60 0 -106 15t-78 41t-48.5 61t-16.5 76zM443 508q0 38 -26.5 58.5t-64.5 20.5q-45 0 -75 -26.5t-30 -68.5q0 -39 25.5 -60t65.5 -21q45 0 75 25.5t30 71.5zM287 100q56 0 90 30t34 76q0 23 -8.5 40t-23.5 28.5t-34.5 17t-41.5 5.5q-24 0 -46 -7t-39 -21
t-27 -34t-10 -46q0 -43 29.5 -66t76.5 -23z" />
    <glyph glyph-name="nine" unicode="9" 
d="M259 98q40 0 70.5 18t52.5 47.5t37 67.5t24 79q-9 -14 -25 -28.5t-37.5 -26t-48 -19t-56.5 -7.5q-49 0 -87 16.5t-64 45.5t-39.5 68t-13.5 83q0 45 16.5 90.5t50 83t83 61t115.5 23.5q52 0 97 -15t78 -48.5t51.5 -87t18.5 -131.5q0 -76 -18.5 -153t-58.5 -139
t-101.5 -101t-146.5 -39q-46 0 -84.5 11.5t-67.5 33.5t-46.5 53.5t-20.5 71.5l134 20q2 -32 22 -55t65 -23zM313 340q24 0 47 9t41 26.5t28.5 43t10.5 58.5q0 48 -26 79.5t-75 31.5q-25 0 -47.5 -9.5t-39.5 -28t-27 -45.5t-10 -61q0 -47 25 -75.5t73 -28.5z" />
    <glyph glyph-name="colon" unicode=":" horiz-adv-x="290" 
d="M83 398q0 38 25 63t66 25t66 -25t25 -63t-25 -63t-66 -25t-66 25t-25 63zM26 78q0 38 25 63t66 25t66 -25t25 -63t-25 -63t-66 -25t-66 25t-25 63z" />
    <glyph glyph-name="semicolon" unicode=";" horiz-adv-x="297" 
d="M85 398q0 38 25 63t66 25t66 -25t25 -63t-25 -63t-66 -25t-66 25t-25 63zM215 47q0 -28 -11 -59t-34 -57.5t-58.5 -44.5t-83.5 -19l-14 62q15 -1 33 3.5t34 13.5t26.5 22.5t12.5 29.5q-5 -2 -10.5 -2.5t-10.5 -0.5q-32 0 -52.5 23.5t-20.5 56.5q0 15 6 31.5t17.5 29.5
t29.5 21.5t42 8.5q25 0 43 -10t29.5 -27t16.5 -38.5t5 -43.5z" />
    <glyph glyph-name="less" unicode="&#x3c;" 
d="M612 604l-24 -137l-382 -145l330 -147l-22 -126l-460 216l22 124z" />
    <glyph glyph-name="equal" unicode="=" 
d="M92 476h500l-20 -114h-500zM57 280h500l-20 -114h-500z" />
    <glyph glyph-name="greater" unicode="&#x3e;" 
d="M20 49l24 137l382 145l-330 147l22 126l460 -216l-22 -124z" />
    <glyph glyph-name="question" unicode="?" horiz-adv-x="536" 
d="M188 227l6 35q9 54 45.5 91t84.5 64q15 8 30.5 18t29 23t22 29t8.5 36q0 32 -21 54t-60 22q-25 0 -45 -10t-35.5 -26.5t-26 -38.5t-16.5 -46l-140 25q30 102 96 156.5t172 54.5q57 0 99 -15.5t70 -41.5t42 -60t14 -72t-12.5 -67.5t-31 -51.5t-40.5 -38t-41 -27
q-45 -26 -69.5 -44.5t-29.5 -44.5l-5 -25h-146zM165 76q0 38 24 61.5t62 23.5t62 -23t24 -60q0 -38 -24 -63t-62 -25t-62 25t-24 61z" />
    <glyph glyph-name="at" unicode="@" horiz-adv-x="978" 
d="M694 155q29 0 55 16t46 45t31.5 70.5t11.5 91.5q0 61 -19 105.5t-53.5 73.5t-82.5 43t-106 14q-85 0 -159 -28t-129.5 -79.5t-87.5 -125.5t-32 -165q0 -77 22.5 -133t63 -92.5t96.5 -54t122 -17.5q88 0 154.5 25.5t116.5 60.5l52 -93q-24 -18 -56.5 -35t-74 -30.5
t-91.5 -22t-108 -8.5q-93 0 -170 24t-133 72.5t-87 122.5t-31 175q0 116 43.5 210t117 160t170 101.5t201.5 35.5q81 0 151 -21.5t121.5 -64.5t81 -106.5t29.5 -147.5q0 -66 -21.5 -125.5t-59.5 -103.5t-90 -70t-113 -26q-54 0 -78 22t-30 57q-23 -36 -61 -57t-77 -21
q-66 0 -105.5 43.5t-39.5 124.5q0 54 19 101.5t50.5 83.5t73 56.5t85.5 20.5q35 0 63 -14.5t42 -49.5l14 55h103l-76 -262q-2 -6 -3 -11.5t-1 -11.5q0 -34 39 -34zM572 287q11 47 -6.5 70.5t-51.5 23.5q-23 0 -43 -13t-35 -35t-24 -50.5t-9 -58.5q0 -31 11.5 -49.5
t40.5 -18.5q15 0 32 5.5t32 18t27.5 33t19.5 49.5z" />
    <glyph glyph-name="A" unicode="A" horiz-adv-x="695" 
d="M638 0h-150l-27 162h-251l-85 -162h-152l375 700h161zM400 536q-4 -9 -11.5 -24t-17.5 -34.5t-21 -41.5l-22 -44q-26 -51 -56 -111h169q-10 60 -18 111q-3 22 -6.5 44t-6.5 41.5t-5 34.5t-3 24h-2z" />
    <glyph glyph-name="B" unicode="B" horiz-adv-x="659" 
d="M153 700h293q46 0 81.5 -13.5t59.5 -37t36 -54.5t12 -66t-11 -63t-29.5 -49t-43 -34.5t-50.5 -20.5q21 -5 41.5 -16t36 -28.5t25.5 -42.5t10 -58q0 -47 -21 -86.5t-56 -68.5t-81.5 -45.5t-98.5 -16.5h-327zM278 578l-28 -162h107q122 0 122 94q0 39 -21 53.5t-70 14.5
h-110zM198 124h119q43 0 70.5 8t43.5 21.5t22 31.5t6 37q0 38 -24 56t-91 18h-116z" />
    <glyph glyph-name="C" unicode="C" horiz-adv-x="711" 
d="M61 295q0 90 26 166.5t75 133t118 88t155 31.5q120 0 195.5 -50t95.5 -147l-149 -50q-10 58 -42.5 90t-101.5 32q-50 0 -89.5 -22.5t-68 -62t-43.5 -93t-15 -114.5q0 -36 9.5 -70t29 -59.5t49 -41t70.5 -15.5q51 0 86 28.5t64 86.5l143 -51q-42 -88 -116 -138.5
t-179 -50.5q-73 0 -131 21.5t-98 61t-61.5 97t-21.5 129.5z" />
    <glyph glyph-name="D" unicode="D" horiz-adv-x="724" 
d="M153 700h255q67 0 122 -20.5t93 -58.5t59 -91.5t21 -118.5q0 -98 -28.5 -174.5t-81 -129t-128.5 -80t-170 -27.5h-265zM547 410q0 78 -41.5 122t-123.5 44h-100l-79 -452h108q57 0 101 21t74 58.5t45.5 90.5t15.5 116z" />
    <glyph glyph-name="E" unicode="E" horiz-adv-x="594" 
d="M30 0l123 700h477l-21 -124h-329l-28 -154h306l-21 -124h-306l-31 -174h334l-22 -124h-482z" />
    <glyph glyph-name="F" unicode="F" horiz-adv-x="583" 
d="M30 0l123 700h479l-21 -124h-331l-28 -154h305l-21 -124h-305l-53 -298h-148z" />
    <glyph glyph-name="G" unicode="G" horiz-adv-x="753" 
d="M393 388h320l-69 -388h-136l13 72q-23 -33 -69.5 -59.5t-112.5 -26.5q-70 0 -122.5 25t-87 67.5t-51.5 98t-17 117.5q0 84 25.5 160.5t74 134t118 91.5t158.5 34q119 0 194.5 -48.5t100.5 -139.5l-147 -49q-11 54 -47.5 83.5t-101.5 29.5q-47 0 -87.5 -21t-69.5 -60
t-45.5 -94t-16.5 -122q0 -87 38 -135t118 -48q29 0 57.5 8t52.5 24.5t40 41t21 58.5l4 27h-176z" />
    <glyph glyph-name="H" unicode="H" horiz-adv-x="709" 
d="M153 700h150l-48 -277h265l48 277h150l-123 -700h-150l52 297h-265l-52 -297h-150z" />
    <glyph glyph-name="I" unicode="I" horiz-adv-x="294" 
d="M153 700h150l-123 -700h-150z" />
    <glyph glyph-name="J" unicode="J" horiz-adv-x="490" 
d="M179 111q42 0 61 30t30 90l83 469h150l-83 -469q-10 -55 -25 -100t-41.5 -77.5t-68.5 -50t-106 -17.5q-44 0 -77 7.5t-57 20t-41 28.5t-29 34l114 92q20 -26 39 -41.5t51 -15.5z" />
    <glyph glyph-name="K" unicode="K" horiz-adv-x="670" 
d="M295 311l-72 -69l-43 -242h-150l123 700h150l-47 -269l280 269h177l-299 -285l200 -415h-173z" />
    <glyph glyph-name="L" unicode="L" horiz-adv-x="546" 
d="M153 700h150l-101 -575h306l-22 -125h-456z" />
    <glyph glyph-name="M" unicode="M" horiz-adv-x="901" 
d="M338 0q-5 27 -11.5 66.5t-14 85t-15 94.5t-14.5 95.5t-13 88.5t-10 73h-3l-89 -503h-138l123 700h205q20 -128 37 -235q7 -46 14 -91.5l13 -84.5t10.5 -68t6.5 -42q6 13 20 42t33.5 68t42 84.5t45.5 91.5q53 107 117 235h213l-123 -700h-138l89 503h-3q-15 -31 -37 -74.5
t-47 -92.5t-51 -99.5t-49.5 -96t-42.5 -82.5t-30 -58h-140z" />
    <glyph glyph-name="N" unicode="N" horiz-adv-x="729" 
d="M153 700h153q45 -101 85 -191q17 -39 34.5 -78.5t34 -76.5t30 -68t22.5 -52h3l81 466h142l-123 -700h-153q-43 98 -83 188q-17 38 -34.5 78t-33.5 77t-30 68.5t-24 54.5h-3l-82 -466h-142z" />
    <glyph glyph-name="O" unicode="O" horiz-adv-x="761" 
d="M368 -14q-69 0 -125.5 20.5t-97 60.5t-62.5 97t-22 131q0 90 26 166.5t74.5 133t117.5 88t154 31.5q69 0 125.5 -20.5t97 -60.5t62.5 -97.5t22 -130.5q0 -90 -26 -166.5t-74.5 -133t-117.5 -88t-154 -31.5zM216 295q0 -36 9 -69.5t28.5 -59t48.5 -41t70 -15.5
q55 0 95.5 28t66.5 71t38.5 95.5t12.5 100.5q0 36 -9.5 69.5t-28.5 59t-49 41t-70 15.5q-56 0 -96 -28t-65.5 -71t-38 -95.5t-12.5 -100.5z" />
    <glyph glyph-name="P" unicode="P" horiz-adv-x="645" 
d="M223 246l-43 -246h-150l123 700h262q111 0 177.5 -50.5t66.5 -149.5q0 -68 -24 -116t-67 -79t-102 -45t-129 -14h-114zM505 492q0 44 -31 64t-95 20h-98l-36 -206h99q83 0 122 28.5t39 93.5z" />
    <glyph glyph-name="Q" unicode="Q" horiz-adv-x="761" 
d="M368 -14q-69 0 -125.5 20.5t-97 60.5t-62.5 97t-22 131q0 90 26 166.5t74.5 133t117.5 88t154 31.5q69 0 125.5 -20.5t97 -60.5t62.5 -97.5t22 -130.5q0 -112 -40 -202.5t-113 -145.5l47 -66l-93 -68l-58 80q-26 -8 -55 -12.5t-60 -4.5zM216 295q0 -36 9 -69.5t28.5 -59
t48.5 -41t70 -15.5q16 0 33 3l-55 77l94 69l62 -88q20 22 35 50.5t24.5 59t14.5 62.5t5 62q0 36 -9.5 69.5t-28.5 59t-49 41t-70 15.5q-56 0 -96 -28t-65.5 -71t-38 -95.5t-12.5 -100.5z" />
    <glyph glyph-name="R" unicode="R" horiz-adv-x="656" 
d="M644 509q0 -40 -12 -76t-34.5 -66t-56 -51.5t-75.5 -32.5l110 -283h-157l-99 265h-94l-47 -265h-149l123 700h252q55 0 99 -12t75 -35.5t48 -59.5t17 -84zM488 500q0 45 -27.5 60.5t-90.5 15.5h-89l-34 -189h92q78 0 113.5 31t35.5 82z" />
    <glyph glyph-name="S" unicode="S" horiz-adv-x="657" 
d="M260 513q0 -21 9 -36t26 -26t41 -19.5t55 -16.5q52 -14 92.5 -30t68.5 -38.5t42.5 -53.5t14.5 -74q0 -53 -22.5 -96t-62 -73.5t-93.5 -47t-118 -16.5q-72 0 -125.5 19.5t-88.5 50.5t-51.5 70.5t-15.5 80.5l151 23q-2 -23 5 -45t23 -39t43 -28t66 -11q20 0 43.5 4
t43.5 14.5t33.5 29t13.5 47.5q0 18 -6.5 30.5t-23.5 23t-46 20.5t-73 22q-57 15 -95.5 34t-61.5 42.5t-33 52t-10 64.5q0 52 20 93t56 70t87 44.5t113 15.5q64 0 115 -15t86.5 -42t55.5 -64t22 -82l-153 -28q2 51 -32 80.5t-102 29.5q-55 0 -84 -21.5t-29 -58.5z" />
    <glyph glyph-name="T" unicode="T" horiz-adv-x="593" 
d="M100 700h555l-22 -125h-202l-101 -575h-151l101 575h-202z" />
    <glyph glyph-name="U" unicode="U" horiz-adv-x="695" 
d="M319 -14q-78 0 -130 21t-82 58t-38.5 87t2.5 109l78 439h149l-75 -426q-6 -36 -4.5 -66t13.5 -51.5t35 -34t60 -12.5q40 0 67.5 13t45 34.5t27.5 50t15 59.5l76 433h151l-80 -451q-23 -129 -97 -196t-213 -67z" />
    <glyph glyph-name="V" unicode="V" horiz-adv-x="694" 
d="M251 700q18 -104 34 -202q7 -42 14 -86t13.5 -86t12 -79.5t9.5 -65.5h2q13 28 32 65.5t40 79.5t44 86t44 86q50 98 105 202h160l-381 -700h-153l-132 700h156z" />
    <glyph glyph-name="W" unicode="W" horiz-adv-x="944" 
d="M1011 700l-298 -700h-174q-6 97 -10 185q-2 37 -4 76.5t-4 76.5t-3.5 69.5t-2.5 56.5h-3q-9 -24 -22 -56.5t-28 -69.5t-31.5 -76.5t-31.5 -76.5q-37 -88 -77 -185h-174l-53 700h147q6 -112 11 -213q2 -43 4.5 -88t4 -86t2.5 -76.5t1 -59.5h3q9 24 23 59.5t30.5 76.5
t34.5 86t36 88q41 101 89 213h141q8 -112 14 -213q3 -43 5.5 -88t4.5 -86t3.5 -76.5t2.5 -59.5h3q9 24 22.5 59.5t30 76.5t34.5 86t36 88q40 101 87 213h146z" />
    <glyph glyph-name="X" unicode="X" horiz-adv-x="726" 
d="M291 700l111 -214l185 214h179l-299 -338l194 -362h-171l-128 242l-212 -242h-178l325 367l-178 333h172z" />
    <glyph glyph-name="Y" unicode="Y" horiz-adv-x="698" 
d="M283 293l-193 407h165l124 -268l217 268h174l-337 -407l-51 -293h-150z" />
    <glyph glyph-name="Z" unicode="Z" horiz-adv-x="635" 
d="M131 700h545l-20 -116l-443 -459h358l-22 -125h-553l20 115l445 460h-352z" />
    <glyph glyph-name="bracketleft" unicode="[" horiz-adv-x="343" 
d="M162 762h243l-17 -100h-114l-125 -709h114l-18 -100h-243z" />
    <glyph glyph-name="backslash" unicode="\" horiz-adv-x="413" 
d="M233 -115l-134 869h111l133 -869h-110z" />
    <glyph glyph-name="bracketright" unicode="]" horiz-adv-x="343" 
d="M-38 -147l18 100h114l125 709h-114l17 100h243l-160 -909h-243z" />
    <glyph glyph-name="asciicircum" unicode="^" horiz-adv-x="564" 
d="M545 356h-134l-66 213l-145 -213h-139l241 344h124z" />
    <glyph glyph-name="underscore" unicode="_" horiz-adv-x="494" 
d="M-42 -51h476l-17 -96h-476z" />
    <glyph glyph-name="grave" unicode="`" 
d="M236 646l74 101l193 -142l-54 -73z" />
    <glyph glyph-name="a" unicode="a" horiz-adv-x="524" 
d="M303 0q-4 11 -5 24.5t2 35.5q-23 -37 -59 -55.5t-78 -18.5q-33 0 -60.5 8t-47.5 24.5t-31.5 41.5t-11.5 59q0 49 25.5 82.5t69.5 53t103.5 28t127.5 8.5l5 31q5 27 -9 44.5t-50 17.5q-38 0 -59 -17.5t-23 -40.5l-135 21q9 35 29.5 61.5t50.5 44.5t67.5 27.5t79.5 9.5
q102 0 152 -49.5t34 -142.5l-41 -235q-3 -19 -4 -33t4 -30h-136zM212 89q18 0 35 5.5t31 16t24.5 25.5t13.5 33l6 34q-38 0 -69 -2.5t-53.5 -10.5t-35 -22t-12.5 -36q0 -43 60 -43z" />
    <glyph glyph-name="b" unicode="b" horiz-adv-x="601" 
d="M320 -14q-57 0 -93.5 23t-53.5 59l-12 -68h-139l123 700h144l-49 -283q23 29 59.5 51t87.5 22q40 0 74 -15t58.5 -43t38 -67t13.5 -87q0 -66 -21 -120t-55.5 -92t-80 -59t-94.5 -21zM207 232q-7 -33 -2 -58.5t18 -42.5t32.5 -25.5t42.5 -8.5q28 0 51.5 13.5t40 37.5
t26 56.5t9.5 70.5q0 47 -22 75.5t-68 28.5q-41 0 -76.5 -31.5t-49.5 -101.5z" />
    <glyph glyph-name="c" unicode="c" horiz-adv-x="518" 
d="M30 204q0 56 19.5 108t54.5 91.5t85 63t111 23.5q49 0 85 -11t61.5 -31t41 -47.5t21.5 -60.5l-136 -36q-4 41 -24 58.5t-53 17.5q-30 0 -52.5 -16.5t-37.5 -42t-22 -57.5t-7 -62q0 -43 19 -74t64 -31q32 0 51.5 18t33.5 50l129 -49q-32 -60 -84.5 -95t-133.5 -35
q-47 0 -88 13t-72 40t-48.5 68t-17.5 97z" />
    <glyph glyph-name="d" unicode="d" horiz-adv-x="602" 
d="M281 490q55 0 91 -22t52 -54l51 286h144l-123 -700h-140l12 68q-21 -32 -59.5 -57t-94.5 -25q-41 0 -74.5 15t-58 43t-38 67t-13.5 87q0 66 21 120t55.5 92t80 59t94.5 21zM395 248q6 36 0 60.5t-19.5 40.5t-33 23t-39.5 7q-28 0 -51.5 -13.5t-40 -37.5t-26 -56.5
t-9.5 -70.5q0 -47 22 -75.5t68 -28.5q19 0 38.5 7t37 22.5t30.5 41t20 62.5z" />
    <glyph glyph-name="e" unicode="e" horiz-adv-x="536" 
d="M474 97q-32 -52 -87 -81.5t-129 -29.5q-48 0 -89.5 13t-72.5 39.5t-48.5 67.5t-17.5 97q0 57 19.5 109t55 91.5t85 63t109.5 23.5q64 0 108 -22t69.5 -58t33 -83t-2.5 -96q-1 -4 -2 -9l-2 -10q-2 -5 -3 -11h-329q-3 -21 0.5 -40.5t14 -34.5t28.5 -24.5t44 -9.5
q41 0 63 17t35 39zM297 389q-48 0 -74.5 -28t-37.5 -73h188q7 50 -14 75.5t-62 25.5z" />
    <glyph glyph-name="f" unicode="f" horiz-adv-x="364" 
d="M56 476h79l7 37q10 52 31 90t49.5 62.5t63 36.5t70.5 12q51 0 83 -13t53 -31l-71 -102q-9 11 -23.5 20.5t-36.5 9.5q-23 0 -44 -16.5t-30 -63.5l-8 -42h104l-19 -105h-104l-65 -371h-144l65 371h-79z" />
    <glyph glyph-name="g" unicode="g" horiz-adv-x="602" 
d="M365 79q-23 -29 -59.5 -51t-87.5 -22q-41 0 -75.5 14.5t-59.5 41t-38.5 63.5t-13.5 83q0 63 20.5 114.5t55 89t80 58t94.5 20.5q57 0 93.5 -23t53.5 -58l12 67h139l-81 -461q-19 -106 -87.5 -167.5t-183.5 -61.5q-104 0 -157 32.5t-69 87.5l135 49q8 -30 28 -46t66 -16
q31 0 53 12t36.5 31.5t22.5 43.5t13 47zM395 249q6 34 0 58.5t-19 40.5t-32.5 23.5t-40.5 7.5q-28 0 -51.5 -13t-40 -36t-25.5 -53.5t-9 -65.5q0 -42 22.5 -68t67.5 -26q20 0 40 7t37.5 21.5t30.5 37.5t18 55z" />
    <glyph glyph-name="h" unicode="h" horiz-adv-x="578" 
d="M145 700h144l-51 -290q23 33 61.5 56.5t89.5 23.5q36 0 66 -10.5t50 -32t28 -55.5t0 -81l-55 -311h-144l50 283q9 51 -9.5 70t-53.5 19q-15 0 -32 -7t-33 -22.5t-28.5 -40.5t-18.5 -60l-43 -242h-144z" />
    <glyph glyph-name="i" unicode="i" horiz-adv-x="272" 
d="M115 629q0 38 24 61.5t62 23.5t62 -23.5t24 -61.5q0 -35 -22.5 -59t-63.5 -24t-63.5 24t-22.5 59zM106 476h144l-84 -476h-144z" />
    <glyph glyph-name="j" unicode="j" horiz-adv-x="276" 
d="M119 629q0 38 24 61.5t62 23.5t62 -23.5t24 -61.5q0 -35 -22.5 -59t-63.5 -24t-63.5 24t-22.5 59zM110 476h144l-91 -518q-8 -44 -26.5 -76.5t-45 -53.5t-59.5 -31.5t-69 -10.5q-43 0 -77 12t-55 30l70 99q9 -9 24 -17t32 -8q23 0 40.5 16.5t22.5 47.5z" />
    <glyph glyph-name="k" unicode="k" horiz-adv-x="563" 
d="M248 216l-51 -40l-31 -176h-144l123 700h144l-65 -370l183 146h175l-222 -178l156 -298h-159z" />
    <glyph glyph-name="l" unicode="l" horiz-adv-x="272" 
d="M145 700h144l-123 -700h-144z" />
    <glyph glyph-name="m" unicode="m" horiz-adv-x="858" 
d="M106 476h139l-13 -74q26 42 63.5 65t85.5 23q52 0 83 -23.5t46 -63.5q23 34 66.5 60.5t100.5 26.5q34 0 62.5 -10.5t47.5 -32t26.5 -55.5t-0.5 -81l-55 -311h-144l50 283q9 51 -8 70t-47 19q-29 0 -60 -29t-44 -99l-43 -244h-144l50 283q9 51 -8 70t-47 19q-29 0 -60 -29
t-44 -99l-43 -244h-144z" />
    <glyph glyph-name="n" unicode="n" horiz-adv-x="578" 
d="M106 476h139l-13 -74q27 41 66.5 64.5t90.5 23.5q36 0 66 -10.5t50 -32t28 -55.5t0 -81l-55 -311h-144l50 282q9 51 -9 70.5t-54 19.5q-15 0 -32 -7t-33 -22.5t-28.5 -40.5t-18.5 -60l-43 -242h-144z" />
    <glyph glyph-name="o" unicode="o" horiz-adv-x="564" 
d="M259 -14q-48 0 -90 13t-72.5 40t-48.5 68t-18 97t19.5 108t55 91.5t86 63t112.5 23.5q46 0 87.5 -13.5t73.5 -40.5t51 -68t19 -96q0 -57 -19.5 -109t-55.5 -91t-86.5 -62.5t-113.5 -23.5zM175 198q0 -21 4.5 -40t15 -33t27.5 -22.5t42 -8.5q33 0 56.5 17t38.5 43.5
t22.5 59t7.5 64.5q0 21 -5 40t-15.5 33.5t-27.5 22.5t-41 8q-33 0 -56.5 -17t-38.5 -43.5t-22.5 -59.5t-7.5 -64z" />
    <glyph glyph-name="p" unicode="p" horiz-adv-x="601" 
d="M320 -14q-55 0 -91 21.5t-52 53.5l-46 -261h-144l119 676h139l-12 -67q21 31 59 56t95 25q40 0 74 -15t58.5 -43t38 -67t13.5 -87q0 -66 -21 -120t-55.5 -92t-80 -59t-94.5 -21zM206 228q-6 -35 0 -59.5t19 -40.5t32.5 -23.5t40.5 -7.5q28 0 51.5 13.5t40 37.5t26 56.5
t9.5 70.5q0 47 -22 75.5t-68 28.5q-20 0 -40 -7.5t-37 -24t-30 -42t-19 -60.5z" />
    <glyph glyph-name="q" unicode="q" horiz-adv-x="601" 
d="M281 490q57 0 93.5 -23t53.5 -58l12 67h139l-119 -676h-144l45 259q-23 -29 -59.5 -51t-87.5 -22q-41 0 -74.5 15t-58 43t-38 67t-13.5 87q0 66 21 120t55.5 92t80 59t94.5 21zM395 248q6 34 0.5 58.5t-19 40.5t-32.5 24t-41 8q-28 0 -51.5 -13.5t-40 -37.5t-26 -56.5
t-9.5 -70.5q0 -47 22 -75.5t68 -28.5q20 0 40 7.5t37 23.5t30 41.5t19 61.5z" />
    <glyph glyph-name="r" unicode="r" horiz-adv-x="407" 
d="M395 349q-10 9 -23.5 11.5t-27.5 2.5q-19 0 -40.5 -7t-41 -23.5t-35 -44t-22.5 -67.5l-39 -221h-144l84 476h135l-14 -82q24 43 60 69.5t90 26.5q16 0 33.5 -3t32.5 -11z" />
    <glyph glyph-name="s" unicode="s" horiz-adv-x="488" 
d="M271 389q-28 0 -47 -11.5t-19 -34.5q0 -24 21.5 -33.5t55.5 -18.5q30 -8 58.5 -17.5t51 -25t36 -38.5t13.5 -58q0 -39 -16 -70t-45.5 -52t-69.5 -32.5t-88 -11.5q-38 0 -75.5 7t-68 24t-49.5 45.5t-20 70.5l134 17q-2 -17 5 -29t19 -19.5t27.5 -11t31.5 -3.5q32 0 51 13
t19 36q0 14 -7.5 23t-21 15t-32 10t-40.5 10q-27 7 -51.5 17t-43 25.5t-29.5 37t-11 53.5q0 40 17 70.5t46 51t67.5 31t82.5 10.5q46 0 84 -10.5t64 -28.5t40 -43t14 -54l-133 -22q0 25 -17.5 41t-53.5 16z" />
    <glyph glyph-name="t" unicode="t" horiz-adv-x="384" 
d="M326 4q-23 -9 -51 -13.5t-52 -4.5q-39 0 -69 9.5t-49.5 28.5t-27.5 48.5t-1 68.5l40 230h-79l19 105h79l24 136l155 65l-35 -201h103l-19 -105h-103l-38 -220q-5 -30 5 -39t26 -9q17 0 31.5 5.5t26.5 11.5z" />
    <glyph glyph-name="u" unicode="u" horiz-adv-x="574" 
d="M468 0h-139l13 74q-26 -41 -65 -64.5t-89 -23.5q-35 0 -64.5 10t-49 32t-27.5 56t0 81l55 311h144l-50 -283q-9 -51 9 -70t51 -19q15 0 31.5 7t31.5 22.5t27.5 40.5t18.5 60l43 242h144z" />
    <glyph glyph-name="v" unicode="v" horiz-adv-x="515" 
d="M49 476h147q10 -74 18 -140q3 -28 6.5 -57t7 -56t6 -50t4.5 -38h2q7 15 17.5 38t23 50t26 56t27.5 57q32 66 67 140h148l-250 -476h-166z" />
    <glyph glyph-name="w" unicode="w" horiz-adv-x="762" 
d="M488 476q7 -76 12 -142q2 -28 4 -57t3.5 -54.5t3 -46.5t1.5 -34h2q5 14 13.5 36t20 48t24 54.5t24.5 56.5q29 65 62 139h137l-222 -476h-155l-22 327l-138 -327h-155l-54 476h137q7 -74 13 -139q3 -28 5 -56.5t4 -54.5t3 -48t1 -36h2q6 17 19 48.5t28.5 68.5t32.5 75.5
t30.5 70t22.5 51.5l9 20h132z" />
    <glyph glyph-name="x" unicode="x" horiz-adv-x="516" 
d="M244 135l-116 -135h-165l220 247l-121 229h153l65 -124l103 124h160l-206 -236l129 -240h-151z" />
    <glyph glyph-name="y" unicode="y" horiz-adv-x="515" 
d="M259 -50q-26 -47 -51 -78.5t-49.5 -50.5t-50 -27t-53.5 -8q-36 0 -63.5 8.5t-41.5 18.5l55 103q18 -18 45 -18q26 0 46 16.5t44 61.5l10 18l-101 482h141q12 -74 23 -137q4 -27 8.5 -55t8.5 -52.5t7 -44.5t5 -32h2l16 32t22.5 44.5t27 52.5t28.5 55q33 63 71 137h140z
" />
    <glyph glyph-name="z" unicode="z" horiz-adv-x="477" 
d="M82 476h403l-16 -92l-283 -277h236l-19 -107h-413l16 94l285 275h-228z" />
    <glyph glyph-name="braceleft" unicode="{" horiz-adv-x="369" 
d="M297 483q-15 -86 -50.5 -126t-92.5 -50q25 -6 44 -17t30 -30.5t13 -49.5t-5 -73l-10 -57q-5 -29 -7 -54t4 -44.5t22.5 -32t49.5 -15.5l-16 -93q-79 3 -119.5 27t-56.5 63t-12.5 89t12.5 104l2 12q5 27 6 49.5t-5 40t-21.5 28.5t-44.5 16l15 84q30 4 49.5 15t31.5 27.5
t18.5 38.5t11.5 49l5 28q12 67 28.5 117t46.5 83.5t77.5 50t120.5 16.5l-17 -96q-34 -1 -55 -13.5t-34 -32t-19.5 -45t-11.5 -52.5z" />
    <glyph glyph-name="bar" unicode="|" horiz-adv-x="277" 
d="M176 797h121l-170 -966h-121z" />
    <glyph glyph-name="braceright" unicode="}" horiz-adv-x="368" 
d="M168 540q5 28 7.5 53t-3.5 44t-23 31t-51 15l17 96q81 -3 122 -26.5t56.5 -62t11.5 -87.5t-13 -102l-3 -17q-5 -28 -6 -52t5 -42t21.5 -30t43.5 -16l-15 -84q-28 -4 -47 -13.5t-31.5 -25t-19.5 -37t-12 -48.5l-3 -17q-12 -65 -24 -116.5t-39.5 -87.5t-77 -55t-134.5 -19
l17 93q34 3 55 16t34 32.5t19.5 45t11.5 52.5l10 57q15 83 50.5 121.5t91.5 48.5q-25 6 -44 17.5t-29.5 32t-13 51t5.5 75.5z" />
    <glyph glyph-name="asciitilde" unicode="~" horiz-adv-x="609" 
d="M238 388q34 0 57.5 -8.5t42.5 -18.5t35 -18.5t35 -8.5q20 0 35 8.5t25 19.5q11 12 20 28l81 -75q-17 -27 -42 -48q-21 -18 -54 -32.5t-78 -14.5q-33 0 -56.5 8t-42.5 18t-35 18t-35 8q-20 0 -35 -8.5t-25 -19.5q-11 -12 -20 -27l-81 77q16 26 42 47q21 17 53.5 32
t77.5 15z" />
    <glyph glyph-name="nonbreakingspace" unicode="&#xa0;" horiz-adv-x="215" 
 />
    <glyph glyph-name="exclamdown" unicode="&#xa1;" horiz-adv-x="280" 
d="M259 424q0 -38 -24 -61.5t-62 -23.5t-62 23.5t-24 61.5q0 36 24 61t62 25t62 -25t24 -61zM88 268h124l-68 -468h-152z" />
    <glyph glyph-name="cent" unicode="&#xa2;" horiz-adv-x="540" 
d="M229 96q-78 14 -123 69t-45 147q0 56 17.5 106.5t50.5 89t80.5 62t107.5 26.5l16 92h75l-17 -96q63 -12 102 -49t51 -100l-122 -29q0 28 -14 45t-36 25l-50 -282q27 7 45.5 24.5t28.5 41.5l112 -51q-28 -56 -82 -89t-123 -37l-16 -91h-75zM194 312q0 -37 12.5 -65.5
t41.5 -40.5l50 281q-28 -8 -48 -27t-32.5 -43.5t-18 -52.5t-5.5 -52z" />
    <glyph glyph-name="sterling" unicode="&#xa3;" horiz-adv-x="582" 
d="M109 300h-55l19 105h55l11 62q8 47 25.5 89t47.5 74t73 51t103 19q46 0 80.5 -11.5t59 -31.5t39.5 -47t22 -58l-125 -40q-5 36 -23.5 56.5t-54.5 20.5q-23 0 -40.5 -9t-29.5 -24t-19.5 -34.5t-11.5 -39.5l-14 -77h152l-19 -105h-152l-14 -83q-2 -14 -7 -30t-12.5 -31
t-18 -27.5t-23.5 -19.5v-2q12 2 26 3t30 1q37 0 63.5 -7t53.5 -7q35 0 54.5 17t39.5 56l114 -38q-33 -78 -82 -111.5t-118 -33.5q-23 0 -41.5 2.5t-37.5 5t-41 5t-50 2.5q-43 0 -86 -6t-80 -15l-12 103q23 13 38 28.5t24.5 32.5t14 34.5t7.5 34.5z" />
    <glyph glyph-name="currency" unicode="&#xa4;" horiz-adv-x="630" 
d="M167 638l62 -75q59 32 124 32q75 0 133 -40l81 75l75 -85l-84 -71q25 -47 25 -106q0 -46 -14.5 -85t-39.5 -71l64 -70l-87 -76l-62 75q-62 -34 -127 -34q-36 0 -69.5 9.5t-61.5 28.5l-81 -74l-75 85l83 70q-25 48 -25 109q0 46 14.5 85.5t40.5 71.5l-65 68zM466 363
q0 26 -9 48t-25 37.5t-38 24.5t-47 9q-28 0 -53.5 -11.5t-45 -31t-31.5 -45.5t-12 -55q0 -26 9 -47.5t24.5 -37.5t37.5 -25t48 -9q27 0 53 11.5t45.5 31.5t31.5 45.5t12 54.5z" />
    <glyph glyph-name="yen" unicode="&#xa5;" horiz-adv-x="659" 
d="M395 197l-35 -197h-145l35 197h-166l16 90h165l3 13l-23 49h-134l16 90h76l-116 247h158l115 -261l210 261h161l-204 -247h79l-16 -90h-137l-40 -49l-3 -13h169l-16 -90h-168z" />
    <glyph glyph-name="brokenbar" unicode="&#xa6;" horiz-adv-x="277" 
d="M177 797h121l-68 -385h-121zM75 216h121l-68 -385h-121z" />
    <glyph glyph-name="section" unicode="&#xa7;" horiz-adv-x="561" 
d="M37 281q0 54 29.5 92t80.5 64q-31 42 -31 93q0 37 15 70.5t43.5 58.5t70.5 40t96 15q88 0 145.5 -38t68.5 -101l-131 -39q-4 29 -23.5 47.5t-61.5 18.5t-61.5 -20.5t-19.5 -47.5q0 -32 28.5 -54t85.5 -48q89 -40 124.5 -84.5t35.5 -104.5q0 -54 -29.5 -92t-81.5 -64
q15 -20 23.5 -43.5t8.5 -49.5q0 -37 -15 -70.5t-43.5 -58.5t-70.5 -40t-96 -15q-89 0 -146 38t-68 101l131 39q4 -29 23.5 -47.5t61.5 -18.5t61.5 20.5t19.5 47.5q0 32 -28.5 54t-85.5 48q-89 40 -124.5 84.5t-35.5 104.5zM390 236q0 15 -5 28t-18.5 26t-38 27t-63.5 32
q-9 4 -17 8t-16 9q-22 -11 -37.5 -30t-15.5 -48q0 -15 5 -27.5t19 -25t38.5 -27t62.5 -33.5l33 -17q22 10 37.5 29.5t15.5 48.5z" />
    <glyph glyph-name="dieresis" unicode="&#xa8;" 
d="M397 613q0 32 21.5 53t55.5 21t55.5 -21t21.5 -53t-21.5 -53t-55.5 -21t-55.5 21t-21.5 53zM181 613q0 32 21.5 53t55.5 21t55.5 -21t21.5 -53t-21.5 -53t-55.5 -21t-55.5 21t-21.5 53z" />
    <glyph glyph-name="copyright" unicode="&#xa9;" horiz-adv-x="814" 
d="M427 -14q-77 0 -143.5 27t-116.5 75.5t-78.5 115.5t-28.5 147q0 79 28.5 145.5t78.5 115t116.5 75.5t143.5 27q76 0 143 -27t117 -75.5t78.5 -115t28.5 -145.5q0 -80 -28.5 -147t-78.5 -115.5t-117 -75.5t-143 -27zM427 70q57 0 106.5 21t87 58.5t59 89t21.5 112.5
t-21.5 112t-59 88.5t-87 58.5t-106.5 21q-56 0 -106 -21t-87 -58.5t-58.5 -88.5t-21.5 -112t21.5 -112.5t58.5 -89t87 -58.5t106 -21zM249 352q0 92 48.5 143t133.5 51q60 0 101 -27t58 -84l-88 -29q-10 30 -27 47t-46 17q-44 0 -65.5 -33t-21.5 -84t21.5 -84.5t65.5 -33.5
q53 0 73 62l86 -31q-18 -51 -57.5 -79t-101.5 -28q-84 0 -132 50.5t-48 142.5z" />
    <glyph glyph-name="ordfeminine" unicode="&#xaa;" horiz-adv-x="433" 
d="M297 322q-2 5 -2 17t2 26q-19 -21 -46.5 -37.5t-66.5 -16.5q-56 0 -85 26t-29 74q0 39 21.5 65.5t57.5 42t82 22.5t95 7l4 23q4 21 -6.5 35t-37.5 14q-29 0 -46 -14t-19 -31l-105 16q6 27 22.5 47.5t41 35t54.5 21.5t62 7q76 0 115 -36.5t27 -104.5l-33 -190
q-4 -21 -3 -30t3 -19h-108zM221 390q15 0 29.5 4.5t27 13t21 20.5t11.5 27l4 24q-60 0 -97 -12t-37 -46q0 -16 12 -23.5t29 -7.5z" />
    <glyph glyph-name="guillemotleft" unicode="&#xab;" horiz-adv-x="565" 
d="M264 262l228 231l80 -68l-164 -173l101 -174l-91 -61zM27 262l228 231l80 -68l-164 -173l101 -174l-91 -61z" />
    <glyph glyph-name="logicalnot" unicode="&#xac;" 
d="M75 379h500l-43 -244h-123l22 127h-377z" />
    <glyph glyph-name="uni00AD" unicode="&#xad;" horiz-adv-x="383" 
d="M72 342h275l-19 -107h-275z" />
    <glyph glyph-name="registered" unicode="&#xae;" horiz-adv-x="814" 
d="M427 -14q-77 0 -143.5 27t-116.5 75.5t-78.5 115.5t-28.5 147q0 79 28.5 145.5t78.5 115t116.5 75.5t143.5 27q76 0 143 -27t117 -75.5t78.5 -115t28.5 -145.5q0 -80 -28.5 -147t-78.5 -115.5t-117 -75.5t-143 -27zM427 70q57 0 106.5 21t87 58.5t59 89t21.5 112.5
t-21.5 112t-59 88.5t-87 58.5t-106.5 21q-56 0 -106 -21t-87 -58.5t-58.5 -88.5t-21.5 -112t21.5 -112.5t58.5 -89t87 -58.5t106 -21zM581 421q0 -41 -17.5 -67.5t-49.5 -41.5l84 -144h-100l-73 132h-41v-132h-85v370h137q66 0 105.5 -27t39.5 -90zM488 423q0 25 -14.5 34.5
t-46.5 9.5h-43v-91h43q61 0 61 47z" />
    <glyph glyph-name="macron" unicode="&#xaf;" 
d="M226 641h289l-16 -91h-289z" />
    <glyph glyph-name="degree" unicode="&#xb0;" horiz-adv-x="432" 
d="M100 537q0 39 14 71.5t38.5 56t57 36.5t69.5 13q38 0 68 -11.5t51 -32.5t32.5 -49.5t11.5 -61.5q0 -36 -14 -68t-38 -56t-56.5 -38.5t-69.5 -14.5q-39 0 -69.5 11.5t-51.5 32.5t-32 49.5t-11 61.5zM278 627q-35 0 -58 -25t-23 -61q0 -30 18.5 -51t51.5 -21q15 0 29 6
t25 17t17.5 27t6.5 36q0 30 -17.5 51t-49.5 21z" />
    <glyph glyph-name="plusminus" unicode="&#xb1;" 
d="M92 476h192l32 183h115l-32 -183h193l-20 -115h-193l-34 -189h-115l34 189h-192zM28 115h500l-20 -115h-500z" />
    <glyph glyph-name="twosuperior" unicode="&#xb2;" horiz-adv-x="378" 
d="M76 404l44 26q19 11 41 24.5t41 26.5q51 34 72 56t21 48q0 17 -10.5 27.5t-30.5 10.5q-27 0 -42 -19t-19 -40l-98 17q15 57 55.5 93t109.5 36q63 0 101 -33t38 -88q0 -48 -31 -83t-82 -64q-18 -11 -36 -19.5t-33 -15.5h154l-14 -83h-295z" />
    <glyph glyph-name="threesuperior" unicode="&#xb3;" horiz-adv-x="371" 
d="M370 438q0 -27 -11.5 -49.5t-32.5 -39t-50 -26t-64 -9.5q-38 0 -65.5 9t-45.5 24t-26.5 35t-9.5 42l98 25q1 -20 11.5 -34.5t39.5 -14.5q26 0 37 13t11 28q0 20 -12.5 28.5t-30.5 8.5q-3 0 -5 -0.5t-4 -0.5h-3l14 76q2 -1 4 -1h10q26 0 36.5 11.5t10.5 28.5t-12 24.5
t-26 7.5q-20 0 -33.5 -11t-16.5 -30l-93 24q8 21 20 39.5t30 32.5t42 22.5t57 8.5q60 0 99 -30t39 -81q0 -34 -18.5 -56t-50.5 -32q20 -9 35.5 -26.5t15.5 -46.5z" />
    <glyph glyph-name="acute" unicode="&#xb4;" 
d="M502 639l-240 -107l-32 82l229 133z" />
    <glyph glyph-name="mu" unicode="&#xb5;" horiz-adv-x="578" 
d="M472 0h-139l13 74q-26 -41 -64.5 -64.5t-86.5 -23.5q-17 0 -30 4l-34 -190h-144l119 676h144l-50 -283q-9 -51 7.5 -70t52.5 -19q15 0 31.5 7t31.5 22.5t27.5 40.5t18.5 60l43 242h144z" />
    <glyph glyph-name="mu" unicode="&#x3bc;" horiz-adv-x="578" 
d="M472 0h-139l13 74q-26 -41 -64.5 -64.5t-86.5 -23.5q-17 0 -30 4l-34 -190h-144l119 676h144l-50 -283q-9 -51 7.5 -70t52.5 -19q15 0 31.5 7t31.5 22.5t27.5 40.5t18.5 60l43 242h144z" />
    <glyph glyph-name="paragraph" unicode="&#xb6;" horiz-adv-x="644" 
d="M253 285q-39 1 -71 17t-55.5 42t-36.5 60t-13 73q0 50 21.5 91t57 70.5t82 45.5t97.5 16h374l-16 -88h-68l-132 -750h-104l132 750h-106l-132 -750h-104z" />
    <glyph glyph-name="periodcentered" unicode="&#xb7;" horiz-adv-x="299" 
d="M67 288q0 38 25 63t66 25t66 -25t25 -63t-25 -63t-66 -25t-66 25t-25 63z" />
    <glyph glyph-name="cedilla" unicode="&#xb8;" 
d="M265 -45q32 0 54.5 -20.5t22.5 -61.5q0 -27 -11 -47.5t-29 -34.5t-41.5 -21.5t-49.5 -7.5q-39 0 -61 12t-31 22l44 53q6 -9 20 -15.5t31 -6.5q21 0 33 12t12 29q0 15 -10 22t-24 7t-25 -4.5t-17 -10.5l-30 36l51 82h66l-31 -50q5 2 11 3.5t15 1.5z" />
    <glyph glyph-name="onesuperior" unicode="&#xb9;" horiz-adv-x="281" 
d="M302 700l-66 -376h-104l47 264q-15 -10 -37 -16.5t-48 -7.5l-6 85q36 4 68.5 17t53.5 34h92z" />
    <glyph glyph-name="ordmasculine" unicode="&#xba;" horiz-adv-x="457" 
d="M301 703q82 0 128 -44.5t46 -122.5q0 -51 -16.5 -92.5t-46 -71.5t-69.5 -46t-87 -16q-81 0 -128 44.5t-47 122.5q0 51 17 92.5t46.5 71.5t69.5 46t87 16zM261 394q25 0 43.5 12.5t30.5 33t18 47t6 54.5q0 33 -15 55.5t-49 22.5q-25 0 -43.5 -12.5t-30.5 -33t-18 -47
t-6 -54.5q0 -33 15 -55.5t49 -22.5z" />
    <glyph glyph-name="guillemotright" unicode="&#xbb;" horiz-adv-x="566" 
d="M546 248l-228 -231l-80 68l164 173l-101 174l91 61zM309 248l-228 -231l-80 68l164 173l-101 174l91 61z" />
    <glyph glyph-name="onequarter" unicode="&#xbc;" horiz-adv-x="836" 
d="M68 -14l566 728h124l-566 -728h-124zM302 700l-66 -376h-104l47 264q-15 -10 -37 -16.5t-48 -7.5l-6 85q36 4 68.5 17t53.5 34h92zM459 140l183 234h134l-40 -226h61l-24 -80h-51l-12 -68h-98l12 68h-178zM641 148l26 145h-3l-110 -145h87z" />
    <glyph glyph-name="onehalf" unicode="&#xbd;" horiz-adv-x="866" 
d="M68 -14l566 728h124l-566 -728h-124zM302 700l-66 -376h-104l47 264q-15 -10 -37 -16.5t-48 -7.5l-6 85q36 4 68.5 17t53.5 34h92zM507 80l44 26q19 11 41 24.5t41 26.5q51 34 72 56t21 48q0 17 -10.5 27.5t-30.5 10.5q-27 0 -42 -19t-19 -40l-98 17q15 57 55.5 93
t109.5 36q63 0 101 -33t38 -88q0 -48 -31 -83t-82 -64q-18 -11 -36 -19.5t-33 -15.5h154l-14 -83h-295z" />
    <glyph glyph-name="threequarters" unicode="&#xbe;" horiz-adv-x="901" 
d="M133 -14l566 728h124l-566 -728h-124zM370 438q0 -27 -11.5 -49.5t-32.5 -39t-50 -26t-64 -9.5q-38 0 -65.5 9t-45.5 24t-26.5 35t-9.5 42l98 25q1 -20 11.5 -34.5t39.5 -14.5q26 0 37 13t11 28q0 20 -12.5 28.5t-30.5 8.5q-3 0 -5 -0.5t-4 -0.5h-3l14 76q2 -1 4 -1h10
q26 0 36.5 11.5t10.5 28.5t-12 24.5t-26 7.5q-20 0 -33.5 -11t-16.5 -30l-93 24q8 21 20 39.5t30 32.5t42 22.5t57 8.5q60 0 99 -30t39 -81q0 -34 -18.5 -56t-50.5 -32q20 -9 35.5 -26.5t15.5 -46.5zM524 140l183 234h134l-40 -226h61l-24 -80h-51l-12 -68h-98l12 68h-178z
M706 148l26 145h-3l-110 -145h87z" />
    <glyph glyph-name="questiondown" unicode="&#xbf;" horiz-adv-x="543" 
d="M380 424q0 -38 -24 -61.5t-62 -23.5t-62 23t-24 60q0 38 24 63t62 25t62 -25t24 -61zM357 273l-6 -35q-9 -54 -45.5 -91t-84.5 -64q-15 -8 -30.5 -18t-29 -23t-22 -29t-8.5 -36q0 -32 21 -54t60 -22q25 0 45 10t35.5 26.5t26 38.5t16.5 46l140 -25q-30 -102 -96 -156.5
t-172 -54.5q-57 0 -99 15.5t-70 41.5t-42 60t-14 72t12.5 67.5t31 51.5t40.5 38t41 27q45 26 69.5 44.5t29.5 44.5l5 25h146z" />
    <glyph glyph-name="Agrave" unicode="&#xc0;" horiz-adv-x="695" 
d="M308 862l74 101l193 -142l-54 -73zM638 0h-150l-27 162h-251l-85 -162h-152l375 700h161zM400 536q-4 -9 -11.5 -24t-17.5 -34.5t-21 -41.5l-22 -44q-26 -51 -56 -111h169q-10 60 -18 111q-3 22 -6.5 44t-6.5 41.5t-5 34.5t-3 24h-2z" />
    <glyph glyph-name="Aacute" unicode="&#xc1;" horiz-adv-x="695" 
d="M572 855l-240 -107l-32 82l229 133zM638 0h-150l-27 162h-251l-85 -162h-152l375 700h161zM400 536q-4 -9 -11.5 -24t-17.5 -34.5t-21 -41.5l-22 -44q-26 -51 -56 -111h169q-10 60 -18 111q-3 22 -6.5 44t-6.5 41.5t-5 34.5t-3 24h-2z" />
    <glyph glyph-name="Acircumflex" unicode="&#xc2;" horiz-adv-x="695" 
d="M406 925h110l94 -118l-72 -60l-84 102l-125 -105l-60 68zM638 0h-150l-27 162h-251l-85 -162h-152l375 700h161zM400 536q-4 -9 -11.5 -24t-17.5 -34.5t-21 -41.5l-22 -44q-26 -51 -56 -111h169q-10 60 -18 111q-3 22 -6.5 44t-6.5 41.5t-5 34.5t-3 24h-2z" />
    <glyph glyph-name="Atilde" unicode="&#xc3;" horiz-adv-x="695" 
d="M372 910q28 0 48 -9t36 -19.5t29.5 -19t29.5 -8.5q15 0 26.5 8t19.5 18q9 11 15 27l65 -59q-14 -25 -34 -43q-17 -16 -42.5 -29t-60.5 -13q-28 0 -47 8.5t-34 19t-29 19t-31 8.5t-28.5 -8t-19.5 -18q-9 -11 -15 -25l-64 60q14 23 33 41q17 16 42.5 29t60.5 13zM638 0
h-150l-27 162h-251l-85 -162h-152l375 700h161zM400 536q-4 -9 -11.5 -24t-17.5 -34.5t-21 -41.5l-22 -44q-26 -51 -56 -111h169q-10 60 -18 111q-3 22 -6.5 44t-6.5 41.5t-5 34.5t-3 24h-2z" />
    <glyph glyph-name="Adieresis" unicode="&#xc4;" horiz-adv-x="695" 
d="M475 840q0 32 21.5 53t55.5 21t55.5 -21t21.5 -53t-21.5 -53t-55.5 -21t-55.5 21t-21.5 53zM259 840q0 32 21.5 53t55.5 21t55.5 -21t21.5 -53t-21.5 -53t-55.5 -21t-55.5 21t-21.5 53zM638 0h-150l-27 162h-251l-85 -162h-152l375 700h161zM400 536q-4 -9 -11.5 -24
t-17.5 -34.5t-21 -41.5l-22 -44q-26 -51 -56 -111h169q-10 60 -18 111q-3 22 -6.5 44t-6.5 41.5t-5 34.5t-3 24h-2z" />
    <glyph glyph-name="Aring" unicode="&#xc5;" horiz-adv-x="695" 
d="M341 853q0 50 34 82.5t87 32.5q47 0 74 -27.5t27 -70.5q0 -24 -9 -45.5t-25.5 -37.5t-38.5 -25t-48 -9q-48 0 -74.5 27.5t-26.5 72.5zM414 858q0 -16 9.5 -27t24.5 -11q18 0 30 13.5t12 30.5t-9.5 27t-25.5 10q-17 0 -29 -12.5t-12 -30.5zM638 0h-150l-27 162h-251
l-85 -162h-152l375 700h161zM400 536q-4 -9 -11.5 -24t-17.5 -34.5t-21 -41.5l-22 -44q-26 -51 -56 -111h169q-10 60 -18 111q-3 22 -6.5 44t-6.5 41.5t-5 34.5t-3 24h-2z" />
    <glyph glyph-name="AE" unicode="&#xc6;" horiz-adv-x="987" 
d="M431 0l29 163h-213l-113 -163h-160l501 700h548l-21 -124h-325l-28 -154h302l-21 -124h-302l-31 -174h330l-22 -124h-474zM331 281h150l50 285h-4z" />
    <glyph glyph-name="Ccedilla" unicode="&#xc7;" horiz-adv-x="711" 
d="M352 -45q32 0 54.5 -20.5t22.5 -61.5q0 -27 -11 -47.5t-29 -34.5t-41.5 -21.5t-49.5 -7.5q-39 0 -61 12t-31 22l44 53q6 -9 20 -15.5t31 -6.5q21 0 33 12t12 29q0 15 -10 22t-24 7t-25 -4.5t-17 -10.5l-30 36l47 77q-108 22 -167 100t-59 200q0 90 26 166.5t75 133
t118 88t155 31.5q120 0 195.5 -50t95.5 -147l-149 -50q-10 58 -42.5 90t-101.5 32q-50 0 -89.5 -22.5t-68 -62t-43.5 -93t-15 -114.5q0 -36 9.5 -70t29 -59.5t49 -41t70.5 -15.5q51 0 86 28.5t64 86.5l143 -51q-42 -88 -116 -138.5t-179 -50.5h-12t-12 1l-23 -37q5 2 11 3.5
t15 1.5z" />
    <glyph glyph-name="Egrave" unicode="&#xc8;" horiz-adv-x="594" 
d="M266 862l74 101l193 -142l-54 -73zM30 0l123 700h477l-21 -124h-329l-28 -154h306l-21 -124h-306l-31 -174h334l-22 -124h-482z" />
    <glyph glyph-name="Eacute" unicode="&#xc9;" horiz-adv-x="594" 
d="M562 855l-240 -107l-32 82l229 133zM30 0l123 700h477l-21 -124h-329l-28 -154h306l-21 -124h-306l-31 -174h334l-22 -124h-482z" />
    <glyph glyph-name="Ecircumflex" unicode="&#xca;" horiz-adv-x="594" 
d="M368 925h110l94 -118l-72 -60l-84 102l-125 -105l-60 68zM30 0l123 700h477l-21 -124h-329l-28 -154h306l-21 -124h-306l-31 -174h334l-22 -124h-482z" />
    <glyph glyph-name="Edieresis" unicode="&#xcb;" horiz-adv-x="594" 
d="M443 840q0 32 21.5 53t55.5 21t55.5 -21t21.5 -53t-21.5 -53t-55.5 -21t-55.5 21t-21.5 53zM227 840q0 32 21.5 53t55.5 21t55.5 -21t21.5 -53t-21.5 -53t-55.5 -21t-55.5 21t-21.5 53zM30 0l123 700h477l-21 -124h-329l-28 -154h306l-21 -124h-306l-31 -174h334
l-22 -124h-482z" />
    <glyph glyph-name="Igrave" unicode="&#xcc;" horiz-adv-x="294" 
d="M121 862l74 101l193 -142l-54 -73zM153 700h150l-123 -700h-150z" />
    <glyph glyph-name="Iacute" unicode="&#xcd;" horiz-adv-x="294" 
d="M377 855l-240 -107l-32 82l229 133zM153 700h150l-123 -700h-150z" />
    <glyph glyph-name="Icircumflex" unicode="&#xce;" horiz-adv-x="294" 
d="M209 925h110l94 -118l-72 -60l-84 102l-125 -105l-60 68zM153 700h150l-123 -700h-150z" />
    <glyph glyph-name="Idieresis" unicode="&#xcf;" horiz-adv-x="294" 
d="M279 840q0 32 21.5 53t55.5 21t55.5 -21t21.5 -53t-21.5 -53t-55.5 -21t-55.5 21t-21.5 53zM63 840q0 32 21.5 53t55.5 21t55.5 -21t21.5 -53t-21.5 -53t-55.5 -21t-55.5 21t-21.5 53zM153 700h150l-123 -700h-150z" />
    <glyph glyph-name="Eth" unicode="&#xd0;" horiz-adv-x="744" 
d="M49 415h74l50 285h255q67 0 122 -20.5t93 -58.5t59 -91.5t21 -118.5q0 -98 -28.5 -174.5t-81 -129t-128.5 -80t-170 -27.5h-265l54 308h-74zM567 410q0 78 -41.5 122t-123.5 44h-100l-28 -161h140l-19 -107h-140l-32 -184h108q57 0 101 21t74 58.5t45.5 90.5t15.5 116z
" />
    <glyph glyph-name="Ntilde" unicode="&#xd1;" horiz-adv-x="729" 
d="M389 910q28 0 48 -9t36 -19.5t29.5 -19t29.5 -8.5q15 0 26.5 8t19.5 18q9 11 15 27l65 -59q-14 -25 -34 -43q-17 -16 -42.5 -29t-60.5 -13q-28 0 -47 8.5t-34 19t-29 19t-31 8.5t-28.5 -8t-19.5 -18q-9 -11 -15 -25l-64 60q14 23 33 41q17 16 42.5 29t60.5 13zM153 700
h153q45 -101 85 -191q17 -39 34.5 -78.5t34 -76.5t30 -68t22.5 -52h3l81 466h142l-123 -700h-153q-43 98 -83 188q-17 38 -34.5 78t-33.5 77t-30 68.5t-24 54.5h-3l-82 -466h-142z" />
    <glyph glyph-name="Ograve" unicode="&#xd2;" horiz-adv-x="765" 
d="M335 862l74 101l193 -142l-54 -73zM370 -14q-69 0 -125.5 20.5t-97 60.5t-62.5 97t-22 131q0 90 26 166.5t74.5 133t117.5 88t154 31.5q69 0 125.5 -20.5t97 -60.5t62.5 -97.5t22 -130.5q0 -90 -26 -166.5t-74.5 -133t-117.5 -88t-154 -31.5zM218 295q0 -36 9 -69.5
t28.5 -59t48.5 -41t70 -15.5q55 0 95.5 28t66.5 71t38.5 95.5t12.5 100.5q0 36 -9.5 69.5t-28.5 59t-49 41t-70 15.5q-56 0 -96 -28t-65.5 -71t-38 -95.5t-12.5 -100.5z" />
    <glyph glyph-name="Oacute" unicode="&#xd3;" horiz-adv-x="765" 
d="M605 855l-240 -107l-32 82l229 133zM370 -14q-69 0 -125.5 20.5t-97 60.5t-62.5 97t-22 131q0 90 26 166.5t74.5 133t117.5 88t154 31.5q69 0 125.5 -20.5t97 -60.5t62.5 -97.5t22 -130.5q0 -90 -26 -166.5t-74.5 -133t-117.5 -88t-154 -31.5zM218 295q0 -36 9 -69.5
t28.5 -59t48.5 -41t70 -15.5q55 0 95.5 28t66.5 71t38.5 95.5t12.5 100.5q0 36 -9.5 69.5t-28.5 59t-49 41t-70 15.5q-56 0 -96 -28t-65.5 -71t-38 -95.5t-12.5 -100.5z" />
    <glyph glyph-name="Ocircumflex" unicode="&#xd4;" horiz-adv-x="765" 
d="M428 925h110l94 -118l-72 -60l-84 102l-125 -105l-60 68zM370 -14q-69 0 -125.5 20.5t-97 60.5t-62.5 97t-22 131q0 90 26 166.5t74.5 133t117.5 88t154 31.5q69 0 125.5 -20.5t97 -60.5t62.5 -97.5t22 -130.5q0 -90 -26 -166.5t-74.5 -133t-117.5 -88t-154 -31.5z
M218 295q0 -36 9 -69.5t28.5 -59t48.5 -41t70 -15.5q55 0 95.5 28t66.5 71t38.5 95.5t12.5 100.5q0 36 -9.5 69.5t-28.5 59t-49 41t-70 15.5q-56 0 -96 -28t-65.5 -71t-38 -95.5t-12.5 -100.5z" />
    <glyph glyph-name="Otilde" unicode="&#xd5;" horiz-adv-x="765" 
d="M393 910q28 0 48 -9t36 -19.5t29.5 -19t29.5 -8.5q15 0 26.5 8t19.5 18q9 11 15 27l65 -59q-14 -25 -34 -43q-17 -16 -42.5 -29t-60.5 -13q-28 0 -47 8.5t-34 19t-29 19t-31 8.5t-28.5 -8t-19.5 -18q-9 -11 -15 -25l-64 60q14 23 33 41q17 16 42.5 29t60.5 13zM370 -14
q-69 0 -125.5 20.5t-97 60.5t-62.5 97t-22 131q0 90 26 166.5t74.5 133t117.5 88t154 31.5q69 0 125.5 -20.5t97 -60.5t62.5 -97.5t22 -130.5q0 -90 -26 -166.5t-74.5 -133t-117.5 -88t-154 -31.5zM218 295q0 -36 9 -69.5t28.5 -59t48.5 -41t70 -15.5q55 0 95.5 28t66.5 71
t38.5 95.5t12.5 100.5q0 36 -9.5 69.5t-28.5 59t-49 41t-70 15.5q-56 0 -96 -28t-65.5 -71t-38 -95.5t-12.5 -100.5z" />
    <glyph glyph-name="Odieresis" unicode="&#xd6;" horiz-adv-x="765" 
d="M494 840q0 32 21.5 53t55.5 21t55.5 -21t21.5 -53t-21.5 -53t-55.5 -21t-55.5 21t-21.5 53zM278 840q0 32 21.5 53t55.5 21t55.5 -21t21.5 -53t-21.5 -53t-55.5 -21t-55.5 21t-21.5 53zM370 -14q-69 0 -125.5 20.5t-97 60.5t-62.5 97t-22 131q0 90 26 166.5t74.5 133
t117.5 88t154 31.5q69 0 125.5 -20.5t97 -60.5t62.5 -97.5t22 -130.5q0 -90 -26 -166.5t-74.5 -133t-117.5 -88t-154 -31.5zM218 295q0 -36 9 -69.5t28.5 -59t48.5 -41t70 -15.5q55 0 95.5 28t66.5 71t38.5 95.5t12.5 100.5q0 36 -9.5 69.5t-28.5 59t-49 41t-70 15.5
q-56 0 -96 -28t-65.5 -71t-38 -95.5t-12.5 -100.5z" />
    <glyph glyph-name="multiply" unicode="&#xd7;" 
d="M439 79l-133 162l-191 -163l-73 87l191 163l-130 159l90 77l131 -158l190 162l73 -88l-191 -163l133 -162z" />
    <glyph glyph-name="Oslash" unicode="&#xd8;" horiz-adv-x="761" 
d="M48 -9l79 96q-32 39 -49 91t-17 117q0 90 26 166.5t74.5 133t117.5 88t154 31.5q99 0 170 -42l77 94l67 -57l-76 -93q33 -39 51 -92t18 -119q0 -90 -26 -166.5t-74.5 -133t-117.5 -88t-154 -31.5q-102 0 -175 44l-78 -96zM216 295q0 -46 13 -82l286 351q-17 12 -39 19
t-48 7q-56 0 -96 -28t-65.5 -71t-38 -95.5t-12.5 -100.5zM585 405q0 47 -15 86l-289 -353q37 -28 91 -28q55 0 95.5 28t66.5 71t38.5 95.5t12.5 100.5z" />
    <glyph glyph-name="Ugrave" unicode="&#xd9;" horiz-adv-x="695" 
d="M315 862l74 101l193 -142l-54 -73zM319 -14q-78 0 -130 21t-82 58t-38.5 87t2.5 109l78 439h149l-75 -426q-6 -36 -4.5 -66t13.5 -51.5t35 -34t60 -12.5q40 0 67.5 13t45 34.5t27.5 50t15 59.5l76 433h151l-80 -451q-23 -129 -97 -196t-213 -67z" />
    <glyph glyph-name="Uacute" unicode="&#xda;" horiz-adv-x="695" 
d="M588 855l-240 -107l-32 82l229 133zM319 -14q-78 0 -130 21t-82 58t-38.5 87t2.5 109l78 439h149l-75 -426q-6 -36 -4.5 -66t13.5 -51.5t35 -34t60 -12.5q40 0 67.5 13t45 34.5t27.5 50t15 59.5l76 433h151l-80 -451q-23 -129 -97 -196t-213 -67z" />
    <glyph glyph-name="Ucircumflex" unicode="&#xdb;" horiz-adv-x="695" 
d="M404 925h110l94 -118l-72 -60l-84 102l-125 -105l-60 68zM319 -14q-78 0 -130 21t-82 58t-38.5 87t2.5 109l78 439h149l-75 -426q-6 -36 -4.5 -66t13.5 -51.5t35 -34t60 -12.5q40 0 67.5 13t45 34.5t27.5 50t15 59.5l76 433h151l-80 -451q-23 -129 -97 -196t-213 -67z
" />
    <glyph glyph-name="Udieresis" unicode="&#xdc;" horiz-adv-x="695" 
d="M475 840q0 32 21.5 53t55.5 21t55.5 -21t21.5 -53t-21.5 -53t-55.5 -21t-55.5 21t-21.5 53zM259 840q0 32 21.5 53t55.5 21t55.5 -21t21.5 -53t-21.5 -53t-55.5 -21t-55.5 21t-21.5 53zM319 -14q-78 0 -130 21t-82 58t-38.5 87t2.5 109l78 439h149l-75 -426
q-6 -36 -4.5 -66t13.5 -51.5t35 -34t60 -12.5q40 0 67.5 13t45 34.5t27.5 50t15 59.5l76 433h151l-80 -451q-23 -129 -97 -196t-213 -67z" />
    <glyph glyph-name="Yacute" unicode="&#xdd;" horiz-adv-x="698" 
d="M604 855l-240 -107l-32 82l229 133zM283 293l-193 407h165l124 -268l217 268h174l-337 -407l-51 -293h-150z" />
    <glyph glyph-name="Thorn" unicode="&#xde;" horiz-adv-x="644" 
d="M30 0l123 700h150l-20 -111h113q111 0 177.5 -50.5t66.5 -149.5q0 -68 -24 -116t-67 -79t-102 -45t-129 -14h-114l-24 -135h-150zM486 381q0 44 -31 64t-95 20h-98l-36 -206h99q83 0 122 28.5t39 93.5z" />
    <glyph glyph-name="germandbls" unicode="&#xdf;" horiz-adv-x="595" 
d="M106 476q9 50 26.5 93.5t47.5 75.5t73 50.5t102 18.5q54 0 95 -14t69 -38.5t42 -57t14 -69.5q0 -62 -34.5 -107t-91.5 -63q43 -12 74.5 -48.5t31.5 -93.5q0 -53 -17.5 -96.5t-50 -75t-79.5 -48.5t-107 -17q-30 0 -50.5 4.5t-35.5 11.5l20 112q14 -9 32 -13t34 -4
q22 0 42 8.5t35 24.5t24 39t9 52q0 43 -25 67t-70 24q-5 0 -9 -0.5t-8 -0.5h-8l19 110q4 -1 8 -1h17q23 0 41.5 9.5t31 24.5t19 35t6.5 41q0 34 -20 54t-58 20q-48 0 -71.5 -34t-33.5 -89l-85 -481h-143z" />
    <glyph glyph-name="agrave" unicode="&#xe0;" horiz-adv-x="524" 
d="M194 646l74 101l193 -142l-54 -73zM303 0q-4 11 -5 24.5t2 35.5q-23 -37 -59 -55.5t-78 -18.5q-33 0 -60.5 8t-47.5 24.5t-31.5 41.5t-11.5 59q0 49 25.5 82.5t69.5 53t103.5 28t127.5 8.5l5 31q5 27 -9 44.5t-50 17.5q-38 0 -59 -17.5t-23 -40.5l-135 21q9 35 29.5 61.5
t50.5 44.5t67.5 27.5t79.5 9.5q102 0 152 -49.5t34 -142.5l-41 -235q-3 -19 -4 -33t4 -30h-136zM212 89q18 0 35 5.5t31 16t24.5 25.5t13.5 33l6 34q-38 0 -69 -2.5t-53.5 -10.5t-35 -22t-12.5 -36q0 -43 60 -43z" />
    <glyph glyph-name="aacute" unicode="&#xe1;" horiz-adv-x="524" 
d="M455 639l-240 -107l-32 82l229 133zM303 0q-4 11 -5 24.5t2 35.5q-23 -37 -59 -55.5t-78 -18.5q-33 0 -60.5 8t-47.5 24.5t-31.5 41.5t-11.5 59q0 49 25.5 82.5t69.5 53t103.5 28t127.5 8.5l5 31q5 27 -9 44.5t-50 17.5q-38 0 -59 -17.5t-23 -40.5l-135 21
q9 35 29.5 61.5t50.5 44.5t67.5 27.5t79.5 9.5q102 0 152 -49.5t34 -142.5l-41 -235q-3 -19 -4 -33t4 -30h-136zM212 89q18 0 35 5.5t31 16t24.5 25.5t13.5 33l6 34q-38 0 -69 -2.5t-53.5 -10.5t-35 -22t-12.5 -36q0 -43 60 -43z" />
    <glyph glyph-name="acircumflex" unicode="&#xe2;" horiz-adv-x="524" 
d="M284 718h94l101 -130l-73 -60l-81 104l-117 -104l-62 64zM303 0q-4 11 -5 24.5t2 35.5q-23 -37 -59 -55.5t-78 -18.5q-33 0 -60.5 8t-47.5 24.5t-31.5 41.5t-11.5 59q0 49 25.5 82.5t69.5 53t103.5 28t127.5 8.5l5 31q5 27 -9 44.5t-50 17.5q-38 0 -59 -17.5t-23 -40.5
l-135 21q9 35 29.5 61.5t50.5 44.5t67.5 27.5t79.5 9.5q102 0 152 -49.5t34 -142.5l-41 -235q-3 -19 -4 -33t4 -30h-136zM212 89q18 0 35 5.5t31 16t24.5 25.5t13.5 33l6 34q-38 0 -69 -2.5t-53.5 -10.5t-35 -22t-12.5 -36q0 -43 60 -43z" />
    <glyph glyph-name="atilde" unicode="&#xe3;" horiz-adv-x="524" 
d="M255 690q28 0 48 -9t36 -19.5t29.5 -19t29.5 -8.5q15 0 26.5 8t19.5 18q9 11 15 27l65 -59q-14 -25 -34 -43q-17 -16 -42.5 -29t-60.5 -13q-28 0 -47 8.5t-34 19t-29 19t-31 8.5t-28.5 -8t-19.5 -18q-9 -11 -15 -25l-64 60q14 23 33 41q17 16 42.5 29t60.5 13zM303 0
q-4 11 -5 24.5t2 35.5q-23 -37 -59 -55.5t-78 -18.5q-33 0 -60.5 8t-47.5 24.5t-31.5 41.5t-11.5 59q0 49 25.5 82.5t69.5 53t103.5 28t127.5 8.5l5 31q5 27 -9 44.5t-50 17.5q-38 0 -59 -17.5t-23 -40.5l-135 21q9 35 29.5 61.5t50.5 44.5t67.5 27.5t79.5 9.5
q102 0 152 -49.5t34 -142.5l-41 -235q-3 -19 -4 -33t4 -30h-136zM212 89q18 0 35 5.5t31 16t24.5 25.5t13.5 33l6 34q-38 0 -69 -2.5t-53.5 -10.5t-35 -22t-12.5 -36q0 -43 60 -43z" />
    <glyph glyph-name="adieresis" unicode="&#xe4;" horiz-adv-x="524" 
d="M350 613q0 32 21.5 53t55.5 21t55.5 -21t21.5 -53t-21.5 -53t-55.5 -21t-55.5 21t-21.5 53zM134 613q0 32 21.5 53t55.5 21t55.5 -21t21.5 -53t-21.5 -53t-55.5 -21t-55.5 21t-21.5 53zM303 0q-4 11 -5 24.5t2 35.5q-23 -37 -59 -55.5t-78 -18.5q-33 0 -60.5 8
t-47.5 24.5t-31.5 41.5t-11.5 59q0 49 25.5 82.5t69.5 53t103.5 28t127.5 8.5l5 31q5 27 -9 44.5t-50 17.5q-38 0 -59 -17.5t-23 -40.5l-135 21q9 35 29.5 61.5t50.5 44.5t67.5 27.5t79.5 9.5q102 0 152 -49.5t34 -142.5l-41 -235q-3 -19 -4 -33t4 -30h-136zM212 89
q18 0 35 5.5t31 16t24.5 25.5t13.5 33l6 34q-38 0 -69 -2.5t-53.5 -10.5t-35 -22t-12.5 -36q0 -43 60 -43z" />
    <glyph glyph-name="aring" unicode="&#xe5;" horiz-adv-x="524" 
d="M212 632q0 50 34 82.5t87 32.5q47 0 74 -27.5t27 -70.5q0 -24 -9 -45.5t-25.5 -37.5t-38.5 -25t-48 -9q-48 0 -74.5 27.5t-26.5 72.5zM285 637q0 -16 9.5 -27t24.5 -11q18 0 30 13.5t12 30.5t-9.5 27t-25.5 10q-17 0 -29 -12.5t-12 -30.5zM303 0q-4 11 -5 24.5t2 35.5
q-23 -37 -59 -55.5t-78 -18.5q-33 0 -60.5 8t-47.5 24.5t-31.5 41.5t-11.5 59q0 49 25.5 82.5t69.5 53t103.5 28t127.5 8.5l5 31q5 27 -9 44.5t-50 17.5q-38 0 -59 -17.5t-23 -40.5l-135 21q9 35 29.5 61.5t50.5 44.5t67.5 27.5t79.5 9.5q102 0 152 -49.5t34 -142.5
l-41 -235q-3 -19 -4 -33t4 -30h-136zM212 89q18 0 35 5.5t31 16t24.5 25.5t13.5 33l6 34q-38 0 -69 -2.5t-53.5 -10.5t-35 -22t-12.5 -36q0 -43 60 -43z" />
    <glyph glyph-name="ae" unicode="&#xe6;" horiz-adv-x="828" 
d="M766 97q-32 -52 -87 -81.5t-129 -29.5q-59 0 -106.5 20.5t-76.5 64.5q-33 -45 -80.5 -65t-108.5 -20q-37 0 -67.5 7t-52.5 23t-34 41.5t-12 61.5q0 49 26 82t70 52.5t103.5 28t126.5 8.5l5 32q5 27 -9 44.5t-50 17.5q-38 0 -59 -17.5t-23 -40.5l-135 21q9 35 29.5 61.5
t50.5 44.5t67.5 27.5t79.5 9.5q48 0 84 -14.5t57 -41.5q32 26 71 41t85 15q64 0 108 -22t69.5 -58t33 -83t-2.5 -96l-2 -8t-2 -9q-2 -5 -3 -11h-329q-3 -21 0.5 -41t14 -35.5t28.5 -25t44 -9.5q41 0 63 17t35 39zM589 389q-48 0 -74.5 -27.5t-37.5 -72.5h188q7 49 -14 74.5
t-62 25.5zM212 89q18 0 35 5.5t31 16t24.5 25.5t13.5 33l6 34q-37 0 -68.5 -2.5t-54 -10.5t-35 -22t-12.5 -36t15.5 -32.5t44.5 -10.5z" />
    <glyph glyph-name="ccedilla" unicode="&#xe7;" horiz-adv-x="518" 
d="M243 -45q32 0 54.5 -20.5t22.5 -61.5q0 -27 -11 -47.5t-29 -34.5t-41.5 -21.5t-49.5 -7.5q-39 0 -61 12t-31 22l44 53q6 -9 20 -15.5t31 -6.5q21 0 33 12t12 29q0 15 -10 22t-24 7t-25 -4.5t-17 -10.5l-30 36l48 78q-66 17 -107.5 68.5t-41.5 139.5q0 56 19.5 108
t54.5 91.5t85 63t111 23.5q49 0 85 -11t61.5 -31t41 -47.5t21.5 -60.5l-136 -36q-4 41 -24 58.5t-53 17.5q-30 0 -52.5 -16.5t-37.5 -42t-22 -57.5t-7 -62q0 -43 19 -74t64 -31q32 0 51.5 18t33.5 50l129 -49q-32 -60 -84.5 -95t-133.5 -35h-8.5t-8.5 1l-22 -37q5 2 11 3.5
t15 1.5z" />
    <glyph glyph-name="egrave" unicode="&#xe8;" horiz-adv-x="536" 
d="M193 646l74 101l193 -142l-54 -73zM474 97q-32 -52 -87 -81.5t-129 -29.5q-48 0 -89.5 13t-72.5 39.5t-48.5 67.5t-17.5 97q0 57 19.5 109t55 91.5t85 63t109.5 23.5q64 0 108 -22t69.5 -58t33 -83t-2.5 -96q-1 -4 -2 -9l-2 -10q-2 -5 -3 -11h-329q-3 -21 0.5 -40.5
t14 -34.5t28.5 -24.5t44 -9.5q41 0 63 17t35 39zM297 389q-48 0 -74.5 -28t-37.5 -73h188q7 50 -14 75.5t-62 25.5z" />
    <glyph glyph-name="eacute" unicode="&#xe9;" horiz-adv-x="536" 
d="M463 639l-240 -107l-32 82l229 133zM474 97q-32 -52 -87 -81.5t-129 -29.5q-48 0 -89.5 13t-72.5 39.5t-48.5 67.5t-17.5 97q0 57 19.5 109t55 91.5t85 63t109.5 23.5q64 0 108 -22t69.5 -58t33 -83t-2.5 -96q-1 -4 -2 -9l-2 -10q-2 -5 -3 -11h-329q-3 -21 0.5 -40.5
t14 -34.5t28.5 -24.5t44 -9.5q41 0 63 17t35 39zM297 389q-48 0 -74.5 -28t-37.5 -73h188q7 50 -14 75.5t-62 25.5z" />
    <glyph glyph-name="ecircumflex" unicode="&#xea;" horiz-adv-x="536" 
d="M291 718h94l101 -130l-73 -60l-81 104l-117 -104l-62 64zM474 97q-32 -52 -87 -81.5t-129 -29.5q-48 0 -89.5 13t-72.5 39.5t-48.5 67.5t-17.5 97q0 57 19.5 109t55 91.5t85 63t109.5 23.5q64 0 108 -22t69.5 -58t33 -83t-2.5 -96q-1 -4 -2 -9l-2 -10q-2 -5 -3 -11h-329
q-3 -21 0.5 -40.5t14 -34.5t28.5 -24.5t44 -9.5q41 0 63 17t35 39zM297 389q-48 0 -74.5 -28t-37.5 -73h188q7 50 -14 75.5t-62 25.5z" />
    <glyph glyph-name="edieresis" unicode="&#xeb;" horiz-adv-x="536" 
d="M355 613q0 32 21.5 53t55.5 21t55.5 -21t21.5 -53t-21.5 -53t-55.5 -21t-55.5 21t-21.5 53zM139 613q0 32 21.5 53t55.5 21t55.5 -21t21.5 -53t-21.5 -53t-55.5 -21t-55.5 21t-21.5 53zM474 97q-32 -52 -87 -81.5t-129 -29.5q-48 0 -89.5 13t-72.5 39.5t-48.5 67.5
t-17.5 97q0 57 19.5 109t55 91.5t85 63t109.5 23.5q64 0 108 -22t69.5 -58t33 -83t-2.5 -96q-1 -4 -2 -9l-2 -10q-2 -5 -3 -11h-329q-3 -21 0.5 -40.5t14 -34.5t28.5 -24.5t44 -9.5q41 0 63 17t35 39zM297 389q-48 0 -74.5 -28t-37.5 -73h188q7 50 -14 75.5t-62 25.5z" />
    <glyph glyph-name="igrave" unicode="&#xec;" horiz-adv-x="272" 
d="M73 646l74 101l193 -142l-54 -73zM106 476h144l-84 -476h-144z" />
    <glyph glyph-name="iacute" unicode="&#xed;" horiz-adv-x="272" 
d="M336 639l-240 -107l-32 82l229 133zM106 476h144l-84 -476h-144z" />
    <glyph glyph-name="icircumflex" unicode="&#xee;" horiz-adv-x="272" 
d="M162 718h94l101 -130l-73 -60l-81 104l-117 -104l-62 64zM106 476h144l-84 -476h-144z" />
    <glyph glyph-name="idieresis" unicode="&#xef;" horiz-adv-x="272" 
d="M228 613q0 32 21.5 53t55.5 21t55.5 -21t21.5 -53t-21.5 -53t-55.5 -21t-55.5 21t-21.5 53zM12 613q0 32 21.5 53t55.5 21t55.5 -21t21.5 -53t-21.5 -53t-55.5 -21t-55.5 21t-21.5 53zM106 476h144l-84 -476h-144z" />
    <glyph glyph-name="eth" unicode="&#xf0;" horiz-adv-x="580" 
d="M457 620q45 -57 69 -126t24 -141q0 -67 -14.5 -133t-49 -118t-90.5 -84t-139 -32q-47 0 -88.5 12.5t-72.5 39t-48.5 66t-17.5 93.5q0 58 20.5 109.5t55 90t81 61t98.5 22.5q38 0 72.5 -15t54.5 -45q-8 44 -24.5 80.5t-39.5 65.5l-100 -49l-31 71l72 35q-23 17 -49 28.5
t-53 17.5l76 75q39 -9 74 -26.5t64 -40.5l95 46l28 -70zM176 195q0 -20 4.5 -38.5t15 -32.5t27 -22t40.5 -8q33 0 56.5 16.5t39 42t23 57t7.5 61.5q0 21 -5 39t-15.5 32t-27 22t-40.5 8q-32 0 -55.5 -16.5t-39 -42t-23 -57t-7.5 -61.5z" />
    <glyph glyph-name="ntilde" unicode="&#xf1;" horiz-adv-x="578" 
d="M288 690q28 0 48 -9t36 -19.5t29.5 -19t29.5 -8.5q15 0 26.5 8t19.5 18q9 11 15 27l65 -59q-14 -25 -34 -43q-17 -16 -42.5 -29t-60.5 -13q-28 0 -47 8.5t-34 19t-29 19t-31 8.5t-28.5 -8t-19.5 -18q-9 -11 -15 -25l-64 60q14 23 33 41q17 16 42.5 29t60.5 13zM106 476
h139l-13 -74q27 41 66.5 64.5t90.5 23.5q36 0 66 -10.5t50 -32t28 -55.5t0 -81l-55 -311h-144l50 282q9 51 -9 70.5t-54 19.5q-15 0 -32 -7t-33 -22.5t-28.5 -40.5t-18.5 -60l-43 -242h-144z" />
    <glyph glyph-name="ograve" unicode="&#xf2;" horiz-adv-x="564" 
d="M211 646l74 101l193 -142l-54 -73zM259 -14q-48 0 -90 13t-72.5 40t-48.5 68t-18 97t19.5 108t55 91.5t86 63t112.5 23.5q46 0 87.5 -13.5t73.5 -40.5t51 -68t19 -96q0 -57 -19.5 -109t-55.5 -91t-86.5 -62.5t-113.5 -23.5zM175 198q0 -21 4.5 -40t15 -33t27.5 -22.5
t42 -8.5q33 0 56.5 17t38.5 43.5t22.5 59t7.5 64.5q0 21 -5 40t-15.5 33.5t-27.5 22.5t-41 8q-33 0 -56.5 -17t-38.5 -43.5t-22.5 -59.5t-7.5 -64z" />
    <glyph glyph-name="oacute" unicode="&#xf3;" horiz-adv-x="564" 
d="M478 639l-240 -107l-32 82l229 133zM259 -14q-48 0 -90 13t-72.5 40t-48.5 68t-18 97t19.5 108t55 91.5t86 63t112.5 23.5q46 0 87.5 -13.5t73.5 -40.5t51 -68t19 -96q0 -57 -19.5 -109t-55.5 -91t-86.5 -62.5t-113.5 -23.5zM175 198q0 -21 4.5 -40t15 -33t27.5 -22.5
t42 -8.5q33 0 56.5 17t38.5 43.5t22.5 59t7.5 64.5q0 21 -5 40t-15.5 33.5t-27.5 22.5t-41 8q-33 0 -56.5 -17t-38.5 -43.5t-22.5 -59.5t-7.5 -64z" />
    <glyph glyph-name="ocircumflex" unicode="&#xf4;" horiz-adv-x="564" 
d="M301 718h94l101 -130l-73 -60l-81 104l-117 -104l-62 64zM259 -14q-48 0 -90 13t-72.5 40t-48.5 68t-18 97t19.5 108t55 91.5t86 63t112.5 23.5q46 0 87.5 -13.5t73.5 -40.5t51 -68t19 -96q0 -57 -19.5 -109t-55.5 -91t-86.5 -62.5t-113.5 -23.5zM175 198q0 -21 4.5 -40
t15 -33t27.5 -22.5t42 -8.5q33 0 56.5 17t38.5 43.5t22.5 59t7.5 64.5q0 21 -5 40t-15.5 33.5t-27.5 22.5t-41 8q-33 0 -56.5 -17t-38.5 -43.5t-22.5 -59.5t-7.5 -64z" />
    <glyph glyph-name="otilde" unicode="&#xf5;" horiz-adv-x="564" 
d="M271 690q28 0 48 -9t36 -19.5t29.5 -19t29.5 -8.5q15 0 26.5 8t19.5 18q9 11 15 27l65 -59q-14 -25 -34 -43q-17 -16 -42.5 -29t-60.5 -13q-28 0 -47 8.5t-34 19t-29 19t-31 8.5t-28.5 -8t-19.5 -18q-9 -11 -15 -25l-64 60q14 23 33 41q17 16 42.5 29t60.5 13zM259 -14
q-48 0 -90 13t-72.5 40t-48.5 68t-18 97t19.5 108t55 91.5t86 63t112.5 23.5q46 0 87.5 -13.5t73.5 -40.5t51 -68t19 -96q0 -57 -19.5 -109t-55.5 -91t-86.5 -62.5t-113.5 -23.5zM175 198q0 -21 4.5 -40t15 -33t27.5 -22.5t42 -8.5q33 0 56.5 17t38.5 43.5t22.5 59t7.5 64.5
q0 21 -5 40t-15.5 33.5t-27.5 22.5t-41 8q-33 0 -56.5 -17t-38.5 -43.5t-22.5 -59.5t-7.5 -64z" />
    <glyph glyph-name="odieresis" unicode="&#xf6;" horiz-adv-x="564" 
d="M371 613q0 32 21.5 53t55.5 21t55.5 -21t21.5 -53t-21.5 -53t-55.5 -21t-55.5 21t-21.5 53zM155 613q0 32 21.5 53t55.5 21t55.5 -21t21.5 -53t-21.5 -53t-55.5 -21t-55.5 21t-21.5 53zM259 -14q-48 0 -90 13t-72.5 40t-48.5 68t-18 97t19.5 108t55 91.5t86 63
t112.5 23.5q46 0 87.5 -13.5t73.5 -40.5t51 -68t19 -96q0 -57 -19.5 -109t-55.5 -91t-86.5 -62.5t-113.5 -23.5zM175 198q0 -21 4.5 -40t15 -33t27.5 -22.5t42 -8.5q33 0 56.5 17t38.5 43.5t22.5 59t7.5 64.5q0 21 -5 40t-15.5 33.5t-27.5 22.5t-41 8q-33 0 -56.5 -17
t-38.5 -43.5t-22.5 -59.5t-7.5 -64z" />
    <glyph glyph-name="divide" unicode="&#xf7;" 
d="M261 529q0 38 24.5 62t64.5 24t64.5 -24t24.5 -62t-24.5 -62t-64.5 -24t-64.5 24t-24.5 62zM75 383h500l-20 -114h-500zM193 121q0 38 24.5 62t64.5 24t64.5 -24t24.5 -62t-24.5 -62t-64.5 -24t-64.5 24t-24.5 62z" />
    <glyph glyph-name="oslash" unicode="&#xf8;" horiz-adv-x="564" 
d="M25 -21l60 71q-26 26 -40.5 64.5t-14.5 89.5q0 56 19.5 108t55 91.5t86 63t112.5 23.5q69 0 125 -30l68 80l54 -47l-65 -78q23 -26 36 -62t13 -81q0 -57 -19.5 -109t-55.5 -91t-86.5 -62.5t-113.5 -23.5q-64 0 -116 23l-64 -77zM175 198q0 -19 3 -37l173 207
q-20 14 -51 14q-33 0 -56.5 -17t-38.5 -43.5t-22.5 -59.5t-7.5 -64zM389 278v11t-1 11l-166 -198q18 -8 42 -8q33 0 56.5 17t38.5 43.5t22.5 59t7.5 64.5z" />
    <glyph glyph-name="ugrave" unicode="&#xf9;" horiz-adv-x="574" 
d="M205 646l74 101l193 -142l-54 -73zM468 0h-139l13 74q-26 -41 -65 -64.5t-89 -23.5q-35 0 -64.5 10t-49 32t-27.5 56t0 81l55 311h144l-50 -283q-9 -51 9 -70t51 -19q15 0 31.5 7t31.5 22.5t27.5 40.5t18.5 60l43 242h144z" />
    <glyph glyph-name="uacute" unicode="&#xfa;" horiz-adv-x="574" 
d="M489 639l-240 -107l-32 82l229 133zM468 0h-139l13 74q-26 -41 -65 -64.5t-89 -23.5q-35 0 -64.5 10t-49 32t-27.5 56t0 81l55 311h144l-50 -283q-9 -51 9 -70t51 -19q15 0 31.5 7t31.5 22.5t27.5 40.5t18.5 60l43 242h144z" />
    <glyph glyph-name="ucircumflex" unicode="&#xfb;" horiz-adv-x="574" 
d="M315 718h94l101 -130l-73 -60l-81 104l-117 -104l-62 64zM468 0h-139l13 74q-26 -41 -65 -64.5t-89 -23.5q-35 0 -64.5 10t-49 32t-27.5 56t0 81l55 311h144l-50 -283q-9 -51 9 -70t51 -19q15 0 31.5 7t31.5 22.5t27.5 40.5t18.5 60l43 242h144z" />
    <glyph glyph-name="udieresis" unicode="&#xfc;" horiz-adv-x="574" 
d="M377 613q0 32 21.5 53t55.5 21t55.5 -21t21.5 -53t-21.5 -53t-55.5 -21t-55.5 21t-21.5 53zM161 613q0 32 21.5 53t55.5 21t55.5 -21t21.5 -53t-21.5 -53t-55.5 -21t-55.5 21t-21.5 53zM468 0h-139l13 74q-26 -41 -65 -64.5t-89 -23.5q-35 0 -64.5 10t-49 32t-27.5 56
t0 81l55 311h144l-50 -283q-9 -51 9 -70t51 -19q15 0 31.5 7t31.5 22.5t27.5 40.5t18.5 60l43 242h144z" />
    <glyph glyph-name="yacute" unicode="&#xfd;" horiz-adv-x="515" 
d="M471 639l-240 -107l-32 82l229 133zM259 -50q-26 -47 -51 -78.5t-49.5 -50.5t-50 -27t-53.5 -8q-36 0 -63.5 8.5t-41.5 18.5l55 103q18 -18 45 -18q26 0 46 16.5t44 61.5l10 18l-101 482h141q12 -74 23 -137q4 -27 8.5 -55t8.5 -52.5t7 -44.5t5 -32h2l16 32t22.5 44.5
t27 52.5t28.5 55q33 63 71 137h140z" />
    <glyph glyph-name="thorn" unicode="&#xfe;" horiz-adv-x="601" 
d="M571 278q0 -66 -21 -120t-55.5 -92t-80 -59t-94.5 -21q-55 0 -91 21.5t-52 53.5l-46 -261h-144l158 900h144l-49 -283q23 29 59.5 51t87.5 22q40 0 74 -15t58.5 -43t38 -67t13.5 -87zM425 275q0 47 -22 75.5t-68 28.5q-20 0 -40 -7.5t-37 -24t-30 -42t-19 -61.5l-3 -16
q-6 -35 0 -60t19 -40.5t32.5 -23t40.5 -7.5q28 0 51.5 13.5t40 37.5t26 56.5t9.5 70.5z" />
    <glyph glyph-name="ydieresis" unicode="&#xff;" horiz-adv-x="515" 
d="M337 613q0 32 21.5 53t55.5 21t55.5 -21t21.5 -53t-21.5 -53t-55.5 -21t-55.5 21t-21.5 53zM121 613q0 32 21.5 53t55.5 21t55.5 -21t21.5 -53t-21.5 -53t-55.5 -21t-55.5 21t-21.5 53zM259 -50q-26 -47 -51 -78.5t-49.5 -50.5t-50 -27t-53.5 -8q-36 0 -63.5 8.5
t-41.5 18.5l55 103q18 -18 45 -18q26 0 46 16.5t44 61.5l10 18l-101 482h141q12 -74 23 -137q4 -27 8.5 -55t8.5 -52.5t7 -44.5t5 -32h2l16 32t22.5 44.5t27 52.5t28.5 55q33 63 71 137h140z" />
    <glyph glyph-name="Amacron" unicode="&#x100;" horiz-adv-x="695" 
d="M309 864h289l-16 -91h-289zM638 0h-150l-27 162h-251l-85 -162h-152l375 700h161zM400 536q-4 -9 -11.5 -24t-17.5 -34.5t-21 -41.5l-22 -44q-26 -51 -56 -111h169q-10 60 -18 111q-3 22 -6.5 44t-6.5 41.5t-5 34.5t-3 24h-2z" />
    <glyph glyph-name="amacron" unicode="&#x101;" horiz-adv-x="524" 
d="M182 641h289l-16 -91h-289zM303 0q-4 11 -5 24.5t2 35.5q-23 -37 -59 -55.5t-78 -18.5q-33 0 -60.5 8t-47.5 24.5t-31.5 41.5t-11.5 59q0 49 25.5 82.5t69.5 53t103.5 28t127.5 8.5l5 31q5 27 -9 44.5t-50 17.5q-38 0 -59 -17.5t-23 -40.5l-135 21q9 35 29.5 61.5
t50.5 44.5t67.5 27.5t79.5 9.5q102 0 152 -49.5t34 -142.5l-41 -235q-3 -19 -4 -33t4 -30h-136zM212 89q18 0 35 5.5t31 16t24.5 25.5t13.5 33l6 34q-38 0 -69 -2.5t-53.5 -10.5t-35 -22t-12.5 -36q0 -43 60 -43z" />
    <glyph glyph-name="Abreve" unicode="&#x102;" horiz-adv-x="695" 
d="M382 911q-1 -27 16.5 -46t46.5 -19t50.5 19t28.5 46l103 -28q-21 -57 -71 -92t-117 -35q-70 0 -114 35.5t-46 91.5zM638 0h-150l-27 162h-251l-85 -162h-152l375 700h161zM400 536q-4 -9 -11.5 -24t-17.5 -34.5t-21 -41.5l-22 -44q-26 -51 -56 -111h169q-10 60 -18 111
q-3 22 -6.5 44t-6.5 41.5t-5 34.5t-3 24h-2z" />
    <glyph glyph-name="abreve" unicode="&#x103;" horiz-adv-x="524" 
d="M257 704q-1 -27 16.5 -46t46.5 -19t50.5 19t28.5 46l103 -28q-21 -57 -71 -92t-117 -35q-70 0 -114 35.5t-46 91.5zM303 0q-4 11 -5 24.5t2 35.5q-23 -37 -59 -55.5t-78 -18.5q-33 0 -60.5 8t-47.5 24.5t-31.5 41.5t-11.5 59q0 49 25.5 82.5t69.5 53t103.5 28t127.5 8.5
l5 31q5 27 -9 44.5t-50 17.5q-38 0 -59 -17.5t-23 -40.5l-135 21q9 35 29.5 61.5t50.5 44.5t67.5 27.5t79.5 9.5q102 0 152 -49.5t34 -142.5l-41 -235q-3 -19 -4 -33t4 -30h-136zM212 89q18 0 35 5.5t31 16t24.5 25.5t13.5 33l6 34q-38 0 -69 -2.5t-53.5 -10.5t-35 -22
t-12.5 -36q0 -43 60 -43z" />
    <glyph glyph-name="Aogonek" unicode="&#x104;" horiz-adv-x="695" 
d="M638 0q-126 -47 -126 -96q0 -13 10 -22t30 -9q12 0 29.5 7.5t29.5 26.5l56 -55q-30 -34 -65.5 -47.5t-74.5 -13.5q-54 0 -85.5 24.5t-31.5 66.5q0 40 19.5 66t58.5 52l-27 162h-251l-85 -162h-152l375 700h161zM400 536q-4 -9 -11.5 -24t-17.5 -34.5t-21 -41.5l-22 -44
q-26 -51 -56 -111h169q-10 60 -18 111q-3 22 -6.5 44t-6.5 41.5t-5 34.5t-3 24h-2z" />
    <glyph glyph-name="aogonek" unicode="&#x105;" horiz-adv-x="524" 
d="M320 -96q0 -13 10 -22t30 -9q12 0 29.5 7.5t29.5 26.5l56 -55q-30 -34 -65.5 -47.5t-74.5 -13.5q-54 0 -85.5 24.5t-31.5 66.5q0 40 20.5 67t64.5 51q-4 11 -5 24.5t2 35.5q-23 -37 -59 -55.5t-78 -18.5q-33 0 -60.5 8t-47.5 24.5t-31.5 41.5t-11.5 59q0 49 25.5 82.5
t69.5 53t103.5 28t127.5 8.5l5 31q5 27 -9 44.5t-50 17.5q-38 0 -59 -17.5t-23 -40.5l-135 21q9 35 29.5 61.5t50.5 44.5t67.5 27.5t79.5 9.5q102 0 152 -49.5t34 -142.5l-41 -235q-3 -19 -4 -33t4 -30q-119 -50 -119 -96zM212 89q18 0 35 5.5t31 16t24.5 25.5t13.5 33l6 34
q-38 0 -69 -2.5t-53.5 -10.5t-35 -22t-12.5 -36q0 -43 60 -43z" />
    <glyph glyph-name="Cacute" unicode="&#x106;" horiz-adv-x="711" 
d="M603 855l-240 -107l-32 82l229 133zM61 295q0 90 26 166.5t75 133t118 88t155 31.5q120 0 195.5 -50t95.5 -147l-149 -50q-10 58 -42.5 90t-101.5 32q-50 0 -89.5 -22.5t-68 -62t-43.5 -93t-15 -114.5q0 -36 9.5 -70t29 -59.5t49 -41t70.5 -15.5q51 0 86 28.5t64 86.5
l143 -51q-42 -88 -116 -138.5t-179 -50.5q-73 0 -131 21.5t-98 61t-61.5 97t-21.5 129.5z" />
    <glyph glyph-name="cacute" unicode="&#x107;" horiz-adv-x="518" 
d="M466 639l-240 -107l-32 82l229 133zM30 204q0 56 19.5 108t54.5 91.5t85 63t111 23.5q49 0 85 -11t61.5 -31t41 -47.5t21.5 -60.5l-136 -36q-4 41 -24 58.5t-53 17.5q-30 0 -52.5 -16.5t-37.5 -42t-22 -57.5t-7 -62q0 -43 19 -74t64 -31q32 0 51.5 18t33.5 50l129 -49
q-32 -60 -84.5 -95t-133.5 -35q-47 0 -88 13t-72 40t-48.5 68t-17.5 97z" />
    <glyph glyph-name="Ccircumflex" unicode="&#x108;" horiz-adv-x="711" 
d="M422 925h110l94 -118l-72 -60l-84 102l-125 -105l-60 68zM61 295q0 90 26 166.5t75 133t118 88t155 31.5q120 0 195.5 -50t95.5 -147l-149 -50q-10 58 -42.5 90t-101.5 32q-50 0 -89.5 -22.5t-68 -62t-43.5 -93t-15 -114.5q0 -36 9.5 -70t29 -59.5t49 -41t70.5 -15.5
q51 0 86 28.5t64 86.5l143 -51q-42 -88 -116 -138.5t-179 -50.5q-73 0 -131 21.5t-98 61t-61.5 97t-21.5 129.5z" />
    <glyph glyph-name="ccircumflex" unicode="&#x109;" horiz-adv-x="518" 
d="M294 718h94l101 -130l-73 -60l-81 104l-117 -104l-62 64zM30 204q0 56 19.5 108t54.5 91.5t85 63t111 23.5q49 0 85 -11t61.5 -31t41 -47.5t21.5 -60.5l-136 -36q-4 41 -24 58.5t-53 17.5q-30 0 -52.5 -16.5t-37.5 -42t-22 -57.5t-7 -62q0 -43 19 -74t64 -31
q32 0 51.5 18t33.5 50l129 -49q-32 -60 -84.5 -95t-133.5 -35q-47 0 -88 13t-72 40t-48.5 68t-17.5 97z" />
    <glyph glyph-name="Cdotaccent" unicode="&#x10a;" horiz-adv-x="711" 
d="M375 846q0 37 24 60.5t63 23.5t63 -23.5t24 -60.5t-24 -60.5t-63 -23.5t-63 23.5t-24 60.5zM61 295q0 90 26 166.5t75 133t118 88t155 31.5q120 0 195.5 -50t95.5 -147l-149 -50q-10 58 -42.5 90t-101.5 32q-50 0 -89.5 -22.5t-68 -62t-43.5 -93t-15 -114.5
q0 -36 9.5 -70t29 -59.5t49 -41t70.5 -15.5q51 0 86 28.5t64 86.5l143 -51q-42 -88 -116 -138.5t-179 -50.5q-73 0 -131 21.5t-98 61t-61.5 97t-21.5 129.5z" />
    <glyph glyph-name="cdotaccent" unicode="&#x10b;" horiz-adv-x="518" 
d="M247 623q0 37 24 60.5t63 23.5t63 -23.5t24 -60.5t-24 -60.5t-63 -23.5t-63 23.5t-24 60.5zM30 204q0 56 19.5 108t54.5 91.5t85 63t111 23.5q49 0 85 -11t61.5 -31t41 -47.5t21.5 -60.5l-136 -36q-4 41 -24 58.5t-53 17.5q-30 0 -52.5 -16.5t-37.5 -42t-22 -57.5t-7 -62
q0 -43 19 -74t64 -31q32 0 51.5 18t33.5 50l129 -49q-32 -60 -84.5 -95t-133.5 -35q-47 0 -88 13t-72 40t-48.5 68t-17.5 97z" />
    <glyph glyph-name="Ccaron" unicode="&#x10c;" horiz-adv-x="711" 
d="M509 750h-110l-94 118l72 60l84 -102l125 105l60 -68zM61 295q0 90 26 166.5t75 133t118 88t155 31.5q120 0 195.5 -50t95.5 -147l-149 -50q-10 58 -42.5 90t-101.5 32q-50 0 -89.5 -22.5t-68 -62t-43.5 -93t-15 -114.5q0 -36 9.5 -70t29 -59.5t49 -41t70.5 -15.5
q51 0 86 28.5t64 86.5l143 -51q-42 -88 -116 -138.5t-179 -50.5q-73 0 -131 21.5t-98 61t-61.5 97t-21.5 129.5z" />
    <glyph glyph-name="ccaron" unicode="&#x10d;" horiz-adv-x="518" 
d="M362 534h-94l-98 130l74 60l78 -104l117 104l61 -64zM30 204q0 56 19.5 108t54.5 91.5t85 63t111 23.5q49 0 85 -11t61.5 -31t41 -47.5t21.5 -60.5l-136 -36q-4 41 -24 58.5t-53 17.5q-30 0 -52.5 -16.5t-37.5 -42t-22 -57.5t-7 -62q0 -43 19 -74t64 -31q32 0 51.5 18
t33.5 50l129 -49q-32 -60 -84.5 -95t-133.5 -35q-47 0 -88 13t-72 40t-48.5 68t-17.5 97z" />
    <glyph glyph-name="Dcaron" unicode="&#x10e;" horiz-adv-x="724" 
d="M484 750h-110l-94 118l72 60l84 -102l125 105l60 -68zM153 700h255q67 0 122 -20.5t93 -58.5t59 -91.5t21 -118.5q0 -98 -28.5 -174.5t-81 -129t-128.5 -80t-170 -27.5h-265zM547 410q0 78 -41.5 122t-123.5 44h-100l-79 -452h108q57 0 101 21t74 58.5t45.5 90.5
t15.5 116z" />
    <glyph glyph-name="dcaron" unicode="&#x10f;" horiz-adv-x="602" 
d="M829 723l-100 -192l-80 24l78 200zM281 490q55 0 91 -22t52 -54l51 286h144l-123 -700h-140l12 68q-21 -32 -59.5 -57t-94.5 -25q-41 0 -74.5 15t-58 43t-38 67t-13.5 87q0 66 21 120t55.5 92t80 59t94.5 21zM395 248q6 36 0 60.5t-19.5 40.5t-33 23t-39.5 7
q-28 0 -51.5 -13.5t-40 -37.5t-26 -56.5t-9.5 -70.5q0 -47 22 -75.5t68 -28.5q19 0 38.5 7t37 22.5t30.5 41t20 62.5z" />
    <glyph glyph-name="Dcroat" unicode="&#x110;" horiz-adv-x="744" 
d="M49 415h74l50 285h255q67 0 122 -20.5t93 -58.5t59 -91.5t21 -118.5q0 -98 -28.5 -174.5t-81 -129t-128.5 -80t-170 -27.5h-265l54 308h-74zM567 410q0 78 -41.5 122t-123.5 44h-100l-28 -161h140l-19 -107h-140l-32 -184h108q57 0 101 21t74 58.5t45.5 90.5t15.5 116z
" />
    <glyph glyph-name="dcroat" unicode="&#x111;" horiz-adv-x="602" 
d="M317 645h148l10 55h144l-10 -55h59l-18 -102h-59l-95 -543h-140l12 68q-21 -32 -59.5 -57t-94.5 -25q-41 0 -74.5 15t-58 43t-38 67t-13.5 87q0 66 21 120t55.5 92t80 59t94.5 21q55 0 91 -22t52 -54l23 129h-148zM395 248q6 36 0 60.5t-19.5 40.5t-33 23t-39.5 7
q-28 0 -51.5 -13.5t-40 -37.5t-26 -56.5t-9.5 -70.5q0 -47 22 -75.5t68 -28.5q19 0 38.5 7t37 22.5t30.5 41t20 62.5z" />
    <glyph glyph-name="Emacron" unicode="&#x112;" horiz-adv-x="594" 
d="M274 864h289l-16 -91h-289zM30 0l123 700h477l-21 -124h-329l-28 -154h306l-21 -124h-306l-31 -174h334l-22 -124h-482z" />
    <glyph glyph-name="emacron" unicode="&#x113;" horiz-adv-x="536" 
d="M184 641h289l-16 -91h-289zM474 97q-32 -52 -87 -81.5t-129 -29.5q-48 0 -89.5 13t-72.5 39.5t-48.5 67.5t-17.5 97q0 57 19.5 109t55 91.5t85 63t109.5 23.5q64 0 108 -22t69.5 -58t33 -83t-2.5 -96q-1 -4 -2 -9l-2 -10q-2 -5 -3 -11h-329q-3 -21 0.5 -40.5t14 -34.5
t28.5 -24.5t44 -9.5q41 0 63 17t35 39zM297 389q-48 0 -74.5 -28t-37.5 -73h188q7 50 -14 75.5t-62 25.5z" />
    <glyph glyph-name="Ebreve" unicode="&#x114;" horiz-adv-x="594" 
d="M349 911q-1 -27 16.5 -46t46.5 -19t50.5 19t28.5 46l103 -28q-21 -57 -71 -92t-117 -35q-70 0 -114 35.5t-46 91.5zM30 0l123 700h477l-21 -124h-329l-28 -154h306l-21 -124h-306l-31 -174h334l-22 -124h-482z" />
    <glyph glyph-name="ebreve" unicode="&#x115;" horiz-adv-x="536" 
d="M264 704q-1 -27 16.5 -46t46.5 -19t50.5 19t28.5 46l103 -28q-21 -57 -71 -92t-117 -35q-70 0 -114 35.5t-46 91.5zM474 97q-32 -52 -87 -81.5t-129 -29.5q-48 0 -89.5 13t-72.5 39.5t-48.5 67.5t-17.5 97q0 57 19.5 109t55 91.5t85 63t109.5 23.5q64 0 108 -22t69.5 -58
t33 -83t-2.5 -96q-1 -4 -2 -9l-2 -10q-2 -5 -3 -11h-329q-3 -21 0.5 -40.5t14 -34.5t28.5 -24.5t44 -9.5q41 0 63 17t35 39zM297 389q-48 0 -74.5 -28t-37.5 -73h188q7 50 -14 75.5t-62 25.5z" />
    <glyph glyph-name="Edotaccent" unicode="&#x116;" horiz-adv-x="594" 
d="M325 846q0 37 24 60.5t63 23.5t63 -23.5t24 -60.5t-24 -60.5t-63 -23.5t-63 23.5t-24 60.5zM30 0l123 700h477l-21 -124h-329l-28 -154h306l-21 -124h-306l-31 -174h334l-22 -124h-482z" />
    <glyph glyph-name="edotaccent" unicode="&#x117;" horiz-adv-x="536" 
d="M240 623q0 37 24 60.5t63 23.5t63 -23.5t24 -60.5t-24 -60.5t-63 -23.5t-63 23.5t-24 60.5zM474 97q-32 -52 -87 -81.5t-129 -29.5q-48 0 -89.5 13t-72.5 39.5t-48.5 67.5t-17.5 97q0 57 19.5 109t55 91.5t85 63t109.5 23.5q64 0 108 -22t69.5 -58t33 -83t-2.5 -96
q-1 -4 -2 -9l-2 -10q-2 -5 -3 -11h-329q-3 -21 0.5 -40.5t14 -34.5t28.5 -24.5t44 -9.5q41 0 63 17t35 39zM297 389q-48 0 -74.5 -28t-37.5 -73h188q7 50 -14 75.5t-62 25.5z" />
    <glyph glyph-name="Eogonek" unicode="&#x118;" horiz-adv-x="594" 
d="M439 0q-121 -50 -121 -96q0 -13 10 -22t30 -9q12 0 29.5 7.5t29.5 26.5l56 -55q-30 -34 -65.5 -47.5t-74.5 -13.5q-54 0 -85.5 24.5t-31.5 66.5q0 40 20 66t62 52h-268l123 700h477l-21 -124h-329l-28 -154h306l-21 -124h-306l-31 -174h334l-22 -124h-73z" />
    <glyph glyph-name="eogonek" unicode="&#x119;" horiz-adv-x="536" 
d="M232 -96q0 -13 10 -22t30 -9q12 0 29.5 7.5t29.5 26.5l56 -55q-30 -34 -65.5 -47.5t-74.5 -13.5q-54 0 -85.5 24.5t-31.5 66.5q0 37 16.5 62t51.5 48q-37 7 -67.5 23t-53 42.5t-35 62.5t-12.5 83q0 57 19.5 109t55 91.5t85 63t109.5 23.5q64 0 108 -22t69.5 -58t33 -83
t-2.5 -96q-1 -4 -2 -9l-2 -10q-2 -5 -3 -11h-329q-3 -21 0.5 -40.5t14 -34.5t28.5 -24.5t44 -9.5q41 0 63 17t35 39l118 -51q-21 -35 -52.5 -59.5t-68.5 -38.5q-121 -46 -121 -95zM297 389q-48 0 -74.5 -28t-37.5 -73h188q7 50 -14 75.5t-62 25.5z" />
    <glyph glyph-name="Ecaron" unicode="&#x11a;" horiz-adv-x="594" 
d="M450 750h-110l-94 118l72 60l84 -102l125 105l60 -68zM30 0l123 700h477l-21 -124h-329l-28 -154h306l-21 -124h-306l-31 -174h334l-22 -124h-482z" />
    <glyph glyph-name="ecaron" unicode="&#x11b;" horiz-adv-x="536" 
d="M360 534h-94l-98 130l74 60l78 -104l117 104l61 -64zM474 97q-32 -52 -87 -81.5t-129 -29.5q-48 0 -89.5 13t-72.5 39.5t-48.5 67.5t-17.5 97q0 57 19.5 109t55 91.5t85 63t109.5 23.5q64 0 108 -22t69.5 -58t33 -83t-2.5 -96q-1 -4 -2 -9l-2 -10q-2 -5 -3 -11h-329
q-3 -21 0.5 -40.5t14 -34.5t28.5 -24.5t44 -9.5q41 0 63 17t35 39zM297 389q-48 0 -74.5 -28t-37.5 -73h188q7 50 -14 75.5t-62 25.5z" />
    <glyph glyph-name="Gcircumflex" unicode="&#x11c;" horiz-adv-x="753" 
d="M428 925h110l94 -118l-72 -60l-84 102l-125 -105l-60 68zM393 388h320l-69 -388h-136l13 72q-23 -33 -69.5 -59.5t-112.5 -26.5q-70 0 -122.5 25t-87 67.5t-51.5 98t-17 117.5q0 84 25.5 160.5t74 134t118 91.5t158.5 34q119 0 194.5 -48.5t100.5 -139.5l-147 -49
q-11 54 -47.5 83.5t-101.5 29.5q-47 0 -87.5 -21t-69.5 -60t-45.5 -94t-16.5 -122q0 -87 38 -135t118 -48q29 0 57.5 8t52.5 24.5t40 41t21 58.5l4 27h-176z" />
    <glyph glyph-name="gcircumflex" unicode="&#x11d;" horiz-adv-x="602" 
d="M298 718h94l101 -130l-73 -60l-81 104l-117 -104l-62 64zM365 79q-23 -29 -59.5 -51t-87.5 -22q-41 0 -75.5 14.5t-59.5 41t-38.5 63.5t-13.5 83q0 63 20.5 114.5t55 89t80 58t94.5 20.5q57 0 93.5 -23t53.5 -58l12 67h139l-81 -461q-19 -106 -87.5 -167.5t-183.5 -61.5
q-104 0 -157 32.5t-69 87.5l135 49q8 -30 28 -46t66 -16q31 0 53 12t36.5 31.5t22.5 43.5t13 47zM395 249q6 34 0 58.5t-19 40.5t-32.5 23.5t-40.5 7.5q-28 0 -51.5 -13t-40 -36t-25.5 -53.5t-9 -65.5q0 -42 22.5 -68t67.5 -26q20 0 40 7t37.5 21.5t30.5 37.5t18 55z" />
    <glyph glyph-name="Gbreve" unicode="&#x11e;" horiz-adv-x="753" 
d="M400 911q-1 -27 16.5 -46t46.5 -19t50.5 19t28.5 46l103 -28q-21 -57 -71 -92t-117 -35q-70 0 -114 35.5t-46 91.5zM393 388h320l-69 -388h-136l13 72q-23 -33 -69.5 -59.5t-112.5 -26.5q-70 0 -122.5 25t-87 67.5t-51.5 98t-17 117.5q0 84 25.5 160.5t74 134t118 91.5
t158.5 34q119 0 194.5 -48.5t100.5 -139.5l-147 -49q-11 54 -47.5 83.5t-101.5 29.5q-47 0 -87.5 -21t-69.5 -60t-45.5 -94t-16.5 -122q0 -87 38 -135t118 -48q29 0 57.5 8t52.5 24.5t40 41t21 58.5l4 27h-176z" />
    <glyph glyph-name="gbreve" unicode="&#x11f;" horiz-adv-x="602" 
d="M262 704q-1 -27 16.5 -46t46.5 -19t50.5 19t28.5 46l103 -28q-21 -57 -71 -92t-117 -35q-70 0 -114 35.5t-46 91.5zM365 79q-23 -29 -59.5 -51t-87.5 -22q-41 0 -75.5 14.5t-59.5 41t-38.5 63.5t-13.5 83q0 63 20.5 114.5t55 89t80 58t94.5 20.5q57 0 93.5 -23t53.5 -58
l12 67h139l-81 -461q-19 -106 -87.5 -167.5t-183.5 -61.5q-104 0 -157 32.5t-69 87.5l135 49q8 -30 28 -46t66 -16q31 0 53 12t36.5 31.5t22.5 43.5t13 47zM395 249q6 34 0 58.5t-19 40.5t-32.5 23.5t-40.5 7.5q-28 0 -51.5 -13t-40 -36t-25.5 -53.5t-9 -65.5
q0 -42 22.5 -68t67.5 -26q20 0 40 7t37.5 21.5t30.5 37.5t18 55z" />
    <glyph glyph-name="Gdotaccent" unicode="&#x120;" horiz-adv-x="753" 
d="M378 846q0 37 24 60.5t63 23.5t63 -23.5t24 -60.5t-24 -60.5t-63 -23.5t-63 23.5t-24 60.5zM393 388h320l-69 -388h-136l13 72q-23 -33 -69.5 -59.5t-112.5 -26.5q-70 0 -122.5 25t-87 67.5t-51.5 98t-17 117.5q0 84 25.5 160.5t74 134t118 91.5t158.5 34
q119 0 194.5 -48.5t100.5 -139.5l-147 -49q-11 54 -47.5 83.5t-101.5 29.5q-47 0 -87.5 -21t-69.5 -60t-45.5 -94t-16.5 -122q0 -87 38 -135t118 -48q29 0 57.5 8t52.5 24.5t40 41t21 58.5l4 27h-176z" />
    <glyph glyph-name="gdotaccent" unicode="&#x121;" horiz-adv-x="602" 
d="M248 623q0 37 24 60.5t63 23.5t63 -23.5t24 -60.5t-24 -60.5t-63 -23.5t-63 23.5t-24 60.5zM365 79q-23 -29 -59.5 -51t-87.5 -22q-41 0 -75.5 14.5t-59.5 41t-38.5 63.5t-13.5 83q0 63 20.5 114.5t55 89t80 58t94.5 20.5q57 0 93.5 -23t53.5 -58l12 67h139l-81 -461
q-19 -106 -87.5 -167.5t-183.5 -61.5q-104 0 -157 32.5t-69 87.5l135 49q8 -30 28 -46t66 -16q31 0 53 12t36.5 31.5t22.5 43.5t13 47zM395 249q6 34 0 58.5t-19 40.5t-32.5 23.5t-40.5 7.5q-28 0 -51.5 -13t-40 -36t-25.5 -53.5t-9 -65.5q0 -42 22.5 -68t67.5 -26
q20 0 40 7t37.5 21.5t30.5 37.5t18 55z" />
    <glyph glyph-name="Gcommaaccent" unicode="&#x122;" horiz-adv-x="753" 
d="M393 388h320l-69 -388h-136l13 72q-23 -33 -69.5 -59.5t-112.5 -26.5q-70 0 -122.5 25t-87 67.5t-51.5 98t-17 117.5q0 84 25.5 160.5t74 134t118 91.5t158.5 34q119 0 194.5 -48.5t100.5 -139.5l-147 -49q-11 54 -47.5 83.5t-101.5 29.5q-47 0 -87.5 -21t-69.5 -60
t-45.5 -94t-16.5 -122q0 -87 38 -135t118 -48q29 0 57.5 8t52.5 24.5t40 41t21 58.5l4 27h-176zM384 -151q0 -23 -8.5 -48.5t-27.5 -46.5t-49.5 -35.5t-73.5 -15.5l-12 52q13 -1 28 2.5t28.5 10.5t22.5 16.5t11 21.5q-8 -4 -19 -4q-21 0 -40.5 15t-19.5 50q0 13 5 27.5
t15 26t25 19t35 7.5q22 0 37 -8.5t24.5 -22t14 -31.5t4.5 -36z" />
    <glyph glyph-name="gcommaaccent" unicode="&#x123;" horiz-adv-x="602" 
d="M252 625q0 22 8.5 47t27.5 46t49.5 35.5t73.5 15.5l12 -52q-13 1 -28 -2.5t-28 -10t-22.5 -16t-10.5 -21.5q9 3 16 3q27 0 44.5 -19t17.5 -49q0 -13 -5 -26.5t-15 -25t-25 -18.5t-35 -7q-22 0 -37 8.5t-24.5 22.5t-14 32t-4.5 37zM365 79q-23 -29 -59.5 -51t-87.5 -22
q-41 0 -75.5 14.5t-59.5 41t-38.5 63.5t-13.5 83q0 63 20.5 114.5t55 89t80 58t94.5 20.5q57 0 93.5 -23t53.5 -58l12 67h139l-81 -461q-19 -106 -87.5 -167.5t-183.5 -61.5q-104 0 -157 32.5t-69 87.5l135 49q8 -30 28 -46t66 -16q31 0 53 12t36.5 31.5t22.5 43.5t13 47z
M395 249q6 34 0 58.5t-19 40.5t-32.5 23.5t-40.5 7.5q-28 0 -51.5 -13t-40 -36t-25.5 -53.5t-9 -65.5q0 -42 22.5 -68t67.5 -26q20 0 40 7t37.5 21.5t30.5 37.5t18 55z" />
    <glyph glyph-name="Hcircumflex" unicode="&#x124;" horiz-adv-x="709" 
d="M415 925h110l94 -118l-72 -60l-84 102l-125 -105l-60 68zM153 700h150l-48 -277h265l48 277h150l-123 -700h-150l52 297h-265l-52 -297h-150z" />
    <glyph glyph-name="hcircumflex" unicode="&#x125;" horiz-adv-x="578" 
d="M198 925h110l94 -118l-72 -60l-84 102l-125 -105l-60 68zM145 700h144l-51 -290q23 33 61.5 56.5t89.5 23.5q36 0 66 -10.5t50 -32t28 -55.5t0 -81l-55 -311h-144l50 283q9 51 -9.5 70t-53.5 19q-15 0 -32 -7t-33 -22.5t-28.5 -40.5t-18.5 -60l-43 -242h-144z" />
    <glyph glyph-name="Hbar" unicode="&#x126;" horiz-adv-x="709" 
d="M117 496h-66l20 111h65l17 93h150l-16 -93h265l16 93h150l-17 -93h67l-20 -111h-66l-87 -496h-150l52 297h-265l-52 -297h-150zM520 423l12 73h-265l-12 -73h265z" />
    <glyph glyph-name="hbar" unicode="&#x127;" horiz-adv-x="578" 
d="M117 541h-56l19 106h55l10 53h144l-10 -53h152l-19 -106h-151l-23 -131q23 33 61.5 56.5t89.5 23.5q36 0 66 -10.5t50 -32t28 -55.5t0 -81l-55 -311h-144l50 283q9 51 -9.5 70t-53.5 19q-15 0 -32 -7t-33 -22.5t-28.5 -40.5t-18.5 -60l-43 -242h-144z" />
    <glyph glyph-name="Itilde" unicode="&#x128;" horiz-adv-x="294" 
d="M173 910q28 0 48 -9t36 -19.5t29.5 -19t29.5 -8.5q15 0 26.5 8t19.5 18q9 11 15 27l65 -59q-14 -25 -34 -43q-17 -16 -42.5 -29t-60.5 -13q-28 0 -47 8.5t-34 19t-29 19t-31 8.5t-28.5 -8t-19.5 -18q-9 -11 -15 -25l-64 60q14 23 33 41q17 16 42.5 29t60.5 13zM153 700
h150l-123 -700h-150z" />
    <glyph glyph-name="itilde" unicode="&#x129;" horiz-adv-x="272" 
d="M123 690q28 0 48 -9t36 -19.5t29.5 -19t29.5 -8.5q15 0 26.5 8t19.5 18q9 11 15 27l65 -59q-14 -25 -34 -43q-17 -16 -42.5 -29t-60.5 -13q-28 0 -47 8.5t-34 19t-29 19t-31 8.5t-28.5 -8t-19.5 -18q-9 -11 -15 -25l-64 60q14 23 33 41q17 16 42.5 29t60.5 13zM106 476
h144l-84 -476h-144z" />
    <glyph glyph-name="Imacron" unicode="&#x12a;" horiz-adv-x="294" 
d="M108 864h289l-16 -91h-289zM153 700h150l-123 -700h-150z" />
    <glyph glyph-name="imacron" unicode="&#x12b;" horiz-adv-x="272" 
d="M61 641h289l-16 -91h-289zM106 476h144l-84 -476h-144z" />
    <glyph glyph-name="Ibreve" unicode="&#x12c;" horiz-adv-x="294" 
d="M185 911q-1 -27 16.5 -46t46.5 -19t50.5 19t28.5 46l103 -28q-21 -57 -71 -92t-117 -35q-70 0 -114 35.5t-46 91.5zM153 700h150l-123 -700h-150z" />
    <glyph glyph-name="ibreve" unicode="&#x12d;" horiz-adv-x="272" 
d="M137 704q-1 -27 16.5 -46t46.5 -19t50.5 19t28.5 46l103 -28q-21 -57 -71 -92t-117 -35q-70 0 -114 35.5t-46 91.5zM106 476h144l-84 -476h-144z" />
    <glyph glyph-name="Iogonek" unicode="&#x12e;" horiz-adv-x="294" 
d="M54 -96q0 -13 10 -22t30 -9q12 0 29.5 7.5t29.5 26.5l56 -55q-30 -34 -65.5 -47.5t-74.5 -13.5q-54 0 -85.5 24.5t-31.5 66.5q0 40 19.5 66t58.5 52l123 700h150l-123 -700q-63 -23 -94.5 -48t-31.5 -48z" />
    <glyph glyph-name="iogonek" unicode="&#x12f;" horiz-adv-x="272" 
d="M115 629q0 38 24 61.5t62 23.5t62 -23.5t24 -61.5q0 -35 -22.5 -59t-63.5 -24t-63.5 24t-22.5 59zM44 -96q0 -13 10 -22t30 -9q12 0 29.5 7.5t29.5 26.5l56 -55q-30 -34 -65.5 -47.5t-74.5 -13.5q-54 0 -85.5 24.5t-31.5 66.5q0 40 19.5 66t60.5 52l84 476h144l-84 -476
q-122 -47 -122 -96z" />
    <glyph glyph-name="Idotaccent" unicode="&#x130;" horiz-adv-x="294" 
d="M163 846q0 37 24 60.5t63 23.5t63 -23.5t24 -60.5t-24 -60.5t-63 -23.5t-63 23.5t-24 60.5zM153 700h150l-123 -700h-150z" />
    <glyph glyph-name="dotlessi" unicode="&#x131;" horiz-adv-x="272" 
d="M106 476h144l-84 -476h-144z" />
    <glyph glyph-name="IJ" unicode="&#x132;" horiz-adv-x="759" 
d="M448 111q42 0 61 30t30 90l83 469h150l-83 -469q-10 -55 -25 -100t-41.5 -77.5t-68.5 -50t-106 -17.5q-44 0 -77 7.5t-57 20t-41 28.5t-29 34l114 92q20 -26 39 -41.5t51 -15.5zM153 700h150l-123 -700h-150z" />
    <glyph glyph-name="ij" unicode="&#x133;" horiz-adv-x="548" 
d="M391 629q0 38 24 61.5t62 23.5t62 -23.5t24 -61.5q0 -35 -22.5 -59t-63.5 -24t-63.5 24t-22.5 59zM115 629q0 38 24 61.5t62 23.5t62 -23.5t24 -61.5q0 -35 -22.5 -59t-63.5 -24t-63.5 24t-22.5 59zM382 476h144l-91 -518q-8 -44 -26.5 -76.5t-45 -53.5t-59.5 -31.5
t-69 -10.5q-43 0 -77 12t-55 30l70 99q9 -9 24 -17t32 -8q23 0 40.5 16.5t22.5 47.5zM106 476h144l-84 -476h-144z" />
    <glyph glyph-name="Jcircumflex" unicode="&#x134;" horiz-adv-x="490" 
d="M409 925h110l94 -118l-72 -60l-84 102l-125 -105l-60 68zM179 111q42 0 61 30t30 90l83 469h150l-83 -469q-10 -55 -25 -100t-41.5 -77.5t-68.5 -50t-106 -17.5q-44 0 -77 7.5t-57 20t-41 28.5t-29 34l114 92q20 -26 39 -41.5t51 -15.5z" />
    <glyph glyph-name="jcircumflex" unicode="&#x135;" horiz-adv-x="276" 
d="M167 718h94l101 -130l-73 -60l-81 104l-117 -104l-62 64zM110 476h144l-91 -518q-8 -44 -26.5 -76.5t-45 -53.5t-59.5 -31.5t-69 -10.5q-43 0 -77 12t-55 30l70 99q9 -9 24 -17t32 -8q23 0 40.5 16.5t22.5 47.5z" />
    <glyph glyph-name="Kcommaaccent" unicode="&#x136;" horiz-adv-x="670" 
d="M295 311l-72 -69l-43 -242h-150l123 700h150l-47 -269l280 269h177l-299 -285l200 -415h-173zM357 -151q0 -23 -8.5 -48.5t-27.5 -46.5t-49.5 -35.5t-73.5 -15.5l-12 52q13 -1 28 2.5t28.5 10.5t22.5 16.5t11 21.5q-8 -4 -19 -4q-21 0 -40.5 15t-19.5 50q0 13 5 27.5
t15 26t25 19t35 7.5q22 0 37 -8.5t24.5 -22t14 -31.5t4.5 -36z" />
    <glyph glyph-name="kcommaaccent" unicode="&#x137;" horiz-adv-x="563" 
d="M248 216l-51 -40l-31 -176h-144l123 700h144l-65 -370l183 146h175l-222 -178l156 -298h-159zM314 -151q0 -23 -8.5 -48.5t-27.5 -46.5t-49.5 -35.5t-73.5 -15.5l-12 52q13 -1 28 2.5t28.5 10.5t22.5 16.5t11 21.5q-8 -4 -19 -4q-21 0 -40.5 15t-19.5 50q0 13 5 27.5
t15 26t25 19t35 7.5q22 0 37 -8.5t24.5 -22t14 -31.5t4.5 -36z" />
    <glyph glyph-name="kgreenlandic" unicode="&#x138;" horiz-adv-x="563" 
d="M250 476l-26 -146l183 146h175l-222 -178l156 -298h-159l-109 216l-51 -40l-31 -176h-144l84 476h144z" />
    <glyph glyph-name="Lacute" unicode="&#x139;" horiz-adv-x="546" 
d="M432 855l-240 -107l-32 82l229 133zM153 700h150l-101 -575h306l-22 -125h-456z" />
    <glyph glyph-name="lacute" unicode="&#x13a;" horiz-adv-x="272" 
d="M367 855l-240 -107l-32 82l229 133zM145 700h144l-123 -700h-144z" />
    <glyph glyph-name="Lcommaaccent" unicode="&#x13b;" horiz-adv-x="546" 
d="M153 700h150l-101 -575h306l-22 -125h-456zM300 -151q0 -23 -8.5 -48.5t-27.5 -46.5t-49.5 -35.5t-73.5 -15.5l-12 52q13 -1 28 2.5t28.5 10.5t22.5 16.5t11 21.5q-8 -4 -19 -4q-21 0 -40.5 15t-19.5 50q0 13 5 27.5t15 26t25 19t35 7.5q22 0 37 -8.5t24.5 -22t14 -31.5
t4.5 -36z" />
    <glyph glyph-name="lcommaaccent" unicode="&#x13c;" horiz-adv-x="272" 
d="M145 700h144l-123 -700h-144zM154 -151q0 -23 -8.5 -48.5t-27.5 -46.5t-49.5 -35.5t-73.5 -15.5l-12 52q13 -1 28 2.5t28.5 10.5t22.5 16.5t11 21.5q-8 -4 -19 -4q-21 0 -40.5 15t-19.5 50q0 13 5 27.5t15 26t25 19t35 7.5q22 0 37 -8.5t24.5 -22t14 -31.5t4.5 -36z" />
    <glyph glyph-name="Lcaron" unicode="&#x13d;" horiz-adv-x="546" 
d="M521 723l-100 -192l-80 24l78 200zM153 700h150l-101 -575h306l-22 -125h-456z" />
    <glyph glyph-name="lcaron" unicode="&#x13e;" horiz-adv-x="272" 
d="M499 723l-100 -192l-80 24l78 200zM145 700h144l-123 -700h-144z" />
    <glyph glyph-name="Ldot" unicode="&#x13f;" horiz-adv-x="546" 
d="M153 700h150l-101 -575h306l-22 -125h-456zM336 370q0 37 24 60.5t63 23.5t63 -23.5t24 -60.5t-24 -60.5t-63 -23.5t-63 23.5t-24 60.5z" />
    <glyph glyph-name="ldot" unicode="&#x140;" horiz-adv-x="451" 
d="M145 700h144l-123 -700h-144zM266 350q0 37 24 60.5t63 23.5t63 -23.5t24 -60.5t-24 -60.5t-63 -23.5t-63 23.5t-24 60.5z" />
    <glyph glyph-name="Lslash" unicode="&#x141;" horiz-adv-x="572" 
d="M95 222l-62 -32l-38 102l123 63l61 345h150l-46 -261l129 66l36 -102l-188 -97l-32 -181h306l-22 -125h-456z" />
    <glyph glyph-name="lslash" unicode="&#x142;" horiz-adv-x="355" 
d="M109 262l-60 -31l-36 97l118 60l55 312h144l-41 -230l79 40l36 -97l-137 -70l-60 -343h-144z" />
    <glyph glyph-name="Nacute" unicode="&#x143;" horiz-adv-x="729" 
d="M617 855l-240 -107l-32 82l229 133zM153 700h153q45 -101 85 -191q17 -39 34.5 -78.5t34 -76.5t30 -68t22.5 -52h3l81 466h142l-123 -700h-153q-43 98 -83 188q-17 38 -34.5 78t-33.5 77t-30 68.5t-24 54.5h-3l-82 -466h-142z" />
    <glyph glyph-name="nacute" unicode="&#x144;" horiz-adv-x="578" 
d="M509 639l-240 -107l-32 82l229 133zM106 476h139l-13 -74q27 41 66.5 64.5t90.5 23.5q36 0 66 -10.5t50 -32t28 -55.5t0 -81l-55 -311h-144l50 282q9 51 -9 70.5t-54 19.5q-15 0 -32 -7t-33 -22.5t-28.5 -40.5t-18.5 -60l-43 -242h-144z" />
    <glyph glyph-name="Ncommaaccent" unicode="&#x145;" horiz-adv-x="729" 
d="M153 700h153q45 -101 85 -191q17 -39 34.5 -78.5t34 -76.5t30 -68t22.5 -52h3l81 466h142l-123 -700h-153q-43 98 -83 188q-17 38 -34.5 78t-33.5 77t-30 68.5t-24 54.5h-3l-82 -466h-142zM389 -151q0 -23 -8.5 -48.5t-27.5 -46.5t-49.5 -35.5t-73.5 -15.5l-12 52
q13 -1 28 2.5t28.5 10.5t22.5 16.5t11 21.5q-8 -4 -19 -4q-21 0 -40.5 15t-19.5 50q0 13 5 27.5t15 26t25 19t35 7.5q22 0 37 -8.5t24.5 -22t14 -31.5t4.5 -36z" />
    <glyph glyph-name="ncommaaccent" unicode="&#x146;" horiz-adv-x="578" 
d="M106 476h139l-13 -74q27 41 66.5 64.5t90.5 23.5q36 0 66 -10.5t50 -32t28 -55.5t0 -81l-55 -311h-144l50 282q9 51 -9 70.5t-54 19.5q-15 0 -32 -7t-33 -22.5t-28.5 -40.5t-18.5 -60l-43 -242h-144zM316 -151q0 -23 -8.5 -48.5t-27.5 -46.5t-49.5 -35.5t-73.5 -15.5
l-12 52q13 -1 28 2.5t28.5 10.5t22.5 16.5t11 21.5q-8 -4 -19 -4q-21 0 -40.5 15t-19.5 50q0 13 5 27.5t15 26t25 19t35 7.5q22 0 37 -8.5t24.5 -22t14 -31.5t4.5 -36z" />
    <glyph glyph-name="Ncaron" unicode="&#x147;" horiz-adv-x="729" 
d="M495 750h-110l-94 118l72 60l84 -102l125 105l60 -68zM153 700h153q45 -101 85 -191q17 -39 34.5 -78.5t34 -76.5t30 -68t22.5 -52h3l81 466h142l-123 -700h-153q-43 98 -83 188q-17 38 -34.5 78t-33.5 77t-30 68.5t-24 54.5h-3l-82 -466h-142z" />
    <glyph glyph-name="ncaron" unicode="&#x148;" horiz-adv-x="578" 
d="M385 534h-94l-98 130l74 60l78 -104l117 104l61 -64zM106 476h139l-13 -74q27 41 66.5 64.5t90.5 23.5q36 0 66 -10.5t50 -32t28 -55.5t0 -81l-55 -311h-144l50 282q9 51 -9 70.5t-54 19.5q-15 0 -32 -7t-33 -22.5t-28.5 -40.5t-18.5 -60l-43 -242h-144z" />
    <glyph glyph-name="Eng" unicode="&#x14a;" horiz-adv-x="729" 
d="M385 -92q35 0 52 25t25 61l2 9q-44 97 -84 186q-17 38 -34.5 77.5t-34 76t-30.5 68t-24 54.5h-3l-82 -465h-142l123 700h153q45 -101 85 -191q17 -38 34.5 -78t34 -76.5t30 -67.5t22.5 -52h3l81 465h142l-125 -709q-8 -45 -23.5 -83t-42.5 -65t-67 -42t-97 -15
q-37 0 -64 6t-47 16.5t-35 25t-27 31.5l105 92q15 -23 31 -36t39 -13z" />
    <glyph glyph-name="eng" unicode="&#x14b;" horiz-adv-x="578" 
d="M384 283q9 51 -9.5 70t-53.5 19q-15 0 -32 -7t-33 -22.5t-28.5 -40.5t-18.5 -60l-43 -242h-144l84 476h139l-13 -74q27 41 66.5 64.5t90.5 23.5q36 0 66 -10.5t50 -32t28 -55.5t0 -81l-62 -353q-8 -44 -26.5 -76.5t-45 -53.5t-59.5 -31.5t-69 -10.5q-43 0 -77 12t-55 30
l70 99q9 -9 24 -17t32 -8q23 0 40.5 16.5t22.5 47.5z" />
    <glyph glyph-name="Omacron" unicode="&#x14c;" horiz-adv-x="765" 
d="M332 864h289l-16 -91h-289zM370 -14q-69 0 -125.5 20.5t-97 60.5t-62.5 97t-22 131q0 90 26 166.5t74.5 133t117.5 88t154 31.5q69 0 125.5 -20.5t97 -60.5t62.5 -97.5t22 -130.5q0 -90 -26 -166.5t-74.5 -133t-117.5 -88t-154 -31.5zM218 295q0 -36 9 -69.5t28.5 -59
t48.5 -41t70 -15.5q55 0 95.5 28t66.5 71t38.5 95.5t12.5 100.5q0 36 -9.5 69.5t-28.5 59t-49 41t-70 15.5q-56 0 -96 -28t-65.5 -71t-38 -95.5t-12.5 -100.5z" />
    <glyph glyph-name="omacron" unicode="&#x14d;" horiz-adv-x="564" 
d="M196 641h289l-16 -91h-289zM259 -14q-48 0 -90 13t-72.5 40t-48.5 68t-18 97t19.5 108t55 91.5t86 63t112.5 23.5q46 0 87.5 -13.5t73.5 -40.5t51 -68t19 -96q0 -57 -19.5 -109t-55.5 -91t-86.5 -62.5t-113.5 -23.5zM175 198q0 -21 4.5 -40t15 -33t27.5 -22.5t42 -8.5
q33 0 56.5 17t38.5 43.5t22.5 59t7.5 64.5q0 21 -5 40t-15.5 33.5t-27.5 22.5t-41 8q-33 0 -56.5 -17t-38.5 -43.5t-22.5 -59.5t-7.5 -64z" />
    <glyph glyph-name="Obreve" unicode="&#x14e;" horiz-adv-x="765" 
d="M396 911q-1 -27 16.5 -46t46.5 -19t50.5 19t28.5 46l103 -28q-21 -57 -71 -92t-117 -35q-70 0 -114 35.5t-46 91.5zM370 -14q-69 0 -125.5 20.5t-97 60.5t-62.5 97t-22 131q0 90 26 166.5t74.5 133t117.5 88t154 31.5q69 0 125.5 -20.5t97 -60.5t62.5 -97.5t22 -130.5
q0 -90 -26 -166.5t-74.5 -133t-117.5 -88t-154 -31.5zM218 295q0 -36 9 -69.5t28.5 -59t48.5 -41t70 -15.5q55 0 95.5 28t66.5 71t38.5 95.5t12.5 100.5q0 36 -9.5 69.5t-28.5 59t-49 41t-70 15.5q-56 0 -96 -28t-65.5 -71t-38 -95.5t-12.5 -100.5z" />
    <glyph glyph-name="obreve" unicode="&#x14f;" horiz-adv-x="564" 
d="M281 704q-1 -27 16.5 -46t46.5 -19t50.5 19t28.5 46l103 -28q-21 -57 -71 -92t-117 -35q-70 0 -114 35.5t-46 91.5zM259 -14q-48 0 -90 13t-72.5 40t-48.5 68t-18 97t19.5 108t55 91.5t86 63t112.5 23.5q46 0 87.5 -13.5t73.5 -40.5t51 -68t19 -96q0 -57 -19.5 -109
t-55.5 -91t-86.5 -62.5t-113.5 -23.5zM175 198q0 -21 4.5 -40t15 -33t27.5 -22.5t42 -8.5q33 0 56.5 17t38.5 43.5t22.5 59t7.5 64.5q0 21 -5 40t-15.5 33.5t-27.5 22.5t-41 8q-33 0 -56.5 -17t-38.5 -43.5t-22.5 -59.5t-7.5 -64z" />
    <glyph glyph-name="Ohungarumlaut" unicode="&#x150;" horiz-adv-x="765" 
d="M798 882l-234 -134l-40 76l220 157zM528 882l-234 -134l-40 76l220 157zM370 -14q-69 0 -125.5 20.5t-97 60.5t-62.5 97t-22 131q0 90 26 166.5t74.5 133t117.5 88t154 31.5q69 0 125.5 -20.5t97 -60.5t62.5 -97.5t22 -130.5q0 -90 -26 -166.5t-74.5 -133t-117.5 -88
t-154 -31.5zM218 295q0 -36 9 -69.5t28.5 -59t48.5 -41t70 -15.5q55 0 95.5 28t66.5 71t38.5 95.5t12.5 100.5q0 36 -9.5 69.5t-28.5 59t-49 41t-70 15.5q-56 0 -96 -28t-65.5 -71t-38 -95.5t-12.5 -100.5z" />
    <glyph glyph-name="ohungarumlaut" unicode="&#x151;" horiz-adv-x="564" 
d="M670 666l-234 -134l-40 76l220 157zM400 666l-234 -134l-40 76l220 157zM259 -14q-48 0 -90 13t-72.5 40t-48.5 68t-18 97t19.5 108t55 91.5t86 63t112.5 23.5q46 0 87.5 -13.5t73.5 -40.5t51 -68t19 -96q0 -57 -19.5 -109t-55.5 -91t-86.5 -62.5t-113.5 -23.5zM175 198
q0 -21 4.5 -40t15 -33t27.5 -22.5t42 -8.5q33 0 56.5 17t38.5 43.5t22.5 59t7.5 64.5q0 21 -5 40t-15.5 33.5t-27.5 22.5t-41 8q-33 0 -56.5 -17t-38.5 -43.5t-22.5 -59.5t-7.5 -64z" />
    <glyph glyph-name="OE" unicode="&#x152;" horiz-adv-x="1083" 
d="M353 -14q-65 0 -118.5 21.5t-92 61t-60 97t-21.5 129.5q0 87 26 163.5t74 133.5t114.5 89.5t147.5 32.5q78 0 129 -24.5t79 -59.5l12 70h476l-21 -124h-325l-28 -154h302l-21 -124h-302l-31 -174h330l-22 -124h-481l12 67q-23 -32 -66 -56.5t-113 -24.5zM216 295
q0 -36 9.5 -69t29.5 -59t49.5 -41.5t70.5 -15.5q46 0 81 19t60 50.5t40 70.5t22 80l6 36q8 47 1 88t-27.5 71t-52.5 47.5t-75 17.5q-56 0 -96.5 -28t-66.5 -71t-38.5 -95t-12.5 -101z" />
    <glyph glyph-name="oe" unicode="&#x153;" horiz-adv-x="883" 
d="M259 -14q-48 0 -90 13t-72.5 40t-48.5 68t-18 97t19.5 108t55 91.5t86 63t112.5 23.5q50 0 94 -18t76 -53q33 33 77 52t97 19q63 0 107 -22t69 -58t32.5 -83t-2.5 -96q-1 -4 -2 -9l-2 -10q-2 -5 -3 -11h-329q-3 -21 1 -40.5t14.5 -34.5t28.5 -24.5t45 -9.5q40 0 61.5 17
t34.5 39l118 -51q-32 -52 -86.5 -81.5t-127.5 -29.5q-53 0 -97.5 16.5t-74.5 51.5q-34 -32 -77.5 -50t-97.5 -18zM645 389q-49 0 -76 -28t-38 -73h188q7 50 -13.5 75.5t-60.5 25.5zM175 198q0 -21 4.5 -40t15 -33t27.5 -22.5t42 -8.5q33 0 57 17t39.5 43.5t23 59t7.5 64.5
q0 43 -21 73.5t-70 30.5q-33 0 -56.5 -17t-38.5 -43.5t-22.5 -59.5t-7.5 -64z" />
    <glyph glyph-name="Racute" unicode="&#x154;" horiz-adv-x="656" 
d="M568 855l-240 -107l-32 82l229 133zM644 509q0 -40 -12 -76t-34.5 -66t-56 -51.5t-75.5 -32.5l110 -283h-157l-99 265h-94l-47 -265h-149l123 700h252q55 0 99 -12t75 -35.5t48 -59.5t17 -84zM488 500q0 45 -27.5 60.5t-90.5 15.5h-89l-34 -189h92q78 0 113.5 31t35.5 82
z" />
    <glyph glyph-name="racute" unicode="&#x155;" horiz-adv-x="407" 
d="M462 639l-240 -107l-32 82l229 133zM395 349q-10 9 -23.5 11.5t-27.5 2.5q-19 0 -40.5 -7t-41 -23.5t-35 -44t-22.5 -67.5l-39 -221h-144l84 476h135l-14 -82q24 43 60 69.5t90 26.5q16 0 33.5 -3t32.5 -11z" />
    <glyph glyph-name="Rcommaaccent" unicode="&#x156;" horiz-adv-x="656" 
d="M644 509q0 -40 -12 -76t-34.5 -66t-56 -51.5t-75.5 -32.5l110 -283h-157l-99 265h-94l-47 -265h-149l123 700h252q55 0 99 -12t75 -35.5t48 -59.5t17 -84zM488 500q0 45 -27.5 60.5t-90.5 15.5h-89l-34 -189h92q78 0 113.5 31t35.5 82zM348 -151q0 -23 -8.5 -48.5
t-27.5 -46.5t-49.5 -35.5t-73.5 -15.5l-12 52q13 -1 28 2.5t28.5 10.5t22.5 16.5t11 21.5q-8 -4 -19 -4q-21 0 -40.5 15t-19.5 50q0 13 5 27.5t15 26t25 19t35 7.5q22 0 37 -8.5t24.5 -22t14 -31.5t4.5 -36z" />
    <glyph glyph-name="rcommaaccent" unicode="&#x157;" horiz-adv-x="407" 
d="M395 349q-10 9 -23.5 11.5t-27.5 2.5q-19 0 -40.5 -7t-41 -23.5t-35 -44t-22.5 -67.5l-39 -221h-144l84 476h135l-14 -82q24 43 60 69.5t90 26.5q16 0 33.5 -3t32.5 -11zM153 -151q0 -23 -8.5 -48.5t-27.5 -46.5t-49.5 -35.5t-73.5 -15.5l-12 52q13 -1 28 2.5t28.5 10.5
t22.5 16.5t11 21.5q-8 -4 -19 -4q-21 0 -40.5 15t-19.5 50q0 13 5 27.5t15 26t25 19t35 7.5q22 0 37 -8.5t24.5 -22t14 -31.5t4.5 -36z" />
    <glyph glyph-name="Rcaron" unicode="&#x158;" horiz-adv-x="656" 
d="M457 750h-110l-94 118l72 60l84 -102l125 105l60 -68zM644 509q0 -40 -12 -76t-34.5 -66t-56 -51.5t-75.5 -32.5l110 -283h-157l-99 265h-94l-47 -265h-149l123 700h252q55 0 99 -12t75 -35.5t48 -59.5t17 -84zM488 500q0 45 -27.5 60.5t-90.5 15.5h-89l-34 -189h92
q78 0 113.5 31t35.5 82z" />
    <glyph glyph-name="rcaron" unicode="&#x159;" horiz-adv-x="407" 
d="M330 534h-94l-98 130l74 60l78 -104l117 104l61 -64zM395 349q-10 9 -23.5 11.5t-27.5 2.5q-19 0 -40.5 -7t-41 -23.5t-35 -44t-22.5 -67.5l-39 -221h-144l84 476h135l-14 -82q24 43 60 69.5t90 26.5q16 0 33.5 -3t32.5 -11z" />
    <glyph glyph-name="Sacute" unicode="&#x15a;" horiz-adv-x="657" 
d="M571 855l-240 -107l-32 82l229 133zM260 513q0 -21 9 -36t26 -26t41 -19.5t55 -16.5q52 -14 92.5 -30t68.5 -38.5t42.5 -53.5t14.5 -74q0 -53 -22.5 -96t-62 -73.5t-93.5 -47t-118 -16.5q-72 0 -125.5 19.5t-88.5 50.5t-51.5 70.5t-15.5 80.5l151 23q-2 -23 5 -45t23 -39
t43 -28t66 -11q20 0 43.5 4t43.5 14.5t33.5 29t13.5 47.5q0 18 -6.5 30.5t-23.5 23t-46 20.5t-73 22q-57 15 -95.5 34t-61.5 42.5t-33 52t-10 64.5q0 52 20 93t56 70t87 44.5t113 15.5q64 0 115 -15t86.5 -42t55.5 -64t22 -82l-153 -28q2 51 -32 80.5t-102 29.5
q-55 0 -84 -21.5t-29 -58.5z" />
    <glyph glyph-name="sacute" unicode="&#x15b;" horiz-adv-x="488" 
d="M449 639l-240 -107l-32 82l229 133zM271 389q-28 0 -47 -11.5t-19 -34.5q0 -24 21.5 -33.5t55.5 -18.5q30 -8 58.5 -17.5t51 -25t36 -38.5t13.5 -58q0 -39 -16 -70t-45.5 -52t-69.5 -32.5t-88 -11.5q-38 0 -75.5 7t-68 24t-49.5 45.5t-20 70.5l134 17q-2 -17 5 -29
t19 -19.5t27.5 -11t31.5 -3.5q32 0 51 13t19 36q0 14 -7.5 23t-21 15t-32 10t-40.5 10q-27 7 -51.5 17t-43 25.5t-29.5 37t-11 53.5q0 40 17 70.5t46 51t67.5 31t82.5 10.5q46 0 84 -10.5t64 -28.5t40 -43t14 -54l-133 -22q0 25 -17.5 41t-53.5 16z" />
    <glyph glyph-name="Scircumflex" unicode="&#x15c;" horiz-adv-x="657" 
d="M371 925h110l94 -118l-72 -60l-84 102l-125 -105l-60 68zM260 513q0 -21 9 -36t26 -26t41 -19.5t55 -16.5q52 -14 92.5 -30t68.5 -38.5t42.5 -53.5t14.5 -74q0 -53 -22.5 -96t-62 -73.5t-93.5 -47t-118 -16.5q-72 0 -125.5 19.5t-88.5 50.5t-51.5 70.5t-15.5 80.5l151 23
q-2 -23 5 -45t23 -39t43 -28t66 -11q20 0 43.5 4t43.5 14.5t33.5 29t13.5 47.5q0 18 -6.5 30.5t-23.5 23t-46 20.5t-73 22q-57 15 -95.5 34t-61.5 42.5t-33 52t-10 64.5q0 52 20 93t56 70t87 44.5t113 15.5q64 0 115 -15t86.5 -42t55.5 -64t22 -82l-153 -28q2 51 -32 80.5
t-102 29.5q-55 0 -84 -21.5t-29 -58.5z" />
    <glyph glyph-name="scircumflex" unicode="&#x15d;" horiz-adv-x="488" 
d="M269 718h94l101 -130l-73 -60l-81 104l-117 -104l-62 64zM271 389q-28 0 -47 -11.5t-19 -34.5q0 -24 21.5 -33.5t55.5 -18.5q30 -8 58.5 -17.5t51 -25t36 -38.5t13.5 -58q0 -39 -16 -70t-45.5 -52t-69.5 -32.5t-88 -11.5q-38 0 -75.5 7t-68 24t-49.5 45.5t-20 70.5
l134 17q-2 -17 5 -29t19 -19.5t27.5 -11t31.5 -3.5q32 0 51 13t19 36q0 14 -7.5 23t-21 15t-32 10t-40.5 10q-27 7 -51.5 17t-43 25.5t-29.5 37t-11 53.5q0 40 17 70.5t46 51t67.5 31t82.5 10.5q46 0 84 -10.5t64 -28.5t40 -43t14 -54l-133 -22q0 25 -17.5 41t-53.5 16z" />
    <glyph glyph-name="Scedilla" unicode="&#x15e;" horiz-adv-x="657" 
d="M296 -45q32 0 54.5 -20.5t22.5 -61.5q0 -27 -11 -47.5t-29 -34.5t-41.5 -21.5t-49.5 -7.5q-39 0 -61 12t-31 22l44 53q6 -9 20 -15.5t31 -6.5q21 0 33 12t12 29q0 15 -10 22t-24 7t-25 -4.5t-17 -10.5l-30 36l47 76q-51 10 -89 31.5t-62.5 50.5t-36.5 63t-11 68l151 23
q-2 -23 5 -45t23 -39t43 -28t66 -11q20 0 43.5 4t43.5 14.5t33.5 29t13.5 47.5q0 18 -6.5 30.5t-23.5 23t-46 20.5t-73 22q-57 15 -95.5 34t-61.5 42.5t-33 52t-10 64.5q0 52 20 93t56 70t87 44.5t113 15.5q64 0 115 -15t86.5 -42t55.5 -64t22 -82l-153 -28q2 51 -32 80.5
t-102 29.5q-55 0 -84 -21.5t-29 -58.5q0 -21 9 -36t26 -26t41 -19.5t55 -16.5q52 -14 92.5 -30t68.5 -38.5t42.5 -53.5t14.5 -74q0 -53 -22.5 -96t-62 -73.5t-93.5 -47t-118 -16.5h-10.5t-10.5 1l-22 -37q5 2 11 3.5t15 1.5z" />
    <glyph glyph-name="scedilla" unicode="&#x15f;" horiz-adv-x="488" 
d="M216 -45q32 0 54.5 -20.5t22.5 -61.5q0 -27 -11 -47.5t-29 -34.5t-41.5 -21.5t-49.5 -7.5q-39 0 -61 12t-31 22l44 53q6 -9 20 -15.5t31 -6.5q21 0 33 12t12 29q0 15 -10 22t-24 7t-25 -4.5t-17 -10.5l-30 36l46 75q-28 5 -53.5 15.5t-45 27.5t-31 41t-11.5 56l134 17
q-2 -17 5 -29t19 -19.5t27.5 -11t31.5 -3.5q32 0 51 13t19 36q0 14 -7.5 23t-21 15t-32 10t-40.5 10q-27 7 -51.5 17t-43 25.5t-29.5 37t-11 53.5q0 40 17 70.5t46 51t67.5 31t82.5 10.5q46 0 84 -10.5t64 -28.5t40 -43t14 -54l-133 -22q0 25 -17.5 41t-53.5 16
q-28 0 -47 -11.5t-19 -34.5q0 -24 21.5 -33.5t55.5 -18.5q30 -8 58.5 -17.5t51 -25t36 -38.5t13.5 -58q0 -39 -16 -70t-45.5 -52t-69.5 -32.5t-88 -11.5h-10l-22 -36q5 2 11 3.5t15 1.5z" />
    <glyph glyph-name="Scaron" unicode="&#x160;" horiz-adv-x="657" 
d="M459 750h-110l-94 118l72 60l84 -102l125 105l60 -68zM260 513q0 -21 9 -36t26 -26t41 -19.5t55 -16.5q52 -14 92.5 -30t68.5 -38.5t42.5 -53.5t14.5 -74q0 -53 -22.5 -96t-62 -73.5t-93.5 -47t-118 -16.5q-72 0 -125.5 19.5t-88.5 50.5t-51.5 70.5t-15.5 80.5l151 23
q-2 -23 5 -45t23 -39t43 -28t66 -11q20 0 43.5 4t43.5 14.5t33.5 29t13.5 47.5q0 18 -6.5 30.5t-23.5 23t-46 20.5t-73 22q-57 15 -95.5 34t-61.5 42.5t-33 52t-10 64.5q0 52 20 93t56 70t87 44.5t113 15.5q64 0 115 -15t86.5 -42t55.5 -64t22 -82l-153 -28q2 51 -32 80.5
t-102 29.5q-55 0 -84 -21.5t-29 -58.5z" />
    <glyph glyph-name="scaron" unicode="&#x161;" horiz-adv-x="488" 
d="M334 534h-94l-98 130l74 60l78 -104l117 104l61 -64zM271 389q-28 0 -47 -11.5t-19 -34.5q0 -24 21.5 -33.5t55.5 -18.5q30 -8 58.5 -17.5t51 -25t36 -38.5t13.5 -58q0 -39 -16 -70t-45.5 -52t-69.5 -32.5t-88 -11.5q-38 0 -75.5 7t-68 24t-49.5 45.5t-20 70.5l134 17
q-2 -17 5 -29t19 -19.5t27.5 -11t31.5 -3.5q32 0 51 13t19 36q0 14 -7.5 23t-21 15t-32 10t-40.5 10q-27 7 -51.5 17t-43 25.5t-29.5 37t-11 53.5q0 40 17 70.5t46 51t67.5 31t82.5 10.5q46 0 84 -10.5t64 -28.5t40 -43t14 -54l-133 -22q0 25 -17.5 41t-53.5 16z" />
    <glyph glyph-name="Tcommaaccent" unicode="&#x162;" horiz-adv-x="593" 
d="M100 700h555l-22 -125h-202l-101 -575h-151l101 575h-202zM318 -151q0 -23 -8.5 -48.5t-27.5 -46.5t-49.5 -35.5t-73.5 -15.5l-12 52q13 -1 28 2.5t28.5 10.5t22.5 16.5t11 21.5q-8 -4 -19 -4q-21 0 -40.5 15t-19.5 50q0 13 5 27.5t15 26t25 19t35 7.5q22 0 37 -8.5
t24.5 -22t14 -31.5t4.5 -36z" />
    <glyph glyph-name="tcommaaccent" unicode="&#x163;" horiz-adv-x="384" 
d="M326 4q-23 -9 -51 -13.5t-52 -4.5q-39 0 -69 9.5t-49.5 28.5t-27.5 48.5t-1 68.5l40 230h-79l19 105h79l24 136l155 65l-35 -201h103l-19 -105h-103l-38 -220q-5 -30 5 -39t26 -9q17 0 31.5 5.5t26.5 11.5zM232 -151q0 -23 -8.5 -48.5t-27.5 -46.5t-49.5 -35.5
t-73.5 -15.5l-12 52q13 -1 28 2.5t28.5 10.5t22.5 16.5t11 21.5q-8 -4 -19 -4q-21 0 -40.5 15t-19.5 50q0 13 5 27.5t15 26t25 19t35 7.5q22 0 37 -8.5t24.5 -22t14 -31.5t4.5 -36z" />
    <glyph glyph-name="Tcaron" unicode="&#x164;" horiz-adv-x="593" 
d="M439 750h-110l-94 118l72 60l84 -102l125 105l60 -68zM100 700h555l-22 -125h-202l-101 -575h-151l101 575h-202z" />
    <glyph glyph-name="tcaron" unicode="&#x165;" horiz-adv-x="384" 
d="M521 723l-100 -192l-80 24l78 200zM326 4q-23 -9 -51 -13.5t-52 -4.5q-39 0 -69 9.5t-49.5 28.5t-27.5 48.5t-1 68.5l40 230h-79l19 105h79l24 136l155 65l-35 -201h103l-19 -105h-103l-38 -220q-5 -30 5 -39t26 -9q17 0 31.5 5.5t26.5 11.5z" />
    <glyph glyph-name="Tbar" unicode="&#x166;" horiz-adv-x="593" 
d="M100 700h555l-22 -125h-202l-26 -146h126l-20 -111h-125l-56 -318h-151l56 318h-125l20 111h124l26 146h-202z" />
    <glyph glyph-name="tbar" unicode="&#x167;" horiz-adv-x="384" 
d="M25 302h79l12 69h-79l19 105h79l24 136l155 65l-35 -201h103l-19 -105h-103l-12 -69h98l-18 -102h-98l-8 -49q-5 -30 5 -39t26 -9q17 0 31.5 5.5t26.5 11.5l15 -116q-23 -9 -51 -13.5t-52 -4.5q-39 0 -69 9.5t-49.5 28.5t-27.5 48.5t-1 68.5l10 59h-79z" />
    <glyph glyph-name="Utilde" unicode="&#x168;" horiz-adv-x="695" 
d="M369 910q28 0 48 -9t36 -19.5t29.5 -19t29.5 -8.5q15 0 26.5 8t19.5 18q9 11 15 27l65 -59q-14 -25 -34 -43q-17 -16 -42.5 -29t-60.5 -13q-28 0 -47 8.5t-34 19t-29 19t-31 8.5t-28.5 -8t-19.5 -18q-9 -11 -15 -25l-64 60q14 23 33 41q17 16 42.5 29t60.5 13zM319 -14
q-78 0 -130 21t-82 58t-38.5 87t2.5 109l78 439h149l-75 -426q-6 -36 -4.5 -66t13.5 -51.5t35 -34t60 -12.5q40 0 67.5 13t45 34.5t27.5 50t15 59.5l76 433h151l-80 -451q-23 -129 -97 -196t-213 -67z" />
    <glyph glyph-name="utilde" unicode="&#x169;" horiz-adv-x="574" 
d="M278 690q28 0 48 -9t36 -19.5t29.5 -19t29.5 -8.5q15 0 26.5 8t19.5 18q9 11 15 27l65 -59q-14 -25 -34 -43q-17 -16 -42.5 -29t-60.5 -13q-28 0 -47 8.5t-34 19t-29 19t-31 8.5t-28.5 -8t-19.5 -18q-9 -11 -15 -25l-64 60q14 23 33 41q17 16 42.5 29t60.5 13zM468 0
h-139l13 74q-26 -41 -65 -64.5t-89 -23.5q-35 0 -64.5 10t-49 32t-27.5 56t0 81l55 311h144l-50 -283q-9 -51 9 -70t51 -19q15 0 31.5 7t31.5 22.5t27.5 40.5t18.5 60l43 242h144z" />
    <glyph glyph-name="Umacron" unicode="&#x16a;" horiz-adv-x="695" 
d="M307 864h289l-16 -91h-289zM319 -14q-78 0 -130 21t-82 58t-38.5 87t2.5 109l78 439h149l-75 -426q-6 -36 -4.5 -66t13.5 -51.5t35 -34t60 -12.5q40 0 67.5 13t45 34.5t27.5 50t15 59.5l76 433h151l-80 -451q-23 -129 -97 -196t-213 -67z" />
    <glyph glyph-name="umacron" unicode="&#x16b;" horiz-adv-x="574" 
d="M210 641h289l-16 -91h-289zM468 0h-139l13 74q-26 -41 -65 -64.5t-89 -23.5q-35 0 -64.5 10t-49 32t-27.5 56t0 81l55 311h144l-50 -283q-9 -51 9 -70t51 -19q15 0 31.5 7t31.5 22.5t27.5 40.5t18.5 60l43 242h144z" />
    <glyph glyph-name="Ubreve" unicode="&#x16c;" horiz-adv-x="695" 
d="M378 911q-1 -27 16.5 -46t46.5 -19t50.5 19t28.5 46l103 -28q-21 -57 -71 -92t-117 -35q-70 0 -114 35.5t-46 91.5zM319 -14q-78 0 -130 21t-82 58t-38.5 87t2.5 109l78 439h149l-75 -426q-6 -36 -4.5 -66t13.5 -51.5t35 -34t60 -12.5q40 0 67.5 13t45 34.5t27.5 50
t15 59.5l76 433h151l-80 -451q-23 -129 -97 -196t-213 -67z" />
    <glyph glyph-name="ubreve" unicode="&#x16d;" horiz-adv-x="574" 
d="M284 704q-1 -27 16.5 -46t46.5 -19t50.5 19t28.5 46l103 -28q-21 -57 -71 -92t-117 -35q-70 0 -114 35.5t-46 91.5zM468 0h-139l13 74q-26 -41 -65 -64.5t-89 -23.5q-35 0 -64.5 10t-49 32t-27.5 56t0 81l55 311h144l-50 -283q-9 -51 9 -70t51 -19q15 0 31.5 7t31.5 22.5
t27.5 40.5t18.5 60l43 242h144z" />
    <glyph glyph-name="Uring" unicode="&#x16e;" horiz-adv-x="695" 
d="M335 853q0 50 34 82.5t87 32.5q47 0 74 -27.5t27 -70.5q0 -24 -9 -45.5t-25.5 -37.5t-38.5 -25t-48 -9q-48 0 -74.5 27.5t-26.5 72.5zM408 858q0 -16 9.5 -27t24.5 -11q18 0 30 13.5t12 30.5t-9.5 27t-25.5 10q-17 0 -29 -12.5t-12 -30.5zM319 -14q-78 0 -130 21t-82 58
t-38.5 87t2.5 109l78 439h149l-75 -426q-6 -36 -4.5 -66t13.5 -51.5t35 -34t60 -12.5q40 0 67.5 13t45 34.5t27.5 50t15 59.5l76 433h151l-80 -451q-23 -129 -97 -196t-213 -67z" />
    <glyph glyph-name="uring" unicode="&#x16f;" horiz-adv-x="574" 
d="M241 632q0 50 34 82.5t87 32.5q47 0 74 -27.5t27 -70.5q0 -24 -9 -45.5t-25.5 -37.5t-38.5 -25t-48 -9q-48 0 -74.5 27.5t-26.5 72.5zM314 637q0 -16 9.5 -27t24.5 -11q18 0 30 13.5t12 30.5t-9.5 27t-25.5 10q-17 0 -29 -12.5t-12 -30.5zM468 0h-139l13 74
q-26 -41 -65 -64.5t-89 -23.5q-35 0 -64.5 10t-49 32t-27.5 56t0 81l55 311h144l-50 -283q-9 -51 9 -70t51 -19q15 0 31.5 7t31.5 22.5t27.5 40.5t18.5 60l43 242h144z" />
    <glyph glyph-name="Uhungarumlaut" unicode="&#x170;" horiz-adv-x="695" 
d="M761 882l-234 -134l-40 76l220 157zM491 882l-234 -134l-40 76l220 157zM319 -14q-78 0 -130 21t-82 58t-38.5 87t2.5 109l78 439h149l-75 -426q-6 -36 -4.5 -66t13.5 -51.5t35 -34t60 -12.5q40 0 67.5 13t45 34.5t27.5 50t15 59.5l76 433h151l-80 -451
q-23 -129 -97 -196t-213 -67z" />
    <glyph glyph-name="uhungarumlaut" unicode="&#x171;" horiz-adv-x="574" 
d="M656 666l-234 -134l-40 76l220 157zM386 666l-234 -134l-40 76l220 157zM468 0h-139l13 74q-26 -41 -65 -64.5t-89 -23.5q-35 0 -64.5 10t-49 32t-27.5 56t0 81l55 311h144l-50 -283q-9 -51 9 -70t51 -19q15 0 31.5 7t31.5 22.5t27.5 40.5t18.5 60l43 242h144z" />
    <glyph glyph-name="Uogonek" unicode="&#x172;" horiz-adv-x="695" 
d="M320 -96q0 -13 10 -22t30 -9q12 0 29.5 7.5t29.5 26.5l56 -55q-30 -34 -65.5 -47.5t-74.5 -13.5q-54 0 -85.5 24.5t-31.5 66.5q0 35 15 59.5t47 46.5q-66 5 -111 27.5t-70 59t-31.5 84t3.5 102.5l78 439h149l-75 -426q-6 -36 -4.5 -66t13.5 -51.5t35 -34t60 -12.5
q40 0 67.5 13t45 34.5t27.5 50t15 59.5l76 433h151l-80 -451q-17 -98 -62 -158.5t-125 -89.5q-60 -22 -91 -47.5t-31 -49.5z" />
    <glyph glyph-name="uogonek" unicode="&#x173;" horiz-adv-x="574" 
d="M468 0q-121 -50 -121 -96q0 -13 10 -22t30 -9q12 0 29.5 7.5t29.5 26.5l56 -55q-30 -34 -65.5 -47.5t-74.5 -13.5q-54 0 -85.5 24.5t-31.5 66.5q0 40 21 66t63 52l13 74q-26 -41 -65 -64.5t-89 -23.5q-35 0 -64.5 10t-49 32t-27.5 56t0 81l55 311h144l-50 -283
q-9 -51 9 -70t51 -19q15 0 31.5 7t31.5 22.5t27.5 40.5t18.5 60l43 242h144z" />
    <glyph glyph-name="Wcircumflex" unicode="&#x174;" horiz-adv-x="944" 
d="M528 925h110l94 -118l-72 -60l-84 102l-125 -105l-60 68zM1011 700l-298 -700h-174q-6 97 -10 185q-2 37 -4 76.5t-4 76.5t-3.5 69.5t-2.5 56.5h-3q-9 -24 -22 -56.5t-28 -69.5t-31.5 -76.5t-31.5 -76.5q-37 -88 -77 -185h-174l-53 700h147q6 -112 11 -213q2 -43 4.5 -88
t4 -86t2.5 -76.5t1 -59.5h3q9 24 23 59.5t30.5 76.5t34.5 86t36 88q41 101 89 213h141q8 -112 14 -213q3 -43 5.5 -88t4.5 -86t3.5 -76.5t2.5 -59.5h3q9 24 22.5 59.5t30 76.5t34.5 86t36 88q40 101 87 213h146z" />
    <glyph glyph-name="wcircumflex" unicode="&#x175;" horiz-adv-x="762" 
d="M406 718h94l101 -130l-73 -60l-81 104l-117 -104l-62 64zM488 476q7 -76 12 -142q2 -28 4 -57t3.5 -54.5t3 -46.5t1.5 -34h2q5 14 13.5 36t20 48t24 54.5t24.5 56.5q29 65 62 139h137l-222 -476h-155l-22 327l-138 -327h-155l-54 476h137q7 -74 13 -139q3 -28 5 -56.5
t4 -54.5t3 -48t1 -36h2q6 17 19 48.5t28.5 68.5t32.5 75.5t30.5 70t22.5 51.5l9 20h132z" />
    <glyph glyph-name="Ycircumflex" unicode="&#x176;" horiz-adv-x="698" 
d="M402 925h110l94 -118l-72 -60l-84 102l-125 -105l-60 68zM283 293l-193 407h165l124 -268l217 268h174l-337 -407l-51 -293h-150z" />
    <glyph glyph-name="ycircumflex" unicode="&#x177;" horiz-adv-x="515" 
d="M278 718h94l101 -130l-73 -60l-81 104l-117 -104l-62 64zM259 -50q-26 -47 -51 -78.5t-49.5 -50.5t-50 -27t-53.5 -8q-36 0 -63.5 8.5t-41.5 18.5l55 103q18 -18 45 -18q26 0 46 16.5t44 61.5l10 18l-101 482h141q12 -74 23 -137q4 -27 8.5 -55t8.5 -52.5t7 -44.5t5 -32
h2l16 32t22.5 44.5t27 52.5t28.5 55q33 63 71 137h140z" />
    <glyph glyph-name="Ydieresis" unicode="&#x178;" horiz-adv-x="698" 
d="M469 840q0 32 21.5 53t55.5 21t55.5 -21t21.5 -53t-21.5 -53t-55.5 -21t-55.5 21t-21.5 53zM253 840q0 32 21.5 53t55.5 21t55.5 -21t21.5 -53t-21.5 -53t-55.5 -21t-55.5 21t-21.5 53zM283 293l-193 407h165l124 -268l217 268h174l-337 -407l-51 -293h-150z" />
    <glyph glyph-name="Zacute" unicode="&#x179;" horiz-adv-x="635" 
d="M569 855l-240 -107l-32 82l229 133zM131 700h545l-20 -116l-443 -459h358l-22 -125h-553l20 115l445 460h-352z" />
    <glyph glyph-name="zacute" unicode="&#x17a;" horiz-adv-x="477" 
d="M449 639l-240 -107l-32 82l229 133zM82 476h403l-16 -92l-283 -277h236l-19 -107h-413l16 94l285 275h-228z" />
    <glyph glyph-name="Zdotaccent" unicode="&#x17b;" horiz-adv-x="635" 
d="M338 846q0 37 24 60.5t63 23.5t63 -23.5t24 -60.5t-24 -60.5t-63 -23.5t-63 23.5t-24 60.5zM131 700h545l-20 -116l-443 -459h358l-22 -125h-553l20 115l445 460h-352z" />
    <glyph glyph-name="zdotaccent" unicode="&#x17c;" horiz-adv-x="477" 
d="M210 623q0 37 24 60.5t63 23.5t63 -23.5t24 -60.5t-24 -60.5t-63 -23.5t-63 23.5t-24 60.5zM82 476h403l-16 -92l-283 -277h236l-19 -107h-413l16 94l285 275h-228z" />
    <glyph glyph-name="Zcaron" unicode="&#x17d;" horiz-adv-x="635" 
d="M460 750h-110l-94 118l72 60l84 -102l125 105l60 -68zM131 700h545l-20 -116l-443 -459h358l-22 -125h-553l20 115l445 460h-352z" />
    <glyph glyph-name="zcaron" unicode="&#x17e;" horiz-adv-x="477" 
d="M337 534h-94l-98 130l74 60l78 -104l117 104l61 -64zM82 476h403l-16 -92l-283 -277h236l-19 -107h-413l16 94l285 275h-228z" />
    <glyph glyph-name="florin" unicode="&#x192;" horiz-adv-x="568" 
d="M295 31q-11 -50 -31.5 -84.5t-48 -56.5t-61.5 -32t-71 -10q-53 0 -85 13t-55 30l79 103q8 -10 23 -19t34 -9q28 0 47.5 21t28.5 59l63 279h-75l19 108h81l22 98q11 49 31.5 84t48 57t61 32t71.5 10q53 0 85 -13t55 -30l-79 -103q-8 10 -23 19t-34 9q-28 0 -47.5 -21
t-28.5 -59l-19 -83h118l-19 -108h-124z" />
    <glyph glyph-name="Scommaaccent" unicode="&#x218;" horiz-adv-x="657" 
d="M260 513q0 -21 9 -36t26 -26t41 -19.5t55 -16.5q52 -14 92.5 -30t68.5 -38.5t42.5 -53.5t14.5 -74q0 -53 -22.5 -96t-62 -73.5t-93.5 -47t-118 -16.5q-72 0 -125.5 19.5t-88.5 50.5t-51.5 70.5t-15.5 80.5l151 23q-2 -23 5 -45t23 -39t43 -28t66 -11q20 0 43.5 4
t43.5 14.5t33.5 29t13.5 47.5q0 18 -6.5 30.5t-23.5 23t-46 20.5t-73 22q-57 15 -95.5 34t-61.5 42.5t-33 52t-10 64.5q0 52 20 93t56 70t87 44.5t113 15.5q64 0 115 -15t86.5 -42t55.5 -64t22 -82l-153 -28q2 51 -32 80.5t-102 29.5q-55 0 -84 -21.5t-29 -58.5zM366 -151
q0 -23 -8.5 -48.5t-27.5 -46.5t-49.5 -35.5t-73.5 -15.5l-12 52q13 -1 28 2.5t28.5 10.5t22.5 16.5t11 21.5q-8 -4 -19 -4q-21 0 -40.5 15t-19.5 50q0 13 5 27.5t15 26t25 19t35 7.5q22 0 37 -8.5t24.5 -22t14 -31.5t4.5 -36z" />
    <glyph glyph-name="scommaaccent" unicode="&#x219;" horiz-adv-x="488" 
d="M271 389q-28 0 -47 -11.5t-19 -34.5q0 -24 21.5 -33.5t55.5 -18.5q30 -8 58.5 -17.5t51 -25t36 -38.5t13.5 -58q0 -39 -16 -70t-45.5 -52t-69.5 -32.5t-88 -11.5q-38 0 -75.5 7t-68 24t-49.5 45.5t-20 70.5l134 17q-2 -17 5 -29t19 -19.5t27.5 -11t31.5 -3.5q32 0 51 13
t19 36q0 14 -7.5 23t-21 15t-32 10t-40.5 10q-27 7 -51.5 17t-43 25.5t-29.5 37t-11 53.5q0 40 17 70.5t46 51t67.5 31t82.5 10.5q46 0 84 -10.5t64 -28.5t40 -43t14 -54l-133 -22q0 25 -17.5 41t-53.5 16zM275 -151q0 -23 -8.5 -48.5t-27.5 -46.5t-49.5 -35.5t-73.5 -15.5
l-12 52q13 -1 28 2.5t28.5 10.5t22.5 16.5t11 21.5q-8 -4 -19 -4q-21 0 -40.5 15t-19.5 50q0 13 5 27.5t15 26t25 19t35 7.5q22 0 37 -8.5t24.5 -22t14 -31.5t4.5 -36z" />
    <glyph glyph-name="dotlessj" unicode="&#x237;" horiz-adv-x="276" 
d="M110 476h144l-91 -518q-8 -44 -26.5 -76.5t-45 -53.5t-59.5 -31.5t-69 -10.5q-43 0 -77 12t-55 30l70 99q9 -9 24 -17t32 -8q23 0 40.5 16.5t22.5 47.5z" />
    <glyph glyph-name="circumflex" unicode="&#x2c6;" 
d="M334 718h94l101 -130l-73 -60l-81 104l-117 -104l-62 64z" />
    <glyph glyph-name="caron" unicode="&#x2c7;" 
d="M401 534h-94l-98 130l74 60l78 -104l117 104l61 -64z" />
    <glyph glyph-name="breve" unicode="&#x2d8;" 
d="M308 704q-1 -27 16.5 -46t46.5 -19t50.5 19t28.5 46l103 -28q-21 -57 -71 -92t-117 -35q-70 0 -114 35.5t-46 91.5z" />
    <glyph glyph-name="dotaccent" unicode="&#x2d9;" 
d="M281 623q0 37 24 60.5t63 23.5t63 -23.5t24 -60.5t-24 -60.5t-63 -23.5t-63 23.5t-24 60.5z" />
    <glyph glyph-name="ring" unicode="&#x2da;" 
d="M260 632q0 50 34 82.5t87 32.5q47 0 74 -27.5t27 -70.5q0 -24 -9 -45.5t-25.5 -37.5t-38.5 -25t-48 -9q-48 0 -74.5 27.5t-26.5 72.5zM333 637q0 -16 9.5 -27t24.5 -11q18 0 30 13.5t12 30.5t-9.5 27t-25.5 10q-17 0 -29 -12.5t-12 -30.5z" />
    <glyph glyph-name="ogonek" unicode="&#x2db;" 
d="M213 -96q0 -13 10 -22t30 -9q12 0 29.5 7.5t29.5 26.5l56 -55q-30 -34 -65.5 -47.5t-74.5 -13.5q-54 0 -85.5 24.5t-31.5 66.5q0 40 20 66t62 52h141q-121 -50 -121 -96z" />
    <glyph glyph-name="tilde" unicode="&#x2dc;" 
d="M302 690q28 0 48 -9t36 -19.5t29.5 -19t29.5 -8.5q15 0 26.5 8t19.5 18q9 11 15 27l65 -59q-14 -25 -34 -43q-17 -16 -42.5 -29t-60.5 -13q-28 0 -47 8.5t-34 19t-29 19t-31 8.5t-28.5 -8t-19.5 -18q-9 -11 -15 -25l-64 60q14 23 33 41q17 16 42.5 29t60.5 13z" />
    <glyph glyph-name="hungarumlaut" unicode="&#x2dd;" 
d="M639 666l-234 -134l-40 76l220 157zM369 666l-234 -134l-40 76l220 157z" />
    <glyph glyph-name="uni0312" unicode="&#x312;" 
d="M288 625q0 22 8.5 47t27.5 46t49.5 35.5t73.5 15.5l12 -52q-13 1 -28 -2.5t-28 -10t-22.5 -16t-10.5 -21.5q9 3 16 3q27 0 44.5 -19t17.5 -49q0 -13 -5 -26.5t-15 -25t-25 -18.5t-35 -7q-22 0 -37 8.5t-24.5 22.5t-14 32t-4.5 37z" />
    <glyph glyph-name="pi" unicode="&#x3c0;" horiz-adv-x="613" 
d="M554 4q-23 -10 -47 -14t-51 -4q-25 0 -51 6.5t-46 24t-29.5 48t-1.5 78.5l40 225h-110l-65 -368h-131l65 368h-72l19 108h517l-19 -108h-73l-39 -222q-5 -29 5.5 -38.5t26.5 -9.5t27 5.5t22 10.5z" />
    <glyph glyph-name="pi" unicode="&#x3d6;" horiz-adv-x="613" 
d="M554 4q-23 -10 -47 -14t-51 -4q-25 0 -51 6.5t-46 24t-29.5 48t-1.5 78.5l40 225h-110l-65 -368h-131l65 368h-72l19 108h517l-19 -108h-73l-39 -222q-5 -29 5.5 -38.5t26.5 -9.5t27 5.5t22 10.5z" />
    <glyph glyph-name="Wgrave" unicode="&#x1e80;" horiz-adv-x="944" 
d="M439 862l74 101l193 -142l-54 -73zM1011 700l-298 -700h-174q-6 97 -10 185q-2 37 -4 76.5t-4 76.5t-3.5 69.5t-2.5 56.5h-3q-9 -24 -22 -56.5t-28 -69.5t-31.5 -76.5t-31.5 -76.5q-37 -88 -77 -185h-174l-53 700h147q6 -112 11 -213q2 -43 4.5 -88t4 -86t2.5 -76.5
t1 -59.5h3q9 24 23 59.5t30.5 76.5t34.5 86t36 88q41 101 89 213h141q8 -112 14 -213q3 -43 5.5 -88t4.5 -86t3.5 -76.5t2.5 -59.5h3q9 24 22.5 59.5t30 76.5t34.5 86t36 88q40 101 87 213h146z" />
    <glyph glyph-name="wgrave" unicode="&#x1e81;" horiz-adv-x="762" 
d="M310 646l74 101l193 -142l-54 -73zM488 476q7 -76 12 -142q2 -28 4 -57t3.5 -54.5t3 -46.5t1.5 -34h2q5 14 13.5 36t20 48t24 54.5t24.5 56.5q29 65 62 139h137l-222 -476h-155l-22 327l-138 -327h-155l-54 476h137q7 -74 13 -139q3 -28 5 -56.5t4 -54.5t3 -48t1 -36h2
q6 17 19 48.5t28.5 68.5t32.5 75.5t30.5 70t22.5 51.5l9 20h132z" />
    <glyph glyph-name="Wacute" unicode="&#x1e82;" horiz-adv-x="944" 
d="M699 855l-240 -107l-32 82l229 133zM1011 700l-298 -700h-174q-6 97 -10 185q-2 37 -4 76.5t-4 76.5t-3.5 69.5t-2.5 56.5h-3q-9 -24 -22 -56.5t-28 -69.5t-31.5 -76.5t-31.5 -76.5q-37 -88 -77 -185h-174l-53 700h147q6 -112 11 -213q2 -43 4.5 -88t4 -86t2.5 -76.5
t1 -59.5h3q9 24 23 59.5t30.5 76.5t34.5 86t36 88q41 101 89 213h141q8 -112 14 -213q3 -43 5.5 -88t4.5 -86t3.5 -76.5t2.5 -59.5h3q9 24 22.5 59.5t30 76.5t34.5 86t36 88q40 101 87 213h146z" />
    <glyph glyph-name="wacute" unicode="&#x1e83;" horiz-adv-x="762" 
d="M576 639l-240 -107l-32 82l229 133zM488 476q7 -76 12 -142q2 -28 4 -57t3.5 -54.5t3 -46.5t1.5 -34h2q5 14 13.5 36t20 48t24 54.5t24.5 56.5q29 65 62 139h137l-222 -476h-155l-22 327l-138 -327h-155l-54 476h137q7 -74 13 -139q3 -28 5 -56.5t4 -54.5t3 -48t1 -36h2
q6 17 19 48.5t28.5 68.5t32.5 75.5t30.5 70t22.5 51.5l9 20h132z" />
    <glyph glyph-name="Wdieresis" unicode="&#x1e84;" horiz-adv-x="944" 
d="M593 840q0 32 21.5 53t55.5 21t55.5 -21t21.5 -53t-21.5 -53t-55.5 -21t-55.5 21t-21.5 53zM377 840q0 32 21.5 53t55.5 21t55.5 -21t21.5 -53t-21.5 -53t-55.5 -21t-55.5 21t-21.5 53zM1011 700l-298 -700h-174q-6 97 -10 185q-2 37 -4 76.5t-4 76.5t-3.5 69.5
t-2.5 56.5h-3q-9 -24 -22 -56.5t-28 -69.5t-31.5 -76.5t-31.5 -76.5q-37 -88 -77 -185h-174l-53 700h147q6 -112 11 -213q2 -43 4.5 -88t4 -86t2.5 -76.5t1 -59.5h3q9 24 23 59.5t30.5 76.5t34.5 86t36 88q41 101 89 213h141q8 -112 14 -213q3 -43 5.5 -88t4.5 -86
t3.5 -76.5t2.5 -59.5h3q9 24 22.5 59.5t30 76.5t34.5 86t36 88q40 101 87 213h146z" />
    <glyph glyph-name="wdieresis" unicode="&#x1e85;" horiz-adv-x="762" 
d="M473 613q0 32 21.5 53t55.5 21t55.5 -21t21.5 -53t-21.5 -53t-55.5 -21t-55.5 21t-21.5 53zM257 613q0 32 21.5 53t55.5 21t55.5 -21t21.5 -53t-21.5 -53t-55.5 -21t-55.5 21t-21.5 53zM488 476q7 -76 12 -142q2 -28 4 -57t3.5 -54.5t3 -46.5t1.5 -34h2q5 14 13.5 36
t20 48t24 54.5t24.5 56.5q29 65 62 139h137l-222 -476h-155l-22 327l-138 -327h-155l-54 476h137q7 -74 13 -139q3 -28 5 -56.5t4 -54.5t3 -48t1 -36h2q6 17 19 48.5t28.5 68.5t32.5 75.5t30.5 70t22.5 51.5l9 20h132z" />
    <glyph glyph-name="figuredash" unicode="&#x2012;" 
d="M72 342h492l-19 -107h-492z" />
    <glyph glyph-name="endash" unicode="&#x2013;" horiz-adv-x="500" 
d="M72 342h392l-19 -107h-392z" />
    <glyph glyph-name="emdash" unicode="&#x2014;" horiz-adv-x="870" 
d="M72 342h762l-19 -107h-762z" />
    <glyph glyph-name="uni2015" unicode="&#x2015;" horiz-adv-x="1200" 
d="M1164 342l-19 -107h-1092l19 107h1092z" />
    <glyph glyph-name="doublebar" unicode="&#x2016;" horiz-adv-x="479" 
d="M378 797h121l-170 -966h-121zM176 797h121l-170 -966h-121z" />
    <glyph glyph-name="quoteleft" unicode="&#x2018;" horiz-adv-x="265" 
d="M88 534q0 28 11 59t34 57.5t58.5 44t83.5 19.5l14 -62q-15 1 -33 -3.5t-34 -13.5t-27 -22.5t-12 -29.5q5 2 10.5 2.5t10.5 0.5q32 0 52.5 -23.5t20.5 -56.5q0 -15 -6 -31.5t-17.5 -29.5t-29.5 -21.5t-42 -8.5q-26 0 -43.5 10t-29 27t-16.5 38t-5 44z" />
    <glyph glyph-name="quoteright" unicode="&#x2019;" horiz-adv-x="265" 
d="M292 595q0 -28 -11 -59t-34 -57.5t-58.5 -44.5t-83.5 -19l-14 62q15 -1 33 3.5t34 13.5t26.5 22.5t12.5 29.5q-5 -2 -10.5 -2.5t-10.5 -0.5q-32 0 -52.5 23.5t-20.5 56.5q0 15 6 31.5t17.5 29.5t29.5 21.5t42 8.5q25 0 43 -10t29.5 -27t16.5 -38.5t5 -43.5z" />
    <glyph glyph-name="quotesinglbase" unicode="&#x201a;" horiz-adv-x="265" 
d="M196 47q0 -28 -11 -59t-34 -57.5t-58.5 -44.5t-83.5 -19l-14 62q15 -1 33 3.5t34 13.5t26.5 22.5t12.5 29.5q-5 -2 -10.5 -2.5t-10.5 -0.5q-32 0 -52.5 23.5t-20.5 56.5q0 15 6 31.5t17.5 29.5t29.5 21.5t42 8.5q25 0 43 -10t29.5 -27t16.5 -38.5t5 -43.5z" />
    <glyph glyph-name="reversequoteleft" unicode="&#x201b;" horiz-adv-x="261" 
d="M97 579q0 24 6.5 48.5t20.5 44.5t35.5 32.5t52.5 12.5q44 0 65 -26t21 -58q0 -21 -8 -37t-21.5 -27.5t-30.5 -17t-35 -5.5q-11 0 -14 1q-3 0 -4 1q-5 -14 1 -27t18 -22.5t27.5 -14.5t28.5 -5l-31 -62q-39 6 -64.5 23t-40.5 39.5t-21 48.5t-6 51z" />
    <glyph glyph-name="quotedblleft" unicode="&#x201c;" horiz-adv-x="493" 
d="M316 534q0 28 11 59t34 57.5t58.5 44t83.5 19.5l14 -62q-15 1 -33 -3.5t-34 -13.5t-27 -22.5t-12 -29.5q5 2 10.5 2.5t10.5 0.5q32 0 52.5 -23.5t20.5 -56.5q0 -15 -6 -31.5t-17.5 -29.5t-29.5 -21.5t-42 -8.5q-26 0 -43.5 10t-29 27t-16.5 38t-5 44zM88 534q0 28 11 59
t34 57.5t58.5 44t83.5 19.5l14 -62q-15 1 -33 -3.5t-34 -13.5t-27 -22.5t-12 -29.5q5 2 10.5 2.5t10.5 0.5q32 0 52.5 -23.5t20.5 -56.5q0 -15 -6 -31.5t-17.5 -29.5t-29.5 -21.5t-42 -8.5q-26 0 -43.5 10t-29 27t-16.5 38t-5 44z" />
    <glyph glyph-name="quotedblright" unicode="&#x201d;" horiz-adv-x="493" 
d="M520 595q0 -28 -11 -59t-34 -57.5t-58.5 -44.5t-83.5 -19l-14 62q15 -1 33 3.5t34 13.5t26.5 22.5t12.5 29.5q-5 -2 -10.5 -2.5t-10.5 -0.5q-32 0 -52.5 23.5t-20.5 56.5q0 15 6 31.5t17.5 29.5t29.5 21.5t42 8.5q25 0 43 -10t29.5 -27t16.5 -38.5t5 -43.5zM292 595
q0 -28 -11 -59t-34 -57.5t-58.5 -44.5t-83.5 -19l-14 62q15 -1 33 3.5t34 13.5t26.5 22.5t12.5 29.5q-5 -2 -10.5 -2.5t-10.5 -0.5q-32 0 -52.5 23.5t-20.5 56.5q0 15 6 31.5t17.5 29.5t29.5 21.5t42 8.5q25 0 43 -10t29.5 -27t16.5 -38.5t5 -43.5z" />
    <glyph glyph-name="quotedblbase" unicode="&#x201e;" horiz-adv-x="493" 
d="M424 47q0 -28 -11 -59t-34 -57.5t-58.5 -44.5t-83.5 -19l-14 62q15 -1 33 3.5t34 13.5t26.5 22.5t12.5 29.5q-5 -2 -10.5 -2.5t-10.5 -0.5q-32 0 -52.5 23.5t-20.5 56.5q0 15 6 31.5t17.5 29.5t29.5 21.5t42 8.5q25 0 43 -10t29.5 -27t16.5 -38.5t5 -43.5zM196 47
q0 -28 -11 -59t-34 -57.5t-58.5 -44.5t-83.5 -19l-14 62q15 -1 33 3.5t34 13.5t26.5 22.5t12.5 29.5q-5 -2 -10.5 -2.5t-10.5 -0.5q-32 0 -52.5 23.5t-20.5 56.5q0 15 6 31.5t17.5 29.5t29.5 21.5t42 8.5q25 0 43 -10t29.5 -27t16.5 -38.5t5 -43.5z" />
    <glyph glyph-name="reversequotedblleft" unicode="&#x201f;" horiz-adv-x="488" 
d="M97 579q0 24 6.5 48.5t20.5 44.5t35.5 32.5t52.5 12.5q44 0 65 -26t21 -58q0 -21 -8 -37t-21.5 -27.5t-30.5 -17t-35 -5.5q-11 0 -14 1q-3 0 -4 1q-5 -14 1 -27t18 -22.5t27.5 -14.5t28.5 -5l-31 -62q-39 6 -64.5 23t-40.5 39.5t-21 48.5t-6 51zM324 579q0 24 6.5 48.5
t20.5 44.5t35.5 32.5t52.5 12.5q44 0 65 -26t21 -58q0 -21 -8 -37t-21.5 -27.5t-30.5 -17t-35 -5.5q-11 0 -14 1q-3 0 -4 1q-5 -14 1 -27t18 -22.5t27.5 -14.5t28.5 -5l-31 -62q-39 6 -64.5 23t-40.5 39.5t-21 48.5t-6 51z" />
    <glyph glyph-name="dagger" unicode="&#x2020;" horiz-adv-x="505" 
d="M68 481h159l39 219h137l-39 -219h159l-21 -120h-159l-86 -487h-137l86 487h-159z" />
    <glyph glyph-name="daggerdbl" unicode="&#x2021;" horiz-adv-x="505" 
d="M20 210h159l29 166h-159l22 120h159l36 204h137l-36 -204h159l-22 -120h-159l-29 -166h159l-21 -120h-159l-38 -216h-137l38 216h-159z" />
    <glyph glyph-name="bullet" unicode="&#x2022;" horiz-adv-x="367" 
d="M63 326q0 29 10 53t28 41.5t43 27.5t55 10t55 -10t43 -27.5t28 -41.5t10 -53q0 -28 -10 -52t-28 -41t-43 -27t-55 -10t-55 10t-43 27t-28 41t-10 52z" />
    <glyph glyph-name="ellipsis" unicode="&#x2026;" horiz-adv-x="822" 
d="M567 74q0 36 24 60t62 24t62 -24t24 -60t-24 -60t-62 -24t-62 24t-24 60zM296 74q0 36 24 60t62 24t62 -24t24 -60t-24 -60t-62 -24t-62 24t-24 60zM25 74q0 36 24 60t62 24t62 -24t24 -60t-24 -60t-62 -24t-62 24t-24 60z" />
    <glyph glyph-name="perthousand" unicode="&#x2030;" horiz-adv-x="1320" 
d="M140 -14l566 728h124l-566 -728h-124zM423 543q0 -45 -13 -85t-37 -69t-58 -46t-76 -17q-77 0 -118 41t-41 116q0 39 11.5 78t34.5 70t57.5 50t81.5 19q73 0 115.5 -41t42.5 -116zM185 487q0 -32 12.5 -53t41.5 -21q18 0 33 10t25 27.5t15.5 40t5.5 48.5q0 32 -13 53
t-42 21q-18 0 -32.5 -10t-24.5 -27.5t-15.5 -40.5t-5.5 -48zM1278 203q0 -45 -13 -85t-37 -69t-58 -46t-76 -17q-77 0 -118 41t-41 116q0 39 11.5 78t34.5 70t57.5 50t81.5 19q73 0 115.5 -41t42.5 -116zM882 203q0 -45 -13 -85t-37 -69t-58 -46t-76 -17q-77 0 -118 41
t-41 116q0 39 11.5 78t34.5 70t57.5 50t81.5 19q73 0 115.5 -41t42.5 -116zM1040 147q0 -32 12.5 -53t41.5 -21q18 0 33 10t25 27.5t15.5 40t5.5 48.5q0 32 -13 53t-42 21q-18 0 -32.5 -10t-24.5 -27.5t-15.5 -40.5t-5.5 -48zM644 147q0 -32 12.5 -53t41.5 -21q18 0 33 10
t25 27.5t15.5 40t5.5 48.5q0 32 -13 53t-42 21q-18 0 -32.5 -10t-24.5 -27.5t-15.5 -40.5t-5.5 -48z" />
    <glyph glyph-name="guilsinglleft" unicode="&#x2039;" horiz-adv-x="329" 
d="M28 262l228 231l80 -68l-164 -173l101 -174l-91 -61z" />
    <glyph glyph-name="guilsinglright" unicode="&#x203a;" horiz-adv-x="329" 
d="M309 248l-228 -231l-80 68l164 173l-101 174l91 61z" />
    <glyph glyph-name="fraction" unicode="&#x2044;" horiz-adv-x="303" 
d="M-174 -14l566 728h124l-566 -728h-124z" />
    <glyph glyph-name="uni2070" unicode="&#x2070;" horiz-adv-x="392" 
d="M81 470q0 38 10 80.5t32.5 78t57 58.5t84.5 23q66 0 105 -41.5t39 -113.5q0 -42 -10.5 -85t-33 -77.5t-57 -56.5t-82.5 -22q-36 0 -63.5 11.5t-45.5 32.5t-27 49.5t-9 62.5zM304 557q0 28 -10 46.5t-33 18.5q-19 0 -33 -14t-23.5 -36.5t-14 -50t-4.5 -54.5
q0 -25 9.5 -45.5t34.5 -20.5q20 0 34 14.5t23 37t13 50.5t4 54z" />
    <glyph glyph-name="uni2074" unicode="&#x2074;" horiz-adv-x="384" 
d="M64 464l183 234h134l-40 -226h61l-24 -80h-51l-12 -68h-98l12 68h-178zM246 472l26 145h-3l-110 -145h87z" />
    <glyph glyph-name="uni2075" unicode="&#x2075;" horiz-adv-x="359" 
d="M162 434q2 -19 16 -27.5t31 -8.5q25 0 41 14.5t16 39.5q0 21 -12 32.5t-32 11.5q-16 0 -29 -7.5t-21 -19.5l-84 15l62 213h241l-29 -82h-153l-22 -66q11 12 26.5 20t41.5 8q47 0 79 -30t32 -88q0 -33 -12.5 -60t-34.5 -45.5t-50.5 -29t-60.5 -10.5q-57 0 -95.5 26
t-42.5 72z" />
    <glyph glyph-name="uni2076" unicode="&#x2076;" horiz-adv-x="380" 
d="M266 629q-31 0 -53 -27t-31 -74q16 23 38.5 33t48.5 10q23 0 44 -8t37 -23t25.5 -37t9.5 -50q0 -26 -10.5 -51t-31 -44.5t-49 -31.5t-64.5 -12q-65 0 -106 38t-41 121q0 43 11.5 85.5t34.5 76.5t58 54.5t82 20.5q63 0 96 -27.5t37 -73.5l-94 -10q-3 30 -42 30zM242 494
q-25 0 -41 -15.5t-16 -40.5q0 -17 12 -29.5t34 -12.5q20 0 39 12.5t19 41.5q0 17 -10.5 30.5t-36.5 13.5z" />
    <glyph glyph-name="uni2077" unicode="&#x2077;" horiz-adv-x="342" 
d="M119 697h282l-13 -73q-19 -18 -45 -46.5t-51.5 -66t-46.5 -85t-31 -102.5h-104q8 47 25.5 90t39.5 80.5t46 67.5t45 52h-177z" />
    <glyph glyph-name="uni2078" unicode="&#x2078;" horiz-adv-x="368" 
d="M69 423q0 43 27 68.5t62 33.5q-20 10 -33.5 28.5t-13.5 44.5q0 21 9.5 41t27.5 35.5t44.5 25.5t61.5 10q33 0 57.5 -8.5t41 -22.5t25 -32.5t8.5 -38.5q0 -36 -20.5 -59t-51.5 -34q22 -10 38.5 -30t16.5 -51q0 -23 -10 -44.5t-30 -38t-49 -27t-67 -10.5q-36 0 -63 9
t-45 24.5t-27 35t-9 40.5zM202 596q0 -19 12.5 -27.5t31.5 -8.5q21 0 35 11t14 31q0 17 -12.5 26t-31.5 9t-34 -10.5t-15 -30.5zM164 429q0 -20 14.5 -31t37.5 -11q25 0 41.5 13t16.5 36q0 21 -14 32.5t-37 11.5q-26 0 -42.5 -13.5t-16.5 -37.5z" />
    <glyph glyph-name="uni2079" unicode="&#x2079;" horiz-adv-x="378" 
d="M210 395q31 0 53 27t31 74q-16 -23 -38.5 -33t-48.5 -10q-23 0 -44 7.5t-37 22.5t-25.5 37t-9.5 51q0 26 10.5 51t30.5 44.5t48.5 31.5t65.5 12q65 0 106 -38.5t41 -120.5q0 -44 -11.5 -86t-34.5 -76t-58 -54.5t-82 -20.5q-63 0 -96 27.5t-37 73.5l94 10q3 -30 42 -30z
M234 530q25 0 41 15.5t16 40.5q0 17 -12 29.5t-34 12.5q-20 0 -39 -12.5t-19 -41.5q0 -17 10.5 -30.5t36.5 -13.5z" />
    <glyph glyph-name="uni207A" unicode="&#x207a;" horiz-adv-x="361" 
d="M90 567h102l18 100h93l-18 -100h102l-16 -92h-102l-18 -103h-93l18 103h-102z" />
    <glyph glyph-name="uni207B" unicode="&#x207b;" horiz-adv-x="367" 
d="M98 567h287l-16 -92h-287z" />
    <glyph glyph-name="uni207C" unicode="&#x207c;" horiz-adv-x="367" 
d="M111 645h287l-16 -92h-287zM83 485h287l-16 -92h-287z" />
    <glyph glyph-name="uni207D" unicode="&#x207d;" horiz-adv-x="230" 
d="M82 464q0 46 14.5 88.5t38 78t52.5 61.5t58 38l48 -47q-61 -43 -90 -100.5t-29 -123.5q0 -42 12 -78.5t41 -68.5l-62 -38q-38 30 -60.5 81.5t-22.5 108.5z" />
    <glyph glyph-name="uni207E" unicode="&#x207e;" horiz-adv-x="230" 
d="M239 537q0 -46 -14 -89t-37 -78.5t-52.5 -61t-59.5 -37.5l-48 47q61 43 90 100.5t29 123.5q0 42 -12 78.5t-41 68.5l62 38q38 -30 60.5 -81.5t22.5 -108.5z" />
    <glyph glyph-name="n.superior" unicode="&#x207f;" horiz-adv-x="412" 
d="M122 591h96l-8 -47q17 26 42.5 41t57.5 15q46 0 74 -27t18 -88l-35 -197h-100l32 176q6 32 -5 43t-33 11q-17 0 -37.5 -17t-28.5 -61l-27 -152h-100z" />
    <glyph glyph-name="uni2080" unicode="&#x2080;" horiz-adv-x="394" 
d="M24 146q0 38 10 80.5t32.5 78t57 58.5t84.5 23q66 0 105 -41.5t39 -113.5q0 -42 -10.5 -85t-33 -77.5t-57 -56.5t-82.5 -22q-36 0 -63.5 11.5t-45.5 32.5t-27 49.5t-9 62.5zM247 233q0 28 -10 46.5t-33 18.5q-19 0 -33 -14t-23.5 -36.5t-14 -50t-4.5 -54.5
q0 -25 9.5 -45.5t34.5 -20.5q20 0 34 14.5t23 37t13 50.5t4 54z" />
    <glyph glyph-name="uni2081" unicode="&#x2081;" horiz-adv-x="281" 
d="M245 376l-66 -376h-104l47 264q-15 -10 -37 -16.5t-48 -7.5l-6 85q36 4 68.5 17t53.5 34h92z" />
    <glyph glyph-name="uni2082" unicode="&#x2082;" horiz-adv-x="378" 
d="M19 80l44 26q19 11 41 24.5t41 26.5q51 34 72 56t21 48q0 17 -10.5 27.5t-30.5 10.5q-27 0 -42 -19t-19 -40l-98 17q15 57 55.5 93t109.5 36q63 0 101 -33t38 -88q0 -48 -31 -83t-82 -64q-18 -11 -36 -19.5t-33 -15.5h154l-14 -83h-295z" />
    <glyph glyph-name="uni2083" unicode="&#x2083;" horiz-adv-x="371" 
d="M313 114q0 -27 -11.5 -49.5t-32.5 -39t-50 -26t-64 -9.5q-38 0 -65.5 9t-45.5 24t-26.5 35t-9.5 42l98 25q1 -20 11.5 -34.5t39.5 -14.5q26 0 37 13t11 28q0 20 -12.5 28.5t-30.5 8.5q-3 0 -5 -0.5t-4 -0.5h-3l14 76q2 -1 4 -1h10q26 0 36.5 11.5t10.5 28.5t-12 24.5
t-26 7.5q-20 0 -33.5 -11t-16.5 -30l-93 24q8 21 20 39.5t30 32.5t42 22.5t57 8.5q60 0 99 -30t39 -81q0 -34 -18.5 -56t-50.5 -32q20 -9 35.5 -26.5t15.5 -46.5z" />
    <glyph glyph-name="uni2084" unicode="&#x2084;" horiz-adv-x="384" 
d="M7 140l183 234h134l-40 -226h61l-24 -80h-51l-12 -68h-98l12 68h-178zM189 148l26 145h-3l-110 -145h87z" />
    <glyph glyph-name="uni2085" unicode="&#x2085;" horiz-adv-x="359" 
d="M104 110q2 -19 16 -27.5t31 -8.5q25 0 41 14.5t16 39.5q0 21 -12 32.5t-32 11.5q-16 0 -29 -7.5t-21 -19.5l-84 15l62 213h241l-29 -82h-153l-22 -66q11 12 26.5 20t41.5 8q47 0 79 -30t32 -88q0 -33 -12.5 -60t-34.5 -45.5t-50.5 -29t-60.5 -10.5q-57 0 -95.5 26
t-42.5 72z" />
    <glyph glyph-name="uni2086" unicode="&#x2086;" horiz-adv-x="380" 
d="M209 305q-31 0 -53 -27t-31 -74q16 23 38.5 33t48.5 10q23 0 44 -8t37 -23t25.5 -37t9.5 -50q0 -26 -10.5 -51t-31 -44.5t-49 -31.5t-64.5 -12q-65 0 -106 38t-41 121q0 43 11.5 85.5t34.5 76.5t58 54.5t82 20.5q63 0 96 -27.5t37 -73.5l-94 -10q-3 30 -42 30zM185 170
q-25 0 -41 -15.5t-16 -40.5q0 -17 12 -29.5t34 -12.5q20 0 39 12.5t19 41.5q0 17 -10.5 30.5t-36.5 13.5z" />
    <glyph glyph-name="uni2087" unicode="&#x2087;" horiz-adv-x="342" 
d="M62 373h282l-13 -73q-19 -18 -45 -46.5t-51.5 -66t-46.5 -85t-31 -102.5h-104q8 47 25.5 90t39.5 80.5t46 67.5t45 52h-177z" />
    <glyph glyph-name="uni2088" unicode="&#x2088;" horiz-adv-x="368" 
d="M12 99q0 43 27 68.5t62 33.5q-20 10 -33.5 28.5t-13.5 44.5q0 21 9.5 41t27.5 35.5t44.5 25.5t61.5 10q33 0 57.5 -8.5t41 -22.5t25 -32.5t8.5 -38.5q0 -36 -20.5 -59t-51.5 -34q22 -10 38.5 -30t16.5 -51q0 -23 -10 -44.5t-30 -38t-49 -27t-67 -10.5q-36 0 -63 9
t-45 24.5t-27 35t-9 40.5zM145 272q0 -19 12.5 -27.5t31.5 -8.5q21 0 35 11t14 31q0 17 -12.5 26t-31.5 9t-34 -10.5t-15 -30.5zM107 105q0 -20 14.5 -31t37.5 -11q25 0 41.5 13t16.5 36q0 21 -14 32.5t-37 11.5q-26 0 -42.5 -13.5t-16.5 -37.5z" />
    <glyph glyph-name="uni2089" unicode="&#x2089;" horiz-adv-x="377" 
d="M153 71q31 0 53 27t31 74q-16 -23 -38.5 -33t-48.5 -10q-23 0 -44 7.5t-37 22.5t-25.5 37t-9.5 51q0 26 10.5 51t30.5 44.5t48.5 31.5t65.5 12q65 0 106 -38.5t41 -120.5q0 -44 -11.5 -86t-34.5 -76t-58 -54.5t-82 -20.5q-63 0 -96 27.5t-37 73.5l94 10q3 -30 42 -30z
M177 206q25 0 41 15.5t16 40.5q0 17 -12 29.5t-34 12.5q-20 0 -39 -12.5t-19 -41.5q0 -17 10.5 -30.5t36.5 -13.5z" />
    <glyph glyph-name="uni208A" unicode="&#x208a;" horiz-adv-x="361" 
d="M33 243h102l18 100h93l-18 -100h102l-16 -92h-102l-18 -103h-93l18 103h-102z" />
    <glyph glyph-name="uni208B" unicode="&#x208b;" horiz-adv-x="367" 
d="M41 243h287l-16 -92h-287z" />
    <glyph glyph-name="uni208C" unicode="&#x208c;" horiz-adv-x="367" 
d="M54 321h287l-16 -92h-287zM26 161h287l-16 -92h-287z" />
    <glyph glyph-name="uni208D" unicode="&#x208d;" horiz-adv-x="230" 
d="M25 140q0 46 14.5 88.5t38 78t52.5 61.5t58 38l48 -47q-61 -43 -90 -100.5t-29 -123.5q0 -42 12 -78.5t41 -68.5l-62 -38q-38 30 -60.5 81.5t-22.5 108.5z" />
    <glyph glyph-name="uni208E" unicode="&#x208e;" horiz-adv-x="230" 
d="M182 213q0 -46 -14 -89t-37 -78.5t-52.5 -61t-59.5 -37.5l-48 47q61 43 90 100.5t29 123.5q0 42 -12 78.5t-41 68.5l62 38q38 -30 60.5 -81.5t22.5 -108.5z" />
    <glyph glyph-name="Euro" unicode="&#x20ac;" horiz-adv-x="655" 
d="M253 375q-2 -14 -3.5 -29.5t-1.5 -32.5h208l-16 -90h-185q11 -54 40.5 -88t86.5 -34q36 0 76 15.5t69 46.5l83 -85q-48 -46 -104.5 -69t-127.5 -23q-61 0 -108 17t-80.5 48t-53.5 74.5t-28 97.5h-87l16 90h66q2 32 6 62h-61l16 90h68q20 52 52.5 95t75 74t94.5 47.5
t112 16.5q86 0 143.5 -31t80.5 -76l-107 -74q-18 35 -55 50.5t-74 15.5q-46 0 -94 -28.5t-79 -89.5h202l-16 -90h-214z" />
    <glyph glyph-name="servicemark" unicode="&#x2120;" horiz-adv-x="714" 
d="M118 616q0 44 32.5 67t81.5 23q22 0 42.5 -4.5t37 -14.5t27.5 -25.5t14 -37.5l-72 -13q-6 37 -50 37q-17 0 -27.5 -7.5t-10.5 -19.5q0 -16 12.5 -23.5t28.5 -12.5q46 -13 72 -31.5t26 -55.5q0 -23 -10 -40.5t-26.5 -29t-37.5 -17.5t-44 -6q-59 0 -93.5 25t-34.5 65l74 9
q2 -41 54 -41q17 0 30 7.5t13 22.5q0 14 -12.5 21.5t-38.5 14.5q-47 11 -67.5 32.5t-20.5 54.5zM493 411q-2 16 -6 41.5t-8 53.5t-8 55t-5 46h-1l-35 -196h-67l51 289h99q8 -52 14 -94q5 -37 9.5 -70t5.5 -44q2 5 7.5 16.5t12.5 27t15.5 34t17.5 36.5q20 42 44 94h103
l-51 -289h-65l35 196h-1q-9 -18 -23 -46.5t-29 -57.5t-28 -54.5t-19 -37.5h-68z" />
    <glyph glyph-name="trademark" unicode="&#x2122;" horiz-adv-x="686" 
d="M465 411q-2 16 -6 41.5t-8 53.5t-8 55t-5 46h-1l-35 -196h-67l51 289h99q8 -52 14 -94q5 -37 9.5 -70t5.5 -44q2 5 7.5 16.5t12.5 27t15.5 34t17.5 36.5q20 42 44 94h103l-51 -289h-65l35 196h-1q-9 -18 -23 -46.5t-29 -57.5t-28 -54.5t-19 -37.5h-68zM105 700h240
l-11 -64h-82l-40 -225h-76l40 225h-82z" />
    <glyph glyph-name="estimated" unicode="&#x212e;" horiz-adv-x="770" 
d="M694 164q-20 -42 -47.5 -75t-65 -56t-85 -35t-108.5 -12q-83 0 -146.5 26.5t-106 74.5t-64 115t-21.5 149q0 90 24.5 157.5t68.5 113.5t106.5 69t137.5 23q85 0 148 -28.5t104 -77.5t61 -115.5t20 -141.5v-28h-553q3 -63 18 -114.5t42.5 -87.5t68 -55.5t93.5 -19.5
q50 0 87.5 12t65 32t46 47t29.5 57zM388 654q-57 0 -97 -20t-66 -56t-40 -85.5t-18 -108.5h435q-4 61 -19 110.5t-41 85t-64.5 55t-89.5 19.5z" />
    <glyph glyph-name="uni2153" unicode="&#x2153;" horiz-adv-x="866" 
d="M70 -14l566 728h124l-566 -728h-124zM302 700l-66 -376h-104l47 264q-15 -10 -37 -16.5t-48 -7.5l-6 85q36 4 68.5 17t53.5 34h92zM808 114q0 -27 -11.5 -49.5t-32.5 -39t-50 -26t-64 -9.5q-38 0 -65.5 9t-45.5 24t-26.5 35t-9.5 42l98 25q1 -20 11.5 -34.5t39.5 -14.5
q26 0 37 13t11 28q0 20 -12.5 28.5t-30.5 8.5q-3 0 -5 -0.5t-4 -0.5h-3l14 76q2 -1 4 -1h10q26 0 36.5 11.5t10.5 28.5t-12 24.5t-26 7.5q-20 0 -33.5 -11t-16.5 -30l-93 24q8 21 20 39.5t30 32.5t42 22.5t57 8.5q60 0 99 -30t39 -81q0 -34 -18.5 -56t-50.5 -32
q20 -9 35.5 -26.5t15.5 -46.5z" />
    <glyph glyph-name="uni2154" unicode="&#x2154;" horiz-adv-x="959" 
d="M163 -14l566 728h124l-566 -728h-124zM76 404l44 26q19 11 41 24.5t41 26.5q51 34 72 56t21 48q0 17 -10.5 27.5t-30.5 10.5q-27 0 -42 -19t-19 -40l-98 17q15 57 55.5 93t109.5 36q63 0 101 -33t38 -88q0 -48 -31 -83t-82 -64q-18 -11 -36 -19.5t-33 -15.5h154l-14 -83
h-295zM901 114q0 -27 -11.5 -49.5t-32.5 -39t-50 -26t-64 -9.5q-38 0 -65.5 9t-45.5 24t-26.5 35t-9.5 42l98 25q1 -20 11.5 -34.5t39.5 -14.5q26 0 37 13t11 28q0 20 -12.5 28.5t-30.5 8.5q-3 0 -5 -0.5t-4 -0.5h-3l14 76q2 -1 4 -1h10q26 0 36.5 11.5t10.5 28.5t-12 24.5
t-26 7.5q-20 0 -33.5 -11t-16.5 -30l-93 24q8 21 20 39.5t30 32.5t42 22.5t57 8.5q60 0 99 -30t39 -81q0 -34 -18.5 -56t-50.5 -32q20 -9 35.5 -26.5t15.5 -46.5z" />
    <glyph glyph-name="uni2155" unicode="&#x2155;" horiz-adv-x="853" 
d="M68 -14l566 728h124l-566 -728h-124zM302 700l-66 -376h-104l47 264q-15 -10 -37 -16.5t-48 -7.5l-6 85q36 4 68.5 17t53.5 34h92zM598 110q2 -19 16 -27.5t31 -8.5q25 0 41 14.5t16 39.5q0 21 -12 32.5t-32 11.5q-16 0 -29 -7.5t-21 -19.5l-84 15l62 213h241l-29 -82
h-153l-22 -66q11 12 26.5 20t41.5 8q47 0 79 -30t32 -88q0 -33 -12.5 -60t-34.5 -45.5t-50.5 -29t-60.5 -10.5q-57 0 -95.5 26t-42.5 72z" />
    <glyph glyph-name="uni2156" unicode="&#x2156;" horiz-adv-x="940" 
d="M155 -14l566 728h124l-566 -728h-124zM76 404l44 26q19 11 41 24.5t41 26.5q51 34 72 56t21 48q0 17 -10.5 27.5t-30.5 10.5q-27 0 -42 -19t-19 -40l-98 17q15 57 55.5 93t109.5 36q63 0 101 -33t38 -88q0 -48 -31 -83t-82 -64q-18 -11 -36 -19.5t-33 -15.5h154l-14 -83
h-295zM685 110q2 -19 16 -27.5t31 -8.5q25 0 41 14.5t16 39.5q0 21 -12 32.5t-32 11.5q-16 0 -29 -7.5t-21 -19.5l-84 15l62 213h241l-29 -82h-153l-22 -66q11 12 26.5 20t41.5 8q47 0 79 -30t32 -88q0 -33 -12.5 -60t-34.5 -45.5t-50.5 -29t-60.5 -10.5q-57 0 -95.5 26
t-42.5 72z" />
    <glyph glyph-name="uni2157" unicode="&#x2157;" horiz-adv-x="934" 
d="M149 -14l566 728h124l-566 -728h-124zM370 438q0 -27 -11.5 -49.5t-32.5 -39t-50 -26t-64 -9.5q-38 0 -65.5 9t-45.5 24t-26.5 35t-9.5 42l98 25q1 -20 11.5 -34.5t39.5 -14.5q26 0 37 13t11 28q0 20 -12.5 28.5t-30.5 8.5q-3 0 -5 -0.5t-4 -0.5h-3l14 76q2 -1 4 -1h10
q26 0 36.5 11.5t10.5 28.5t-12 24.5t-26 7.5q-20 0 -33.5 -11t-16.5 -30l-93 24q8 21 20 39.5t30 32.5t42 22.5t57 8.5q60 0 99 -30t39 -81q0 -34 -18.5 -56t-50.5 -32q20 -9 35.5 -26.5t15.5 -46.5zM679 110q2 -19 16 -27.5t31 -8.5q25 0 41 14.5t16 39.5q0 21 -12 32.5
t-32 11.5q-16 0 -29 -7.5t-21 -19.5l-84 15l62 213h241l-29 -82h-153l-22 -66q11 12 26.5 20t41.5 8q47 0 79 -30t32 -88q0 -33 -12.5 -60t-34.5 -45.5t-50.5 -29t-60.5 -10.5q-57 0 -95.5 26t-42.5 72z" />
    <glyph glyph-name="uni2158" unicode="&#x2158;" horiz-adv-x="940" 
d="M155 -14l566 728h124l-566 -728h-124zM64 464l183 234h134l-40 -226h61l-24 -80h-51l-12 -68h-98l12 68h-178zM246 472l26 145h-3l-110 -145h87zM685 110q2 -19 16 -27.5t31 -8.5q25 0 41 14.5t16 39.5q0 21 -12 32.5t-32 11.5q-16 0 -29 -7.5t-21 -19.5l-84 15l62 213
h241l-29 -82h-153l-22 -66q11 12 26.5 20t41.5 8q47 0 79 -30t32 -88q0 -33 -12.5 -60t-34.5 -45.5t-50.5 -29t-60.5 -10.5q-57 0 -95.5 26t-42.5 72z" />
    <glyph glyph-name="uni2159" unicode="&#x2159;" horiz-adv-x="861" 
d="M68 -14l566 728h124l-566 -728h-124zM302 700l-66 -376h-104l47 264q-15 -10 -37 -16.5t-48 -7.5l-6 85q36 4 68.5 17t53.5 34h92zM690 305q-31 0 -53 -27t-31 -74q16 23 38.5 33t48.5 10q23 0 44 -8t37 -23t25.5 -37t9.5 -50q0 -26 -10.5 -51t-31 -44.5t-49 -31.5
t-64.5 -12q-65 0 -106 38t-41 121q0 43 11.5 85.5t34.5 76.5t58 54.5t82 20.5q63 0 96 -27.5t37 -73.5l-94 -10q-3 30 -42 30zM666 170q-25 0 -41 -15.5t-16 -40.5q0 -17 12 -29.5t34 -12.5q20 0 39 12.5t19 41.5q0 17 -10.5 30.5t-36.5 13.5z" />
    <glyph glyph-name="uni215A" unicode="&#x215a;" horiz-adv-x="926" 
d="M133 -14l566 728h124l-566 -728h-124zM162 434q2 -19 16 -27.5t31 -8.5q25 0 41 14.5t16 39.5q0 21 -12 32.5t-32 11.5q-16 0 -29 -7.5t-21 -19.5l-84 15l62 213h241l-29 -82h-153l-22 -66q11 12 26.5 20t41.5 8q47 0 79 -30t32 -88q0 -33 -12.5 -60t-34.5 -45.5
t-50.5 -29t-60.5 -10.5q-57 0 -95.5 26t-42.5 72zM755 305q-31 0 -53 -27t-31 -74q16 23 38.5 33t48.5 10q23 0 44 -8t37 -23t25.5 -37t9.5 -50q0 -26 -10.5 -51t-31 -44.5t-49 -31.5t-64.5 -12q-65 0 -106 38t-41 121q0 43 11.5 85.5t34.5 76.5t58 54.5t82 20.5
q63 0 96 -27.5t37 -73.5l-94 -10q-3 30 -42 30zM731 170q-25 0 -41 -15.5t-16 -40.5q0 -17 12 -29.5t34 -12.5q20 0 39 12.5t19 41.5q0 17 -10.5 30.5t-36.5 13.5z" />
    <glyph glyph-name="uni215B" unicode="&#x215b;" horiz-adv-x="858" 
d="M68 -14l566 728h124l-566 -728h-124zM302 700l-66 -376h-104l47 264q-15 -10 -37 -16.5t-48 -7.5l-6 85q36 4 68.5 17t53.5 34h92zM502 99q0 43 27 68.5t62 33.5q-20 10 -33.5 28.5t-13.5 44.5q0 21 9.5 41t27.5 35.5t44.5 25.5t61.5 10q33 0 57.5 -8.5t41 -22.5
t25 -32.5t8.5 -38.5q0 -36 -20.5 -59t-51.5 -34q22 -10 38.5 -30t16.5 -51q0 -23 -10 -44.5t-30 -38t-49 -27t-67 -10.5q-36 0 -63 9t-45 24.5t-27 35t-9 40.5zM635 272q0 -19 12.5 -27.5t31.5 -8.5q21 0 35 11t14 31q0 17 -12.5 26t-31.5 9t-34 -10.5t-15 -30.5zM597 105
q0 -20 14.5 -31t37.5 -11q25 0 41.5 13t16.5 36q0 21 -14 32.5t-37 11.5q-26 0 -42.5 -13.5t-16.5 -37.5z" />
    <glyph glyph-name="uni215C" unicode="&#x215c;" horiz-adv-x="939" 
d="M149 -14l566 728h124l-566 -728h-124zM370 438q0 -27 -11.5 -49.5t-32.5 -39t-50 -26t-64 -9.5q-38 0 -65.5 9t-45.5 24t-26.5 35t-9.5 42l98 25q1 -20 11.5 -34.5t39.5 -14.5q26 0 37 13t11 28q0 20 -12.5 28.5t-30.5 8.5q-3 0 -5 -0.5t-4 -0.5h-3l14 76q2 -1 4 -1h10
q26 0 36.5 11.5t10.5 28.5t-12 24.5t-26 7.5q-20 0 -33.5 -11t-16.5 -30l-93 24q8 21 20 39.5t30 32.5t42 22.5t57 8.5q60 0 99 -30t39 -81q0 -34 -18.5 -56t-50.5 -32q20 -9 35.5 -26.5t15.5 -46.5zM583 99q0 43 27 68.5t62 33.5q-20 10 -33.5 28.5t-13.5 44.5q0 21 9.5 41
t27.5 35.5t44.5 25.5t61.5 10q33 0 57.5 -8.5t41 -22.5t25 -32.5t8.5 -38.5q0 -36 -20.5 -59t-51.5 -34q22 -10 38.5 -30t16.5 -51q0 -23 -10 -44.5t-30 -38t-49 -27t-67 -10.5q-36 0 -63 9t-45 24.5t-27 35t-9 40.5zM716 272q0 -19 12.5 -27.5t31.5 -8.5q21 0 35 11t14 31
q0 17 -12.5 26t-31.5 9t-34 -10.5t-15 -30.5zM678 105q0 -20 14.5 -31t37.5 -11q25 0 41.5 13t16.5 36q0 21 -14 32.5t-37 11.5q-26 0 -42.5 -13.5t-16.5 -37.5z" />
    <glyph glyph-name="uni215D" unicode="&#x215d;" horiz-adv-x="923" 
d="M133 -14l566 728h124l-566 -728h-124zM162 434q2 -19 16 -27.5t31 -8.5q25 0 41 14.5t16 39.5q0 21 -12 32.5t-32 11.5q-16 0 -29 -7.5t-21 -19.5l-84 15l62 213h241l-29 -82h-153l-22 -66q11 12 26.5 20t41.5 8q47 0 79 -30t32 -88q0 -33 -12.5 -60t-34.5 -45.5
t-50.5 -29t-60.5 -10.5q-57 0 -95.5 26t-42.5 72zM567 99q0 43 27 68.5t62 33.5q-20 10 -33.5 28.5t-13.5 44.5q0 21 9.5 41t27.5 35.5t44.5 25.5t61.5 10q33 0 57.5 -8.5t41 -22.5t25 -32.5t8.5 -38.5q0 -36 -20.5 -59t-51.5 -34q22 -10 38.5 -30t16.5 -51q0 -23 -10 -44.5
t-30 -38t-49 -27t-67 -10.5q-36 0 -63 9t-45 24.5t-27 35t-9 40.5zM700 272q0 -19 12.5 -27.5t31.5 -8.5q21 0 35 11t14 31q0 17 -12.5 26t-31.5 9t-34 -10.5t-15 -30.5zM662 105q0 -20 14.5 -31t37.5 -11q25 0 41.5 13t16.5 36q0 21 -14 32.5t-37 11.5q-26 0 -42.5 -13.5
t-16.5 -37.5z" />
    <glyph glyph-name="uni215E" unicode="&#x215e;" horiz-adv-x="867" 
d="M77 -14l566 728h124l-566 -728h-124zM119 697h282l-13 -73q-19 -18 -45 -46.5t-51.5 -66t-46.5 -85t-31 -102.5h-104q8 47 25.5 90t39.5 80.5t46 67.5t45 52h-177zM511 99q0 43 27 68.5t62 33.5q-20 10 -33.5 28.5t-13.5 44.5q0 21 9.5 41t27.5 35.5t44.5 25.5t61.5 10
q33 0 57.5 -8.5t41 -22.5t25 -32.5t8.5 -38.5q0 -36 -20.5 -59t-51.5 -34q22 -10 38.5 -30t16.5 -51q0 -23 -10 -44.5t-30 -38t-49 -27t-67 -10.5q-36 0 -63 9t-45 24.5t-27 35t-9 40.5zM644 272q0 -19 12.5 -27.5t31.5 -8.5q21 0 35 11t14 31q0 17 -12.5 26t-31.5 9
t-34 -10.5t-15 -30.5zM606 105q0 -20 14.5 -31t37.5 -11q25 0 41.5 13t16.5 36q0 21 -14 32.5t-37 11.5q-26 0 -42.5 -13.5t-16.5 -37.5z" />
    <glyph glyph-name="uni215F" unicode="&#x215f;" horiz-adv-x="659" 
d="M68 -14l566 728h124l-566 -728h-124zM302 700l-66 -376h-104l47 264q-15 -10 -37 -16.5t-48 -7.5l-6 85q36 4 68.5 17t53.5 34h92z" />
    <glyph glyph-name="arrowleft" unicode="&#x2190;" horiz-adv-x="850" 
d="M778 407v-116h-499l169 -170l-79 -79l-307 307l307 307l79 -79l-169 -170h499z" />
    <glyph glyph-name="arrowup" unicode="&#x2191;" horiz-adv-x="800" 
d="M458 0h-116v499l-170 -169l-79 79l307 307l307 -307l-79 -79l-170 169v-499z" />
    <glyph glyph-name="arrowright" unicode="&#x2192;" horiz-adv-x="850" 
d="M571 407l-169 170l79 79l307 -307l-307 -307l-79 79l169 170h-499v116h499z" />
    <glyph glyph-name="arrowdown" unicode="&#x2193;" horiz-adv-x="800" 
d="M458 201l170 169l79 -79l-307 -307l-307 307l79 79l170 -169v499h116v-499z" />
    <glyph glyph-name="uni2196" unicode="&#x2196;" horiz-adv-x="750" 
d="M673 235l-82 -82l-353 353v-240h-112v434h434v-112h-240z" />
    <glyph glyph-name="uni2197" unicode="&#x2197;" horiz-adv-x="750" 
d="M430 588h-240v112h434v-434h-112v240l-353 -353l-82 82z" />
    <glyph glyph-name="uni2198" unicode="&#x2198;" horiz-adv-x="750" 
d="M77 465l82 82l353 -353v240h112v-434h-434v112h240z" />
    <glyph glyph-name="uni2199" unicode="&#x2199;" horiz-adv-x="750" 
d="M320 112h240v-112h-434v434h112v-240l353 353l82 -82z" />
    <glyph glyph-name="partialdiff" unicode="&#x2202;" horiz-adv-x="602" 
d="M140 612q35 45 84 73.5t113 28.5q55 0 98.5 -18t74 -54.5t47 -93.5t16.5 -135q0 -93 -21.5 -171.5t-62 -135t-99 -88.5t-132.5 -32q-54 0 -96 15t-71 41.5t-44 63t-15 80.5q0 43 15.5 87.5t48 81t82.5 59.5t118 23q55 0 91 -18.5t53 -38.5q6 45 3 86t-15.5 71.5t-35 48.5
t-55.5 18q-20 0 -37 -6.5t-31 -17t-25 -23t-20 -24.5zM291 329q-31 0 -52.5 -13t-35.5 -33.5t-20.5 -45t-6.5 -46.5q0 -45 23 -69.5t63 -24.5q29 0 53.5 13t42.5 34.5t30.5 50t17.5 59.5q-8 33 -40.5 54t-74.5 21z" />
    <glyph glyph-name="Delta" unicode="&#x2206;" horiz-adv-x="758" 
d="M676 0h-678l377 700h173zM202 114h307l-74 445z" />
    <glyph glyph-name="product" unicode="&#x220f;" horiz-adv-x="670" 
d="M146 700h540l-123 -700h-144l103 582h-252l-103 -582h-144z" />
    <glyph glyph-name="summation" unicode="&#x2211;" horiz-adv-x="565" 
d="M478 0h-475l19 111l205 242l-120 240l19 107h475l-20 -118h-316l119 -240l-190 -224h305z" />
    <glyph glyph-name="minus" unicode="&#x2212;" 
d="M75 383h500l-20 -114h-500z" />
    <glyph glyph-name="radical" unicode="&#x221a;" horiz-adv-x="674" 
d="M58 387l203 64l48 -298l290 547h136l-384 -700h-134l-54 320l-90 -28z" />
    <glyph glyph-name="infinity" unicode="&#x221e;" horiz-adv-x="804" 
d="M563 128q-55 0 -95 29t-63 73q-42 -51 -86.5 -76.5t-95.5 -25.5q-34 0 -65.5 11t-55.5 33t-38.5 56t-14.5 80q0 52 19 92t50 67t70.5 41t80.5 14q56 0 94 -25.5t67 -76.5q42 53 86 77.5t96 24.5q33 0 64 -11.5t55 -34t39 -56t15 -77.5q0 -54 -19 -94t-50.5 -67
t-71.5 -40.5t-81 -13.5zM478 323q6 -16 14 -31.5t18.5 -28t25 -20t33.5 -7.5q36 0 65 26t29 74q0 42 -21.5 60t-47.5 18q-33 0 -61 -25.5t-55 -65.5zM356 326q-14 40 -36 64t-56 24q-36 0 -64.5 -26t-28.5 -74q0 -40 20 -59t48 -19q19 0 36 8t31.5 20.5t26.5 28.5t23 33z
" />
    <glyph glyph-name="integral" unicode="&#x222b;" horiz-adv-x="393" 
d="M177 531q9 50 29.5 85t48.5 56.5t60.5 31.5t64.5 10q42 0 73.5 -12t52.5 -28l-72 -103q-8 10 -20.5 19t-30.5 9q-26 0 -43 -22t-24 -61l-85 -485q-9 -50 -29.5 -85t-48.5 -57t-60.5 -31.5t-64.5 -9.5q-43 0 -74.5 11.5t-53.5 27.5l74 104q8 -10 20.5 -19t30.5 -9
q26 0 43 22t24 61z" />
    <glyph glyph-name="approxequal" unicode="&#x2248;" 
d="M256 511q34 0 57.5 -8.5t42.5 -18.5t35 -18.5t35 -8.5q20 0 35 8.5t25 19.5q11 12 20 29l82 -75q-16 -27 -42 -48q-22 -18 -55 -33t-78 -15q-33 0 -56.5 8.5t-42 18t-34.5 18t-35 8.5q-20 0 -34.5 -8.5t-25.5 -19.5q-12 -12 -21 -27l-81 77q16 26 42 46q21 17 53.5 32
t77.5 15zM220 306q34 0 57.5 -8.5t42.5 -18.5t35 -18.5t35 -8.5q20 0 35 8.5t25 19.5q11 12 20 29l82 -75q-16 -27 -42 -48q-22 -18 -55 -33t-78 -15q-33 0 -56.5 8.5t-42 18t-34.5 18t-35 8.5q-20 0 -34.5 -8.5t-25.5 -19.5q-12 -12 -21 -27l-81 77q16 26 42 46
q21 17 53.5 32t77.5 15z" />
    <glyph glyph-name="notequal" unicode="&#x2260;" 
d="M92 476h283l121 153l81 -54l-79 -99h94l-20 -114h-164l-66 -82h215l-20 -114h-285l-117 -148l-82 55l75 93h-91l20 114h161l66 82h-212z" />
    <glyph glyph-name="equivalence" unicode="&#x2261;" 
d="M111 581h500l-20 -114h-500zM76 383h500l-20 -114h-500zM41 185h500l-20 -114h-500z" />
    <glyph glyph-name="lessequal" unicode="&#x2264;" 
d="M621 645l-22 -131l-386 -115l345 -115l-22 -120l-468 171l24 136zM29 114h498l-20 -114h-498z" />
    <glyph glyph-name="greaterequal" unicode="&#x2265;" 
d="M38 164l22 131l386 115l-345 115l22 120l468 -171l-24 -136zM507 0h-498l20 114h498z" />
    <glyph glyph-name="squaremultiply" unicode="&#x22a0;" horiz-adv-x="850" 
d="M75 700h700v-700h-700v700zM185 100h480v500h-480v-500zM425 273l-123 -123l-77 77l123 123l-123 124l77 77l123 -123l124 123l77 -77l-123 -124l123 -123l-77 -77z" />
    <glyph glyph-name="blacksquare" unicode="&#x25a0;" horiz-adv-x="850" 
d="M75 700h700v-700h-700v700z" />
    <glyph glyph-name="blacksquare" unicode="&#xe740;" horiz-adv-x="850" 
d="M75 700h700v-700h-700v700z" />
    <glyph glyph-name="whitesquare" unicode="&#x25a1;" horiz-adv-x="850" 
d="M75 700h700v-700h-700v700zM185 100h480v500h-480v-500z" />
    <glyph glyph-name="blacksmallsquare" unicode="&#x25aa;" 
d="M62 476h476v-476h-476v476z" />
    <glyph glyph-name="whitesmallsquare" unicode="&#x25ab;" 
d="M62 476h476v-476h-476v476zM164 92h272v292h-272v-292z" />
    <glyph glyph-name="triagup" unicode="&#x25b2;" horiz-adv-x="800" 
d="M50 0l350 716l350 -716h-700z" />
    <glyph glyph-name="triagrt" unicode="&#x25ba;" horiz-adv-x="785" 
d="M50 700l685 -350l-685 -350v700z" />
    <glyph glyph-name="triagdn" unicode="&#x25bc;" horiz-adv-x="800" 
d="M750 700l-350 -716l-350 716h700z" />
    <glyph glyph-name="triaglf" unicode="&#x25c4;" horiz-adv-x="785" 
d="M735 0l-685 350l685 350v-700z" />
    <glyph glyph-name="lozenge" unicode="&#x25ca;" horiz-adv-x="643" 
d="M603 346l-246 -346h-155l-122 354l246 346h155zM228 347l72 -214l156 220l-72 214z" />
    <glyph glyph-name="whitecircle" unicode="&#x25cb;" horiz-adv-x="850" 
d="M61 350q0 76 28.5 142t78 115.5t116 78t141.5 28.5t141.5 -28.5t116 -78t78 -115.5t28.5 -142t-28.5 -142t-78 -115.5t-116 -78t-141.5 -28.5t-141.5 28.5t-116 78t-78 115.5t-28.5 142zM677 350q0 55 -19.5 103t-53.5 84t-80 56.5t-99 20.5t-99 -20.5t-80 -56.5
t-53.5 -84t-19.5 -103t19.5 -103t53.5 -84t80 -56.5t99 -20.5t99 20.5t80 56.5t53.5 84t19.5 103z" />
    <glyph glyph-name="whitecircle" unicode="&#x25ef;" horiz-adv-x="850" 
d="M61 350q0 76 28.5 142t78 115.5t116 78t141.5 28.5t141.5 -28.5t116 -78t78 -115.5t28.5 -142t-28.5 -142t-78 -115.5t-116 -78t-141.5 -28.5t-141.5 28.5t-116 78t-78 115.5t-28.5 142zM677 350q0 55 -19.5 103t-53.5 84t-80 56.5t-99 20.5t-99 -20.5t-80 -56.5
t-53.5 -84t-19.5 -103t19.5 -103t53.5 -84t80 -56.5t99 -20.5t99 20.5t80 56.5t53.5 84t19.5 103z" />
    <glyph glyph-name="blackcircle" unicode="&#x25cf;" horiz-adv-x="850" 
d="M789 350q0 -75 -29 -141.5t-78.5 -116t-115.5 -78t-141 -28.5t-141.5 28.5t-116 78t-78 116t-28.5 141.5t28.5 141t78 115.5t116 78.5t141.5 29t141 -29t115.5 -78.5t78.5 -115.5t29 -141z" />
    <glyph glyph-name="uni25E2" unicode="&#x25e2;" horiz-adv-x="800" 
d="M539 700l221 -716l-717 220z" />
    <glyph glyph-name="uni25E3" unicode="&#x25e3;" horiz-adv-x="800" 
d="M757 204l-717 -220l221 716z" />
    <glyph glyph-name="uni25E4" unicode="&#x25e4;" horiz-adv-x="800" 
d="M261 -16l-221 716l717 -220z" />
    <glyph glyph-name="uni25E5" unicode="&#x25e5;" horiz-adv-x="800" 
d="M43 480l717 220l-221 -716z" />
    <glyph glyph-name="ballotboxwithx" unicode="&#x2612;" 
d="M62 476h476v-476h-476v476zM164 92h272v292h-272v-292zM301 169l-48 -48l-69 69l48 48l-48 48l69 69l48 -48l47 47l69 -69l-48 -47l48 -47l-69 -69z" />
    <glyph glyph-name="mediumwhitecircle" unicode="&#x26aa;" 
d="M47 238q0 53 20 99t54 80t80 53.5t99 19.5t99 -19.5t80.5 -53.5t54 -80t19.5 -99q0 -52 -19.5 -98t-54 -80t-80.5 -54t-99 -20t-99 20t-80 54t-54 80t-20 98zM449 238q0 33 -12 62.5t-32 51t-47 34t-58 12.5t-58 -12.5t-47.5 -34t-32 -51t-11.5 -62.5t11.5 -62.5t32 -51
t47.5 -34t58 -12.5t58 12.5t47 34t32 51t12 62.5z" />
    <glyph glyph-name="mediumblackcircle" unicode="&#x26ab;" 
d="M47 238q0 52 20 98t54.5 80t80 54t97.5 20t98.5 -20t81 -54t54.5 -80t20 -98t-20 -98t-54.5 -80t-81 -54t-98.5 -20t-97.5 20t-80 54t-54.5 80t-20 98z" />
    <glyph glyph-name="anglebracketleft" unicode="&#x3008;" horiz-adv-x="365" 
d="M337 791l103 -44l-238 -440l79 -444l-107 -40l-117 493z" />
    <glyph glyph-name="anglebracketright" unicode="&#x3009;" horiz-adv-x="365" 
d="M52 -177l-103 44l238 440l-79 444l107 40l117 -493z" />
    <glyph glyph-name="aogonek.school" unicode="&#xe150;" horiz-adv-x="595" 
d="M489 0q-120 -50 -120 -96q0 -13 10 -22t30 -9q12 0 29.5 7.5t29.5 26.5l56 -55q-30 -34 -65.5 -47.5t-74.5 -13.5q-54 0 -85.5 24.5t-31.5 66.5q0 40 20.5 66t62.5 52l12 68q-20 -32 -57.5 -57t-93.5 -25q-40 0 -73.5 15t-57.5 43t-37 67t-13 87q0 66 20.5 120t55 92
t79.5 59t94 21q56 0 91.5 -23t51.5 -58l12 67h139zM389 248q6 34 0.5 58.5t-18.5 40.5t-31 24t-39 8q-27 0 -50 -13.5t-39.5 -37.5t-25.5 -56.5t-9 -70.5q0 -47 20.5 -75.5t62.5 -28.5q21 0 41 7.5t37 23.5t29.5 41.5t18.5 61.5z" />
    <glyph glyph-name="a.school" unicode="&#xe151;" horiz-adv-x="595" 
d="M489 0h-139l12 68q-20 -32 -57.5 -57t-93.5 -25q-40 0 -73.5 15t-57.5 43t-37 67t-13 87q0 66 20.5 120t55 92t79.5 59t94 21q56 0 91.5 -23t51.5 -58l12 67h139zM389 248q6 34 0.5 58.5t-18.5 40.5t-31 24t-39 8q-27 0 -50 -13.5t-39.5 -37.5t-25.5 -56.5t-9 -70.5
q0 -47 20.5 -75.5t62.5 -28.5q21 0 41 7.5t37 23.5t29.5 41.5t18.5 61.5z" />
    <glyph glyph-name="agrave.school" unicode="&#xe152;" horiz-adv-x="595" 
d="M192 646l74 101l193 -142l-54 -73zM489 0h-139l12 68q-20 -32 -57.5 -57t-93.5 -25q-40 0 -73.5 15t-57.5 43t-37 67t-13 87q0 66 20.5 120t55 92t79.5 59t94 21q56 0 91.5 -23t51.5 -58l12 67h139zM389 248q6 34 0.5 58.5t-18.5 40.5t-31 24t-39 8q-27 0 -50 -13.5
t-39.5 -37.5t-25.5 -56.5t-9 -70.5q0 -47 20.5 -75.5t62.5 -28.5q21 0 41 7.5t37 23.5t29.5 41.5t18.5 61.5z" />
    <glyph glyph-name="aacute.school" unicode="&#xe153;" horiz-adv-x="595" 
d="M453 639l-240 -107l-32 82l229 133zM489 0h-139l12 68q-20 -32 -57.5 -57t-93.5 -25q-40 0 -73.5 15t-57.5 43t-37 67t-13 87q0 66 20.5 120t55 92t79.5 59t94 21q56 0 91.5 -23t51.5 -58l12 67h139zM389 248q6 34 0.5 58.5t-18.5 40.5t-31 24t-39 8q-27 0 -50 -13.5
t-39.5 -37.5t-25.5 -56.5t-9 -70.5q0 -47 20.5 -75.5t62.5 -28.5q21 0 41 7.5t37 23.5t29.5 41.5t18.5 61.5z" />
    <glyph glyph-name="acircumflex.school" unicode="&#xe154;" horiz-adv-x="595" 
d="M283 718h94l101 -130l-73 -60l-81 104l-117 -104l-62 64zM489 0h-139l12 68q-20 -32 -57.5 -57t-93.5 -25q-40 0 -73.5 15t-57.5 43t-37 67t-13 87q0 66 20.5 120t55 92t79.5 59t94 21q56 0 91.5 -23t51.5 -58l12 67h139zM389 248q6 34 0.5 58.5t-18.5 40.5t-31 24t-39 8
q-27 0 -50 -13.5t-39.5 -37.5t-25.5 -56.5t-9 -70.5q0 -47 20.5 -75.5t62.5 -28.5q21 0 41 7.5t37 23.5t29.5 41.5t18.5 61.5z" />
    <glyph glyph-name="adieresis.school" unicode="&#xe155;" horiz-adv-x="595" 
d="M352 613q0 32 21.5 53t55.5 21t55.5 -21t21.5 -53t-21.5 -53t-55.5 -21t-55.5 21t-21.5 53zM136 613q0 32 21.5 53t55.5 21t55.5 -21t21.5 -53t-21.5 -53t-55.5 -21t-55.5 21t-21.5 53zM489 0h-139l12 68q-20 -32 -57.5 -57t-93.5 -25q-40 0 -73.5 15t-57.5 43t-37 67
t-13 87q0 66 20.5 120t55 92t79.5 59t94 21q56 0 91.5 -23t51.5 -58l12 67h139zM389 248q6 34 0.5 58.5t-18.5 40.5t-31 24t-39 8q-27 0 -50 -13.5t-39.5 -37.5t-25.5 -56.5t-9 -70.5q0 -47 20.5 -75.5t62.5 -28.5q21 0 41 7.5t37 23.5t29.5 41.5t18.5 61.5z" />
    <glyph glyph-name="atilde.school" unicode="&#xe156;" horiz-adv-x="595" 
d="M256 690q28 0 48 -9t36 -19.5t29.5 -19t29.5 -8.5q15 0 26.5 8t19.5 18q9 11 15 27l65 -59q-14 -25 -34 -43q-17 -16 -42.5 -29t-60.5 -13q-28 0 -47 8.5t-34 19t-29 19t-31 8.5t-28.5 -8t-19.5 -18q-9 -11 -15 -25l-64 60q14 23 33 41q17 16 42.5 29t60.5 13zM489 0
h-139l12 68q-20 -32 -57.5 -57t-93.5 -25q-40 0 -73.5 15t-57.5 43t-37 67t-13 87q0 66 20.5 120t55 92t79.5 59t94 21q56 0 91.5 -23t51.5 -58l12 67h139zM389 248q6 34 0.5 58.5t-18.5 40.5t-31 24t-39 8q-27 0 -50 -13.5t-39.5 -37.5t-25.5 -56.5t-9 -70.5
q0 -47 20.5 -75.5t62.5 -28.5q21 0 41 7.5t37 23.5t29.5 41.5t18.5 61.5z" />
    <glyph glyph-name="aring.school" unicode="&#xe157;" horiz-adv-x="595" 
d="M219 632q0 50 34 82.5t87 32.5q47 0 74 -27.5t27 -70.5q0 -24 -9 -45.5t-25.5 -37.5t-38.5 -25t-48 -9q-48 0 -74.5 27.5t-26.5 72.5zM292 637q0 -16 9.5 -27t24.5 -11q18 0 30 13.5t12 30.5t-9.5 27t-25.5 10q-17 0 -29 -12.5t-12 -30.5zM489 0h-139l12 68
q-20 -32 -57.5 -57t-93.5 -25q-40 0 -73.5 15t-57.5 43t-37 67t-13 87q0 66 20.5 120t55 92t79.5 59t94 21q56 0 91.5 -23t51.5 -58l12 67h139zM389 248q6 34 0.5 58.5t-18.5 40.5t-31 24t-39 8q-27 0 -50 -13.5t-39.5 -37.5t-25.5 -56.5t-9 -70.5q0 -47 20.5 -75.5
t62.5 -28.5q21 0 41 7.5t37 23.5t29.5 41.5t18.5 61.5z" />
    <glyph glyph-name="amacron.school" unicode="&#xe159;" horiz-adv-x="595" 
d="M188 641h289l-16 -91h-289zM489 0h-139l12 68q-20 -32 -57.5 -57t-93.5 -25q-40 0 -73.5 15t-57.5 43t-37 67t-13 87q0 66 20.5 120t55 92t79.5 59t94 21q56 0 91.5 -23t51.5 -58l12 67h139zM389 248q6 34 0.5 58.5t-18.5 40.5t-31 24t-39 8q-27 0 -50 -13.5t-39.5 -37.5
t-25.5 -56.5t-9 -70.5q0 -47 20.5 -75.5t62.5 -28.5q21 0 41 7.5t37 23.5t29.5 41.5t18.5 61.5z" />
    <glyph glyph-name="abreve.school" unicode="&#xe15a;" horiz-adv-x="595" 
d="M252 704q-1 -27 16.5 -46t46.5 -19t50.5 19t28.5 46l103 -28q-21 -57 -71 -92t-117 -35q-70 0 -114 35.5t-46 91.5zM489 0h-139l12 68q-20 -32 -57.5 -57t-93.5 -25q-40 0 -73.5 15t-57.5 43t-37 67t-13 87q0 66 20.5 120t55 92t79.5 59t94 21q56 0 91.5 -23t51.5 -58
l12 67h139zM389 248q6 34 0.5 58.5t-18.5 40.5t-31 24t-39 8q-27 0 -50 -13.5t-39.5 -37.5t-25.5 -56.5t-9 -70.5q0 -47 20.5 -75.5t62.5 -28.5q21 0 41 7.5t37 23.5t29.5 41.5t18.5 61.5z" />
    <glyph glyph-name="ordfeminine.school" unicode="&#xe182;" horiz-adv-x="474" 
d="M437 322h-109l10 52q-16 -25 -45 -44.5t-72 -19.5q-63 0 -101.5 44.5t-38.5 119.5q0 51 16 92.5t42.5 71.5t61.5 46t73 16q43 0 70.5 -17.5t39.5 -45.5l10 51h108zM359 513q8 52 -14 76.5t-54 24.5q-21 0 -39 -10.5t-30.5 -29t-19.5 -43.5t-7 -55q0 -35 16 -57.5
t48 -22.5q16 0 31.5 5.5t28.5 18t22.5 32.5t14.5 48z" />
    <glyph glyph-name="p.smcp" unicode="&#xe200;" horiz-adv-x="564" 
d="M203 186l-33 -186h-140l99 564h221q94 0 151 -43.5t57 -124.5q0 -57 -20.5 -97t-57.5 -65t-88 -36.5t-112 -11.5h-77zM411 388q0 57 -93 57h-70l-24 -141h70q60 0 88.5 18t28.5 66z" />
    <glyph glyph-name="p.smcp" unicode="&#xf770;" horiz-adv-x="564" 
d="M203 186l-33 -186h-140l99 564h221q94 0 151 -43.5t57 -124.5q0 -57 -20.5 -97t-57.5 -65t-88 -36.5t-112 -11.5h-77zM411 388q0 57 -93 57h-70l-24 -141h70q60 0 88.5 18t28.5 66z" />
    <glyph glyph-name="a.smcp" unicode="&#xe201;" horiz-adv-x="584" 
d="M527 0h-139l-20 124h-188l-64 -124h-143l298 564h156zM327 436q-1 -5 -5.5 -16t-11 -26t-14.5 -32.5t-16 -35.5q-19 -41 -43 -91h113q-7 50 -11 91q-2 18 -3.5 35.5t-3 32.5t-2 26t-0.5 16h-3z" />
    <glyph glyph-name="a.smcp" unicode="&#xf761;" horiz-adv-x="584" 
d="M527 0h-139l-20 124h-188l-64 -124h-143l298 564h156zM327 436q-1 -5 -5.5 -16t-11 -26t-14.5 -32.5t-16 -35.5q-19 -41 -43 -91h113q-7 50 -11 91q-2 18 -3.5 35.5t-3 32.5t-2 26t-0.5 16h-3z" />
    <glyph glyph-name="b.smcp" unicode="&#xe202;" horiz-adv-x="571" 
d="M129 564h253q38 0 67 -11.5t48.5 -31t29 -45t9.5 -53.5q0 -53 -30 -86.5t-75 -44.5q16 -5 32.5 -13.5t29.5 -22.5t21 -34t8 -47q0 -37 -17 -69t-45.5 -55.5t-66 -37t-77.5 -13.5h-286zM246 449l-19 -107h80q44 0 62.5 14.5t18.5 47.5q0 26 -15 35.5t-50 9.5h-77zM187 114
h90q30 0 49 5.5t29.5 14.5t14.5 21.5t4 26.5q0 12 -2.5 20.5t-10.5 14.5t-24 9t-43 3h-87z" />
    <glyph glyph-name="b.smcp" unicode="&#xf762;" horiz-adv-x="571" 
d="M129 564h253q38 0 67 -11.5t48.5 -31t29 -45t9.5 -53.5q0 -53 -30 -86.5t-75 -44.5q16 -5 32.5 -13.5t29.5 -22.5t21 -34t8 -47q0 -37 -17 -69t-45.5 -55.5t-66 -37t-77.5 -13.5h-286zM246 449l-19 -107h80q44 0 62.5 14.5t18.5 47.5q0 26 -15 35.5t-50 9.5h-77zM187 114
h90q30 0 49 5.5t29.5 14.5t14.5 21.5t4 26.5q0 12 -2.5 20.5t-10.5 14.5t-24 9t-43 3h-87z" />
    <glyph glyph-name="c.smcp" unicode="&#xe203;" horiz-adv-x="604" 
d="M464 366q-7 45 -29.5 68.5t-73.5 23.5q-36 0 -65.5 -16.5t-50.5 -45.5t-32.5 -68.5t-11.5 -86.5q0 -25 6.5 -49t20.5 -43.5t35.5 -31.5t50.5 -12q37 0 63 20t50 65l134 -48q-34 -73 -96.5 -114.5t-149.5 -41.5q-125 0 -194.5 65.5t-69.5 187.5q0 75 22 137.5t63 107
t98 69t128 24.5q100 0 164.5 -41t80.5 -123z" />
    <glyph glyph-name="c.smcp" unicode="&#xf763;" horiz-adv-x="604" 
d="M464 366q-7 45 -29.5 68.5t-73.5 23.5q-36 0 -65.5 -16.5t-50.5 -45.5t-32.5 -68.5t-11.5 -86.5q0 -25 6.5 -49t20.5 -43.5t35.5 -31.5t50.5 -12q37 0 63 20t50 65l134 -48q-34 -73 -96.5 -114.5t-149.5 -41.5q-125 0 -194.5 65.5t-69.5 187.5q0 75 22 137.5t63 107
t98 69t128 24.5q100 0 164.5 -41t80.5 -123z" />
    <glyph glyph-name="d.smcp" unicode="&#xe204;" horiz-adv-x="629" 
d="M129 564h217q56 0 101.5 -17.5t77.5 -48.5t49.5 -75t17.5 -96q0 -79 -23.5 -140t-67.5 -102.5t-106.5 -63t-141.5 -21.5h-223zM441 325q0 57 -29.5 88.5t-86.5 31.5h-75l-57 -327h78q81 0 125.5 54.5t44.5 152.5z" />
    <glyph glyph-name="d.smcp" unicode="&#xf764;" horiz-adv-x="629" 
d="M129 564h217q56 0 101.5 -17.5t77.5 -48.5t49.5 -75t17.5 -96q0 -79 -23.5 -140t-67.5 -102.5t-106.5 -63t-141.5 -21.5h-223zM441 325q0 57 -29.5 88.5t-86.5 31.5h-75l-57 -327h78q81 0 125.5 54.5t44.5 152.5z" />
    <glyph glyph-name="e.smcp" unicode="&#xe205;" horiz-adv-x="523" 
d="M30 0l99 564h406l-21 -119h-265l-17 -97h246l-20 -117h-246l-20 -113h269l-21 -118h-410z" />
    <glyph glyph-name="e.smcp" unicode="&#xf765;" horiz-adv-x="523" 
d="M30 0l99 564h406l-21 -119h-265l-17 -97h246l-20 -117h-246l-20 -113h269l-21 -118h-410z" />
    <glyph glyph-name="f.smcp" unicode="&#xe206;" horiz-adv-x="520" 
d="M30 0l99 564h408l-21 -119h-267l-17 -97h245l-20 -117h-245l-41 -231h-141z" />
    <glyph glyph-name="f.smcp" unicode="&#xf766;" horiz-adv-x="520" 
d="M30 0l99 564h408l-21 -119h-267l-17 -97h245l-20 -117h-245l-41 -231h-141z" />
    <glyph glyph-name="g.smcp" unicode="&#xe207;" horiz-adv-x="645" 
d="M329 322h266l-58 -322h-124l11 62q-9 -15 -23 -28.5t-33.5 -24t-43 -17t-50.5 -6.5q-57 0 -98.5 21t-69.5 56t-41.5 80.5t-13.5 93.5q0 70 21.5 132t61.5 108t98 73t132 27q97 0 159 -38t87 -110l-135 -49q-11 39 -37.5 59t-73.5 20q-35 0 -64.5 -14.5t-52 -43t-35 -69.5
t-12.5 -95q0 -65 27 -99t84 -34q20 0 41.5 4t39.5 14.5t31 27.5t18 43l3 18h-134z" />
    <glyph glyph-name="g.smcp" unicode="&#xf767;" horiz-adv-x="645" 
d="M329 322h266l-58 -322h-124l11 62q-9 -15 -23 -28.5t-33.5 -24t-43 -17t-50.5 -6.5q-57 0 -98.5 21t-69.5 56t-41.5 80.5t-13.5 93.5q0 70 21.5 132t61.5 108t98 73t132 27q97 0 159 -38t87 -110l-135 -49q-11 39 -37.5 59t-73.5 20q-35 0 -64.5 -14.5t-52 -43t-35 -69.5
t-12.5 -95q0 -65 27 -99t84 -34q20 0 41.5 4t39.5 14.5t31 27.5t18 43l3 18h-134z" />
    <glyph glyph-name="h.smcp" unicode="&#xe208;" horiz-adv-x="620" 
d="M129 564h142l-37 -215h192l37 215h142l-99 -564h-142l41 230h-192l-41 -230h-142z" />
    <glyph glyph-name="h.smcp" unicode="&#xf768;" horiz-adv-x="620" 
d="M129 564h142l-37 -215h192l37 215h142l-99 -564h-142l41 230h-192l-41 -230h-142z" />
    <glyph glyph-name="i.smcp" unicode="&#xe209;" horiz-adv-x="286" 
d="M129 564h142l-99 -564h-142z" />
    <glyph glyph-name="i.smcp" unicode="&#xf769;" horiz-adv-x="286" 
d="M129 564h142l-99 -564h-142z" />
    <glyph glyph-name="j.smcp" unicode="&#xe20a;" horiz-adv-x="432" 
d="M149 106q29 0 43 18t22 60l67 380h142l-67 -380q-8 -47 -21 -83.5t-36.5 -62t-60.5 -39t-94 -13.5q-38 0 -66 6t-48.5 16t-34.5 23.5t-23 27.5l108 91q14 -20 30 -32t39 -12z" />
    <glyph glyph-name="j.smcp" unicode="&#xf76a;" horiz-adv-x="432" 
d="M149 106q29 0 43 18t22 60l67 380h142l-67 -380q-8 -47 -21 -83.5t-36.5 -62t-60.5 -39t-94 -13.5q-38 0 -66 6t-48.5 16t-34.5 23.5t-23 27.5l108 91q14 -20 30 -32t39 -12z" />
    <glyph glyph-name="k.smcp" unicode="&#xe20b;" horiz-adv-x="579" 
d="M259 230l-56 -51l-31 -179h-142l99 564h142l-33 -190l197 190h172l-241 -234l156 -330h-159z" />
    <glyph glyph-name="k.smcp" unicode="&#xf76b;" horiz-adv-x="579" 
d="M259 230l-56 -51l-31 -179h-142l99 564h142l-33 -190l197 190h172l-241 -234l156 -330h-159z" />
    <glyph glyph-name="l.smcp" unicode="&#xe20c;" horiz-adv-x="477" 
d="M129 564h142l-78 -445h245l-21 -119h-387z" />
    <glyph glyph-name="l.smcp" unicode="&#xf76c;" horiz-adv-x="477" 
d="M129 564h142l-78 -445h245l-21 -119h-387z" />
    <glyph glyph-name="m.smcp" unicode="&#xe20d;" horiz-adv-x="782" 
d="M284 0q-5 32 -13 82.5t-17 105.5t-16.5 108t-10.5 89h-2l-68 -385h-127l99 564h193q14 -99 25 -183q5 -36 9.5 -71.5t8.5 -65.5l7 -52.5t4 -32.5q4 10 14.5 32.5l24.5 52.5t31 65.5t34 71.5q40 84 87 183h200l-99 -564h-127l68 385h-2q-11 -24 -27.5 -57t-35 -70.5
t-38.5 -76.5t-37.5 -73.5t-32 -63t-22.5 -44.5h-130z" />
    <glyph glyph-name="m.smcp" unicode="&#xf76d;" horiz-adv-x="782" 
d="M284 0q-5 32 -13 82.5t-17 105.5t-16.5 108t-10.5 89h-2l-68 -385h-127l99 564h193q14 -99 25 -183q5 -36 9.5 -71.5t8.5 -65.5l7 -52.5t4 -32.5q4 10 14.5 32.5l24.5 52.5t31 65.5t34 71.5q40 84 87 183h200l-99 -564h-127l68 385h-2q-11 -24 -27.5 -57t-35 -70.5
t-38.5 -76.5t-37.5 -73.5t-32 -63t-22.5 -44.5h-130z" />
    <glyph glyph-name="n.smcp" unicode="&#xe20e;" horiz-adv-x="630" 
d="M129 564h144q32 -76 61 -145q12 -29 24.5 -59.5t24 -58.5t21.5 -52.5t16 -40.5h2l63 356h130l-99 -564h-144q-31 74 -58 142q-12 29 -24.5 59t-24 58.5t-22 53.5t-17.5 43h-2l-64 -356h-130z" />
    <glyph glyph-name="n.smcp" unicode="&#xf76e;" horiz-adv-x="630" 
d="M129 564h144q32 -76 61 -145q12 -29 24.5 -59.5t24 -58.5t21.5 -52.5t16 -40.5h2l63 356h130l-99 -564h-144q-31 74 -58 142q-12 29 -24.5 59t-24 58.5t-22 53.5t-17.5 43h-2l-64 -356h-130z" />
    <glyph glyph-name="o.smcp" unicode="&#xe20f;" horiz-adv-x="658" 
d="M51 236q0 76 22.5 138.5t63 107.5t98 70t127.5 25q57 0 105 -16.5t82 -48t53 -78t19 -106.5q0 -76 -22.5 -139t-63.5 -108t-99 -70t-128 -25q-58 0 -105.5 16.5t-81 48t-52 78.5t-18.5 107zM472 327q0 24 -7 47.5t-21 42t-35 30t-50 11.5q-42 0 -72.5 -21t-49.5 -53
t-28 -71.5t-9 -75.5q0 -24 6.5 -48t20 -42.5t34.5 -30t51 -11.5q42 0 72.5 21t50 53.5t28.5 71.5t9 76z" />
    <glyph glyph-name="o.smcp" unicode="&#xf76f;" horiz-adv-x="658" 
d="M51 236q0 76 22.5 138.5t63 107.5t98 70t127.5 25q57 0 105 -16.5t82 -48t53 -78t19 -106.5q0 -76 -22.5 -139t-63.5 -108t-99 -70t-128 -25q-58 0 -105.5 16.5t-81 48t-52 78.5t-18.5 107zM472 327q0 24 -7 47.5t-21 42t-35 30t-50 11.5q-42 0 -72.5 -21t-49.5 -53
t-28 -71.5t-9 -75.5q0 -24 6.5 -48t20 -42.5t34.5 -30t51 -11.5q42 0 72.5 21t50 53.5t28.5 71.5t9 76z" />
    <glyph glyph-name="q.smcp" unicode="&#xe211;" horiz-adv-x="658" 
d="M51 236q0 76 22.5 138.5t63 107.5t98 70t127.5 25q57 0 105 -16.5t82 -48t53 -78t19 -106.5q0 -90 -30.5 -160t-84.5 -115l39 -51l-81 -65l-51 65q-24 -8 -50 -12t-55 -4q-58 0 -105.5 16.5t-81 48t-52 78.5t-18.5 107zM472 327q0 24 -7 47.5t-21 42t-35 30t-50 11.5
q-42 0 -72.5 -21t-49.5 -53t-28 -71.5t-9 -75.5q0 -24 6.5 -48t20 -42.5t34.5 -30t51 -11.5h10.5t10.5 1l-46 60l82 64l53 -69q26 34 38 79t12 87z" />
    <glyph glyph-name="q.smcp" unicode="&#xf771;" horiz-adv-x="658" 
d="M51 236q0 76 22.5 138.5t63 107.5t98 70t127.5 25q57 0 105 -16.5t82 -48t53 -78t19 -106.5q0 -90 -30.5 -160t-84.5 -115l39 -51l-81 -65l-51 65q-24 -8 -50 -12t-55 -4q-58 0 -105.5 16.5t-81 48t-52 78.5t-18.5 107zM472 327q0 24 -7 47.5t-21 42t-35 30t-50 11.5
q-42 0 -72.5 -21t-49.5 -53t-28 -71.5t-9 -75.5q0 -24 6.5 -48t20 -42.5t34.5 -30t51 -11.5h10.5t10.5 1l-46 60l82 64l53 -69q26 34 38 79t12 87z" />
    <glyph glyph-name="r.smcp" unicode="&#xe212;" horiz-adv-x="573" 
d="M547 405q0 -62 -32 -112t-95 -73l82 -220h-152l-70 200h-76l-35 -200h-139l99 564h203q110 0 162.5 -41t52.5 -118zM399 393q0 33 -20.5 44t-64.5 11h-67l-23 -134h65q110 0 110 79z" />
    <glyph glyph-name="r.smcp" unicode="&#xf772;" horiz-adv-x="573" 
d="M547 405q0 -62 -32 -112t-95 -73l82 -220h-152l-70 200h-76l-35 -200h-139l99 564h203q110 0 162.5 -41t52.5 -118zM399 393q0 33 -20.5 44t-64.5 11h-67l-23 -134h65q110 0 110 79z" />
    <glyph glyph-name="s.smcp" unicode="&#xe213;" horiz-adv-x="568" 
d="M228 410q0 -31 24 -44.5t78 -25.5q43 -10 77 -22t58 -30.5t36.5 -44t12.5 -62.5q0 -43 -18 -78.5t-51.5 -61.5t-80 -40.5t-103.5 -14.5q-59 0 -103.5 16t-74 41.5t-44 57.5t-14.5 64l144 22q-2 -16 3.5 -31.5t17.5 -28t32 -20t48 -7.5q41 0 70 14.5t29 49.5q0 13 -5 21.5
t-18 15.5t-36.5 13.5t-59.5 15.5q-94 23 -131.5 62t-37.5 97q0 90 63.5 138.5t172.5 48.5q107 0 170 -45t68 -119l-145 -26q1 35 -25 56t-77 21q-40 0 -60 -14.5t-20 -38.5z" />
    <glyph glyph-name="s.smcp" unicode="&#xf773;" horiz-adv-x="568" 
d="M228 410q0 -31 24 -44.5t78 -25.5q43 -10 77 -22t58 -30.5t36.5 -44t12.5 -62.5q0 -43 -18 -78.5t-51.5 -61.5t-80 -40.5t-103.5 -14.5q-59 0 -103.5 16t-74 41.5t-44 57.5t-14.5 64l144 22q-2 -16 3.5 -31.5t17.5 -28t32 -20t48 -7.5q41 0 70 14.5t29 49.5q0 13 -5 21.5
t-18 15.5t-36.5 13.5t-59.5 15.5q-94 23 -131.5 62t-37.5 97q0 90 63.5 138.5t172.5 48.5q107 0 170 -45t68 -119l-145 -26q1 35 -25 56t-77 21q-40 0 -60 -14.5t-20 -38.5z" />
    <glyph glyph-name="t.smcp" unicode="&#xe214;" horiz-adv-x="503" 
d="M76 564h465l-21 -120h-161l-78 -444h-142l78 444h-162z" />
    <glyph glyph-name="t.smcp" unicode="&#xf774;" horiz-adv-x="503" 
d="M76 564h465l-21 -120h-161l-78 -444h-142l78 444h-162z" />
    <glyph glyph-name="u.smcp" unicode="&#xe215;" horiz-adv-x="603" 
d="M271 -14q-66 0 -110 17.5t-68.5 48t-31.5 72t1 88.5l62 352h142l-59 -337q-11 -59 6 -90.5t68 -31.5q30 0 49.5 9.5t32 26t19 38t10.5 44.5l60 341h142l-64 -362q-18 -103 -79 -159.5t-180 -56.5z" />
    <glyph glyph-name="u.smcp" unicode="&#xf775;" horiz-adv-x="603" 
d="M271 -14q-66 0 -110 17.5t-68.5 48t-31.5 72t1 88.5l62 352h142l-59 -337q-11 -59 6 -90.5t68 -31.5q30 0 49.5 9.5t32 26t19 38t10.5 44.5l60 341h142l-64 -362q-18 -103 -79 -159.5t-180 -56.5z" />
    <glyph glyph-name="v.smcp" unicode="&#xe216;" horiz-adv-x="588" 
d="M218 564q14 -80 25 -154q5 -32 10 -65t9.5 -64.5t8.5 -60t7 -50.5h2q10 22 24 50.5t29.5 60.5t32.5 65t33 65q38 74 79 153h153l-307 -564h-147l-106 564h147z" />
    <glyph glyph-name="v.smcp" unicode="&#xf776;" horiz-adv-x="588" 
d="M218 564q14 -80 25 -154q5 -32 10 -65t9.5 -64.5t8.5 -60t7 -50.5h2q10 22 24 50.5t29.5 60.5t32.5 65t33 65q38 74 79 153h153l-307 -564h-147l-106 564h147z" />
    <glyph glyph-name="w.smcp" unicode="&#xe217;" horiz-adv-x="784" 
d="M827 564l-234 -564h-163q-3 72 -7 139q-2 28 -3.5 58t-3 58t-2.5 52.5t-2 42.5h-2q-6 -18 -15.5 -42.5t-20 -52.5t-22.5 -58t-23 -58q-26 -67 -56 -139h-163l-39 564h140q2 -87 4 -165q1 -33 1.5 -68t1 -66.5t0.5 -59v-45.5h2q6 18 17 45.5t23.5 59t26.5 66.5t28 68
q32 78 68 165h134q5 -86 9 -163q1 -33 3 -67.5t3.5 -66.5t2.5 -60t1 -47h2q7 19 17 47t22 60t25 66.5t26 67.5q30 77 63 163h136z" />
    <glyph glyph-name="w.smcp" unicode="&#xf777;" horiz-adv-x="784" 
d="M827 564l-234 -564h-163q-3 72 -7 139q-2 28 -3.5 58t-3 58t-2.5 52.5t-2 42.5h-2q-6 -18 -15.5 -42.5t-20 -52.5t-22.5 -58t-23 -58q-26 -67 -56 -139h-163l-39 564h140q2 -87 4 -165q1 -33 1.5 -68t1 -66.5t0.5 -59v-45.5h2q6 18 17 45.5t23.5 59t26.5 66.5t28 68
q32 78 68 165h134q5 -86 9 -163q1 -33 3 -67.5t3.5 -66.5t2.5 -60t1 -47h2q7 19 17 47t22 60t25 66.5t26 67.5q30 77 63 163h136z" />
    <glyph glyph-name="x.smcp" unicode="&#xe218;" horiz-adv-x="615" 
d="M396 294l158 -294h-162l-95 178l-155 -178h-166l258 297l-141 267h160l81 -154l135 154h167z" />
    <glyph glyph-name="x.smcp" unicode="&#xf778;" horiz-adv-x="615" 
d="M396 294l158 -294h-162l-95 178l-155 -178h-166l258 297l-141 267h160l81 -154l135 154h167z" />
    <glyph glyph-name="y.smcp" unicode="&#xe219;" horiz-adv-x="594" 
d="M224 230l-157 334h155l93 -201l162 201h165l-276 -334l-40 -230h-142z" />
    <glyph glyph-name="y.smcp" unicode="&#xf779;" horiz-adv-x="594" 
d="M224 230l-157 334h155l93 -201l162 201h165l-276 -334l-40 -230h-142z" />
    <glyph glyph-name="z.smcp" unicode="&#xe21a;" horiz-adv-x="538" 
d="M103 564h452l-19 -109l-338 -336h274l-21 -119h-457l19 108l340 337h-271z" />
    <glyph glyph-name="z.smcp" unicode="&#xf77a;" horiz-adv-x="538" 
d="M103 564h452l-19 -109l-338 -336h274l-21 -119h-457l19 108l340 337h-271z" />
    <glyph glyph-name="anocross.smcp" unicode="&#xe220;" horiz-adv-x="584" 
d="M328 424h-3l-209 -424h-143l298 564h156l100 -564h-139z" />
    <glyph glyph-name="aacute.smcp" unicode="&#xe221;" horiz-adv-x="584" 
d="M498 717l-240 -107l-32 82l229 133zM527 0h-139l-20 124h-188l-64 -124h-143l298 564h156zM327 436q-1 -5 -5.5 -16t-11 -26t-14.5 -32.5t-16 -35.5q-19 -41 -43 -91h113q-7 50 -11 91q-2 18 -3.5 35.5t-3 32.5t-2 26t-0.5 16h-3z" />
    <glyph glyph-name="aacute.smcp" unicode="&#xf7e1;" horiz-adv-x="584" 
d="M498 717l-240 -107l-32 82l229 133zM527 0h-139l-20 124h-188l-64 -124h-143l298 564h156zM327 436q-1 -5 -5.5 -16t-11 -26t-14.5 -32.5t-16 -35.5q-19 -41 -43 -91h113q-7 50 -11 91q-2 18 -3.5 35.5t-3 32.5t-2 26t-0.5 16h-3z" />
    <glyph glyph-name="agrave.smcp" unicode="&#xe222;" horiz-adv-x="584" 
d="M229 724l74 101l193 -142l-54 -73zM527 0h-139l-20 124h-188l-64 -124h-143l298 564h156zM327 436q-1 -5 -5.5 -16t-11 -26t-14.5 -32.5t-16 -35.5q-19 -41 -43 -91h113q-7 50 -11 91q-2 18 -3.5 35.5t-3 32.5t-2 26t-0.5 16h-3z" />
    <glyph glyph-name="agrave.smcp" unicode="&#xf7e0;" horiz-adv-x="584" 
d="M229 724l74 101l193 -142l-54 -73zM527 0h-139l-20 124h-188l-64 -124h-143l298 564h156zM327 436q-1 -5 -5.5 -16t-11 -26t-14.5 -32.5t-16 -35.5q-19 -41 -43 -91h113q-7 50 -11 91q-2 18 -3.5 35.5t-3 32.5t-2 26t-0.5 16h-3z" />
    <glyph glyph-name="acircumflex.smcp" unicode="&#xe223;" horiz-adv-x="584" 
d="M334 798h94l101 -130l-73 -60l-81 104l-117 -104l-62 64zM527 0h-139l-20 124h-188l-64 -124h-143l298 564h156zM327 436q-1 -5 -5.5 -16t-11 -26t-14.5 -32.5t-16 -35.5q-19 -41 -43 -91h113q-7 50 -11 91q-2 18 -3.5 35.5t-3 32.5t-2 26t-0.5 16h-3z" />
    <glyph glyph-name="acircumflex.smcp" unicode="&#xf7e2;" horiz-adv-x="584" 
d="M334 798h94l101 -130l-73 -60l-81 104l-117 -104l-62 64zM527 0h-139l-20 124h-188l-64 -124h-143l298 564h156zM327 436q-1 -5 -5.5 -16t-11 -26t-14.5 -32.5t-16 -35.5q-19 -41 -43 -91h113q-7 50 -11 91q-2 18 -3.5 35.5t-3 32.5t-2 26t-0.5 16h-3z" />
    <glyph glyph-name="adieresis.smcp" unicode="&#xe224;" horiz-adv-x="584" 
d="M396 696q0 32 21.5 53t55.5 21t55.5 -21t21.5 -53t-21.5 -53t-55.5 -21t-55.5 21t-21.5 53zM180 696q0 32 21.5 53t55.5 21t55.5 -21t21.5 -53t-21.5 -53t-55.5 -21t-55.5 21t-21.5 53zM527 0h-139l-20 124h-188l-64 -124h-143l298 564h156zM327 436q-1 -5 -5.5 -16
t-11 -26t-14.5 -32.5t-16 -35.5q-19 -41 -43 -91h113q-7 50 -11 91q-2 18 -3.5 35.5t-3 32.5t-2 26t-0.5 16h-3z" />
    <glyph glyph-name="adieresis.smcp" unicode="&#xf7e4;" horiz-adv-x="584" 
d="M396 696q0 32 21.5 53t55.5 21t55.5 -21t21.5 -53t-21.5 -53t-55.5 -21t-55.5 21t-21.5 53zM180 696q0 32 21.5 53t55.5 21t55.5 -21t21.5 -53t-21.5 -53t-55.5 -21t-55.5 21t-21.5 53zM527 0h-139l-20 124h-188l-64 -124h-143l298 564h156zM327 436q-1 -5 -5.5 -16
t-11 -26t-14.5 -32.5t-16 -35.5q-19 -41 -43 -91h113q-7 50 -11 91q-2 18 -3.5 35.5t-3 32.5t-2 26t-0.5 16h-3z" />
    <glyph glyph-name="atilde.smcp" unicode="&#xe225;" horiz-adv-x="584" 
d="M292 767q28 0 48 -9t36 -19.5t29.5 -19t29.5 -8.5q15 0 26.5 8t19.5 18q9 11 15 27l65 -59q-14 -25 -34 -43q-17 -16 -42.5 -29t-60.5 -13q-28 0 -47 8.5t-34 19t-29 19t-31 8.5t-28.5 -8t-19.5 -18q-9 -11 -15 -25l-64 60q14 23 33 41q17 16 42.5 29t60.5 13zM527 0
h-139l-20 124h-188l-64 -124h-143l298 564h156zM327 436q-1 -5 -5.5 -16t-11 -26t-14.5 -32.5t-16 -35.5q-19 -41 -43 -91h113q-7 50 -11 91q-2 18 -3.5 35.5t-3 32.5t-2 26t-0.5 16h-3z" />
    <glyph glyph-name="atilde.smcp" unicode="&#xf7e3;" horiz-adv-x="584" 
d="M292 767q28 0 48 -9t36 -19.5t29.5 -19t29.5 -8.5q15 0 26.5 8t19.5 18q9 11 15 27l65 -59q-14 -25 -34 -43q-17 -16 -42.5 -29t-60.5 -13q-28 0 -47 8.5t-34 19t-29 19t-31 8.5t-28.5 -8t-19.5 -18q-9 -11 -15 -25l-64 60q14 23 33 41q17 16 42.5 29t60.5 13zM527 0
h-139l-20 124h-188l-64 -124h-143l298 564h156zM327 436q-1 -5 -5.5 -16t-11 -26t-14.5 -32.5t-16 -35.5q-19 -41 -43 -91h113q-7 50 -11 91q-2 18 -3.5 35.5t-3 32.5t-2 26t-0.5 16h-3z" />
    <glyph glyph-name="aring.smcp" unicode="&#xe226;" horiz-adv-x="584" 
d="M262 714q0 50 34 82.5t87 32.5q47 0 74 -27.5t27 -70.5q0 -24 -9 -45.5t-25.5 -37.5t-38.5 -25t-48 -9q-48 0 -74.5 27.5t-26.5 72.5zM335 719q0 -16 9.5 -27t24.5 -11q18 0 30 13.5t12 30.5t-9.5 27t-25.5 10q-17 0 -29 -12.5t-12 -30.5zM527 0h-139l-20 124h-188
l-64 -124h-143l298 564h156zM327 436q-1 -5 -5.5 -16t-11 -26t-14.5 -32.5t-16 -35.5q-19 -41 -43 -91h113q-7 50 -11 91q-2 18 -3.5 35.5t-3 32.5t-2 26t-0.5 16h-3z" />
    <glyph glyph-name="aring.smcp" unicode="&#xf7e5;" horiz-adv-x="584" 
d="M262 714q0 50 34 82.5t87 32.5q47 0 74 -27.5t27 -70.5q0 -24 -9 -45.5t-25.5 -37.5t-38.5 -25t-48 -9q-48 0 -74.5 27.5t-26.5 72.5zM335 719q0 -16 9.5 -27t24.5 -11q18 0 30 13.5t12 30.5t-9.5 27t-25.5 10q-17 0 -29 -12.5t-12 -30.5zM527 0h-139l-20 124h-188
l-64 -124h-143l298 564h156zM327 436q-1 -5 -5.5 -16t-11 -26t-14.5 -32.5t-16 -35.5q-19 -41 -43 -91h113q-7 50 -11 91q-2 18 -3.5 35.5t-3 32.5t-2 26t-0.5 16h-3z" />
    <glyph glyph-name="amacron.smcp" unicode="&#xe228;" horiz-adv-x="584" 
d="M227 710h289l-16 -91h-289zM527 0h-139l-20 124h-188l-64 -124h-143l298 564h156zM327 436q-1 -5 -5.5 -16t-11 -26t-14.5 -32.5t-16 -35.5q-19 -41 -43 -91h113q-7 50 -11 91q-2 18 -3.5 35.5t-3 32.5t-2 26t-0.5 16h-3z" />
    <glyph glyph-name="amacron.smcp" unicode="&#xf641;" horiz-adv-x="584" 
d="M227 710h289l-16 -91h-289zM527 0h-139l-20 124h-188l-64 -124h-143l298 564h156zM327 436q-1 -5 -5.5 -16t-11 -26t-14.5 -32.5t-16 -35.5q-19 -41 -43 -91h113q-7 50 -11 91q-2 18 -3.5 35.5t-3 32.5t-2 26t-0.5 16h-3z" />
    <glyph glyph-name="abreve.smcp" unicode="&#xe229;" horiz-adv-x="584" 
d="M302 771q-1 -27 16.5 -46t46.5 -19t50.5 19t28.5 46l103 -28q-21 -57 -71 -92t-117 -35q-70 0 -114 35.5t-46 91.5zM527 0h-139l-20 124h-188l-64 -124h-143l298 564h156zM327 436q-1 -5 -5.5 -16t-11 -26t-14.5 -32.5t-16 -35.5q-19 -41 -43 -91h113q-7 50 -11 91
q-2 18 -3.5 35.5t-3 32.5t-2 26t-0.5 16h-3z" />
    <glyph glyph-name="abreve.smcp" unicode="&#xf640;" horiz-adv-x="584" 
d="M302 771q-1 -27 16.5 -46t46.5 -19t50.5 19t28.5 46l103 -28q-21 -57 -71 -92t-117 -35q-70 0 -114 35.5t-46 91.5zM527 0h-139l-20 124h-188l-64 -124h-143l298 564h156zM327 436q-1 -5 -5.5 -16t-11 -26t-14.5 -32.5t-16 -35.5q-19 -41 -43 -91h113q-7 50 -11 91
q-2 18 -3.5 35.5t-3 32.5t-2 26t-0.5 16h-3z" />
    <glyph glyph-name="f_f_j" unicode="&#xe22a;" horiz-adv-x="932" 
d="M746 371h-162l-65 -371h-144l65 371h-180l-65 -371h-144l65 371h-79l19 105h79l6 33q9 52 29.5 90t48.5 62.5t62 36t70 11.5q51 0 83.5 -13t53.5 -31l-70 -102q-9 11 -23.5 20.5t-36.5 9.5q-23 0 -43.5 -16.5t-29.5 -63.5l-7 -37h181l7 40q8 44 30 80.5t54 62.5
t72.5 40.5t84.5 14.5q30 0 58 -5.5t51.5 -16.5t42 -26.5t28.5 -35.5l-103 -80q-16 25 -34 36.5t-46 11.5q-37 0 -63 -26t-34 -71l-4 -25h306l-91 -518q-8 -44 -26.5 -76.5t-45 -53.5t-59.5 -31.5t-69 -10.5q-43 0 -77 12t-55 30l70 99q9 -9 24 -17t32 -8q23 0 40.5 16.5
t22.5 47.5z" />
    <glyph glyph-name="f_f_j" unicode="&#xe384;" horiz-adv-x="932" 
d="M746 371h-162l-65 -371h-144l65 371h-180l-65 -371h-144l65 371h-79l19 105h79l6 33q9 52 29.5 90t48.5 62.5t62 36t70 11.5q51 0 83.5 -13t53.5 -31l-70 -102q-9 11 -23.5 20.5t-36.5 9.5q-23 0 -43.5 -16.5t-29.5 -63.5l-7 -37h181l7 40q8 44 30 80.5t54 62.5
t72.5 40.5t84.5 14.5q30 0 58 -5.5t51.5 -16.5t42 -26.5t28.5 -35.5l-103 -80q-16 25 -34 36.5t-46 11.5q-37 0 -63 -26t-34 -71l-4 -25h306l-91 -518q-8 -44 -26.5 -76.5t-45 -53.5t-59.5 -31.5t-69 -10.5q-43 0 -77 12t-55 30l70 99q9 -9 24 -17t32 -8q23 0 40.5 16.5
t22.5 47.5z" />
    <glyph glyph-name="f_f_k" unicode="&#xe22b;" horiz-adv-x="1251" 
d="M467 520q19 101 75 147.5t134 46.5q32 0 63.5 -9.5t50.5 -28.5l-65 -102q-9 10 -19.5 16t-28.5 6q-52 0 -65 -71l-9 -49h97l-19 -105h-97l-65 -371h-144l65 371h-180l-65 -371h-144l65 371h-79l19 105h79l7 37q10 51 30 88t47.5 61t61 35.5t69.5 11.5q51 0 82.5 -13
t52.5 -30l-69 -103q-9 11 -23.5 20.5t-35.5 9.5q-23 0 -43 -16t-28 -60l-8 -41h181zM936 216l-51 -40l-31 -176h-144l123 700h144l-65 -370l183 146h175l-222 -178l156 -298h-159z" />
    <glyph glyph-name="f_f_k" unicode="&#xe385;" horiz-adv-x="1251" 
d="M467 520q19 101 75 147.5t134 46.5q32 0 63.5 -9.5t50.5 -28.5l-65 -102q-9 10 -19.5 16t-28.5 6q-52 0 -65 -71l-9 -49h97l-19 -105h-97l-65 -371h-144l65 371h-180l-65 -371h-144l65 371h-79l19 105h79l7 37q10 51 30 88t47.5 61t61 35.5t69.5 11.5q51 0 82.5 -13
t52.5 -30l-69 -103q-9 11 -23.5 20.5t-35.5 9.5q-23 0 -43 -16t-28 -60l-8 -41h181zM936 216l-51 -40l-31 -176h-144l123 700h144l-65 -370l183 146h175l-222 -178l156 -298h-159z" />
    <glyph glyph-name="aogonek.smcp" unicode="&#xe22f;" horiz-adv-x="584" 
d="M527 0h3q-121 -50 -121 -96q0 -13 10 -22t30 -9q12 0 29.5 7.5t29.5 26.5l56 -55q-30 -34 -65.5 -47.5t-74.5 -13.5q-54 0 -85.5 24.5t-31.5 66.5q0 40 19.5 66t61.5 52l-20 124h-188l-64 -124h-143l298 564h156zM327 436q-1 -5 -5.5 -16t-11 -26t-14.5 -32.5t-16 -35.5
q-19 -41 -43 -91h113q-7 50 -11 91q-2 18 -3.5 35.5t-3 32.5t-2 26t-0.5 16h-3z" />
    <glyph glyph-name="aogonek.smcp" unicode="&#xf642;" horiz-adv-x="584" 
d="M527 0h3q-121 -50 -121 -96q0 -13 10 -22t30 -9q12 0 29.5 7.5t29.5 26.5l56 -55q-30 -34 -65.5 -47.5t-74.5 -13.5q-54 0 -85.5 24.5t-31.5 66.5q0 40 19.5 66t61.5 52l-20 124h-188l-64 -124h-143l298 564h156zM327 436q-1 -5 -5.5 -16t-11 -26t-14.5 -32.5t-16 -35.5
q-19 -41 -43 -91h113q-7 50 -11 91q-2 18 -3.5 35.5t-3 32.5t-2 26t-0.5 16h-3z" />
    <glyph glyph-name="edieresis.smcp" unicode="&#xe230;" horiz-adv-x="523" 
d="M378 696q0 32 21.5 53t55.5 21t55.5 -21t21.5 -53t-21.5 -53t-55.5 -21t-55.5 21t-21.5 53zM162 696q0 32 21.5 53t55.5 21t55.5 -21t21.5 -53t-21.5 -53t-55.5 -21t-55.5 21t-21.5 53zM30 0l99 564h406l-21 -119h-265l-17 -97h246l-20 -117h-246l-20 -113h269l-21 -118
h-410z" />
    <glyph glyph-name="edieresis.smcp" unicode="&#xf7eb;" horiz-adv-x="523" 
d="M378 696q0 32 21.5 53t55.5 21t55.5 -21t21.5 -53t-21.5 -53t-55.5 -21t-55.5 21t-21.5 53zM162 696q0 32 21.5 53t55.5 21t55.5 -21t21.5 -53t-21.5 -53t-55.5 -21t-55.5 21t-21.5 53zM30 0l99 564h406l-21 -119h-265l-17 -97h246l-20 -117h-246l-20 -113h269l-21 -118
h-410z" />
    <glyph glyph-name="ae.smcp" unicode="&#xe231;" horiz-adv-x="836" 
d="M349 0l22 124h-160l-85 -124h-155l396 564h481l-21 -119h-265l-17 -97h246l-20 -117h-246l-20 -113h269l-21 -118h-404zM288 235h102l36 201h-3z" />
    <glyph glyph-name="ae.smcp" unicode="&#xf7e6;" horiz-adv-x="836" 
d="M349 0l22 124h-160l-85 -124h-155l396 564h481l-21 -119h-265l-17 -97h246l-20 -117h-246l-20 -113h269l-21 -118h-404zM288 235h102l36 201h-3z" />
    <glyph glyph-name="cacute.smcp" unicode="&#xe234;" horiz-adv-x="604" 
d="M531 717l-240 -107l-32 82l229 133zM464 366q-7 45 -29.5 68.5t-73.5 23.5q-36 0 -65.5 -16.5t-50.5 -45.5t-32.5 -68.5t-11.5 -86.5q0 -25 6.5 -49t20.5 -43.5t35.5 -31.5t50.5 -12q37 0 63 20t50 65l134 -48q-34 -73 -96.5 -114.5t-149.5 -41.5q-125 0 -194.5 65.5
t-69.5 187.5q0 75 22 137.5t63 107t98 69t128 24.5q100 0 164.5 -41t80.5 -123z" />
    <glyph glyph-name="cacute.smcp" unicode="&#xf643;" horiz-adv-x="604" 
d="M531 717l-240 -107l-32 82l229 133zM464 366q-7 45 -29.5 68.5t-73.5 23.5q-36 0 -65.5 -16.5t-50.5 -45.5t-32.5 -68.5t-11.5 -86.5q0 -25 6.5 -49t20.5 -43.5t35.5 -31.5t50.5 -12q37 0 63 20t50 65l134 -48q-34 -73 -96.5 -114.5t-149.5 -41.5q-125 0 -194.5 65.5
t-69.5 187.5q0 75 22 137.5t63 107t98 69t128 24.5q100 0 164.5 -41t80.5 -123z" />
    <glyph glyph-name="ccircumflex.smcp" unicode="&#xe235;" horiz-adv-x="604" 
d="M355 798h94l101 -130l-73 -60l-81 104l-117 -104l-62 64zM464 366q-7 45 -29.5 68.5t-73.5 23.5q-36 0 -65.5 -16.5t-50.5 -45.5t-32.5 -68.5t-11.5 -86.5q0 -25 6.5 -49t20.5 -43.5t35.5 -31.5t50.5 -12q37 0 63 20t50 65l134 -48q-34 -73 -96.5 -114.5t-149.5 -41.5
q-125 0 -194.5 65.5t-69.5 187.5q0 75 22 137.5t63 107t98 69t128 24.5q100 0 164.5 -41t80.5 -123z" />
    <glyph glyph-name="ccircumflex.smcp" unicode="&#xf628;" horiz-adv-x="604" 
d="M355 798h94l101 -130l-73 -60l-81 104l-117 -104l-62 64zM464 366q-7 45 -29.5 68.5t-73.5 23.5q-36 0 -65.5 -16.5t-50.5 -45.5t-32.5 -68.5t-11.5 -86.5q0 -25 6.5 -49t20.5 -43.5t35.5 -31.5t50.5 -12q37 0 63 20t50 65l134 -48q-34 -73 -96.5 -114.5t-149.5 -41.5
q-125 0 -194.5 65.5t-69.5 187.5q0 75 22 137.5t63 107t98 69t128 24.5q100 0 164.5 -41t80.5 -123z" />
    <glyph glyph-name="ccaron.smcp" unicode="&#xe236;" horiz-adv-x="604" 
d="M428 612h-94l-98 130l74 60l78 -104l117 104l61 -64zM464 366q-7 45 -29.5 68.5t-73.5 23.5q-36 0 -65.5 -16.5t-50.5 -45.5t-32.5 -68.5t-11.5 -86.5q0 -25 6.5 -49t20.5 -43.5t35.5 -31.5t50.5 -12q37 0 63 20t50 65l134 -48q-34 -73 -96.5 -114.5t-149.5 -41.5
q-125 0 -194.5 65.5t-69.5 187.5q0 75 22 137.5t63 107t98 69t128 24.5q100 0 164.5 -41t80.5 -123z" />
    <glyph glyph-name="ccaron.smcp" unicode="&#xf644;" horiz-adv-x="604" 
d="M428 612h-94l-98 130l74 60l78 -104l117 104l61 -64zM464 366q-7 45 -29.5 68.5t-73.5 23.5q-36 0 -65.5 -16.5t-50.5 -45.5t-32.5 -68.5t-11.5 -86.5q0 -25 6.5 -49t20.5 -43.5t35.5 -31.5t50.5 -12q37 0 63 20t50 65l134 -48q-34 -73 -96.5 -114.5t-149.5 -41.5
q-125 0 -194.5 65.5t-69.5 187.5q0 75 22 137.5t63 107t98 69t128 24.5q100 0 164.5 -41t80.5 -123z" />
    <glyph glyph-name="cdotaccent.smcp" unicode="&#xe237;" horiz-adv-x="604" 
d="M306 703q0 37 24 60.5t63 23.5t63 -23.5t24 -60.5t-24 -60.5t-63 -23.5t-63 23.5t-24 60.5zM464 366q-7 45 -29.5 68.5t-73.5 23.5q-36 0 -65.5 -16.5t-50.5 -45.5t-32.5 -68.5t-11.5 -86.5q0 -25 6.5 -49t20.5 -43.5t35.5 -31.5t50.5 -12q37 0 63 20t50 65l134 -48
q-34 -73 -96.5 -114.5t-149.5 -41.5q-125 0 -194.5 65.5t-69.5 187.5q0 75 22 137.5t63 107t98 69t128 24.5q100 0 164.5 -41t80.5 -123z" />
    <glyph glyph-name="cdotaccent.smcp" unicode="&#xf629;" horiz-adv-x="604" 
d="M306 703q0 37 24 60.5t63 23.5t63 -23.5t24 -60.5t-24 -60.5t-63 -23.5t-63 23.5t-24 60.5zM464 366q-7 45 -29.5 68.5t-73.5 23.5q-36 0 -65.5 -16.5t-50.5 -45.5t-32.5 -68.5t-11.5 -86.5q0 -25 6.5 -49t20.5 -43.5t35.5 -31.5t50.5 -12q37 0 63 20t50 65l134 -48
q-34 -73 -96.5 -114.5t-149.5 -41.5q-125 0 -194.5 65.5t-69.5 187.5q0 75 22 137.5t63 107t98 69t128 24.5q100 0 164.5 -41t80.5 -123z" />
    <glyph glyph-name="ccedilla.smcp" unicode="&#xe238;" horiz-adv-x="604" 
d="M302 -45q32 0 54.5 -20.5t22.5 -61.5q0 -27 -11 -47.5t-29 -34.5t-41.5 -21.5t-49.5 -7.5q-39 0 -61 12t-31 22l44 53q6 -9 20 -15.5t31 -6.5q21 0 33 12t12 29q0 15 -10 22t-24 7t-25 -4.5t-17 -10.5l-30 36l47 76q-89 19 -137.5 81t-48.5 164q0 75 22 137.5t63 107
t98 69t128 24.5q100 0 164.5 -41t80.5 -123l-143 -47q-7 45 -29.5 68.5t-73.5 23.5q-36 0 -65.5 -16.5t-50.5 -45.5t-32.5 -68.5t-11.5 -86.5q0 -25 6.5 -49t20.5 -43.5t35.5 -31.5t50.5 -12q37 0 63 20t50 65l134 -48q-34 -73 -96.5 -114.5t-149.5 -41.5h-17l-22 -36
q5 2 11 3.5t15 1.5z" />
    <glyph glyph-name="ccedilla.smcp" unicode="&#xf7e7;" horiz-adv-x="604" 
d="M302 -45q32 0 54.5 -20.5t22.5 -61.5q0 -27 -11 -47.5t-29 -34.5t-41.5 -21.5t-49.5 -7.5q-39 0 -61 12t-31 22l44 53q6 -9 20 -15.5t31 -6.5q21 0 33 12t12 29q0 15 -10 22t-24 7t-25 -4.5t-17 -10.5l-30 36l47 76q-89 19 -137.5 81t-48.5 164q0 75 22 137.5t63 107
t98 69t128 24.5q100 0 164.5 -41t80.5 -123l-143 -47q-7 45 -29.5 68.5t-73.5 23.5q-36 0 -65.5 -16.5t-50.5 -45.5t-32.5 -68.5t-11.5 -86.5q0 -25 6.5 -49t20.5 -43.5t35.5 -31.5t50.5 -12q37 0 63 20t50 65l134 -48q-34 -73 -96.5 -114.5t-149.5 -41.5h-17l-22 -36
q5 2 11 3.5t15 1.5z" />
    <glyph glyph-name="dcaron.smcp" unicode="&#xe239;" horiz-adv-x="629" 
d="M400 612h-94l-98 130l74 60l78 -104l117 104l61 -64zM129 564h217q56 0 101.5 -17.5t77.5 -48.5t49.5 -75t17.5 -96q0 -79 -23.5 -140t-67.5 -102.5t-106.5 -63t-141.5 -21.5h-223zM441 325q0 57 -29.5 88.5t-86.5 31.5h-75l-57 -327h78q81 0 125.5 54.5t44.5 152.5z" />
    <glyph glyph-name="dcaron.smcp" unicode="&#xf645;" horiz-adv-x="629" 
d="M400 612h-94l-98 130l74 60l78 -104l117 104l61 -64zM129 564h217q56 0 101.5 -17.5t77.5 -48.5t49.5 -75t17.5 -96q0 -79 -23.5 -140t-67.5 -102.5t-106.5 -63t-141.5 -21.5h-223zM441 325q0 57 -29.5 88.5t-86.5 31.5h-75l-57 -327h78q81 0 125.5 54.5t44.5 152.5z" />
    <glyph glyph-name="dcroat.smcp" unicode="&#xe23c;" horiz-adv-x="642" 
d="M47 340h55l40 224h217q56 0 101.5 -17.5t77.5 -48.5t49.5 -75t17.5 -96q0 -79 -23.5 -140t-67.5 -102.5t-106.5 -63t-141.5 -21.5h-223l42 240h-56zM454 325q0 57 -29.5 88.5t-86.5 31.5h-75l-18 -105h98l-18 -100h-98l-21 -122h78q81 0 125.5 54.5t44.5 152.5z" />
    <glyph glyph-name="dcroat.smcp" unicode="&#xf646;" horiz-adv-x="642" 
d="M47 340h55l40 224h217q56 0 101.5 -17.5t77.5 -48.5t49.5 -75t17.5 -96q0 -79 -23.5 -140t-67.5 -102.5t-106.5 -63t-141.5 -21.5h-223l42 240h-56zM454 325q0 57 -29.5 88.5t-86.5 31.5h-75l-18 -105h98l-18 -100h-98l-21 -122h78q81 0 125.5 54.5t44.5 152.5z" />
    <glyph glyph-name="eacute.smcp" unicode="&#xe23d;" horiz-adv-x="523" 
d="M511 717l-240 -107l-32 82l229 133zM30 0l99 564h406l-21 -119h-265l-17 -97h246l-20 -117h-246l-20 -113h269l-21 -118h-410z" />
    <glyph glyph-name="eacute.smcp" unicode="&#xf7e9;" horiz-adv-x="523" 
d="M511 717l-240 -107l-32 82l229 133zM30 0l99 564h406l-21 -119h-265l-17 -97h246l-20 -117h-246l-20 -113h269l-21 -118h-410z" />
    <glyph glyph-name="egrave.smcp" unicode="&#xe23e;" horiz-adv-x="523" 
d="M214 724l74 101l193 -142l-54 -73zM30 0l99 564h406l-21 -119h-265l-17 -97h246l-20 -117h-246l-20 -113h269l-21 -118h-410z" />
    <glyph glyph-name="egrave.smcp" unicode="&#xf7e8;" horiz-adv-x="523" 
d="M214 724l74 101l193 -142l-54 -73zM30 0l99 564h406l-21 -119h-265l-17 -97h246l-20 -117h-246l-20 -113h269l-21 -118h-410z" />
    <glyph glyph-name="ecircumflex.smcp" unicode="&#xe23f;" horiz-adv-x="523" 
d="M313 798h94l101 -130l-73 -60l-81 104l-117 -104l-62 64zM30 0l99 564h406l-21 -119h-265l-17 -97h246l-20 -117h-246l-20 -113h269l-21 -118h-410z" />
    <glyph glyph-name="ecircumflex.smcp" unicode="&#xf7ea;" horiz-adv-x="523" 
d="M313 798h94l101 -130l-73 -60l-81 104l-117 -104l-62 64zM30 0l99 564h406l-21 -119h-265l-17 -97h246l-20 -117h-246l-20 -113h269l-21 -118h-410z" />
    <glyph glyph-name="gcommaaccent.smcp" unicode="&#xe240;" horiz-adv-x="645" 
d="M329 322h266l-58 -322h-124l11 62q-9 -15 -23 -28.5t-33.5 -24t-43 -17t-50.5 -6.5q-57 0 -98.5 21t-69.5 56t-41.5 80.5t-13.5 93.5q0 70 21.5 132t61.5 108t98 73t132 27q97 0 159 -38t87 -110l-135 -49q-11 39 -37.5 59t-73.5 20q-35 0 -64.5 -14.5t-52 -43t-35 -69.5
t-12.5 -95q0 -65 27 -99t84 -34q20 0 41.5 4t39.5 14.5t31 27.5t18 43l3 18h-134zM331 -151q0 -23 -8.5 -48.5t-27.5 -46.5t-49.5 -35.5t-73.5 -15.5l-12 52q13 -1 28 2.5t28.5 10.5t22.5 16.5t11 21.5q-8 -4 -19 -4q-21 0 -40.5 15t-19.5 50q0 13 5 27.5t15 26t25 19
t35 7.5q22 0 37 -8.5t24.5 -22t14 -31.5t4.5 -36z" />
    <glyph glyph-name="gcommaaccent.smcp" unicode="&#xf64c;" horiz-adv-x="645" 
d="M329 322h266l-58 -322h-124l11 62q-9 -15 -23 -28.5t-33.5 -24t-43 -17t-50.5 -6.5q-57 0 -98.5 21t-69.5 56t-41.5 80.5t-13.5 93.5q0 70 21.5 132t61.5 108t98 73t132 27q97 0 159 -38t87 -110l-135 -49q-11 39 -37.5 59t-73.5 20q-35 0 -64.5 -14.5t-52 -43t-35 -69.5
t-12.5 -95q0 -65 27 -99t84 -34q20 0 41.5 4t39.5 14.5t31 27.5t18 43l3 18h-134zM331 -151q0 -23 -8.5 -48.5t-27.5 -46.5t-49.5 -35.5t-73.5 -15.5l-12 52q13 -1 28 2.5t28.5 10.5t22.5 16.5t11 21.5q-8 -4 -19 -4q-21 0 -40.5 15t-19.5 50q0 13 5 27.5t15 26t25 19
t35 7.5q22 0 37 -8.5t24.5 -22t14 -31.5t4.5 -36z" />
    <glyph glyph-name="ecaron.smcp" unicode="&#xe241;" horiz-adv-x="523" 
d="M385 612h-94l-98 130l74 60l78 -104l117 104l61 -64zM30 0l99 564h406l-21 -119h-265l-17 -97h246l-20 -117h-246l-20 -113h269l-21 -118h-410z" />
    <glyph glyph-name="ecaron.smcp" unicode="&#xf647;" horiz-adv-x="523" 
d="M385 612h-94l-98 130l74 60l78 -104l117 104l61 -64zM30 0l99 564h406l-21 -119h-265l-17 -97h246l-20 -117h-246l-20 -113h269l-21 -118h-410z" />
    <glyph glyph-name="emacron.smcp" unicode="&#xe242;" horiz-adv-x="523" 
d="M213 710h289l-16 -91h-289zM30 0l99 564h406l-21 -119h-265l-17 -97h246l-20 -117h-246l-20 -113h269l-21 -118h-410z" />
    <glyph glyph-name="emacron.smcp" unicode="&#xf649;" horiz-adv-x="523" 
d="M213 710h289l-16 -91h-289zM30 0l99 564h406l-21 -119h-265l-17 -97h246l-20 -117h-246l-20 -113h269l-21 -118h-410z" />
    <glyph glyph-name="ebreve.smcp" unicode="&#xe243;" horiz-adv-x="523" 
d="M283 771q-1 -27 16.5 -46t46.5 -19t50.5 19t28.5 46l103 -28q-21 -57 -71 -92t-117 -35q-70 0 -114 35.5t-46 91.5zM30 0l99 564h406l-21 -119h-265l-17 -97h246l-20 -117h-246l-20 -113h269l-21 -118h-410z" />
    <glyph glyph-name="ebreve.smcp" unicode="&#xf62a;" horiz-adv-x="523" 
d="M283 771q-1 -27 16.5 -46t46.5 -19t50.5 19t28.5 46l103 -28q-21 -57 -71 -92t-117 -35q-70 0 -114 35.5t-46 91.5zM30 0l99 564h406l-21 -119h-265l-17 -97h246l-20 -117h-246l-20 -113h269l-21 -118h-410z" />
    <glyph glyph-name="edotaccent.smcp" unicode="&#xe246;" horiz-adv-x="523" 
d="M265 703q0 37 24 60.5t63 23.5t63 -23.5t24 -60.5t-24 -60.5t-63 -23.5t-63 23.5t-24 60.5zM30 0l99 564h406l-21 -119h-265l-17 -97h246l-20 -117h-246l-20 -113h269l-21 -118h-410z" />
    <glyph glyph-name="edotaccent.smcp" unicode="&#xf648;" horiz-adv-x="523" 
d="M265 703q0 37 24 60.5t63 23.5t63 -23.5t24 -60.5t-24 -60.5t-63 -23.5t-63 23.5t-24 60.5zM30 0l99 564h406l-21 -119h-265l-17 -97h246l-20 -117h-246l-20 -113h269l-21 -118h-410z" />
    <glyph glyph-name="eogonek.smcp" unicode="&#xe249;" horiz-adv-x="523" 
d="M365 0q-121 -50 -121 -96q0 -13 10 -22t30 -9q12 0 29.5 7.5t29.5 26.5l56 -55q-30 -34 -65.5 -47.5t-74.5 -13.5q-54 0 -85.5 24.5t-31.5 66.5q0 40 20 66t62 52h-194l99 564h406l-21 -119h-265l-17 -97h246l-20 -117h-246l-20 -113h269l-21 -118h-75z" />
    <glyph glyph-name="eogonek.smcp" unicode="&#xf64a;" horiz-adv-x="523" 
d="M365 0q-121 -50 -121 -96q0 -13 10 -22t30 -9q12 0 29.5 7.5t29.5 26.5l56 -55q-30 -34 -65.5 -47.5t-74.5 -13.5q-54 0 -85.5 24.5t-31.5 66.5q0 40 20 66t62 52h-194l99 564h406l-21 -119h-265l-17 -97h246l-20 -117h-246l-20 -113h269l-21 -118h-75z" />
    <glyph glyph-name="gcircumflex.smcp" unicode="&#xe24b;" horiz-adv-x="645" 
d="M357 798h94l101 -130l-73 -60l-81 104l-117 -104l-62 64zM329 322h266l-58 -322h-124l11 62q-9 -15 -23 -28.5t-33.5 -24t-43 -17t-50.5 -6.5q-57 0 -98.5 21t-69.5 56t-41.5 80.5t-13.5 93.5q0 70 21.5 132t61.5 108t98 73t132 27q97 0 159 -38t87 -110l-135 -49
q-11 39 -37.5 59t-73.5 20q-35 0 -64.5 -14.5t-52 -43t-35 -69.5t-12.5 -95q0 -65 27 -99t84 -34q20 0 41.5 4t39.5 14.5t31 27.5t18 43l3 18h-134z" />
    <glyph glyph-name="gcircumflex.smcp" unicode="&#xf62c;" horiz-adv-x="645" 
d="M357 798h94l101 -130l-73 -60l-81 104l-117 -104l-62 64zM329 322h266l-58 -322h-124l11 62q-9 -15 -23 -28.5t-33.5 -24t-43 -17t-50.5 -6.5q-57 0 -98.5 21t-69.5 56t-41.5 80.5t-13.5 93.5q0 70 21.5 132t61.5 108t98 73t132 27q97 0 159 -38t87 -110l-135 -49
q-11 39 -37.5 59t-73.5 20q-35 0 -64.5 -14.5t-52 -43t-35 -69.5t-12.5 -95q0 -65 27 -99t84 -34q20 0 41.5 4t39.5 14.5t31 27.5t18 43l3 18h-134z" />
    <glyph glyph-name="gbreve.smcp" unicode="&#xe24e;" horiz-adv-x="645" 
d="M335 771q-1 -27 16.5 -46t46.5 -19t50.5 19t28.5 46l103 -28q-21 -57 -71 -92t-117 -35q-70 0 -114 35.5t-46 91.5zM329 322h266l-58 -322h-124l11 62q-9 -15 -23 -28.5t-33.5 -24t-43 -17t-50.5 -6.5q-57 0 -98.5 21t-69.5 56t-41.5 80.5t-13.5 93.5q0 70 21.5 132
t61.5 108t98 73t132 27q97 0 159 -38t87 -110l-135 -49q-11 39 -37.5 59t-73.5 20q-35 0 -64.5 -14.5t-52 -43t-35 -69.5t-12.5 -95q0 -65 27 -99t84 -34q20 0 41.5 4t39.5 14.5t31 27.5t18 43l3 18h-134z" />
    <glyph glyph-name="gbreve.smcp" unicode="&#xf64b;" horiz-adv-x="645" 
d="M335 771q-1 -27 16.5 -46t46.5 -19t50.5 19t28.5 46l103 -28q-21 -57 -71 -92t-117 -35q-70 0 -114 35.5t-46 91.5zM329 322h266l-58 -322h-124l11 62q-9 -15 -23 -28.5t-33.5 -24t-43 -17t-50.5 -6.5q-57 0 -98.5 21t-69.5 56t-41.5 80.5t-13.5 93.5q0 70 21.5 132
t61.5 108t98 73t132 27q97 0 159 -38t87 -110l-135 -49q-11 39 -37.5 59t-73.5 20q-35 0 -64.5 -14.5t-52 -43t-35 -69.5t-12.5 -95q0 -65 27 -99t84 -34q20 0 41.5 4t39.5 14.5t31 27.5t18 43l3 18h-134z" />
    <glyph glyph-name="gdotaccent.smcp" unicode="&#xe24f;" horiz-adv-x="645" 
d="M303 703q0 37 24 60.5t63 23.5t63 -23.5t24 -60.5t-24 -60.5t-63 -23.5t-63 23.5t-24 60.5zM329 322h266l-58 -322h-124l11 62q-9 -15 -23 -28.5t-33.5 -24t-43 -17t-50.5 -6.5q-57 0 -98.5 21t-69.5 56t-41.5 80.5t-13.5 93.5q0 70 21.5 132t61.5 108t98 73t132 27
q97 0 159 -38t87 -110l-135 -49q-11 39 -37.5 59t-73.5 20q-35 0 -64.5 -14.5t-52 -43t-35 -69.5t-12.5 -95q0 -65 27 -99t84 -34q20 0 41.5 4t39.5 14.5t31 27.5t18 43l3 18h-134z" />
    <glyph glyph-name="gdotaccent.smcp" unicode="&#xf62d;" horiz-adv-x="645" 
d="M303 703q0 37 24 60.5t63 23.5t63 -23.5t24 -60.5t-24 -60.5t-63 -23.5t-63 23.5t-24 60.5zM329 322h266l-58 -322h-124l11 62q-9 -15 -23 -28.5t-33.5 -24t-43 -17t-50.5 -6.5q-57 0 -98.5 21t-69.5 56t-41.5 80.5t-13.5 93.5q0 70 21.5 132t61.5 108t98 73t132 27
q97 0 159 -38t87 -110l-135 -49q-11 39 -37.5 59t-73.5 20q-35 0 -64.5 -14.5t-52 -43t-35 -69.5t-12.5 -95q0 -65 27 -99t84 -34q20 0 41.5 4t39.5 14.5t31 27.5t18 43l3 18h-134z" />
    <glyph glyph-name="hcircumflex.smcp" unicode="&#xe253;" horiz-adv-x="620" 
d="M351 798h94l101 -130l-73 -60l-81 104l-117 -104l-62 64zM129 564h142l-37 -215h192l37 215h142l-99 -564h-142l41 230h-192l-41 -230h-142z" />
    <glyph glyph-name="hcircumflex.smcp" unicode="&#xf62f;" horiz-adv-x="620" 
d="M351 798h94l101 -130l-73 -60l-81 104l-117 -104l-62 64zM129 564h142l-37 -215h192l37 215h142l-99 -564h-142l41 230h-192l-41 -230h-142z" />
    <glyph glyph-name="hbar.smcp" unicode="&#xe257;" horiz-adv-x="620" 
d="M101 405h-53l16 92h53l12 67h142l-12 -67h192l12 67h142l-12 -67h53l-16 -92h-53l-71 -405h-142l41 230h-192l-41 -230h-142zM426 349l9 56h-192l-9 -56h192z" />
    <glyph glyph-name="hbar.smcp" unicode="&#xf62e;" horiz-adv-x="620" 
d="M101 405h-53l16 92h53l12 67h142l-12 -67h192l12 67h142l-12 -67h53l-16 -92h-53l-71 -405h-142l41 230h-192l-41 -230h-142zM426 349l9 56h-192l-9 -56h192z" />
    <glyph glyph-name="iacute.smcp" unicode="&#xe258;" horiz-adv-x="286" 
d="M352 717l-240 -107l-32 82l229 133zM129 564h142l-99 -564h-142z" />
    <glyph glyph-name="iacute.smcp" unicode="&#xf7ed;" horiz-adv-x="286" 
d="M352 717l-240 -107l-32 82l229 133zM129 564h142l-99 -564h-142z" />
    </font>
</defs>
</svg>
