<?xml version="1.0" encoding="utf-8"?>
<!-- Generator: Adobe Illustrator 20.0.0, SVG Export Plug-In . SVG Version: 6.00 Build 0)  -->
<svg version="1.1" id="Layer_1" xmlns="http://www.w3.org/2000/svg" xmlns:xlink="http://www.w3.org/1999/xlink" x="0px" y="0px"
	 viewBox="0 0 678.5 292.3" style="enable-background:new 0 0 678.5 292.3;" xml:space="preserve">
<style type="text/css">
	.st0{fill:none;}
	.st1{fill:#FFFFFF;}
	.st2{fill:#589BB9;}
</style>
<rect class="st0" width="678.5" height="292.3"/>
<g>
	<path class="st1" d="M180,133.7c10.4,0,15.7,5.4,18.6,12.4l-9.7,3.7c-1.2-4.8-4.3-7.7-9.4-7.7c-7.5,0-10.8,7.3-10.8,15.2
		c0,7.8,3.1,15.1,10.9,15.1c5.3,0,7.7-3.1,9.3-7.2l9.9,3.8c-3.6,6.6-8.9,11.9-19,11.9c-13.5,0-22.1-9.4-22.1-23.6
		C157.6,143.2,166.2,133.7,180,133.7z"/>
	<path class="st1" d="M243.7,179.7h-10.2V173c-2.7,4.6-7,7.9-13.9,7.9c-8.5,0-15.6-5-15.6-15v-31h10.7v28.4c0,6.4,4,8.9,8.1,8.9
		c5.2,0,10.2-4.6,10.2-13.5v-23.7h10.7V179.7z"/>
	<path class="st1" d="M355,169.9c-3.5,6.7-9.7,11.1-19.1,11.1c-13.7,0-22.2-9.5-22.2-23.7c0-14.1,8.7-23.5,21.8-23.5
		c14.4,0,21.1,10.9,21.1,23.1v3h-32c0.3,6.7,3.2,13.1,11.2,13.1c5.5,0,8.1-2.8,9.9-6.7L355,169.9z M324.8,152.7h21
		c-0.3-7.1-4.4-11.2-10.4-11.2C329.1,141.5,325.4,146.2,324.8,152.7z"/>
	<path class="st1" d="M363.1,134.9h10.3v6.8c2.6-4.6,7.1-8,14.1-8c8.7,0,15.9,5,15.9,15.1v30.9h-10.8v-28.4c0-6.4-4.2-8.9-8.3-8.9
		c-5.4,0-10.4,4.6-10.4,13.5v23.7h-10.8V134.9z"/>
	<path class="st1" d="M431.6,133.7c10.4,0,15.7,5.4,18.6,12.4l-9.7,3.7c-1.2-4.8-4.3-7.7-9.4-7.7c-7.5,0-10.8,7.3-10.8,15.2
		c0,7.8,3.1,15.1,10.9,15.1c5.3,0,7.7-3.1,9.3-7.2l9.9,3.8c-3.6,6.6-8.9,11.9-19,11.9c-13.5,0-22.1-9.4-22.1-23.6
		C409.2,143.2,417.7,133.7,431.6,133.7z"/>
	<path class="st1" d="M521.1,122.6c2.8,0,5.1,1.3,6.4,2.6l3.3-8.9c-2.6-1.6-6.8-2.5-10.8-2.5c-7.7,0-16,4.2-16,16.7v4.5h-18.3
		c0,0-10,27.3-11.6,32.7H474c-1.8-5.4-11.8-32.7-11.8-32.7h-11l17.6,44.9l-7.4,18.8h10.5l21.1-55.8h11.1v36.9h10.7v-36.9h8.1l3-7.9
		h-11.1v-4.6C514.8,124.8,517.4,122.6,521.1,122.6z"/>
	<path class="st1" d="M556.2,173.9c-2.9,4.2-7.2,7-14.3,7c-9,0-15-4.9-15-12.8c0-12,13.8-15.6,29.1-15.6v-2.8c0-4.7-2.6-8-8.2-8
		c-5.7,0-8.4,3.2-8.5,7l-10.4-1.5c0.9-8.8,9.4-13.5,19.3-13.5c10.8,0,18.3,5.5,18.3,16.3v23.6c0,2.7,0.5,4.4,1,6.1h-10.4
		C556.7,178.9,556.2,176.4,556.2,173.9z M556,163.2v-3.7c-11.1,0-18.5,2.1-18.5,8c0,3.6,3.1,5.5,7.4,5.5
		C550.5,173,556,169.4,556,163.2z"/>
	<path class="st1" d="M574.7,134.9h10.8v44.8h-10.8V134.9z"/>
	<path class="st1" d="M619.2,143.8c-1.2-0.6-2.6-0.9-3.9-0.9c-5.2,0-10.9,4.5-10.9,14.2v22.6h-10.8v-44.8h10.1v7.3
		c2.5-5.7,7.1-8.5,13.2-8.5c1.8,0,3.9,0.3,5.7,1L619.2,143.8z"/>
	<path class="st1" d="M277.5,143.8c-1.2-0.6-2.6-0.9-3.9-0.9c-5.2,0-10.9,4.5-10.9,14.2v22.6h-10.8v-44.8H262v7.3
		c2.5-5.7,7.1-8.5,13.2-8.5c1.8,0,3.9,0.3,5.7,1L277.5,143.8z"/>
	<path class="st1" d="M310.6,143.8c-1.2-0.6-2.6-0.9-3.9-0.9c-5.2,0-10.9,4.5-10.9,14.2v22.6H285v-44.8h10.1v7.3
		c2.5-5.7,7.1-8.5,13.2-8.5c1.8,0,3.9,0.3,5.7,1L310.6,143.8z"/>
	<ellipse transform="matrix(0.5 -0.866 0.866 0.5 187.059 561.8408)" class="st1" cx="580.1" cy="118.9" rx="6.9" ry="6.9"/>
</g>
<g>
	<circle class="st2" cx="88.7" cy="203.6" r="32.9"/>
	<circle class="st2" cx="135.2" cy="80.5" r="24.7"/>
	<circle class="st2" cx="109.1" cy="149.7" r="16.5"/>
	<circle class="st2" cx="120.7" cy="118.9" r="8.2"/>
</g>
</svg>
